<svg width="118" height="126" viewBox="0 0 118 126" fill="none" xmlns="http://www.w3.org/2000/svg">
<g clip-path="url(#clip0_2250_458)">
<path d="M67.7542 4.30061C67.8114 3.30521 67.5605 2.48212 66.8802 1.72889C66.2346 1.01408 65.2804 0.619126 64.3237 0.592332C63.3627 0.56542 62.4884 0.930305 61.8071 1.60339C61.2229 2.18056 61.0387 2.84219 60.7766 3.59965C56.9206 3.57873 53.2101 4.21053 50.3642 7.01481C47.4633 9.87325 46.6786 13.7384 46.2601 17.6349C43.0946 17.1092 37.2194 16.1477 34.1839 16.4403C33.1044 16.5442 31.9609 16.819 31.0683 17.463C30.2736 18.0359 29.83 18.8267 29.6905 19.793C29.5899 20.4902 29.7383 21.1508 30.1696 21.713C31.4071 23.3259 34.4696 24.1891 36.3958 24.545C33.5831 25.4196 31.2571 27.7666 29.9143 30.3374C29.0404 32.0101 27.607 36.3186 28.296 38.1485C28.3299 38.2388 28.3637 38.2831 28.416 38.3691C27.2594 38.5982 25.2443 39.0004 24.4378 39.9186C24.4186 39.8953 24.3989 39.8727 24.3804 39.8488C24.068 39.4462 23.9646 38.9933 23.7863 38.5251C23.2255 37.0515 22.3154 36.2352 20.747 35.9933C18.8082 35.6944 16.7126 35.906 14.7514 35.8539C12.5213 35.7946 9.9424 35.3717 7.74485 35.7096C7.46968 35.7536 7.19814 35.8138 6.9302 35.8902C6.66213 35.9664 6.39959 36.0582 6.14257 36.1656C5.88542 36.2732 5.63557 36.3954 5.39302 36.5324C5.15034 36.6694 4.91666 36.8203 4.69199 36.985C3.8436 37.6051 3.26234 38.444 3.10944 39.4945C3.03664 39.9957 3.06742 40.4925 3.14871 40.9907C3.3831 42.4284 5.4161 51.0349 5.8689 51.6512C5.88351 51.6713 5.89969 51.6903 5.91508 51.7096C3.917 52.3135 2.34391 53.6292 1.36963 55.4758C0.577271 56.9779 0.254089 58.8066 0.774574 60.4527C0.905777 60.8679 1.12597 61.2532 1.32584 61.6382C0.593452 63.9967 1.88933 66.6769 2.96699 68.7362C3.71397 70.1635 4.98697 71.4267 6.42313 72.1625C6.22385 72.8435 6.47541 73.7721 6.80925 74.3799C7.46409 75.5722 8.83041 76.4959 10.122 76.8519C10.4522 76.9428 10.7829 77.0006 11.1229 77.0391C11.0877 78.0075 12.5125 79.5682 13.1732 80.2792C15.059 82.308 17.6506 83.7518 20.4619 83.8433C21.6386 83.8817 22.6453 83.6512 23.7738 83.388C24.3883 85.1905 27.4557 87.4123 29.1264 88.2352C32.5315 89.9125 36.2846 90.1351 39.8626 88.8902C40.4401 88.6893 41.0024 88.3932 41.5851 88.2202C41.6608 89.0939 43.272 90.553 43.9551 91.1181C44.124 91.2579 44.3041 91.3661 44.5032 91.458C42.363 93.4259 41.0804 102.82 40.9569 105.771C40.9127 106.827 40.7763 108.024 40.9728 109.059C40.0564 109.355 39.1439 109.75 38.6733 110.65C38.5139 110.955 38.3655 111.475 38.3825 111.819C35.8136 111.144 33.08 110.76 30.6492 112.162C29.2036 112.996 27.9497 114.62 27.5366 116.255C27.452 116.589 27.3866 116.876 27.4847 117.214C24.5047 117.612 21.4735 117.693 18.4814 118.088C16.9172 118.294 10.4015 119.166 9.60008 120.442C9.49453 120.61 9.44619 120.78 9.51287 120.966C9.66401 121.389 10.1827 121.647 10.572 121.821C21.5927 126.727 90.9551 126.413 101.993 121.969C102.535 121.751 103.172 121.437 103.408 120.87C103.348 120.629 103.338 120.544 103.164 120.355C101.37 118.407 88.2535 117.3 85.1744 117.194C84.7802 116.338 84.4019 115.47 83.9513 114.643C84.5653 113.884 85.0254 113.096 84.9193 112.082C84.8417 111.342 84.4254 110.728 83.8475 110.276C82.627 109.322 81.0798 109.181 79.5878 109.203C77.7785 105.229 77.0734 101.653 78.649 97.4639C79.4084 95.4446 80.5336 93.6491 81.7528 91.8799C85.6781 93.599 90.628 94.2204 94.7035 92.6426C98.002 91.3655 100.327 88.6575 101.717 85.4697C101.775 85.336 101.83 85.2009 101.882 85.0645C105.121 85.6954 108.294 85.1297 111.05 83.2762C114.254 81.1211 116.38 77.3555 117.097 73.61C117.768 70.1025 117.168 66.3417 115.124 63.3742C113.526 61.0531 111.375 59.6412 108.77 58.6688C109.254 55.1753 108.574 51.7226 106.426 48.8736C104.071 45.7514 100.936 44.2064 97.1743 43.4367C98.3297 37.957 97.0987 32.4484 94.0498 27.7691C93.9631 27.6347 93.8747 27.5013 93.7846 27.3691C93.6947 27.2369 93.6031 27.1058 93.5098 26.9758C93.4164 26.8458 93.3215 26.717 93.2251 26.5893C93.1286 26.4617 93.0305 26.3353 92.9309 26.21C92.8312 26.0849 92.73 25.961 92.6273 25.8383C92.5245 25.7156 92.4203 25.5942 92.3145 25.4742C92.2088 25.3541 92.1016 25.2353 91.9929 25.1179C91.8843 25.0005 91.7741 24.8845 91.6625 24.7697C91.5509 24.655 91.4379 24.5417 91.3235 24.4298C91.2091 24.318 91.0933 24.2076 90.9762 24.0986C90.8591 23.9896 90.7405 23.8821 90.6207 23.776C90.5009 23.67 90.3798 23.5654 90.2575 23.4624C90.135 23.3593 90.0113 23.2578 89.8864 23.1577C89.7614 23.0577 89.6352 22.9593 89.5077 22.8626C89.3804 22.7657 89.2518 22.6704 89.122 22.5767C88.9923 22.4831 88.8614 22.3911 88.7294 22.3007C88.5973 22.2103 88.4641 22.1215 88.3298 22.0345C88.1955 21.9474 88.0603 21.8619 87.924 21.7782C87.7876 21.6945 87.6501 21.6125 87.5116 21.5322C87.3733 21.4518 87.2339 21.3733 87.0935 21.2965C86.9531 21.2197 86.8117 21.1445 86.6695 21.0712C86.5272 20.9979 86.384 20.9263 86.24 20.8565C86.0961 20.7867 85.9513 20.7187 85.8056 20.6526C85.6598 20.5864 85.5133 20.522 85.366 20.4594C85.2187 20.3968 85.0705 20.3361 84.9216 20.2772C84.7729 20.2185 84.6234 20.1615 84.4732 20.1063C84.3228 20.0511 84.1719 19.9978 84.0204 19.9464C83.8688 19.895 83.7167 19.8455 83.5638 19.7979C83.411 19.7503 83.2576 19.7046 83.1037 19.6607C82.9497 19.6169 82.7952 19.5751 82.6402 19.5351C82.4853 19.4952 82.3298 19.4571 82.1738 19.421C82.018 19.3848 81.8616 19.3506 81.7048 19.3184C81.0352 19.1786 80.3695 19.0667 79.687 19.0124C80.0968 15.6911 79.4489 12.5655 77.3591 9.88803C74.9435 6.7928 71.4704 5.24588 67.7542 4.30061Z" fill="#141414"/>
<path d="M62.3342 116.144L52.0204 116.079C52.2426 117.114 52.7065 118.635 52.0392 119.588C51.3001 120.645 49.2673 120.903 48.0626 121.058C44.4973 121.517 30.6106 122.259 28.0493 120.19C27.6099 119.835 27.3431 119.257 27.2989 118.7C27.2583 118.186 27.2814 117.692 27.4846 117.214C24.5045 117.612 21.4734 117.693 18.4813 118.088C16.9171 118.294 10.4014 119.166 9.59996 120.442C9.4944 120.61 9.44606 120.78 9.51275 120.966C9.66388 121.389 10.1826 121.647 10.5719 121.821C21.5926 126.727 90.955 126.413 101.993 121.969C102.535 121.751 103.172 121.437 103.408 120.87C103.348 120.628 103.338 120.544 103.163 120.355C101.37 118.407 88.2534 117.3 85.1743 117.194C85.3019 117.501 85.428 117.813 85.5187 118.133C85.7857 119.073 85.9001 120.26 85.3925 121.143C84.9918 121.841 84.2811 122.099 83.5357 122.284C79.8073 123.214 69.1972 123.43 65.4672 122.914C64.1776 122.736 62.9802 122.451 61.8571 121.767C61.7996 121.626 61.7469 121.482 61.6989 121.337C61.0734 119.438 61.4665 117.871 62.3342 116.144Z" fill="#141414"/>
<path d="M73.4839 89.945C72.5544 89.6686 71.6701 89.365 70.8519 88.8265C67.5126 92.7916 62.8675 95.267 57.6721 95.7019C57.1587 95.7439 56.6444 95.7636 56.1292 95.7611C55.6141 95.7587 55.1001 95.7341 54.5871 95.6873C54.0741 95.6405 53.564 95.5718 53.0568 95.4811C52.5498 95.3904 52.0476 95.2781 51.5502 95.1442C49.3513 99.4679 49.0721 104.237 49.1388 109.011C50.354 109.252 51.5601 109.581 52.2803 110.69C52.6443 111.251 52.7283 111.927 52.5742 112.573C52.4111 113.255 51.9782 113.829 51.5139 114.341L52.0204 116.079L62.3342 116.144C63.7804 114.234 65.6484 113.22 68.0169 112.894C68.485 112.83 68.9623 112.809 69.4343 112.787C69.5655 111.937 69.7356 111.242 70.4553 110.701C70.7106 110.509 70.9787 110.333 71.2467 110.16C69.0959 105.017 68.8268 99.9831 70.9545 94.7814C71.6439 93.0961 72.5333 91.4957 73.4839 89.945Z" fill="#CFACE4"/>
<path d="M95.4904 43.3301C95.511 43.1516 95.5298 42.9729 95.5468 42.794C96.0827 37.164 94.8192 31.5245 91.145 27.1122C86.3279 21.3269 77.9122 19.0739 71.0074 22.2819C69.9396 22.778 67.5834 24.918 66.6083 24.8287L66.4978 24.6063C66.6553 23.6479 67.6073 22.9107 68.2643 22.2595C67.1793 22.156 66.1005 22.0615 65.0108 22.0272C62.1355 21.5637 58.7028 22.0394 55.7814 22.1836C53.1062 22.1891 50.4462 22.072 47.7741 22.0286C46.6 23.1337 45.6448 24.2261 45.0198 25.7386C44.7266 26.4667 44.5097 27.1743 43.8955 27.7031C42.8242 27.4489 43.4885 26.83 42.835 26.3573C41.7268 25.5554 38.9226 25.793 37.6294 26.1078C36.9953 26.2624 35.9056 26.5974 35.5582 27.1747C34.0332 27.6021 32.671 29.387 31.9256 30.711C31.8036 30.9307 31.6876 31.1537 31.5778 31.3799C31.4681 31.6061 31.3647 31.8352 31.2676 32.067C31.1706 32.2989 31.0799 32.5333 30.9958 32.7701C30.9117 33.0071 30.8342 33.2461 30.7633 33.4872C30.6924 33.7284 30.6282 33.9713 30.5708 34.2161C30.5133 34.4608 30.4626 34.707 30.4188 34.9545C30.375 35.202 30.3381 35.4505 30.308 35.7001C30.2778 35.9497 30.2547 36.1999 30.2385 36.4507C30.1868 37.3372 30.3527 38.7839 29.998 39.5783C29.8362 39.9401 29.2331 40.1658 28.8773 40.2681C27.7908 40.5808 25.6033 40.8529 24.9023 41.8507C24.8843 41.876 24.8731 41.9054 24.8585 41.9328C24.7882 42.6335 25.1527 44.5118 25.5571 45.0785C25.593 45.1287 25.6599 45.1853 25.7019 45.2244C25.5135 45.7512 25.903 47.1972 26.1459 47.7027C26.1984 47.8117 26.255 47.8807 26.3327 47.9726C27.5165 47.8726 28.4859 47.9598 29.6257 48.3127C32.6718 49.2555 40.2968 53.7305 42.7393 55.7995C45.4092 58.0611 47.2945 61.2579 47.7956 64.7198C49.0205 65.0897 50.1248 65.656 50.7632 66.8202C51.5088 68.1796 51.3226 69.6966 50.914 71.1291C54.4871 73.9345 58.8303 76.8352 63.6093 76.247C68.4129 75.6558 72.9816 71.8273 76.1039 68.373C77.2005 67.1599 78.1971 65.6039 79.576 64.7076C81.0794 63.7303 82.8778 63.6713 84.3193 64.7871C85.2171 65.4819 85.8111 66.3208 85.9423 67.4643C86.1801 69.5359 84.9842 71.177 83.7479 72.6968C80.3796 76.8369 75.7805 80.5852 70.8383 82.6429C70.8788 82.706 70.92 82.7686 70.9618 82.8306C71.4535 83.5582 72.2932 84.5241 73.2187 84.6581C73.5384 84.7045 73.8329 84.6167 74.089 84.4235C74.577 84.055 74.5833 83.3326 74.6663 82.7675C75.3977 83.2419 76.0676 83.8111 76.8025 84.2873C79.3963 85.9675 82.281 86.9799 85.3698 87.2041C89.6422 87.5142 94.2091 86.156 96.8486 82.5962C97.7591 81.3683 98.3552 79.8535 99.5232 78.8423C102.526 78.9387 105.165 79.1299 108.012 77.9623C111.211 76.78 113.488 73.9712 115.348 71.2608C115.56 69.8017 115.191 67.9669 114.667 66.595C114.606 66.4343 114.541 66.2752 114.472 66.1177C114.402 65.9602 114.329 65.8046 114.252 65.6508C114.175 65.4972 114.094 65.3456 114.009 65.196C113.924 65.0465 113.836 64.8993 113.743 64.7543C113.651 64.6094 113.554 64.4669 113.455 64.3269C113.355 64.1868 113.251 64.0494 113.145 63.9146C113.038 63.7799 112.927 63.6481 112.814 63.5191C112.7 63.39 112.583 63.264 112.463 63.141C112.343 63.0179 112.219 62.8981 112.093 62.7813C111.967 62.6646 111.837 62.5513 111.705 62.4412C111.573 62.3312 111.438 62.2246 111.3 62.1215C111.163 62.0184 111.023 61.9189 110.88 61.8229C110.737 61.7271 110.592 61.635 110.444 61.5465C110.297 61.4581 110.147 61.3735 109.995 61.2928C109.843 61.2121 109.689 61.1353 109.534 61.0623C109.378 60.9895 109.22 60.9207 109.061 60.8561C108.092 60.4655 107.046 60.2439 106.099 59.7999C105.71 59.6171 105.561 59.4659 105.416 59.0692C105.694 58.3383 106.286 58.5487 106.828 58.1786C107.004 57.8793 107.057 57.6228 107.065 57.281C107.134 54.2881 106.061 51.0783 103.957 48.9282C102.12 47.0513 99.5966 45.6731 96.9646 45.4087C96.1565 45.3277 95.3379 45.404 94.5273 45.3892C93.7932 45.3758 93.2867 45.3762 92.7621 44.8336C92.6834 44.459 92.6654 44.4156 92.8183 44.0692C93.5773 43.4698 94.5662 43.4314 95.4904 43.3301Z" fill="#6EC9EE"/>
<path d="M95.4904 43.3301C95.511 43.1516 95.5298 42.9729 95.5468 42.794C96.0827 37.164 94.8192 31.5245 91.145 27.1122C86.3279 21.3269 77.9122 19.0739 71.0074 22.2819C69.9396 22.778 67.5834 24.918 66.6083 24.8287L66.4978 24.6063C66.6553 23.6479 67.6073 22.9107 68.2643 22.2595C67.1793 22.156 66.1005 22.0615 65.0108 22.0272C64.1336 22.069 63.269 22.0333 62.393 21.9929C62.9914 22.5513 63.5235 23.0751 63.9298 23.7979C64.4347 24.6962 64.9869 27.5402 66.15 27.5292C66.9175 27.5219 67.7924 26.6733 68.4521 26.3076C71.3029 24.7273 75.2636 24.929 78.2882 25.8488C78.885 26.2234 79.3984 26.499 80.1042 26.5982C80.8267 26.9225 81.5259 27.2701 82.2248 27.6426C83.86 29.0032 85.8563 30.6021 86.7144 32.6193C87.1354 33.6707 87.764 34.8468 88.0225 35.9381C87.8686 36.9931 87.9294 37.7573 88.5696 38.6441C88.67 40.6682 88.6598 42.4598 88.0829 44.4144C87.7759 45.4545 87.3272 46.5118 87.2293 47.6002C87.1956 47.9752 87.2311 48.0262 87.5121 48.2786C88.9901 49.6057 95.1611 46.4294 99.44 52.0469C100.623 53.5994 101.268 55.4125 101.452 57.347C101.544 58.3131 100.88 60.5337 101.632 61.1828C102.327 61.7835 103.611 62.0325 104.473 62.3709C107.739 63.6526 109.835 66.6948 110.208 70.1317C110.503 72.8573 109.667 75.4523 108.047 77.6333C107.921 77.803 107.934 77.761 108.012 77.9623C111.211 76.78 113.488 73.9712 115.348 71.2608C115.56 69.8017 115.191 67.9669 114.667 66.595C114.606 66.4343 114.541 66.2752 114.472 66.1177C114.402 65.9602 114.329 65.8046 114.252 65.6508C114.175 65.4972 114.094 65.3456 114.009 65.196C113.924 65.0465 113.836 64.8993 113.743 64.7543C113.651 64.6094 113.554 64.4669 113.455 64.3269C113.355 64.1868 113.251 64.0494 113.145 63.9146C113.038 63.7799 112.927 63.6481 112.814 63.5191C112.7 63.39 112.583 63.264 112.463 63.141C112.343 63.0179 112.219 62.8981 112.093 62.7813C111.967 62.6646 111.837 62.5513 111.705 62.4412C111.573 62.3312 111.438 62.2246 111.3 62.1215C111.163 62.0184 111.023 61.9189 110.88 61.8229C110.737 61.7271 110.592 61.635 110.444 61.5465C110.297 61.4581 110.147 61.3735 109.995 61.2928C109.843 61.2121 109.689 61.1353 109.534 61.0623C109.378 60.9895 109.22 60.9207 109.061 60.8561C108.092 60.4655 107.046 60.2439 106.099 59.7999C105.71 59.6171 105.561 59.4659 105.416 59.0692C105.694 58.3383 106.286 58.5487 106.828 58.1786C107.004 57.8793 107.057 57.6228 107.065 57.281C107.134 54.2881 106.061 51.0783 103.957 48.9282C102.12 47.0513 99.5966 45.6731 96.9646 45.4087C96.1565 45.3277 95.3379 45.404 94.5273 45.3892C93.7932 45.3758 93.2867 45.3762 92.7621 44.8336C92.6834 44.459 92.6654 44.4156 92.8183 44.0692C93.5773 43.4698 94.5662 43.4314 95.4904 43.3301Z" fill="#ABE2F4"/>
<path d="M86.7145 32.6193C87.032 32.8979 87.4 33.2532 87.8165 33.3675C88.1631 33.4628 88.5496 33.3447 88.8351 33.14C89.0656 32.9748 89.182 32.7134 89.2177 32.4381C89.3781 31.2074 88.1894 29.628 87.4473 28.7013C86.5689 27.6045 85.0235 25.9415 83.5674 25.8137C83.2448 25.7853 82.9382 25.8579 82.6969 26.083C82.2478 26.5022 82.2441 27.0755 82.2249 27.6426C83.8602 29.0032 85.8565 30.6022 86.7145 32.6193Z" fill="#FDFEFE"/>
<path d="M88.5696 38.6442C88.9281 38.7053 89.3584 38.7871 89.6903 38.599C90.0498 38.395 90.2611 38.0405 90.3386 37.6418C90.445 37.0943 90.3151 36.4624 89.9894 36.0081C89.7812 35.7177 89.4906 35.5006 89.1294 35.4569C88.6692 35.4013 88.3591 35.6736 88.0225 35.9381C87.8686 36.9932 87.9294 37.7574 88.5696 38.6442Z" fill="#FDFEFE"/>
<path d="M80.1044 26.5982L80.2113 26.5225C80.572 26.2642 80.8968 26.0083 80.9508 25.5335C80.9911 25.1808 80.8595 24.8531 80.629 24.5899C80.3463 24.2673 79.9339 24.0542 79.5034 24.0308C79.1483 24.0114 78.8365 24.1272 78.5917 24.3874C78.202 24.8013 78.2713 25.3228 78.2884 25.8488C78.8853 26.2234 79.3986 26.499 80.1044 26.5982Z" fill="#FDFEFE"/>
<path d="M35.5583 27.1747C34.0333 27.6021 32.6711 29.387 31.9257 30.711C31.8037 30.9307 31.6877 31.1537 31.5779 31.3799C31.4682 31.6061 31.3648 31.8352 31.2677 32.067C31.1707 32.2989 31.08 32.5332 30.9958 32.7701C30.9118 33.0071 30.8343 33.2461 30.7634 33.4872C30.6925 33.7284 30.6283 33.9713 30.5709 34.2161C30.5134 34.4608 30.4627 34.707 30.4189 34.9545C30.3751 35.202 30.3382 35.4505 30.308 35.7001C30.2779 35.9497 30.2548 36.1999 30.2386 36.4507C30.1869 37.3371 30.3528 38.7839 29.9981 39.5783C29.8363 39.9401 29.2331 40.1658 28.8774 40.2681C27.7909 40.5808 25.6034 40.8529 24.9024 41.8507C24.8844 41.876 24.8732 41.9054 24.8586 41.9328C24.7883 42.6335 25.1527 44.5118 25.5572 45.0785C25.5931 45.1287 25.66 45.1853 25.702 45.2244C26.3145 44.7315 26.8221 44.0796 27.4791 43.6471C28.7129 42.835 30.3144 42.8192 31.6233 42.1492C31.8995 42.0081 32.0283 41.8346 32.1098 41.5384C32.3452 40.6834 32.1613 39.4253 32.1729 38.5146C32.1835 37.8913 32.233 37.2711 32.3215 36.654C32.41 36.0369 32.5369 35.4277 32.7021 34.8265C33.6951 31.2447 36.6339 28.5288 40.4194 28.2354C41.2023 28.1749 42.6556 28.4888 43.3398 28.1031L43.3004 27.8592C41.3019 27.9365 37.4561 27.859 35.5583 27.1747Z" fill="#ABE2F4"/>
<path d="M55.7817 22.1835C53.1065 22.1891 50.4465 22.0719 47.7744 22.0286C46.6003 23.1337 45.6452 24.2261 45.0201 25.7385C48.1688 23.8204 52.2429 23.1027 55.7817 22.1835Z" fill="#459EC7"/>
<path d="M59.4993 35.0797C59.0873 35.0529 58.6747 35.0495 58.2641 35.0988C57.2575 35.2201 56.3574 35.8429 55.7456 36.6302C54.0324 38.8339 53.9766 42.4378 54.3232 45.0894C54.7573 48.4092 55.8458 51.0608 58.5581 53.154C58.5919 53.4014 58.6192 53.6495 58.6398 53.8983C59.0174 53.9052 60.1225 52.9316 60.5183 52.6633C62.0139 51.8796 63.4741 51.461 65.147 51.2514C65.5503 51.201 65.9753 51.2118 66.3145 50.9697L66.2572 50.754C65.5148 50.3017 64.373 50.3262 63.5175 50.2968C63.7801 49.6935 64.0465 49.0874 64.2116 48.4488C65.0734 45.1164 64.6914 40.6373 62.8909 37.6531C62.0727 36.2972 61.0309 35.4675 59.4993 35.0797Z" fill="#141414"/>
<path d="M59.0021 36.4443C58.2227 36.4844 57.6257 36.6565 57.0728 37.2352C55.467 38.9167 55.5915 42.0516 55.6177 44.201C55.9648 44.0098 56.3312 43.8377 56.7254 43.7712C57.4187 43.6547 58.1854 43.8814 58.7525 44.2811C60.2798 45.3568 60.7961 47.2827 61.098 49.0214L61.1169 50.7103L61.2854 50.7273C62.3546 49.8205 62.7275 48.5648 63.0197 47.2446C63.6089 44.582 63.0878 40.5467 61.5695 38.244C60.9005 37.229 60.1888 36.691 59.0021 36.4443Z" fill="#FDFEFE"/>
<path d="M42.85 35.1207C41.8633 35.0674 40.9815 35.2934 40.2024 35.9249C38.8919 36.987 38.431 38.7731 38.2544 40.3803C37.9149 43.4708 38.2806 48.1258 40.2981 50.6431C39.5661 50.6408 38.7844 50.5856 38.1287 50.9616C38.5012 51.4625 41.5574 52.138 42.3228 52.3931C42.3421 52.4158 42.3595 52.4405 42.381 52.4612C42.7038 52.7739 43.6723 53.2469 44.1074 53.2634L44.2471 53.0976C44.1733 52.8788 44.1076 52.7161 44.151 52.4809C44.3093 52.4056 44.4647 52.3245 44.617 52.2376C46.1538 51.3596 47.0044 50.0002 47.4694 48.3178C48.3436 45.1552 47.835 40.5071 46.1629 37.6664C45.3612 36.3042 44.3775 35.5067 42.85 35.1207Z" fill="#141414"/>
<path d="M43.0095 36.6092C42.7047 36.5611 42.4052 36.5441 42.0986 36.5913C41.5031 36.6824 41.0008 37.071 40.651 37.5461C39.4938 39.1185 39.4802 42.0171 39.7471 43.8864C39.9332 43.6962 40.3179 43.5317 40.5738 43.4619C41.1555 43.3032 41.688 43.4201 42.1949 43.7279C43.7518 44.6731 44.4589 46.4962 44.8677 48.1745C44.9697 48.9193 44.9192 49.6865 44.9042 50.4365C45.0685 50.1803 45.2224 49.918 45.3661 49.6496C46.7989 46.9371 46.6186 43.1666 45.7404 40.306C45.254 38.7216 44.5059 37.3994 43.0095 36.6092Z" fill="#FDFEFE"/>
<path d="M49.924 48.6362C49.7829 48.6997 49.6499 48.8001 49.5193 48.8835C49.1971 49.5201 49.2101 50.3072 49.1549 51.0081C48.4365 51.1029 47.8197 51.1835 47.2712 51.694C46.7957 52.1362 46.5138 52.7451 46.5124 53.3965C46.5108 54.1023 46.8169 54.7717 47.3168 55.2648C48.0823 56.0197 48.9779 56.1871 50.0141 56.1755C50.521 56.0045 50.96 55.8277 51.3735 55.4828L51.366 55.2815C50.7844 54.905 49.7991 54.8979 49.1204 54.7039C48.4929 54.5246 48.1994 54.1447 47.8998 53.5936C47.9277 52.5138 49.6732 52.3622 50.1536 51.3101C50.5105 50.529 50.2203 49.401 49.924 48.6362Z" fill="#141414"/>
<path d="M57.0673 58.0436C56.9324 58.0828 56.8322 58.1491 56.7102 58.2191C56.6763 58.3429 56.6353 58.4694 56.6116 58.5954C56.551 58.918 56.5167 59.1191 56.3002 59.379C54.2367 61.8588 52.2883 60.9058 49.6166 61.1522C49.4653 61.3586 49.5182 61.4131 49.5547 61.6587C49.866 62.0899 50.2632 62.2737 50.7245 62.512L50.8261 62.5369C53.7345 63.2301 55.2942 61.7325 57.5795 60.3454C57.7522 60.4549 57.9067 60.5416 58.0961 60.6177C58.2721 60.3446 58.3167 60.198 58.2938 59.8655C58.2431 59.1288 57.6034 58.4738 57.0673 58.0436Z" fill="#141414"/>
<path d="M59.6969 28.4474C58.6808 28.5172 57.6578 28.7252 56.9195 29.4783C56.8021 29.7956 56.795 29.8303 56.88 30.1564C57.7077 30.8784 59.239 29.3171 61.3286 30.1605C62.0069 30.5596 62.7941 31.7303 63.5447 31.7824C63.591 31.2504 63.1201 30.528 62.8164 30.113C62.0469 29.0604 60.9393 28.6459 59.6969 28.4474Z" fill="#141414"/>
<path d="M43.2439 28.8825C42.2767 28.7784 41.4443 28.8324 40.5496 29.2537C39.6731 29.6664 38.922 30.3694 38.6012 31.3002C38.4844 31.6392 38.3828 32.0327 38.5438 32.3539C38.9873 32.2596 39.3792 31.5219 39.8247 31.2385C39.8505 31.222 39.8771 31.2068 39.9034 31.191C39.9385 31.0889 39.965 31.0063 40.0383 30.9241C41.3202 29.4883 42.9105 30.8062 44.3723 30.6356C44.6787 30.5999 44.6937 30.5794 44.8865 30.3399C44.8961 30.1778 44.8934 30.026 44.8298 29.8732C44.572 29.2519 43.8187 29.0899 43.2439 28.8825Z" fill="#141414"/>
<path d="M115.348 71.2609C113.488 73.9712 111.211 76.78 108.012 77.9624C105.165 79.13 102.526 78.9387 99.5233 78.8423C98.3552 79.8535 97.7592 81.3683 96.8486 82.5962C94.2091 86.156 89.6422 87.5142 85.3698 87.2041C82.281 86.9799 79.3963 85.9675 76.8026 84.2873C76.0676 83.8111 75.3978 83.2419 74.6664 82.7676C74.5833 83.3326 74.577 84.055 74.0891 84.4235C73.833 84.6167 73.5384 84.7045 73.2188 84.6581C72.2932 84.5241 71.4535 83.5582 70.9618 82.8307C70.92 82.7686 70.8788 82.7061 70.8383 82.643C70.0089 82.977 69.1662 83.2733 68.3103 83.532C67.4543 83.7905 66.5884 84.0104 65.7128 84.1917C64.9064 84.3391 64.0906 84.4038 63.2722 84.4389C56.7127 84.7197 50.1238 81.4442 45.3688 77.0897C44.9295 77.2556 44.4782 77.3768 44.0149 77.4533C42.916 77.6369 41.4433 77.388 40.5393 76.712C40.0383 76.3374 39.5743 75.6859 39.4833 75.0609C39.2137 75.0637 38.9441 75.0602 38.6746 75.0505C38.5075 75.0448 38.3407 75.0351 38.1742 75.0213C38.0077 75.0075 37.8416 74.9896 37.6758 74.9675C37.5102 74.9455 37.3452 74.9196 37.1808 74.8896C37.0164 74.8595 36.8528 74.8255 36.6901 74.7875C36.5273 74.7495 36.3655 74.7075 36.2049 74.6615C36.0442 74.6155 35.8847 74.5656 35.7265 74.5119C35.5682 74.4581 35.4115 74.4005 35.2561 74.3391C35.1008 74.2778 34.9469 74.2126 34.7946 74.1436C34.6424 74.0745 34.492 74.0019 34.3434 73.9255C34.1948 73.8493 34.048 73.7694 33.9032 73.6859C33.7585 73.6024 33.6159 73.5153 33.4755 73.4249C33.335 73.3343 33.1968 73.2405 33.0609 73.1434C32.9251 73.0461 32.7916 72.9455 32.6606 72.8417C32.5297 72.738 32.4014 72.6311 32.2757 72.5209C32.1499 72.4109 32.027 72.2979 31.9069 72.1818C31.7867 72.0657 31.6694 71.9468 31.5551 71.8249C31.4711 71.8819 31.4981 71.8577 31.4332 71.9223C31.2177 72.1374 31.0015 72.35 30.7624 72.5391C28.0341 74.6966 26.8007 74.7254 23.4555 74.3407C23.2568 74.6556 23.2465 74.9586 23.2536 75.3177C23.2757 76.4334 23.3906 78.6997 24.2275 79.4953C24.1453 79.7997 24.2275 80.03 24.3404 80.3135C25.4715 83.1546 27.8093 85.4963 30.6049 86.7057C34.1151 88.2242 37.2816 87.7954 40.7423 86.4355C40.5535 86.2528 40.3946 86.0724 40.2901 85.8289C40.0766 85.3314 39.89 84.6335 40.092 84.1234C40.3897 84.1018 40.4911 84.1532 40.7387 84.3303C41.525 84.8922 42.1384 86.1353 42.7025 86.9198C44.5684 89.5146 47.4979 91.6246 50.4835 92.7299C56.3165 94.8892 63.1136 93.5028 67.7628 89.3685C68.8258 88.4233 69.84 86.6384 71.1053 86.0542C71.4908 86.0949 71.8455 86.7626 72.121 87.0675C72.8182 87.8387 73.7316 88.2084 74.7609 88.2508C75.2427 88.2705 75.8646 88.2573 76.2251 87.9285C76.1523 87.3342 75.5258 86.7863 75.2015 86.2944C75.0381 86.0464 74.9156 85.8561 74.9773 85.5592L75.253 85.4334C75.4078 85.4359 75.501 85.4405 75.6336 85.5302C77.441 86.7536 78.9013 88.2181 80.8707 89.2634C84.4918 91.1854 89.171 92.3204 93.1922 91.0657C97.773 89.6365 98.881 86.4484 100.913 82.583C101.162 82.4212 101.334 82.433 101.626 82.4425C102.058 82.596 102.296 82.9462 102.577 83.2885C102.98 83.3249 103.383 83.3529 103.787 83.3725C103.953 83.38 104.12 83.3832 104.287 83.3823C104.454 83.3815 104.621 83.3766 104.787 83.3675C104.954 83.3585 105.12 83.3453 105.286 83.3279C105.452 83.3106 105.618 83.2891 105.783 83.2636C105.948 83.2381 106.112 83.2086 106.275 83.1749C106.439 83.1413 106.601 83.1035 106.763 83.0617C106.924 83.0201 107.085 82.9744 107.244 82.9247C107.403 82.875 107.561 82.8215 107.718 82.764C107.875 82.7065 108.03 82.6451 108.183 82.5799C108.337 82.5147 108.489 82.4457 108.639 82.3731C108.789 82.3004 108.938 82.224 109.084 82.1439C109.231 82.0639 109.375 81.9802 109.517 81.893C109.659 81.8058 109.799 81.7151 109.937 81.6209C110.075 81.5268 110.21 81.4293 110.343 81.3285C110.476 81.2277 110.606 81.1236 110.734 81.0162C110.862 80.9089 110.987 80.7985 111.109 80.685C113.677 78.3025 115.221 74.7453 115.348 71.2609Z" fill="#459EC7"/>
<path d="M31.5552 71.825C31.4712 71.8819 31.4982 71.8577 31.4333 71.9223C31.2178 72.1374 31.0016 72.35 30.7625 72.5391C28.0342 74.6966 26.8008 74.7254 23.4556 74.3407C23.2569 74.6556 23.2466 74.9586 23.2537 75.3177C23.2758 76.4334 23.3907 78.6998 24.2276 79.4953C26.8267 82.1037 29.4393 83.7479 33.2198 83.7648C35.4198 83.7747 37.0148 83.1079 39.0539 82.4864C38.9945 82.1067 39.1 81.6177 39.3181 81.2956C39.482 81.0531 39.5532 81.0704 39.8239 81.0284C40.4107 81.3389 41.6206 83.325 42.3433 84.0525C46.8067 88.5452 53.3594 89.9576 59.3819 88.0826C61.6727 87.3695 64.1053 86.2301 65.9049 84.6183L66.002 84.3596C65.8915 84.2617 65.8601 84.2313 65.7129 84.1917C64.9065 84.3391 64.0907 84.4038 63.2723 84.4389C56.7128 84.7197 50.1239 81.4442 45.3689 77.0897C44.9296 77.2556 44.4783 77.3768 44.015 77.4533C42.9161 77.6369 41.4434 77.388 40.5394 76.712C40.0384 76.3374 39.5744 75.686 39.4834 75.061C39.2138 75.0637 38.9442 75.0602 38.6747 75.0505C38.5076 75.0448 38.3408 75.0351 38.1743 75.0213C38.0078 75.0075 37.8416 74.9896 37.6759 74.9675C37.5103 74.9455 37.3453 74.9196 37.1809 74.8896C37.0165 74.8595 36.8529 74.8255 36.6902 74.7875C36.5274 74.7495 36.3656 74.7075 36.205 74.6615C36.0443 74.6155 35.8848 74.5656 35.7266 74.5119C35.5683 74.4581 35.4116 74.4005 35.2562 74.3391C35.1009 74.2778 34.947 74.2126 34.7947 74.1436C34.6425 74.0746 34.4921 74.0019 34.3435 73.9255C34.1949 73.8493 34.0481 73.7694 33.9033 73.686C33.7586 73.6024 33.616 73.5153 33.4756 73.4249C33.3351 73.3343 33.1969 73.2405 33.061 73.1434C32.9251 73.0461 32.7917 72.9455 32.6607 72.8417C32.5298 72.738 32.4015 72.6311 32.2758 72.5209C32.15 72.4109 32.0271 72.2979 31.907 72.1818C31.7868 72.0657 31.6695 71.9468 31.5552 71.825Z" fill="#6EC9EE"/>
<path d="M9.34468 38.3771C8.05728 38.3156 5.62672 37.8913 4.612 38.8602C4.36261 39.0981 4.28802 39.2697 4.27461 39.6094C4.23515 40.6159 6.35298 50.7793 6.97231 51.453C7.2192 51.4057 7.46754 51.3685 7.71732 51.3414C7.96724 51.3145 8.21781 51.2977 8.46904 51.2912C8.72027 51.2847 8.97137 51.2885 9.22234 51.3026C9.47331 51.3167 9.72329 51.341 9.97229 51.3755C11.3228 51.5768 12.8424 52.1289 13.6638 53.2852C14.937 55.0778 13.8163 55.566 13.624 56.8913C13.617 56.938 13.6125 56.985 13.6068 57.0317C13.7455 57.1293 13.9207 57.1993 14.0708 57.2803C15.0477 57.8079 16.5709 58.845 16.8869 59.981C17.3062 61.4883 16.5355 62.5958 15.854 63.8119C15.9937 64.6429 16.7196 65.219 16.8017 66.2034C16.8739 67.0684 16.6194 67.8623 16.0427 68.5151C14.9964 69.6993 13.6301 70.0069 12.1335 70.0999C12.1394 70.6441 12.3612 71.1305 12.7233 71.5317C14.0063 72.9538 19.9062 72.886 21.8923 73.0191C23.3754 73.1667 26.2434 73.8726 27.5276 73.0205C29.0449 72.0138 27.5765 70.5751 27.9124 69.3647C27.9189 69.3414 27.9273 69.3188 27.935 69.2959C27.6972 69.383 27.4586 69.4677 27.219 69.55C25.8472 70.0199 24.4444 70.1179 23.1138 69.4432C22.1902 68.9747 21.4975 68.1957 21.1976 67.2003C20.8259 65.9672 21.1234 64.6267 21.7338 63.5226C21.7841 63.4319 21.8366 63.3426 21.8913 63.2545C21.9459 63.1666 22.0027 63.0799 22.0618 62.9946C22.1207 62.9093 22.1817 62.8256 22.2449 62.7434C22.308 62.6612 22.3731 62.5805 22.4402 62.5015C22.5073 62.4225 22.5763 62.3452 22.6472 62.2697C22.7181 62.1941 22.7908 62.1203 22.8654 62.0483C22.94 61.9762 23.0162 61.9061 23.0942 61.8379C23.1724 61.7697 23.2521 61.7034 23.3334 61.6391C23.4147 61.5749 23.4975 61.5126 23.582 61.4522C23.6663 61.3922 23.7521 61.3341 23.8395 61.2781C23.9267 61.2222 24.0152 61.1684 24.1052 61.1169C24.1952 61.0652 24.2863 61.0159 24.3787 60.9688C24.471 60.9217 24.5645 60.877 24.6592 60.8345C24.7538 60.7921 24.8494 60.752 24.9459 60.7143C25.0425 60.6765 25.1399 60.6413 25.2383 60.6084C25.3366 60.5754 25.4356 60.5449 25.5355 60.5169C24.7632 59.5516 24.5338 57.4493 24.2504 56.2257L21.9298 46.1867C21.5519 44.5595 21.2804 42.8124 20.7448 41.2342C20.5386 40.6265 20.2482 40.0063 19.8204 39.5214C19.5256 39.1873 19.2037 38.9613 18.771 38.8418C16.797 38.2971 11.7164 38.5236 9.34468 38.3771Z" fill="#FED259"/>
<path d="M13.6335 42.444C13.1811 42.3466 12.6524 42.2715 12.2138 42.4523C12.1589 42.4752 12.1055 42.501 12.0535 42.5296C12.0015 42.5581 11.9511 42.5894 11.9024 42.6235C11.8539 42.6576 11.8073 42.6942 11.7625 42.7333C11.7178 42.7725 11.6754 42.8139 11.6353 42.8575C11.595 42.9013 11.5573 42.9471 11.5222 42.9949C11.487 43.0426 11.4544 43.0921 11.4246 43.1434C11.3947 43.1948 11.3677 43.2475 11.3435 43.3017C11.3194 43.356 11.2983 43.4114 11.2801 43.4679C11.0805 44.07 11.1907 44.7301 11.497 45.2771C11.8482 45.904 12.3235 46.1972 13.0028 46.376C13.1732 46.4492 13.2918 46.4711 13.4769 46.4606C13.9105 46.4364 14.2756 46.3825 14.5654 46.0241C14.9454 45.5543 14.9815 45.0004 14.9162 44.4249C14.8097 43.4862 14.3482 43.0182 13.6335 42.444Z" fill="#141414"/>
<path d="M13.2583 42.986C12.9722 42.9566 12.6488 42.9321 12.3988 43.0818C12.1305 43.2425 11.9762 43.4613 11.9117 43.7693C11.818 44.2168 11.989 44.7064 12.2365 45.0784C12.5521 45.5534 12.9006 45.6936 13.4329 45.7908C13.6774 45.8052 13.9457 45.6835 14.1308 45.5238C14.3687 45.3182 14.4145 45.0157 14.4013 44.7172C14.3687 43.9836 13.7855 43.4106 13.2583 42.986Z" fill="#727481"/>
<path d="M17.5484 41.6305C17.289 41.5859 17.0092 41.5285 16.7511 41.6098C16.44 41.7079 16.1805 41.9526 16.043 42.245C15.9017 42.5455 15.9106 42.8956 16.043 43.1977C16.2362 43.6383 16.5471 43.7856 16.9707 43.9361C16.9904 43.9428 17.0094 43.9514 17.0295 43.9562C17.3687 44.0329 17.6739 43.9069 17.947 43.719C18.0851 43.5273 18.162 43.3643 18.1768 43.1238C18.2186 42.4463 17.9868 42.1088 17.5484 41.6305Z" fill="#141414"/>
<path d="M47.7269 66.2998C47.5527 66.9235 47.3765 67.5845 47.0697 68.1585C46.9079 68.4613 46.7199 68.7415 46.3809 68.8495C45.8581 68.33 46.3876 66.0772 46.3328 65.2608C46.283 64.5199 46.011 63.6955 45.7521 62.995C43.9746 58.1875 39.9982 55.8537 35.8042 53.4231C34.0294 52.3945 32.2289 51.3081 30.3596 50.4615C29.5371 50.0891 27.701 49.272 26.8549 49.6405C26.6788 49.7172 26.6916 49.8004 26.629 49.9761C26.6985 50.398 26.8565 50.6717 27.0785 51.025C26.9348 51.6322 27.1821 52.6417 27.497 53.1804C27.5354 53.2464 27.5556 53.2681 27.6047 53.333C27.9979 53.8994 29.5069 54.7078 30.1641 54.8533C30.1907 54.8923 30.2164 54.9319 30.2442 54.9702C30.9024 55.8728 33.3008 56.3783 33.5121 57.5295C32.2247 58.2009 28.7386 57.2208 28.0918 59.1772C27.7771 59.3487 27.4904 59.5666 27.3539 59.9144C27.3172 60.0078 27.3223 60.0293 27.3194 60.1167C28.3487 60.1669 29.3021 60.3107 30.3125 60.5031C30.6287 60.7255 30.9077 60.8698 31.0176 61.2626C30.9038 61.455 30.9195 61.4917 30.7027 61.5429C29.9672 61.717 28.9734 61.483 28.21 61.482C26.4124 61.4794 24.2764 62.6813 23.2952 64.1731C22.8483 64.8523 22.6169 65.6232 22.8045 66.4296C22.9501 67.0554 23.2867 67.579 23.8461 67.9083C24.5228 68.3065 25.3933 68.3391 26.1389 68.1421C26.7693 67.9755 27.4206 67.6111 27.7489 67.0277C27.9553 66.6614 27.9496 66.2809 27.9513 65.873C28.1551 65.7182 28.1966 65.7038 28.456 65.7525C30.2049 66.0798 32.4116 73.2367 38.8112 73.3586C39.8307 73.3779 41.2964 73.151 42.1681 72.5865C42.7979 72.1786 43.8308 70.9487 44.5916 71.0893C44.6453 71.4944 44.6305 71.6853 44.3629 72.021C44.0808 72.3752 43.1089 73.178 43.0353 73.569C42.4564 73.8144 41.7672 74.0299 41.3197 74.483C41.1883 74.8393 41.1753 74.8456 41.3097 75.1981C41.8489 75.6736 42.6854 75.8509 43.3928 75.8097C43.9523 75.7772 44.4728 75.5867 44.9927 75.3913C45.1996 75.2873 45.4022 75.1755 45.6004 75.0557C45.7985 74.9361 45.9917 74.809 46.1801 74.6744C46.3684 74.5397 46.5513 74.398 46.7286 74.2492C46.906 74.1004 47.0774 73.945 47.2427 73.7831C47.4079 73.621 47.5667 73.4528 47.719 73.2783C47.8713 73.104 48.0166 72.9241 48.1549 72.7385C48.2932 72.5529 48.4242 72.3623 48.5477 72.1666C48.6713 71.9708 48.7871 71.7707 48.8951 71.566C49.4444 70.5416 49.8803 69.2482 49.5135 68.0914C49.2088 67.1305 48.5879 66.7363 47.7269 66.2998Z" fill="#FDFEFE"/>
<path d="M43.0353 73.569C42.4564 73.8144 41.7672 74.0299 41.3197 74.483C41.1883 74.8393 41.1753 74.8456 41.3096 75.1981C41.8489 75.6737 42.6854 75.8509 43.3928 75.8097C43.9523 75.7772 44.4728 75.5867 44.9927 75.3913C44.3731 75.0792 43.6404 74.765 43.1966 74.2161C42.9721 73.9383 43.0025 73.9069 43.0353 73.569Z" fill="#D0CEC4"/>
<path d="M30.1641 54.8533C28.9682 53.651 28.0924 52.3618 27.0785 51.025C26.9348 51.6323 27.182 52.6417 27.4969 53.1804C27.5354 53.2464 27.5555 53.2681 27.6047 53.333C27.9979 53.8994 29.5068 54.7078 30.1641 54.8533Z" fill="#D0CEC4"/>
<path d="M28.0919 59.1772C27.7772 59.3488 27.4905 59.5666 27.354 59.9144C27.3173 60.0079 27.3224 60.0294 27.3194 60.1167C28.3488 60.167 29.3021 60.3107 30.3125 60.5032C29.7808 59.8435 28.9916 59.5972 28.2002 59.3933L28.0919 59.1772Z" fill="#D0CEC4"/>
<path d="M39.5431 61.5544C39.2444 61.5436 39.0497 61.4722 38.8174 61.6822C38.8247 61.7743 38.8222 61.8236 38.8492 61.9078C39.0564 62.5511 41.9238 65.1883 42.5496 65.5026C42.7146 65.544 42.7548 65.4949 42.9083 65.4336L42.9756 65.0927C42.3904 63.4527 41.0393 62.3431 39.5431 61.5544Z" fill="#141414"/>
<path d="M37.7698 63.5891C37.4786 63.5426 37.2479 63.4771 36.9741 63.6098C36.9324 63.7263 36.8567 63.8259 36.9072 63.9442C37.287 64.8342 39.3717 66.4598 40.2816 66.8221L40.4549 66.9201L40.7496 66.8241C40.8584 66.5499 40.8562 66.4893 40.7794 66.2021C40.4991 65.1532 38.6813 64.0913 37.7698 63.5891Z" fill="#141414"/>
<path d="M41.6858 60.193C41.5281 60.193 41.3689 60.2204 41.2122 60.2389L41.1223 60.514C41.3338 61.4771 43.3323 63.8308 44.1838 64.3807L44.3821 64.1885C44.4583 63.9876 44.48 63.8466 44.4393 63.6317C44.1836 62.2788 42.7644 60.955 41.6858 60.193Z" fill="#141414"/>
<path d="M62.7523 5.15254C62.7307 5.14885 62.7094 5.14437 62.6877 5.14145C59.3391 4.68731 54.9592 5.22144 52.2211 7.35944C48.8776 9.97004 48.2377 13.9813 47.7376 17.9204C51.8653 18.517 55.9242 19.169 59.9685 20.196C63.2905 20.7348 66.6608 20.3052 69.9486 21.2396C71.2141 20.3961 72.4108 19.8344 73.8501 19.3439C74.3165 15.2581 73.5687 10.9407 70.9243 7.65459C69.1803 5.48779 65.3253 5.40916 62.7523 5.15254Z" fill="#FED259"/>
<path d="M11.8326 56.5925C11.8488 56.5459 11.864 56.4992 11.8815 56.4533C12.1433 55.7614 12.8925 55.5116 12.546 54.6366C12.2676 53.9336 11.5262 53.4521 10.849 53.1901C9.22779 52.5631 7.35856 52.6836 5.79158 53.4105C5.68846 53.4587 5.58652 53.5094 5.48577 53.5625C5.38515 53.6157 5.28584 53.6714 5.18784 53.7295C5.08998 53.7875 4.9935 53.8479 4.8984 53.9107C4.80344 53.9735 4.71011 54.0386 4.61843 54.1059C4.52662 54.1732 4.43652 54.2428 4.34813 54.3147C4.25974 54.3864 4.17319 54.4603 4.08848 54.5363C4.00378 54.6122 3.92097 54.6903 3.84007 54.7705C3.75905 54.8506 3.68013 54.9325 3.60331 55.0164C3.52636 55.1003 3.45159 55.1862 3.37898 55.2739C3.30625 55.3614 3.23574 55.4507 3.16747 55.5418C3.09921 55.6329 3.03318 55.7255 2.96939 55.8198C2.90573 55.9142 2.84436 56.01 2.7853 56.1073C2.72624 56.2047 2.66962 56.3034 2.61543 56.4034C2.56123 56.5035 2.50954 56.6049 2.46035 56.7074C2.41115 56.8101 2.36445 56.9138 2.32026 57.0187C2.27619 57.1236 2.2347 57.2296 2.19576 57.3365C1.85048 58.2946 1.78715 59.2741 2.25022 60.2076C2.40017 60.5101 2.64009 60.8521 2.91256 61.0556C2.2808 63.709 3.14103 66.0854 4.53162 68.3602C5.56982 70.059 7.65668 71.5215 9.58906 71.9817C10.2354 72.1356 10.9256 72.0627 11.5824 72.0191C10.999 71.4811 10.7216 70.7867 10.6691 69.9978C10.6647 69.9353 10.6675 69.8888 10.6689 69.8241C9.78873 69.6291 8.82372 69.3015 8.27009 68.5286C8.11935 68.318 8.1375 68.2656 8.17519 68.0144C8.50389 67.7934 8.76533 67.8377 9.13724 67.8726L9.26943 68.0522C10.0182 68.3711 10.717 68.5832 11.537 68.5984C12.5938 68.6181 13.7827 68.3243 14.5516 67.5582C15.0863 67.0254 15.1076 66.5018 15.1113 65.7928C14.2969 64.6658 13.3473 63.9925 11.9464 63.7707C11.3172 63.6711 10.5215 63.6463 9.90178 63.8115C9.06226 64.0353 7.71055 65.125 6.89095 64.7585C6.888 64.3186 7.04268 64.0944 7.35244 63.7833C8.42616 62.7056 9.74827 62.2309 11.2596 62.2392C12.4209 62.2457 13.4439 62.552 14.566 62.8019C14.5788 62.7577 14.5903 62.7133 14.6043 62.6696C14.9681 61.5335 15.7141 61.6855 14.9932 60.1055C14.6155 59.2778 13.8228 58.7804 12.9882 58.4941C9.38919 57.2593 5.9806 59.8955 5.20363 59.5862C5.18627 59.2143 5.48735 58.8638 5.73674 58.5923C7.20289 56.9965 9.57406 56.6623 11.6226 56.597C11.6926 56.5948 11.7626 56.5933 11.8326 56.5925Z" fill="#FDFEFE"/>
<path d="M9.13772 67.8726L9.2699 68.0522C10.0187 68.371 10.7175 68.5831 11.5375 68.5983C12.5942 68.618 13.7832 68.3243 14.5521 67.5581C15.0868 67.0254 15.1081 66.5017 15.1118 65.7927L15.0274 65.844C14.1843 66.3653 13.4442 67.2093 12.4692 67.4871C11.7966 67.6788 9.50785 67.5784 9.13772 67.8726Z" fill="#D0CEC4"/>
<path d="M49.1432 111.672C47.0353 112.248 44.2661 112.634 42.258 111.555C41.8289 111.325 41.4727 110.744 40.9556 110.878C40.6305 110.962 40.2838 111.263 40.1561 111.574C40.0368 111.864 40.0425 112.163 40.1964 112.439C40.8007 113.521 43.0444 113.384 43.3901 114.442L43.2909 114.614C42.831 114.677 42.2087 114.658 41.8979 114.998L42.0327 115.533C42.1079 115.831 42.1481 116.043 42.0364 116.342L41.7819 116.48C41.1527 116.052 40.6713 115.389 40.082 114.9C38.2766 113.402 35.5841 112.597 33.2575 113.06C32.0086 113.308 30.8129 114.012 30.1072 115.088C29.5543 115.93 28.8348 117.371 28.995 118.416C29.0244 118.608 29.1205 118.754 29.2384 118.903C29.8347 119.109 30.4718 119.123 31.0913 119.222C36.6769 120.117 42.7185 119.887 48.3126 119.188C49.1136 119.066 49.9642 119.052 50.7745 118.993C50.7256 117.561 50.2931 116.171 49.91 114.801C48.954 115.039 48.0474 115.053 47.0726 115.017C46.9242 114.83 46.8926 114.731 46.8539 114.495C47.363 113.85 48.9017 113.808 49.7111 113.548C50.0712 113.361 50.4429 113.182 50.6964 112.854C50.9653 112.506 51.0036 112.161 50.9497 111.738C50.7442 111.446 50.6696 111.311 50.2915 111.244C49.8875 111.173 49.4718 111.471 49.1432 111.672Z" fill="#FED259"/>
<path d="M49.9098 114.801C48.9539 115.039 48.0473 115.053 47.0724 115.017C47.8551 115.924 48.6702 116.795 48.568 118.083C48.5396 118.443 48.4346 118.848 48.3125 119.188C49.1135 119.066 49.9641 119.052 50.7744 118.993C50.7255 117.561 50.293 116.171 49.9098 114.801Z" fill="#D69E1D"/>
<path d="M49.7111 113.548C50.0712 113.361 50.4429 113.182 50.6964 112.854C50.9653 112.506 51.0036 112.161 50.9497 111.738C50.7442 111.446 50.6696 111.311 50.2915 111.244C49.8875 111.173 49.4718 111.471 49.1432 111.672C49.5459 112.202 49.5743 112.911 49.7111 113.548Z" fill="#D69E1D"/>
<path d="M73.1712 112.656C72.9043 112.413 72.5227 111.995 72.1431 111.985C71.7422 111.975 71.5421 112.095 71.2921 112.369C71.3503 112.691 71.416 112.829 71.7141 113.014C72.1778 113.303 72.8143 113.468 73.3283 113.669C75.1302 114.375 76.489 115.459 77.002 117.388C77.0581 117.598 77.0845 117.795 77.0184 118.004L76.6256 118.059C76.6139 118.047 76.6045 118.032 76.5907 118.022C76.5561 117.997 76.5178 117.979 76.4817 117.956C75.6164 117.426 75.0337 116.574 74.2461 115.95C72.5552 114.61 69.4552 114.35 67.3974 114.82C65.9975 115.14 64.6539 115.872 63.872 117.111C63.1649 118.231 63.126 119.356 63.2375 120.636C67.7803 121.639 76.7645 121.516 81.4725 120.776L83.7995 120.56C83.9545 120.432 84.0315 120.398 84.0883 120.205C84.4687 118.907 83.1429 116.574 82.5318 115.437C81.3959 115.697 80.5779 115.881 79.4756 115.402C79.7613 114.905 80.1524 114.785 80.6602 114.593C80.9708 113.704 80.8544 113.149 80.6438 112.237C78.0923 113.137 75.8164 113.044 73.1712 112.656Z" fill="#FED259"/>
<path d="M81.4725 120.776L83.7995 120.56C83.9545 120.432 84.0315 120.398 84.0883 120.205C84.4687 118.907 83.1429 116.574 82.5318 115.437C81.3959 115.697 80.5779 115.881 79.4756 115.402C80.6772 117.168 81.6998 118.514 81.4725 120.776Z" fill="#D69E1D"/>
<path d="M9.62653 36.7511C9.01962 36.7176 8.3492 36.6382 7.74664 36.7133C7.2305 36.7776 6.75184 37.0079 6.43498 37.426C9.44837 37.8702 12.7526 37.7149 15.8019 37.8065C16.8896 37.8393 18.0213 37.8129 19.0956 37.9972C20.0723 38.1646 20.6595 38.6348 21.164 39.4753C22.2651 41.3097 24.1787 51.2094 24.8219 53.9834C25.0261 54.8649 25.1952 56.3136 25.7228 57.0266C25.7374 57.0463 25.7536 57.0648 25.769 57.084C25.6591 57.8172 25.8686 58.4067 26.2261 59.036C26.2338 58.9901 26.2393 58.9436 26.249 58.898C26.3575 58.389 26.8814 58.0743 27.2866 57.8162C26.6071 56.9487 26.3982 54.9946 26.1448 53.897L23.9479 44.3336C23.5779 42.7291 23.2978 40.9976 22.7706 39.4414C22.5739 38.8608 22.2986 38.2898 21.8792 37.8359C21.573 37.5043 21.2366 37.2906 20.797 37.18C18.8579 36.6914 12.1407 36.8651 9.62653 36.7511Z" fill="#D0CEC4"/>
<path d="M37.1435 17.905C35.6172 17.8102 33.4749 17.5645 32.1396 18.4369C31.7085 18.7185 31.2083 19.1792 31.0958 19.699C31.1698 19.7826 31.1805 19.8405 31.2979 19.8476C32.1042 19.8963 32.913 19.4377 33.7085 19.3279C34.6711 19.195 35.8208 19.307 36.7911 19.3794C39.1635 19.5562 41.5359 19.9911 43.8976 20.2857C45.9404 20.5404 48.0042 20.6562 50.0573 20.7968C52.321 20.847 54.66 20.958 56.9136 20.7214C50.3425 19.6501 43.7525 18.7112 37.1435 17.905Z" fill="#FED259"/>
<path d="M36.6308 20.6163C35.7546 20.5398 34.8219 20.5165 33.9439 20.5641C33.3642 20.5954 32.6062 20.665 32.1925 21.1177L32.2341 21.4038C33.7362 22.9531 39.2936 23.7522 41.4962 24.0572L43.8779 24.5138C43.8747 24.4927 43.8702 24.472 43.8682 24.4507C43.7915 23.6753 44.9652 22.4122 45.4243 21.8156C42.4966 21.3903 39.5654 20.9905 36.6308 20.6163Z" fill="#D69E1D"/>
<path d="M72.1847 7.56702C72.086 7.77206 72.4769 8.3042 72.6 8.52305C74.7254 12.3003 75.0556 14.8564 74.8386 19.1169L74.9019 19.1068C75.9374 18.9493 76.9276 18.8957 77.9749 18.8799L78.1128 18.7602C78.5293 17.6088 78.2419 15.5871 77.9329 14.426C77.0914 11.264 74.9296 9.17881 72.1847 7.56702Z" fill="#D69E1D"/>
<path d="M12.3305 72.8093C11.5265 72.8354 10.8582 73.4755 10.0688 73.4951C9.66496 73.5051 9.1498 73.3103 8.73547 73.2429C8.43517 73.3943 8.43794 73.3943 8.31818 73.7086C8.36908 73.834 8.42768 73.958 8.51449 74.0635C9.14961 74.8357 10.9113 75.2939 11.8542 75.3166C13.4257 75.3959 14.9333 74.5092 16.2681 73.7809C15.3814 73.7663 14.3657 73.8064 13.511 73.5804C13.0516 73.459 12.5734 73.2346 12.3305 72.8093Z" fill="#FDFEFE"/>
<path d="M80.6605 114.593C81.0525 114.517 81.4645 114.398 81.8334 114.246C82.3981 114.012 82.8209 113.577 83.0472 113.01C83.2058 112.613 83.2124 112.139 83.0085 111.755C82.9071 111.563 82.6858 111.32 82.4634 111.271C81.9029 111.149 81.0989 111.928 80.6441 112.237C80.8546 113.149 80.971 113.704 80.6605 114.593Z" fill="#D69E1D"/>
<path d="M64.3926 1.99658C63.7077 2.05877 62.9967 2.39743 62.5458 2.92645C62.3568 3.14814 62.3556 3.16803 62.3775 3.45711C62.8321 3.83178 63.6365 3.76009 64.2164 3.79569C64.6587 3.85997 65.4104 4.04983 65.8354 3.91837C66.13 3.82718 66.1558 3.74567 66.3022 3.49627C66.2871 3.3883 66.2746 3.30064 66.221 3.20372C65.8761 2.58134 65.0379 2.19307 64.3926 1.99658Z" fill="#D69E1D"/>
<path d="M20.7388 74.1652C20.1944 74.1222 19.4561 73.9838 18.9449 74.2043C18.7158 74.303 18.7367 74.3439 18.6466 74.5763L18.7724 74.3101L18.6866 74.6964C18.952 75.1378 19.4521 75.5394 19.9148 75.7589L19.9941 75.8805C20.3625 76.0771 20.4702 76.1621 20.9 76.1201C21.0377 76.0118 21.1217 75.9338 21.1949 75.7703C21.4372 75.2281 21.3382 74.8135 21.1245 74.2961L20.7388 74.1652Z" fill="#CFACE4"/>
<path d="M29.1145 68.7394L28.901 68.8707C28.7222 69.3084 29.1174 71.4622 29.2713 72.0326L29.9599 71.6438C30.0516 71.264 30.3089 70.9805 30.5952 70.7329C30.099 70.2721 29.3082 69.3955 29.1145 68.7394Z" fill="#D0CEC4"/>
</g>
<defs>
<clipPath id="clip0_2250_458">
<rect width="117" height="125" fill="white" transform="matrix(-1 0 0 1 117.5 0.5)"/>
</clipPath>
</defs>
</svg>
