<svg width="125" height="199" viewBox="0 0 125 199" fill="none" xmlns="http://www.w3.org/2000/svg">
<g clip-path="url(#clip0_2226_961)">
<path d="M54.7479 0.215519C53.511 0.0439375 52.1899 0.0394614 51.0598 0.63852C49.7535 1.33087 49.2241 2.48973 48.8259 3.84532C48.1453 4.01257 47.4716 4.20394 46.8047 4.41943C46.1379 4.63492 45.4795 4.87397 44.8297 5.13658C44.1799 5.39918 43.5403 5.68469 42.9107 5.99308C42.2811 6.3015 41.6634 6.63201 41.0574 6.98462C36.0735 9.89942 31.9342 14.2283 30.4628 19.9307C29.9512 21.913 28.8818 28.3508 29.875 30.0362C29.755 30.0487 29.6348 30.0594 29.5155 30.0761C24.0137 30.8396 10.2601 33.7873 5.32259 36.0205C3.75146 36.7311 2.15237 37.7026 1.12737 39.126C0.32737 40.2374 0.0321274 41.4657 0.264267 42.8187C0.484207 44.0986 1.20027 45.1014 2.24938 45.8404C6.25087 48.6583 13.0678 46.7435 17.4437 45.9245C14.2351 49.0539 12.4515 62.1289 12.383 66.6456C12.3175 70.9705 13.783 84.1752 16.7122 87.2094C16.0586 87.932 13.878 93.1815 12.9872 94.6876C11.4914 97.2161 9.68153 99.2744 7.95564 101.609C7.53809 102.174 7.10831 102.736 7.21992 103.476C7.14015 104.107 7.2345 104.538 7.51902 105.1C8.29134 106.624 9.86278 107.781 11.4497 108.32C11.3792 108.402 11.3622 108.418 11.2952 108.519C10.2765 110.039 10.7199 114.512 11.1303 116.281C11.9756 119.922 14.1021 122.732 17.2369 124.686C17.0178 126.116 16.9604 127.618 17.7675 128.879C18.7571 130.425 20.6482 130.814 22.3163 131.166C22.0908 131.93 22.9789 133.457 23.3675 134.161C25.8812 138.711 31.4375 142.677 36.3494 144.137C36.1283 144.507 36.1214 144.879 36.1214 145.3C36.1214 148.915 36.4 152.543 36.4309 156.163C36.4553 158.999 36.0765 162.115 36.4934 164.909C35.0919 165.165 33.8476 165.691 32.8131 166.693C31.9292 167.549 31.1625 168.773 31.1762 170.047C31.1893 171.27 31.8071 172.335 32.6449 173.18C32.4321 173.629 32.2708 174.094 32.1202 174.567C31.6119 176.166 30.1535 181.619 30.9294 183.111C25.4884 183.659 13.0964 185.12 9.28599 188.48C8.81724 188.893 8.347 189.464 8.33956 190.12C8.33153 190.814 8.73064 191.369 9.21964 191.817C17.1512 199.082 62.4705 199.223 73.5589 198.585C83.1917 198.445 97.3449 197.239 106.516 194.182C108.235 193.609 111.21 192.619 111.99 190.858C112.211 190.36 112.212 189.841 111.974 189.349C110.994 187.318 107.048 186.337 105.061 185.746C105.072 184.852 105.092 183.946 105.021 183.054C104.752 179.665 103.391 176.399 100.762 174.172C96.4425 170.511 88.9791 170.357 83.6327 170.813C83.0208 169.743 82.2759 168.718 81.5931 167.69C81.8077 166.632 81.6839 165.527 81.0669 164.621C80.2042 163.353 78.6598 163.057 77.261 162.775C77.966 156.557 77.5634 149.92 77.4128 143.668C85.6809 142.428 91.7619 141.446 100.223 141.505C101.082 136.609 102.949 131.713 104.896 127.148C106.698 127.375 108.437 127.425 110.215 126.964C112.109 126.473 114.371 125.003 114.572 122.845C114.632 122.205 114.46 121.138 114.7 120.582C115.016 119.847 115.882 119.294 116.285 118.574C116.825 117.608 116.601 116.36 116.31 115.354C115.802 113.601 117.3 111.661 117.014 109.734C116.787 108.202 115.644 107.156 114.473 106.276C117.548 101.754 121.219 97.8978 124.963 93.9504C120.954 94.4316 104.882 96.2074 101.496 95.0626C101.474 95.0134 101.45 94.9654 101.431 94.9152C100.907 93.5103 104.066 89.0878 104.796 87.6838C110.493 76.7218 111.307 62.6265 107.607 50.9327C107.492 50.5677 107.373 50.2042 107.249 49.8422C107.125 49.48 106.997 49.1195 106.865 48.7607C106.733 48.4016 106.596 48.0443 106.454 47.6887C106.313 47.3332 106.168 46.9795 106.018 46.6274C105.868 46.2754 105.714 45.9253 105.556 45.5773C105.397 45.229 105.235 44.8828 105.068 44.5387C104.901 44.1944 104.73 43.8523 104.555 43.5124C104.38 43.1723 104.2 42.8344 104.017 42.4989C103.833 42.1633 103.646 41.8301 103.454 41.4991C103.262 41.1681 103.067 40.8395 102.867 40.5133C102.667 40.1871 102.463 39.8635 102.256 39.5425C102.048 39.2213 101.837 38.9027 101.621 38.5869C101.406 38.2708 101.187 37.9576 100.964 37.6471C100.741 37.3364 100.514 37.0286 100.283 36.7237C100.053 36.4188 99.8184 36.1166 99.5803 35.8173C99.3425 35.5182 99.1009 35.2219 98.8556 34.9285C98.6104 34.6353 98.3616 34.3451 98.1092 34.0579C97.8568 33.7707 97.6011 33.4867 97.3419 33.2058C97.0826 32.925 96.8199 32.6473 96.5539 32.3728C96.2878 32.0986 96.0183 31.8275 95.7455 31.5595C95.4729 31.2918 95.197 31.0275 94.9178 30.7665C94.6387 30.5056 94.3563 30.248 94.0708 29.9938C93.7853 29.7398 93.4968 29.4893 93.2053 29.2422C92.9137 28.9952 92.619 28.7519 92.3214 28.5122C92.024 28.2725 91.7236 28.0365 91.4202 27.8042C91.1168 27.5719 90.8107 27.3432 90.5018 27.1183C90.1928 26.8935 89.8812 26.6726 89.5669 26.4554C89.2527 26.2383 88.9357 26.0251 88.6161 25.8157C88.2966 25.6064 87.9746 25.4011 87.65 25.1996C87.3254 24.9981 86.9984 24.8007 86.669 24.6074C86.3397 24.4138 86.0079 24.2245 85.6738 24.0393C85.3399 23.8541 85.0036 23.673 84.6652 23.496C84.4113 20.7771 84.1309 18.0078 83.2467 15.4083C82.8181 14.1487 82.2232 12.9201 81.3226 11.9298C77.7128 7.9619 68.905 4.33118 63.6973 3.37073C61.9431 3.0472 59.1345 3.39182 57.5845 2.66874C57.0545 2.42141 56.0759 0.863895 54.7479 0.215519Z" fill="#141414"/>
<path d="M71.0954 102.75C70.5368 102.722 70.1812 102.622 69.6844 102.923C69.7978 103.316 69.8255 103.323 70.1722 103.513C71.0606 103.998 71.6437 103.767 72.5737 103.519L72.5383 103.092C72.0615 102.925 71.5904 102.837 71.0954 102.75Z" fill="#EC622A"/>
<path d="M56.5749 89.7001C56.3466 89.7269 56.1154 89.7579 55.8946 89.8242C55.3377 89.9907 55.0103 90.2186 54.7148 90.7162C54.6749 91.4102 54.7972 91.5964 55.1124 92.1901C55.3356 92.1707 55.5734 92.1501 55.7868 92.0776C56.1877 91.9413 56.6823 91.5674 56.8189 91.1495C57.0201 90.5343 56.8279 90.2487 56.5749 89.7001Z" fill="#F49526"/>
<path d="M54.1455 1.80331C53.8402 1.7881 53.5318 1.7795 53.2268 1.80096C52.3366 1.86355 51.6256 2.35087 51.05 3.00116L51.0776 3.33886L51.5315 3.31306C52.578 3.06814 54.2232 3.31267 55.0952 2.76451L55.0446 2.4183L54.1455 1.80331Z" fill="#EC622A"/>
<path d="M77.5786 102.173C75.4471 102.645 73.2694 102.709 71.0956 102.75C71.5905 102.837 72.0616 102.925 72.5384 103.092L72.5739 103.519C73.8718 103.445 75.0768 103.87 76.3298 103.714C76.9831 103.47 77.2614 102.75 77.5786 102.173Z" fill="#DA5927"/>
<path d="M75.5659 105.215C74.6195 105.153 72.7031 104.801 71.946 105.362C71.9531 105.924 72.2445 106.149 72.5751 106.577C72.6558 106.658 72.7472 106.756 72.8388 106.829C73.3278 107.217 73.7046 107.261 74.2808 107.18C74.9564 106.713 75.2281 105.935 75.5659 105.215Z" fill="#FEFEFE"/>
<path d="M12.6187 103.863C12.3466 103.802 12.0841 103.767 11.8064 103.742C10.9332 103.664 9.67936 103.481 8.95614 104.088L9.02848 104.532C9.38056 104.936 9.77757 105.208 10.2163 105.505C10.438 106.165 11.1633 106.452 11.7329 106.76C11.671 105.769 12.0779 104.682 12.6187 103.863Z" fill="#60291B"/>
<path d="M49.5226 167.102C49.3348 167.358 49.3113 167.572 49.2452 167.875C49.4336 168.18 49.6374 168.433 49.8755 168.699C49.605 168.943 49.3553 169.086 49.0267 169.245L48.9056 169.302L49.1136 169.856C49.7151 170.143 50.1017 170.447 50.5627 170.927L50.7118 171.083L51.0267 171.462L51.3862 171.199C51.6377 170.653 51.7223 170.176 51.6139 169.584C51.3865 168.341 50.5071 167.758 49.5226 167.102Z" fill="#FEFEFE"/>
<path d="M64.2162 22.064C63.2695 22.1547 62.3162 22.2257 61.3793 22.393L61.396 24.9962C62.2248 24.915 63.0475 24.8383 63.8659 24.6784C64.3748 23.9275 64.0409 23.0801 64.479 22.2794L64.2162 22.064Z" fill="#EC622A"/>
<path d="M73.8053 21.2841L70.7086 21.4822L70.6282 21.8509C70.6892 22.5043 70.569 23.1007 70.8121 23.7317C71.6475 24.2705 73.0196 23.9698 74.0234 23.9158C74.0166 23.0369 73.8981 22.1573 73.8053 21.2841Z" fill="#EC622A"/>
<path d="M53.4487 176.815C53.2541 176.805 53.0609 176.796 52.866 176.801C50.9946 176.844 48.1053 178.575 46.8791 179.911C46.4761 180.35 46.1975 180.66 46.2145 181.266L47.2136 181.623C48.069 181.327 48.8812 179.869 49.5824 179.232C50.6213 178.288 52.227 177.534 53.4487 176.815Z" fill="#FEFEFE"/>
<path d="M70.7085 21.4822C68.5683 21.617 66.3362 21.7247 64.2162 22.064L64.479 22.2794C65.9138 22.649 65.2052 23.3767 65.9719 24.1837C66.9129 24.5143 68.1016 24.3747 69.0481 24.1103C69.5445 23.604 69.3427 23.0891 69.3811 22.3948C69.8144 21.9554 70.0409 21.9634 70.6281 21.8509L70.7085 21.4822Z" fill="#EC622A"/>
<path d="M85.522 172.22C85.3275 172.222 85.1333 172.229 84.9392 172.239C83.0547 172.34 81.0163 173.726 79.7967 175.118C79.3595 175.617 78.9508 176.184 78.9889 176.853L80.8946 177.389C82.2342 175.293 83.6431 173.85 85.522 172.22Z" fill="#FEFEFE"/>
<path d="M58.4209 177.473C58.0149 177.424 57.5983 177.378 57.1891 177.388C54.9745 177.445 51.065 179.607 49.6394 181.262C49.3123 181.642 49.1027 181.862 49.1489 182.374L51.2652 182.889C53.4009 180.412 55.5319 178.957 58.4209 177.473Z" fill="#FEFEFE"/>
<path d="M90.8252 172.35C90.1785 172.283 89.4704 172.178 88.8297 172.328C86.2186 172.943 83.8451 175.513 82.4936 177.749L85.2207 177.896C86.7692 175.427 88.4469 173.972 90.8252 172.35Z" fill="#FEFEFE"/>
<path d="M20.4136 82.246C19.7972 81.4975 19.9898 79.8583 19.4427 78.8589C18.5442 77.2173 16.8826 76.0579 15.954 74.4075C15.204 75.9153 16.8139 80.2984 17.3305 81.8474C17.5731 82.5751 17.7761 83.2586 18.3645 83.7852C18.7817 83.02 19.6311 82.5629 20.4136 82.246Z" fill="#208FB7"/>
<path d="M24.5617 111.754C24.1284 111.297 23.9986 111.232 24.0046 110.576C24.0114 109.791 24.3552 109.12 24.021 108.391L23.7296 108.365C23.1531 109.065 23.2305 110.541 23.3073 111.398C23.4019 112.457 24.0927 113.325 24.8855 113.989C28.1171 116.694 34.6965 116.268 38.5805 115.859C39.7198 115.738 42.9695 115.487 43.6692 114.601C43.7099 114.549 43.7471 114.495 43.7861 114.441C42.8198 114.219 34.9763 115.399 32.601 115.31C30.5442 115.233 26.5406 114.811 25.1412 113.168C24.7343 112.69 24.5341 112.379 24.5617 111.754Z" fill="#EC622A"/>
<path d="M102.102 120.99C101.757 121.285 101.589 121.696 101.496 122.146C101.419 122.515 101.594 122.888 101.789 123.193C102.612 124.475 104.353 125.218 105.786 125.505C108.011 125.951 110.095 125.556 111.98 124.314C112.508 123.637 113.097 122.61 113.105 121.734C112.708 121.437 111.036 121.895 110.48 121.991C107.356 122.527 104.983 122.49 102.102 120.99Z" fill="#FEFEFE"/>
<path d="M36.4588 166.829C36.4258 166.826 36.3931 166.822 36.36 166.821C36.3053 166.819 36.2505 166.82 36.196 166.819C35.3612 166.793 34.5163 167.225 33.8916 167.767C33.341 168.246 33.0195 168.875 32.9859 169.612C32.9451 170.509 33.3392 171.372 33.9359 172.024C35.552 173.789 38.0437 173.91 40.2654 174.02L40.4984 173.855C40.7963 172.396 41.368 171.321 42.563 170.426C40.821 170.372 36.4118 170.256 35.2103 168.937C35.0993 168.815 35.166 168.663 35.1794 168.507L35.9419 168.265C36.1454 167.793 36.3038 167.318 36.4588 166.829Z" fill="#FEFEFE"/>
<path d="M58.2796 92.0146C57.7463 92.6686 57.2198 93.1546 56.537 93.6496C57.9311 95.2315 67.2507 106.499 68.2507 106.776C69.0317 106.807 69.7751 106.785 70.5531 106.712C70.5885 106.412 70.5174 106.409 70.3573 106.169L70.0805 106.348L69.7108 106.056L69.9293 105.687C69.2082 104.36 67.6775 102.986 66.6757 101.817L58.2796 92.0146Z" fill="#F49526"/>
<path d="M114.9 115.317C111.968 116.319 109.969 117.389 106.702 117.32C105.425 117.293 103.18 116.051 102.103 116.505C102.029 116.643 101.986 116.705 101.943 116.846C101.716 117.585 102.046 118.378 102.344 119.04C104.026 120.521 106.382 120.844 108.548 120.735C110.533 120.634 112.725 120.166 114.094 118.605C114.997 117.575 114.984 116.619 114.9 115.317Z" fill="#FEFEFE"/>
<path d="M64.5499 165.131C63.4082 165.35 62.285 166.041 61.4231 166.815C60.9898 167.204 60.7142 167.753 60.7285 168.344C60.7463 169.089 61.2478 169.816 61.7719 170.309C63.994 172.397 68.0246 172.273 70.8758 172.142L71.4377 172.081C72.046 171.549 71.9222 170.003 72.2124 169.212C72.3865 168.738 72.6981 168.275 72.9624 167.845C70.288 168.233 67.1734 168.462 64.5044 167.96C63.9493 167.855 63.5818 167.75 63.2538 167.276C63.4068 166.91 63.6746 166.819 63.9782 166.604C64.5192 166.222 64.4478 165.752 64.5499 165.131Z" fill="#FEFEFE"/>
<path d="M78.7382 167.582C78.1903 167.533 77.6171 167.47 77.0686 167.527C76.0371 167.634 74.8805 168.065 74.2207 168.902C73.66 169.613 73.4885 170.523 73.5888 171.41C73.8278 173.52 75.3772 174.81 76.9383 176.018L77.1296 176.088C77.8011 175.836 78.7933 173.968 79.4261 173.361C80.2198 172.601 81.1478 172.058 82.0903 171.508C81.1234 169.935 80.4585 168.411 78.7382 167.582Z" fill="#EC622A"/>
<path d="M30.0493 32.0605C27.888 31.5936 11.9243 35.7315 9.24545 36.5528C6.97848 37.248 3.49961 38.4083 2.36776 40.6444C2.06776 41.2378 2.03085 41.6925 2.23114 42.3268C2.37102 42.3038 2.3011 42.3271 2.45527 42.2307C8.68294 38.339 16.3562 36.6196 23.3166 34.4626C25.4377 33.805 28.1651 33.2274 30.0493 32.0605Z" fill="#EC622A"/>
<path d="M47.0801 170.87C46.1355 170.803 45.0944 170.928 44.2203 171.304C43.4004 171.656 42.7906 172.298 42.4733 173.132C41.934 174.549 42.2569 176.279 42.8525 177.627C43.2355 178.495 43.8403 179.599 44.7638 179.966L45.4923 179.565C45.5132 179.504 45.5316 179.442 45.5554 179.382C46.262 177.586 49.5641 176.239 51.27 175.595C50.7855 174.827 50.4411 173.944 50.0233 173.135C49.3155 171.764 48.5173 171.327 47.0801 170.87Z" fill="#EC622A"/>
<path d="M113.786 107.567C113.102 108.04 112.734 108.924 112.345 109.642C110.73 109.888 109.079 110.113 107.492 110.502C106.117 110.839 103.337 111.675 102.683 113.023C102.561 113.277 102.523 113.543 102.619 113.807C102.918 114.641 103.871 114.995 104.616 115.311C105.115 115.421 105.628 115.478 106.137 115.529C108.73 115.785 112.173 115.25 114.192 113.544C114.898 112.948 115.46 112.14 115.512 111.19C115.59 109.755 114.714 108.554 113.786 107.567Z" fill="#FEFEFE"/>
<path d="M103.338 185.268C92.9638 187.593 81.3433 187.442 71.0004 185.042C71.248 185.959 71.4307 186.901 71.6406 187.828C80.5471 190.051 94.0132 191.151 102.721 188.057C103.034 187.128 103.203 186.238 103.338 185.268Z" fill="#FEFEFE"/>
<path d="M32.473 185.914L32.1143 186.143C31.8227 186.847 31.8632 187.601 32.1373 188.302C34.0599 190.719 42.2328 193.35 45.2554 194.098C51.67 195.686 63.5194 196.868 69.4515 193.29C69.8262 192.341 70.0149 191.275 70.2593 190.282C69.6051 190.523 68.9438 190.743 68.2754 190.941C67.6069 191.139 66.9327 191.315 66.2527 191.469C65.5728 191.623 64.8885 191.755 64.2 191.864C63.5116 191.973 62.8203 192.06 62.1263 192.124C54.3123 192.921 38.7283 191.042 32.473 185.914Z" fill="#FEFEFE"/>
<path d="M19.6597 125.812C19.5171 125.822 19.4243 125.82 19.2829 125.872C18.9002 126.01 18.8558 126.329 18.7594 126.666C18.8638 127.223 19.0775 127.65 19.4993 128.03C21.5927 129.916 25.8478 130.298 28.5927 130.804C40.8585 133.068 53.454 134.356 65.9311 133.718L66.593 131.298C66.6555 131.073 66.6564 130.903 66.665 130.67C65.9579 130.492 65.1085 130.955 64.3615 131.064C61.2183 131.521 58.1615 131.026 55.2627 129.779C54.149 130.419 53.1189 130.935 51.8177 131.057C49.3246 131.289 47.5043 129.931 45.6999 128.414C39.5133 129.275 24.6311 129.303 19.6597 125.812Z" fill="#EC622A"/>
<path d="M62.1981 172.708L61.8303 172.768C61.4115 173.942 61.3785 175.292 61.2508 176.527C65.2175 177.831 67.9788 179.526 70.197 183.216C74.5696 184.448 79.1214 185.016 83.6479 185.233C83.6797 183.153 83.9249 181.413 84.5791 179.435C82.9714 179.275 81.3401 179.089 79.7681 178.707C76.4309 177.895 74.1062 176.335 72.3291 173.393C68.8056 173.83 65.588 173.89 62.1981 172.708Z" fill="#EC622A"/>
<path d="M34.441 174.428L34.0279 174.506C33.6773 174.907 33.5741 175.354 33.4294 175.855C32.9074 177.664 31.6285 182.328 32.5202 183.957C32.558 184.054 32.5574 184.069 32.6309 184.164C34.7181 186.873 45.2464 189.413 48.6991 190.064L48.9776 190.075C49.1675 189.877 50.0982 185.338 50.5029 184.362C50.0011 184.228 49.5012 184.088 49.0032 183.941C46.1035 183.082 42.9193 181.498 41.4538 178.711C41.041 177.926 40.452 176.517 40.7199 175.645C38.7687 175.591 36.0535 175.66 34.441 174.428Z" fill="#EC622A"/>
<path d="M37.651 178.529C36.8326 178.35 36.0957 178.267 35.3171 178.627C34.5314 178.991 33.9231 179.706 33.6502 180.525C33.6158 180.627 33.5868 180.73 33.5629 180.835C33.5391 180.94 33.5207 181.046 33.5076 181.153C33.4947 181.26 33.4871 181.367 33.485 181.475C33.4828 181.583 33.4861 181.69 33.4948 181.798C33.5037 181.905 33.518 182.011 33.5376 182.118C33.5573 182.223 33.5822 182.328 33.6124 182.431C33.6427 182.535 33.6781 182.636 33.7186 182.736C33.7593 182.836 33.8048 182.933 33.8552 183.028C34.318 183.888 34.9972 184.298 35.8996 184.587C36.1377 184.793 36.5133 184.788 36.8133 184.765C37.5085 184.712 38.0362 184.426 38.4921 183.906C39.1207 183.189 39.3248 182.163 39.2635 181.233C39.1841 180.022 38.5186 179.296 37.651 178.529Z" fill="black"/>
<path d="M37.4243 179.554C37.0082 179.485 36.4478 179.379 36.0335 179.489C35.4668 179.638 34.9921 180.126 34.7552 180.648C34.499 181.211 34.5112 181.81 34.7671 182.372C35.0493 182.992 35.4737 183.304 36.0883 183.549C36.1502 183.578 36.207 183.62 36.2737 183.635C36.7722 183.746 37.2374 183.575 37.6389 183.316C37.8511 182.993 38.0156 182.689 38.0874 182.308C38.3085 181.131 38.0847 180.518 37.4243 179.554Z" fill="#FEFEFE"/>
<path d="M93.7517 172.914C92.4139 172.885 90.0588 174.591 89.1642 175.464C86.3627 178.198 85.2565 181.495 85.1907 185.33C88.099 185.429 91.0425 185.268 93.9455 185.089C97.1237 184.899 100.268 184.345 103.398 183.787C103.138 181.626 102.732 179.596 101.571 177.708C99.7443 174.736 96.9639 173.7 93.7517 172.914Z" fill="#FEFEFE"/>
<path d="M61.9114 178.426C59.6926 178.252 56.4373 180.055 54.8638 181.415C52.092 183.81 51.0319 186.803 50.795 190.362C53.4295 190.684 56.0376 190.783 58.6882 190.788C62.6498 190.778 66.3959 190.011 70.1572 188.816C69.9197 187.593 69.681 186.349 69.2283 185.186C67.8447 181.631 65.2736 179.867 61.9114 178.426Z" fill="#FEFEFE"/>
<path d="M46.2275 6.64148C42.1463 7.91648 37.9293 10.9705 35.2981 14.3351C32.4945 17.9195 31.6308 22.0952 31.474 26.5636C31.4347 27.6798 31.3323 28.9242 31.4918 30.0314C31.5921 30.7247 31.6665 30.9312 32.2177 31.3617C33.7874 30.2214 41.754 28.6625 44.0537 28.2425C43.9383 28.0629 43.8472 27.8898 43.7749 27.6878C43.2808 26.3106 43.2284 24.4931 43.1784 23.0386C42.979 17.2644 43.7213 11.8749 46.2275 6.64148Z" fill="#EC622A"/>
<path d="M49.9396 144.421C49.8599 144.469 49.7703 144.519 49.7024 144.584C49.3649 144.902 49.3908 145.263 49.3807 145.701C49.3209 148.301 49.5772 150.992 49.6617 153.599C49.7861 157.51 49.7484 161.42 49.5486 165.329C50.276 165.646 51.023 166.053 51.6263 166.573C52.5775 167.394 53.3379 168.503 53.4126 169.792C53.4968 171.249 52.7748 172.316 51.8438 173.351L52.8959 175.116C55.215 175.257 57.4623 175.655 59.7227 176.181C59.8379 174.882 60.0399 173.606 60.2507 172.32L60.3135 171.671C60.0063 171.143 59.7257 170.617 59.5486 170.029C59.1968 168.861 59.1465 167.412 59.7691 166.324C60.7102 164.679 62.6944 163.881 64.4248 163.406C64.8051 157.833 64.634 152.161 64.4548 146.583C59.709 147.082 54.9263 147.441 50.1596 147.057C50.128 146.169 50.0501 145.302 49.9396 144.421Z" fill="#CFACE4"/>
<path d="M60.1162 4.76506C59.16 4.68864 58.2023 4.65369 57.243 4.66019C56.2838 4.66669 55.3267 4.71463 54.3716 4.80399C53.4164 4.89336 52.4669 5.02383 51.523 5.1954C50.5792 5.36697 49.6445 5.579 48.7189 5.83148C47.104 8.11855 46.1174 10.5048 45.5135 13.2351C44.8531 16.2207 44.018 25.4809 45.5391 27.885C47.7974 26.7588 56.7415 25.6656 59.7141 25.2569C59.6656 23.6338 59.6528 22.069 60.0016 20.4722C60.5492 17.9631 61.7823 16.2828 63.9195 14.9089C64.7263 14.5479 65.6064 14.2874 66.4831 14.1761C68.5837 13.9097 70.6721 14.3345 72.3442 15.6825C74.8436 17.6973 75.4555 20.7473 75.7903 23.7663L82.8608 23.5828C82.5329 20.4313 82.3358 16.1918 80.2974 13.6057C76.554 8.85566 65.9998 5.39422 60.1162 4.76506Z" fill="#FEFEFE"/>
<path d="M64.685 105.362C64.6017 105.377 64.5184 105.392 64.4353 105.408C57.1642 106.813 53.6133 110.204 49.5725 116.167C49.7716 114.96 50.8817 112.663 50.699 111.615C50.5692 111.557 50.4401 111.505 50.3014 111.471C49.2558 111.215 48.2047 111.533 47.3344 112.123C45.6433 113.268 44.7853 115.349 44.4169 117.29C43.8565 120.24 44.3407 123.443 46.0529 125.937C47.0032 127.32 48.4713 128.946 50.2222 129.233C51.0931 129.375 52.4951 129.537 53.2523 128.989C53.2883 128.663 53.3008 128.72 53.0487 128.498C51.0154 126.705 50.3341 125.462 49.4005 122.92C51.1532 124.693 52.4118 126.354 54.6419 127.612C58.5475 129.817 62.7487 129.862 66.96 128.686C67.4378 128.524 67.9113 128.35 68.3805 128.164C70.6222 127.268 73.9657 125.471 74.9472 123.181L74.7508 122.908C73.1303 122.755 71.505 123.736 69.8436 123.734L69.6469 123.508C71.3919 121.028 75.7582 121.32 77.7776 118.723C78.0975 118.312 78.296 117.85 78.2121 117.322C78.1472 116.913 78.1425 116.816 77.8103 116.584C75.7329 116.963 73.535 116.76 71.4433 116.642C71.3252 117.535 71.1088 118.847 70.3886 119.461C70.3439 119.398 70.2645 119.296 70.2311 119.219C69.9124 118.477 69.8433 115.216 70.1442 114.479C70.3448 114.463 70.4561 114.474 70.635 114.571C71.3252 114.947 71.9469 115.045 72.7276 115.098C74.6945 115.232 78.2749 115.423 79.7913 113.989C80.1588 113.641 80.4282 113.22 80.4032 112.694C80.3758 112.125 80.0047 111.625 79.5987 111.254C75.7871 107.776 67.0433 108.245 62.2689 108.529C63.4398 107.713 64.6073 107.303 65.9675 106.938C65.5558 106.402 65.113 105.885 64.685 105.362Z" fill="#FEFEFE"/>
<path d="M60.3157 121.281C59.0591 121.262 57.7362 121.223 56.5892 121.82C56.4142 121.912 56.4359 122.01 56.3776 122.189C56.838 122.607 57.3103 122.694 57.8943 122.829C57.98 122.833 58.0657 122.836 58.1514 122.838C59.269 122.867 61.2062 123.052 62.0791 122.218L62.0318 121.921C61.5032 121.472 60.9776 121.4 60.3157 121.281Z" fill="black"/>
<path d="M61.0781 117.332L60.7525 117.356C59.3632 117.466 56.8665 117.664 55.9308 118.762C56.0564 119.179 56.2245 119.206 56.5784 119.441C57.3775 119.362 58.1832 119.289 58.9763 119.162C59.9582 119.005 61.2924 118.855 61.8975 118.011C61.6609 117.562 61.5204 117.552 61.0781 117.332Z" fill="black"/>
<path d="M61.3529 113.416C61.2312 113.415 61.1095 113.414 60.9877 113.416C59.555 113.44 56.8068 114.029 55.8133 115.181C55.4845 115.562 55.5761 115.713 55.6357 116.182L55.8449 116.153C57.1723 115.957 60.5496 115.358 61.3235 114.223C61.5104 113.949 61.4011 113.729 61.3529 113.416Z" fill="black"/>
<path d="M60.7821 100.877C53.3621 99.918 44.6919 96.8814 38.0434 93.5497C35.3202 92.185 32.5957 90.7303 29.9925 89.1478C27.7428 87.7808 23.9091 83.9619 21.4824 83.6779C20.874 83.8175 20.4261 84.0278 19.9523 84.4336C17.8175 86.2613 17.1889 90.4498 16.0005 92.9545C15.2818 94.4698 14.266 95.8697 13.2996 97.2331C12.5094 98.3478 10.4371 100.586 10.3157 101.905C15.4791 102.213 20.1374 103.706 24.3946 106.686C25.5112 107.468 26.4672 108.458 27.5958 109.205L27.7362 109.297C27.4154 108.442 28.8315 102.307 29.1574 101.056C29.699 100.945 29.9199 101.06 30.4303 101.234C30.6669 101.69 30.6219 101.801 30.5547 102.306C30.263 104.492 29.7053 110.247 27.8201 111.502C27.0136 112.038 25.477 111.913 24.5621 111.754C24.5344 112.379 24.7347 112.69 25.1416 113.168C26.541 114.811 30.5446 115.233 32.6014 115.31C34.9767 115.399 42.8202 114.219 43.7865 114.441C43.7341 114.169 43.7669 114.025 43.8717 113.763C44.5258 112.123 45.6431 110.973 47.2693 110.296C48.9701 109.588 50.2237 109.556 51.9166 110.273C55.3871 106.859 58.6437 105.079 63.355 103.896L60.7821 100.877Z" fill="#EC622A"/>
<path d="M30.896 92.1675C30.6761 92.2 30.5353 92.2644 30.3347 92.3551C30.363 92.447 30.3895 92.5577 30.4398 92.6434C30.9124 93.4447 32.5398 94.2171 33.3383 94.6873C40.366 98.8237 48.1832 101.303 56.1326 102.966C56.2416 102.82 56.2761 102.643 56.332 102.471C56.0597 102.169 55.8353 102.093 55.4544 101.971C53.5404 101.358 51.5555 101.015 49.6338 100.446C44.8148 99.0215 34.4374 95.3312 30.896 92.1675Z" fill="black"/>
<path d="M83.8374 95.6785C81.9365 97.3773 77.7061 105.034 76.0698 107.743C77.9171 108.391 79.8279 109.057 81.1758 110.564C81.7889 111.249 82.2127 112.098 82.1338 113.042C82.0463 114.087 81.6118 114.687 80.8335 115.344C79.4835 116.482 79.7603 117.168 79.5416 118.818C79.4002 119.882 77.6713 121.035 76.8442 121.672C76.8493 122.293 76.8296 122.936 76.6139 123.524C75.4329 126.744 71.6642 128.502 68.7654 129.829C67.3975 134.647 66.1439 139.406 65.2657 144.341C68.4576 143.546 71.7496 143.037 74.9862 142.452C82.1773 141.153 89.3788 139.952 96.7005 139.809L98.8728 139.838C100.015 135.287 101.536 130.989 103.3 126.648C102.888 126.385 102.475 126.115 102.094 125.808C98.1365 122.613 100.773 122.495 100.63 119.592C100.586 118.71 99.9243 118.068 100.114 117.102C100.375 115.781 101.223 115.428 101.045 113.913C100.934 112.977 101.184 112.338 101.749 111.606C103.721 109.048 108.18 108.649 111.139 108.272C113.898 103.765 117.302 99.6943 120.907 95.8518C110.618 98.005 94.2907 96.7618 83.8374 95.6785Z" fill="#FEFEFE"/>
<path d="M94.4168 34.0633C93.5225 33.1125 92.612 32.1968 91.6225 31.3445C83.1248 24.0226 80.676 25.0358 70.1561 25.8515C64.754 26.1618 59.4022 26.9668 54.0716 27.8687C51.0222 28.4508 36.6007 31.033 34.5856 32.5053C32.9632 32.852 30.9385 33.2515 29.4653 33.9974C26.7135 35.3907 24.1433 39.061 22.5088 41.5809C18.457 47.8274 16.3341 54.7223 15.337 62.0591C15.0817 63.9393 14.7638 66.2324 15.087 68.1153C15.1338 68.3889 15.2477 68.6437 15.3576 68.8958C15.121 69.5393 15.029 69.7664 15.3314 70.4168C15.3501 70.4568 15.373 70.4949 15.3939 70.5343C14.9814 71.4025 15.2802 72.9689 15.5847 73.8568C15.6668 74.096 15.7811 74.23 15.954 74.4075C16.8826 76.058 18.5442 77.2174 19.4427 78.8589C19.9897 79.8584 19.7972 81.4975 20.4135 82.2461C21.6796 81.8469 22.6409 82.1238 23.7945 82.7288C26.9739 84.3969 30.8388 88.6126 34.1007 89.4175C34.6103 90.2121 36.3367 90.883 37.2278 91.3354C44.3284 94.9412 51.4644 97.138 59.1787 98.9484C57.6126 97.1791 53.0454 93.0019 53.2376 90.6954C53.2841 90.1372 53.5745 89.6401 53.9981 89.2809C54.6022 88.7686 55.446 88.578 56.2201 88.6794C56.9856 88.78 57.7043 89.1678 58.2808 89.6729C59.054 90.3511 59.6686 91.3046 60.3418 92.0878C62.8391 94.9937 65.2719 98.3552 68.0245 100.994C70.7507 101.097 73.5198 101.209 76.235 100.901L78.473 100.608L80.6579 97.2278C81.5073 96.1827 82.2397 94.9773 83.0046 93.8651C87.1046 94.5987 91.4998 94.8266 95.6588 95.0119C97.3126 93.5954 98.893 92.2349 100.119 90.4167C106.775 80.5526 108.428 67.4246 106.192 55.933C104.07 47.391 100.445 40.4868 94.4168 34.0633Z" fill="#208FB7"/>
<path d="M92.2808 34.6877C92.6725 34.4699 92.9478 34.3163 93.2085 33.9452L93.0942 33.4266C92.7359 33.108 92.3749 32.9057 91.8772 32.9367C91.3043 32.9728 91.1311 33.0761 90.7897 33.4878L90.9213 34.276L92.2808 34.6877Z" fill="#8DC84E"/>
<path d="M46.6456 41.8921C46.3161 41.9163 45.8879 41.9121 45.5983 42.0833C45.2652 42.2802 45.2548 42.4661 45.1471 42.8125C45.2789 43.5154 45.6024 43.917 46.0307 44.4675L46.6801 44.3953C47.1411 44.0644 47.1745 44.0047 47.3721 43.4698C47.2953 42.7457 47.1137 42.4357 46.6456 41.8921Z" fill="#8DC84E"/>
<path d="M52.2293 35.4464C52.1864 35.4575 52.1424 35.464 52.1013 35.4801C51.6513 35.6559 51.2936 35.8161 51.0534 36.237L51.229 36.6237C52.1356 37.3114 53.0448 37.5722 54.1695 37.6417C54.8338 37.3505 55.4873 37.1231 55.8975 36.4921L55.7912 36.2147C54.7335 35.7113 53.4091 35.9077 52.2293 35.4464Z" fill="#8DC84E"/>
<path d="M44.9632 39.3691C44.4421 39.3841 44.3284 39.3981 43.8858 39.6678C43.3186 41.0688 41.615 42.7092 41.6031 44.2347C41.9266 44.7007 42.1355 44.6726 42.648 44.8069C43.0811 44.8394 43.609 44.9217 44.0311 44.8123C45.1061 44.5339 44.1933 43.3265 44.4174 42.603C44.5915 42.0397 45.2269 41.4707 45.5087 40.9137C45.5418 40.2224 45.3364 39.9092 44.9632 39.3691Z" fill="#8DC84E"/>
<path d="M62.4069 40.8319C61.1849 40.8224 59.8962 41.0644 58.7977 41.61C56.5197 42.7423 55.6161 44.8564 54.8557 47.1316L56.7545 45.2314C59.1769 42.964 60.1504 43.2182 63.1423 43.2784C63.998 43.2957 64.9268 43.262 65.5649 42.6504L65.49 42.3282C65.3242 42.1453 65.1676 42.0048 64.956 41.8765C64.087 41.3493 63.4132 41.028 62.4069 40.8319Z" fill="black"/>
<path d="M70.1561 25.8514C64.754 26.1617 59.4023 26.9667 54.0716 27.8686C54.3823 28.1213 55.0752 28.5623 55.2743 28.8752C56.0529 30.0973 55.9457 31.928 56.8707 33.1915C57.932 34.6412 59.4424 34.7131 61.0728 34.9479C62.0282 36.013 62.5216 36.4524 63.9472 36.6783C65.1323 37.8353 65.8151 38.6179 66.3246 40.2176C66.9963 39.9939 67.682 39.7922 68.3344 39.5144C69.4014 39.0603 70.9427 37.4695 71.3228 36.3638C71.8234 34.9079 71.0079 35.1203 70.571 34.122L71.3889 34.1426C72.0127 33.7386 71.9657 32.6598 72.4722 32.0718C73.5273 30.847 76.0404 31.3548 77.4805 31.2659C78.0761 31.2289 78.2993 31.1496 78.688 30.7289C78.6859 30.5812 78.6945 30.532 78.6651 30.3983C78.1243 27.9542 72.0951 27.0222 70.2969 25.9386C70.2496 25.9102 70.2032 25.8804 70.1561 25.8514Z" fill="#8DC84E"/>
<path d="M64.839 51.4885C63.7709 51.4154 62.7206 51.4936 61.739 51.9513C59.809 52.8514 58.6673 54.6815 57.9917 56.6363C56.2944 61.5486 56.7533 68.8358 59.0453 73.4961C60.0938 75.6278 61.4012 76.9214 63.642 77.6739C64.9593 77.7881 66.1426 77.6634 67.292 76.9552C69.4661 75.6156 70.4786 73.0775 71.02 70.6856C72.0977 65.9245 72.0066 58.7737 69.292 54.535C68.1551 52.7595 66.8637 51.9432 64.839 51.4885Z" fill="black"/>
<path d="M64.9101 53.1077C64.2985 53.057 63.6714 53.0406 63.0717 53.1951C61.8306 53.5143 60.8199 54.495 60.1979 55.5843C57.9824 59.4649 58.4133 65.975 59.536 70.1373C60.1083 72.2591 60.9645 74.5743 62.9898 75.6967C63.4592 75.9566 63.9556 76.1111 64.4723 75.956C63.8845 74.9335 63.4125 73.9887 63.0485 72.8579C62.6794 71.2459 62.5645 69.6459 62.4851 67.9993L66.7062 66.6522C65.394 65.6557 63.9758 64.7968 62.5866 63.9125C62.8776 62.7447 63.1452 61.5979 63.6976 60.5181C64.1919 59.5521 64.9032 58.6501 65.9761 58.3184C67.2764 57.9165 68.28 58.3936 69.416 59.0022C69.1303 58.0576 68.7955 57.0674 68.3809 56.1715C67.6187 54.524 66.5878 53.7023 64.9101 53.1077Z" fill="#FEFEFE"/>
<path d="M90.8966 34.4765C90.4076 33.8989 90.0504 33.2872 89.2436 33.1652C89.2073 33.9743 89.2483 34.8291 88.6126 35.4261C88.1989 35.8146 87.6546 36.1311 87.1793 36.4408C86.6828 36.3251 86.7141 36.2475 86.451 35.8343C86.8052 35.194 88.4531 34.8521 88.2424 34.1557C88.137 33.8082 87.7719 33.4418 87.457 33.2744C86.9966 33.0301 86.6456 33.122 86.2073 33.335C86.007 33.4325 85.8156 33.5582 85.6272 33.6766C84.7355 33.6068 84.1141 33.2306 83.2067 33.4194C81.4218 33.7909 79.3989 33.9221 77.7736 34.813C77.1927 35.1317 76.7144 35.6099 76.1424 35.9366C75.6775 36.2021 75.1361 36.3036 74.6564 36.559C74.6391 36.9946 74.7331 37.0963 74.9397 37.4689C75.5153 37.7198 76.2388 37.4033 76.6266 37.6444L76.0596 38.4389C76.1766 38.9323 76.3224 39.1027 76.7433 39.4028C77.1317 39.68 77.7031 39.6183 78.1421 39.5097C79.026 39.2916 79.8567 38.8485 80.7483 38.6561C81.4105 38.5132 82.2585 38.7656 82.7966 38.358C82.6939 37.9379 82.6311 37.7783 82.254 37.5352C81.6469 37.1431 80.8385 37.0062 80.3873 36.4149C80.8965 35.7597 82.4933 35.5834 83.3424 35.3662L83.8105 35.5505C83.834 35.6102 83.857 35.6699 83.8808 35.729C84.215 36.553 84.7418 37.1431 85.3272 37.7986C84.9269 38.3798 84.3102 38.1838 83.9427 38.8494L84.1936 39.3139C86.337 39.7621 86.9474 37.3314 89.701 40.283C87.4614 39.8187 86.0614 39.7949 83.9174 40.7454L83.0189 40.9146C82.8575 40.3537 82.7174 39.9745 82.3242 39.5213C81.7093 39.2746 81.3778 39.2325 80.7379 39.4813C80.082 39.7367 78.4168 41.5089 77.9391 41.3535C77.2013 41.1136 77.1718 40.3859 76.3213 40.3919C75.5974 40.9814 75.1793 41.9794 74.7355 42.7912C72.8162 43.5213 72.2412 44.7958 71.3888 46.6152C71.173 47.0755 71.1454 47.3023 71.2793 47.7871C71.8742 48.0932 72.6221 48.0568 73.2516 47.8638C73.7245 47.7188 73.8933 47.6147 74.2218 47.2453C74.1516 46.8694 74.0668 46.5483 73.9195 46.1948C74.5442 46.364 77.2876 46.819 77.4715 46.9723L77.3519 47.0135C77.0159 47.1325 76.8082 47.2229 76.5528 47.4726C76.3582 48.0398 76.3317 48.2322 75.8361 48.6037L75.1168 48.6923L74.834 49.0909C74.9251 49.5542 75.1105 49.8896 75.518 50.1521C76.5097 50.7906 77.4709 49.9642 78.3724 50.1447C79.0617 50.2825 81.6715 53.184 82.0763 53.8481C79.8192 59.0871 79.0424 65.1129 80.6266 70.6661C81.4186 72.8187 82.2218 74.1515 84.1099 75.5391C84.3799 75.6322 84.648 75.7065 84.9272 75.7667C86.3543 76.074 87.6843 75.8882 88.918 75.0725C91.4031 73.4292 92.1766 70.3126 92.7355 67.5695L95.2546 67.6322C96.0724 67.1611 97.1385 66.6712 97.787 65.9862C98.7174 65.004 99.1879 63.3339 99.815 62.1351C100.527 60.774 101.608 59.4305 102.659 58.3156C102.09 59.8068 100.459 62.0339 100.576 63.5976L100.848 63.6623C103.101 61.7025 102.881 58.645 106.192 55.933C104.07 47.3909 100.445 40.4868 94.4168 34.0633C93.8302 34.4478 93.2287 34.9001 92.5843 35.1755C93.0462 35.5255 93.5555 35.7645 94.0147 36.1443L93.9409 36.2943C92.9751 36.4247 92.0653 36.3764 91.0992 36.3116L90.9421 35.9154L90.7817 36.2514L90.537 36.0112C90.7332 35.6863 90.9433 35.3706 91.1519 35.0535L90.8966 34.4765Z" fill="#8DC84E"/>
<path d="M92.8044 59.5962C93.0657 61.6775 93.0282 63.7555 93.0265 65.8487C93.333 65.682 93.6815 65.5005 93.8931 65.2138C94.3428 64.6043 94.4556 63.3432 94.3729 62.6077C94.2196 61.2392 93.8958 60.436 92.8044 59.5962Z" fill="#208FB7"/>
<path d="M83.9176 40.7455L83.0191 40.9146C82.8054 41.5096 82.4974 42.0997 82.6736 42.7325C82.8492 42.9339 83.2286 43.2716 83.342 43.4984C83.6733 44.1604 83.4126 45.352 84.084 45.7978C84.6462 45.3243 84.8164 44.6127 85.0516 43.9414C86.4307 43.5088 87.8828 43.1457 89.1396 42.4159C87.6066 42.0579 86.4069 42.5896 84.9042 42.6618C84.3239 42.6898 84.0757 42.6129 83.6444 42.2408C83.5105 41.6396 83.6843 41.2819 83.9176 40.7455Z" fill="#208FB7"/>
<path d="M89.701 40.283C87.4614 39.8188 86.0614 39.7949 83.9174 40.7455C83.6841 41.2819 83.5102 41.6396 83.6442 42.2408C84.0754 42.6128 84.3236 42.6898 84.904 42.6618C86.4067 42.5896 87.6064 42.0579 89.1394 42.4159C91.2391 43.038 92.8629 44.4376 94.5605 45.7605C93.3233 43.1541 92.1594 41.7602 89.701 40.283Z" fill="black"/>
<path d="M92.8044 59.5962C92.4089 57.0432 91.53 54.236 89.4797 52.5262C88.4824 51.6944 87.2286 51.1732 85.914 51.3089C84.2048 51.4852 83.116 52.5915 82.0765 53.8482C79.8193 59.0872 79.0425 65.113 80.6268 70.6662C81.4187 72.8188 82.222 74.1515 84.1101 75.5392C84.38 75.6323 84.6482 75.7065 84.9274 75.7668C86.3545 76.0741 87.6845 75.8882 88.9181 75.0726C91.4033 73.4292 92.1768 70.3127 92.7357 67.5696L93.0265 65.8487C93.0282 63.7555 93.0658 61.6775 92.8044 59.5962Z" fill="black"/>
<path d="M86.5981 52.9054C86.2273 52.9349 85.8535 52.9803 85.4931 53.0775C84.4428 53.3616 83.6234 54.4664 83.1354 55.3772C81.0639 59.2415 80.7993 65.7506 82.0871 69.9141C82.7333 72.0031 83.5761 73.315 85.5068 74.3401C84.8678 72.9489 84.5282 71.6532 84.3886 70.1265L84.2642 67.1672C85.6487 66.8318 87.0011 66.4171 88.3607 65.9931C87.1318 65.1076 85.8089 64.3194 84.5347 63.4986C84.7969 62.6797 85.0868 61.8601 85.4431 61.0772C85.9136 60.0437 86.6553 59.0368 87.7621 58.6495C89.0148 58.2113 90.0895 58.6925 91.2231 59.2274C90.8705 58.0141 90.4952 56.67 89.902 55.5491C89.1252 54.0818 88.1612 53.3768 86.5981 52.9054Z" fill="#FEFEFE"/>
<path d="M106.192 55.933C102.881 58.645 103.101 61.7025 100.848 63.6624L100.576 63.5976C100.459 62.034 102.09 59.8068 102.659 58.3156C101.608 59.4305 100.527 60.774 99.815 62.1351C99.1879 63.3339 98.7174 65.004 97.787 65.9862C97.1385 66.6712 96.0725 67.1611 95.2546 67.6322L92.7355 67.5696C92.1766 70.3126 91.4031 73.4292 88.918 75.0725C87.6844 75.8882 86.3543 76.0741 84.9272 75.7668C84.6481 75.7065 84.3799 75.6322 84.11 75.5391C82.2219 74.1515 81.4186 72.8187 80.6266 70.6661L78.2457 71.6051C77.7397 71.4422 76.7948 71.0197 76.2983 71.1349C75.646 71.9598 75.0073 72.9193 74.0793 73.4438L73.9659 73.5088C71.0457 75.165 70.7373 73.5369 69.5466 77.5759C67.4162 78.2571 62.6064 79.3165 61.6225 81.4664C61.3879 81.979 61.4912 82.5677 61.7153 83.0638C61.8788 83.4324 62.0779 83.7805 62.3126 84.108C61.5795 83.854 60.8556 83.5759 60.1409 83.2736C59.4264 82.9712 58.7228 82.6453 58.0299 82.2959C57.3368 81.9464 56.6563 81.5742 55.9882 81.1794C55.3202 80.7844 54.6659 80.3675 54.0254 79.9287C54.4141 79.0412 54.7347 78.2434 54.8766 77.2809L54.7186 76.9014C53.9969 77.1004 52.8626 79.0179 52.1415 79.6009C51.3918 80.2068 49.4231 80.6421 49.0007 81.2713C49.3123 81.5992 49.4403 81.6064 49.9004 81.6153C50.924 81.6347 51.8525 81.3223 52.7677 80.8981C56.1713 83.4687 59.9364 85.1454 63.9945 86.4006C64.3088 87.8526 64.7147 89.3214 65.3638 90.6634C66.3188 91.0849 67.2801 91.4912 68.2478 91.8825C68.8605 93.913 69.7239 95.8329 71.4501 97.1555C71.8832 97.1958 72.2859 97.2265 72.6986 97.37C72.7174 98.107 72.6942 98.7147 73.1103 99.3529C74.1344 100.226 75.3174 99.807 76.235 100.901L78.473 100.608L80.6579 97.2277C81.5073 96.1826 82.2397 94.9773 83.0046 93.865C87.1046 94.5987 91.4998 94.8266 95.6588 95.0119C97.3126 93.5953 98.893 92.2348 100.119 90.4167C106.775 80.5526 108.428 67.4246 106.192 55.933Z" fill="#208FB7"/>
<path d="M54.0257 79.9287C54.4144 79.0411 54.7349 78.2434 54.8769 77.2809L54.7189 76.9014C53.9971 77.1004 52.8629 79.0179 52.1418 79.6008C51.3921 80.2068 49.4233 80.6421 49.001 81.2713C49.3126 81.5992 49.4406 81.6064 49.9007 81.6153C50.9242 81.6347 51.8528 81.3223 52.768 80.8981C56.1715 83.4687 59.9367 85.1454 63.9947 86.4006C69.2102 87.9001 74.7221 88.6191 80.1439 88.066C85.0963 87.4692 89.326 86.1693 93.7974 83.9702C94.5108 84.4192 95.3308 84.8536 96.1891 84.8673C96.2489 84.4643 95.7281 84.0633 95.4647 83.7512C94.2129 82.2669 93.8745 81.2128 92.9317 79.6265L92.6602 79.6683C92.0727 80.5582 92.8409 81.8409 92.3311 82.8257C89.298 84.3852 86.1903 85.3286 82.865 86.0348C82.4362 86.1078 82.0063 86.1738 81.5751 86.2329C81.1442 86.2918 80.7123 86.3437 80.2796 86.3886C79.8468 86.4334 79.4135 86.4711 78.9796 86.5017C78.5456 86.5323 78.1113 86.5558 77.6766 86.5721C77.2419 86.5886 76.807 86.5979 76.3718 86.5999C75.9369 86.602 75.502 86.5971 75.0671 86.5849C74.6323 86.5728 74.1978 86.5535 73.7635 86.5271C73.3294 86.5006 72.8957 86.4671 72.4626 86.4265C72.0295 86.3859 71.5971 86.3383 71.1656 86.2836C70.7341 86.2287 70.3035 86.1668 69.8739 86.098C69.4444 86.029 69.016 85.9531 68.5888 85.8704C68.1618 85.7874 67.7362 85.6974 67.312 85.6004C66.8878 85.5035 66.4654 85.3998 66.0447 85.2892C65.6239 85.1784 65.2051 85.0608 64.7882 84.9363C64.3711 84.8117 63.9564 84.6805 63.5439 84.5424C63.1312 84.4044 62.7208 84.2596 62.3129 84.108C61.5798 83.854 60.8559 83.5759 60.1412 83.2735C59.4267 82.9712 58.723 82.6453 58.0302 82.2958C57.3371 81.9464 56.6566 81.5742 55.9885 81.1794C55.3204 80.7844 54.6662 80.3675 54.0257 79.9287Z" fill="black"/>
<path d="M80.1439 88.066C74.7222 88.6192 69.2103 87.9001 63.9948 86.4006C64.3091 87.8527 64.715 89.3215 65.3642 90.6635C66.3191 91.0849 67.2804 91.4913 68.2481 91.8825C68.8609 93.9131 69.7243 95.833 71.4505 97.1556C71.8835 97.1959 72.2862 97.2266 72.699 97.3701C72.7177 98.107 72.6945 98.7148 73.1106 99.3529C74.1347 100.227 75.3177 99.807 76.2353 100.901L78.4734 100.608L80.6582 97.2278C80.0121 94.3254 79.8862 91.026 80.1439 88.066Z" fill="#8DC84E"/>
<path d="M78.6416 91.219C76.8481 91.0071 74.5261 92.0639 72.6845 92.265C71.7934 92.3622 70.1961 92.0105 69.4485 92.3688L69.636 92.7101C69.756 92.7706 69.8772 92.8288 69.9996 92.8847C71.9255 93.7597 74.6002 93.8161 76.5678 93.0386C77.5357 92.6561 78.2139 92.1862 78.6416 91.219Z" fill="black"/>
<path d="M80.6269 70.6661L78.2459 71.605C77.74 71.4421 76.795 71.0197 76.2986 71.1349C75.6462 71.9598 75.0075 72.9193 74.0796 73.4438L73.9662 73.5088C71.0459 75.165 70.7376 73.5369 69.5468 77.5759C67.4165 78.2571 62.6066 79.3165 61.6227 81.4664C61.3882 81.979 61.4915 82.5677 61.7156 83.0638C61.8791 83.4324 62.0782 83.7805 62.3129 84.108C62.7208 84.2596 63.1312 84.4044 63.5439 84.5424C63.9564 84.6805 64.3711 84.8118 64.7882 84.9363C65.2051 85.0608 65.6239 85.1784 66.0447 85.2892C66.4654 85.3998 66.8878 85.5035 67.312 85.6004C67.7362 85.6975 68.1618 85.7875 68.5888 85.8704C69.016 85.9533 69.4443 86.0292 69.8739 86.098C70.3035 86.1669 70.734 86.2287 71.1656 86.2836C71.5971 86.3383 72.0295 86.3859 72.4626 86.4265C72.8957 86.4671 73.3294 86.5006 73.7635 86.5271C74.1978 86.5535 74.6323 86.5728 75.0671 86.585C75.502 86.5971 75.9369 86.6021 76.3718 86.5999C76.8069 86.5979 77.2419 86.5886 77.6766 86.5721C78.1113 86.5558 78.5456 86.5323 78.9796 86.5017C79.4135 86.4711 79.8468 86.4334 80.2796 86.3886C80.7123 86.3437 81.1441 86.2918 81.5751 86.2329C82.0062 86.1738 82.4362 86.1078 82.865 86.0348C83.5894 84.0907 84.298 82.4528 85.5933 80.811C85.4894 78.6575 85.165 77.4232 84.1102 75.5391C82.2221 74.1515 81.4189 72.8187 80.6269 70.6661Z" fill="#8DC84E"/>
<path d="M40.3948 37.6006C37.8335 36.6083 36.3335 34.4864 34.5855 32.5054C32.9632 32.8521 30.9385 33.2515 29.4653 33.9974C26.7135 35.3907 24.1433 39.061 22.5088 41.5809C18.457 47.8275 16.3341 54.7224 15.337 62.0591C15.0817 63.9393 14.7638 66.2324 15.087 68.1153C15.1338 68.3889 15.2477 68.6437 15.3576 68.8958C15.121 69.5394 15.029 69.7664 15.3314 70.4168C15.3501 70.4568 15.373 70.495 15.3939 70.5344C14.9814 71.4026 15.2802 72.9689 15.5846 73.8568C15.6668 74.0961 15.7811 74.23 15.954 74.4075C16.8826 76.058 18.5442 77.2174 19.4427 78.8589C19.9897 79.8584 19.7972 81.4976 20.4135 82.2461C21.6796 81.8469 22.6409 82.1238 23.7945 82.7288C26.9739 84.3969 30.8388 88.6126 34.1007 89.4176C34.3442 86.7963 33.5079 86.5027 33.4469 84.8221C33.4046 84.5706 33.4099 84.3629 33.432 84.1084C33.6192 81.9314 33.9108 79.6433 35.6826 78.1513C35.3046 77.5683 35.0457 76.4435 35.1007 75.7433C35.2135 74.3118 36.8364 74.3151 37.6334 73.5802C37.9582 73.281 38.2927 73.0408 38.6534 72.7875C40.0337 74.0779 42.7227 73.8323 44.5073 74.4469C44.8001 73.9949 45.304 73.6295 45.6564 73.2079C46.8969 71.7242 48.346 70.0788 49.2867 68.3934C48.9049 66.518 48.7903 65.2476 49.3799 63.3721C48.2635 60.0515 46.1647 57.091 44.1403 54.2581V54.1841C44.7552 53.8294 45.6573 53.6483 46.3421 53.4275L46.5082 49.4818C45.5683 49.3944 44.1296 49.4466 43.2817 49.0955C42.8338 48.9099 42.8251 48.824 42.6558 48.403C42.9454 47.436 43.898 47.0634 44.2719 46.1895C43.6805 45.5964 42.6656 45.409 41.8784 45.1689C41.0721 44.7682 40.262 43.9409 39.4346 43.4462C37.9933 42.5852 38.6838 42.7797 38.1802 41.506C38.0076 41.0692 37.7841 40.977 37.3725 40.8326L37.1097 41.1608C36.7475 41.6728 36.4052 42.1818 35.7745 42.3757C34.6966 42.7075 33.5814 42.6466 32.6025 42.0636C31.9162 41.6552 31.3055 40.4227 31.1358 39.6527C29.9254 39.6002 29.0159 39.5402 27.907 39.0225C28.271 38.6699 30.5713 39.0843 31.3567 38.7988C31.7656 38.4602 31.9156 38.2283 32.0629 37.7176C32.0516 36.9759 31.5138 36.4436 31.0799 35.8875L31.1683 35.576C32.2165 35.4904 33.4046 37.2545 34.2722 37.8402C34.3114 37.8664 34.3513 37.8915 34.3912 37.9172C33.957 38.3077 33.354 38.7636 33.29 39.3833C33.2346 39.923 33.3912 40.5024 33.7344 40.9254C34.0656 41.3342 34.7046 41.6173 35.2314 41.6495C35.9192 41.6913 36.2775 41.2205 36.7605 40.813L36.8224 40.1992C37.3221 39.957 38.132 40.4164 38.7049 40.5382C39.8986 39.9301 39.6986 38.7925 40.3141 37.734C40.3403 37.6892 40.368 37.6451 40.3948 37.6006Z" fill="#8DC84E"/>
<path d="M24.106 58.8014C23.6426 59.0553 23.0825 59.3134 22.7197 59.7006C20.8515 61.6948 18.8363 66.8673 18.0063 69.5208C17.8819 69.5701 17.9152 69.5617 17.7551 69.5966C16.9601 69.77 16.0146 69.3078 15.3577 68.8958C15.1211 69.5393 15.0292 69.7664 15.3316 70.4168C15.3503 70.4568 15.3732 70.495 15.3941 70.5343C16.1274 70.7059 16.6988 71.1087 17.4866 71.1119C18.0185 70.6787 18.0479 70.3804 18.2691 69.7413C18.8476 68.6446 20.0223 67.407 20.7003 66.0904C21.9357 63.6923 22.2923 60.9051 24.106 58.8014Z" fill="#208FB7"/>
<path d="M37.2189 49.056C36.9778 49.264 36.7356 49.4687 36.5031 49.6864C35.6763 50.4604 34.4284 50.8986 33.7629 51.7991C33.8567 52.283 34.0409 52.5799 34.3132 52.9865L34.2371 53.292C33.9561 53.4069 33.8579 53.5167 33.5662 53.3815C32.9382 53.0906 32.5701 52.3173 32.3606 51.6938C32.2984 51.5091 32.3174 51.4488 32.4028 51.2755C32.6463 50.7808 33.3451 50.3771 33.3859 49.8419C32.932 49.8547 32.5897 49.9779 32.2674 50.3172C31.271 51.3674 31.0781 53.4501 29.5805 53.9195C29.3031 53.7372 29.0888 53.6661 29.0052 53.3096C28.8457 52.6294 29.3019 52.1165 28.9376 51.413C28.4052 51.3259 28.3621 51.4399 27.9204 51.7194C27.7439 52.1541 27.6632 52.5536 27.5992 53.0178C27.1623 53.5719 26.6067 53.7891 25.9237 53.8595C25.0686 53.9481 24.2112 53.838 23.357 53.8711C23.0734 54.5487 23.1144 55.4888 23.3638 56.1771C23.5156 56.596 23.782 56.8862 24.1954 57.0593C25.9823 57.8082 28.851 55.1904 30.1862 56.3128L30.582 57.4263C30.9856 57.5748 31.1635 57.517 31.5671 57.3403C32.8281 56.7884 33.6585 55.9202 35.0865 55.6866C35.6561 54.7253 34.7948 53.883 36.0472 53.1527C37.9418 53.0053 39.768 53.4803 41.5609 54.0528C42.054 54.2106 42.6379 54.4991 43.1567 54.5251C43.5537 54.5451 43.8067 54.4642 44.1406 54.2581V54.1841C41.7546 53.3403 41.3463 51.7597 39.8296 49.9576C38.9183 49.7184 38.065 49.4857 37.2189 49.056Z" fill="#208FB7"/>
</g>
<defs>
<clipPath id="clip0_2226_961">
<rect width="125" height="199" fill="white" transform="matrix(-1 0 0 1 125 0)"/>
</clipPath>
</defs>
</svg>
