<svg width="119" height="152" viewBox="0 0 119 152" fill="none" xmlns="http://www.w3.org/2000/svg">
<g clip-path="url(#clip0_2221_603)">
<path d="M224.047 -22.6434H-114.812C-114.961 -22.4081 -115.048 -22.1938 -115.069 -21.9155C-115.187 -20.4564 -115.101 -18.9279 -115.101 -17.4618V-8.94956L-115.103 18.101L-115.101 122.192V150.861V158.382C-115.098 159.452 -115.233 160.738 -115.055 161.78C-115.019 161.989 -114.922 162.181 -114.812 162.358H224.047V-22.6434Z" fill="#CFACE4"/>
<path d="M71.5288 136.308C69.1719 135.906 66.3477 136.146 63.9469 136.124C64.05 137.397 64.426 139.053 63.7265 140.198C61.0579 142.407 44.9222 143.105 40.8553 142.725C39.8901 142.634 38.0236 142.522 37.3631 141.785C36.576 140.905 36.6725 139.115 36.7901 138.01C36.8277 137.659 36.9332 137.38 37.0738 137.059C36.0576 137.608 34.1142 137.624 32.954 137.763C29.5471 138.17 20.3335 139.017 18.0852 141.493C17.7533 141.858 17.7501 142.093 17.7771 142.548C17.9404 142.84 18.118 143.074 18.3937 143.269C20.5469 144.79 25.6165 145.595 28.2666 146.009C39.6786 147.795 51.3968 148.014 62.9278 147.984C73.6887 147.955 84.877 147.742 95.4939 145.848C97.4601 145.497 103.834 144.437 104.814 142.706C104.997 142.381 104.997 142.023 104.846 141.686C103.91 139.604 94.6694 138.358 92.2643 138.044C91.3083 137.919 89.6812 137.946 88.8714 137.57C88.5809 137.435 88.5118 136.888 88.4197 136.593C88.4903 137.365 88.5383 138.146 88.5207 138.922C88.4841 140.536 88.0917 141.963 86.8941 143.097C84.7156 145.161 80.7668 145.93 77.8406 145.838C75.2826 145.758 72.3921 145.199 70.5856 143.273C70.1007 140.73 70.5622 138.668 71.5288 136.308Z" fill="#141414"/>
<path d="M83.9604 4.54343C83.8392 3.26817 83.4203 2.33473 82.4238 1.49163C81.7308 0.905066 80.8989 0.617519 79.9903 0.706431C79.1603 0.78761 78.4863 1.11789 77.9679 1.77202C77.8579 1.91206 77.7516 2.0549 77.6488 2.20056C73.4689 1.37607 65.8027 1.65615 62.1872 4.08839C60.4667 5.24586 59.4533 6.90533 58.4344 8.65201C55.266 7.67087 50.0817 6.1846 46.9287 7.84214C45.8063 8.43208 45.1352 9.31493 44.7833 10.5215C44.737 10.6807 44.6932 10.8406 44.6518 11.0011C45.24 13.3455 46.5619 14.6706 48.6004 15.8933C49.4198 16.3847 50.2686 16.8795 51.1466 17.2582C47.252 19.0716 41.0999 22.2549 38.4743 25.6811C37.449 25.5886 36.4689 25.4274 35.6051 26.1412C34.784 26.82 30.7226 32.7983 30.0858 33.9953C29.7466 34.6322 29.4246 35.4257 29.3629 36.15C29.3171 36.6875 29.4337 37.6204 29.7736 38.0562C29.8109 38.1041 29.8576 38.1441 29.8996 38.1879C28.2604 40.3518 25.8296 49.4239 26.0998 52.1642C26.1102 52.2681 26.1343 52.3651 26.1557 52.4675C24.3882 53.044 22.7847 54.0711 21.9301 55.7807C21.6555 56.3297 21.4503 56.9991 21.3814 57.6107C20.1435 57.8051 18.7385 58.1515 17.9506 59.2266C17.2415 60.194 17.3617 61.4738 17.4106 62.6062C16.8715 61.1715 16.5319 59.915 15.0443 59.2437C14.5505 59.0209 14.0476 58.8101 13.5343 58.6369C13.5196 58.593 13.5041 58.5494 13.4904 58.5054C13.3295 57.9903 13.4203 57.2125 13.3861 56.6626C13.2353 54.2315 12.7415 51.1679 10.4444 49.8368C9.75666 49.4384 8.91794 49.2312 8.13944 49.4675C7.52233 49.6549 7.06829 50.1071 6.78503 50.6731C6.324 51.5943 6.44154 52.441 6.76913 53.3891C7.08756 54.3103 7.45441 55.2878 8.00866 56.0938C7.15765 55.7754 5.4388 55.2038 4.57503 55.5542C3.88421 55.8346 3.09126 57.2947 2.50835 57.8533C2.07309 58.2702 1.46513 58.5102 1.07323 58.9551C0.795265 59.2704 0.590759 59.6975 0.449852 60.0902C-0.290833 62.1555 0.341698 64.6335 1.26833 66.5488C1.95963 67.9773 2.7102 68.8854 4.00922 69.7856C4.34716 70.02 4.79302 70.2701 5.04401 70.6018C5.81697 71.6236 4.76339 72.6214 6.49502 73.2351C7.29086 73.5172 8.04935 73.5767 8.8847 73.6088C9.63718 76.7851 12.9032 80.4199 15.6397 82.0996C18.8183 84.0505 22.9328 84.7149 26.5541 83.8265C28.372 83.3806 30.0542 82.5917 31.6146 81.5617C32.1698 81.195 32.7346 80.6892 33.3265 80.3991C33.517 81.0628 34.0874 81.704 34.4944 82.2559C37.5463 86.3924 40.6974 88.4696 44.453 91.6556C44.9825 93.6231 45.7627 94.8671 47.5757 95.9265C48.9585 96.7347 50.537 97.3759 52.0427 97.9227C50.4594 106.544 50.4028 116.204 51.7698 124.849C50.8968 125.029 49.9801 125.298 49.462 126.091C48.8227 127.07 49.0739 128.298 49.21 129.383C47.7713 129.869 46.44 129.743 45.6798 131.266C45.6424 131.341 45.6059 131.416 45.5704 131.492C43.4115 131.13 41.4922 131.007 39.5971 132.332C38.1981 133.31 37.3707 134.77 37.0739 136.44C37.0376 136.645 37.047 136.854 37.0737 137.059C36.933 137.38 36.8275 137.659 36.7899 138.01C36.6724 139.115 36.5758 140.905 37.363 141.785C38.0235 142.522 39.89 142.634 40.8551 142.725C44.922 143.105 61.0578 142.407 63.7264 140.198C64.4259 139.053 64.0499 137.397 63.9468 136.124C66.3476 136.146 69.1718 135.906 71.5287 136.308C70.5621 138.668 70.1006 140.73 70.5855 143.273C72.392 145.199 75.2825 145.758 77.8405 145.838C80.7666 145.93 84.7155 145.161 86.8939 143.097C88.0915 141.963 88.4839 140.536 88.5205 138.922C88.5381 138.146 88.4902 137.365 88.4196 136.593C88.3127 134.773 87.1307 126.782 85.8818 125.637C85.0122 124.839 83.6829 124.615 82.5563 124.43C80.743 117.755 79.7569 110.484 80.4723 103.575C80.6594 101.769 81.099 100.023 81.3659 98.2361C82.6069 97.8734 83.8676 97.5009 84.9489 96.7665C85.2485 96.1828 85.5648 95.4416 86.0261 94.9736C87.3147 93.6658 89.174 92.7776 90.6867 91.7365C92.7645 90.3064 94.6659 88.7249 96.4919 86.9877C98.3038 86.8537 99.3872 86.3753 100.601 84.9459C102.069 83.2168 102.293 81.5026 103.035 79.4804C103.284 78.8045 103.75 78.1317 104.098 77.4957C106.26 78.8105 109.074 80.5092 109.698 83.1525C110.097 84.8416 109.506 86.562 108.595 87.9801C108.06 88.8126 107.414 89.5473 106.745 90.2724C105.787 89.9296 104.684 89.5333 103.689 89.9879C102.981 90.3112 102.465 91.0656 102.238 91.79C102.187 91.9533 102.149 92.1195 102.116 92.2874C99.3935 92.8923 98.0699 93.707 96.1581 95.7403C95.6865 96.2416 95.2059 96.8385 94.6247 97.2145C93.5928 97.8825 91.9334 98.0849 91.2142 99.1368C90.8524 99.6658 90.8669 100.33 91.0193 100.926C91.2217 101.717 91.5637 102.41 92.301 102.817C92.9184 103.157 93.5319 103.236 94.2251 103.271C94.1774 104.995 94.1078 107.085 95.3717 108.442C95.9078 109.018 96.7381 109.409 97.527 109.44C97.8033 109.45 98.0807 109.406 98.3534 109.368C98.4712 109.351 98.5878 109.336 98.7053 109.317C99.7473 110.296 100.462 110.964 101.98 110.92C102.748 110.897 103.559 110.784 104.325 110.847C106.756 111.048 107.997 111.948 110.084 109.765C110.8 109.016 111.265 108.029 111.216 106.978C111.184 106.291 110.928 105.725 110.416 105.264C110.226 105.093 110.025 104.947 109.81 104.809C110.828 102.824 111.014 101.423 110.934 99.2069C111.576 98.8297 112.21 98.4577 112.369 97.6597C112.504 96.9893 111.994 96.1881 112.181 95.5669C112.467 94.6132 114.251 92.7959 114.897 91.8618C118.267 86.9828 118.18 81.031 114.585 76.3175C112.468 73.5432 109.308 71.354 106.137 69.9547C107.67 65.1505 108.858 59.5397 108.292 54.4729C109.452 52.8886 109.651 51.9592 109.353 50.017C109.145 48.6663 107.931 43.1526 107.516 42.0829C107.3 41.5271 107.056 41.0217 106.567 40.6561C106.022 40.2478 105.303 39.9616 104.68 39.681C102.073 34.2278 98.681 28.4091 93.7489 24.7228C94.789 21.0112 95.1113 17.1736 93.1491 13.674C91.2376 10.2645 87.1888 6.68733 83.9604 4.54343Z" fill="#141414"/>
<path d="M107.374 72.4838C107.083 72.5194 106.856 72.6073 106.587 72.7215C106.443 73.1599 106.541 73.2491 106.698 73.6699C106.948 73.6383 107.186 73.5721 107.431 73.5104C107.647 73.0829 107.506 72.9137 107.374 72.4838Z" fill="#777677"/>
<path d="M113.441 78.4702C113.362 78.4912 113.335 78.495 113.252 78.5362C112.874 78.7248 112.861 78.826 112.752 79.2112C112.868 79.6958 113.103 79.9334 113.438 80.2757C113.738 80.1157 113.85 79.9941 114.023 79.7028C114.035 79.1941 113.726 78.8588 113.441 78.4702Z" fill="#777677"/>
<path d="M86.5745 133.235C86.2465 133.322 86.1237 133.455 85.9023 133.706C85.6041 134.552 85.898 135.178 86.2277 135.952L86.678 136.007L86.8991 135.709C86.9892 134.881 86.7446 134.041 86.5745 133.235Z" fill="#FEFEFE"/>
<path d="M102.452 108.674C102.426 108.689 102.403 108.708 102.375 108.721C101.588 109.069 100.254 108.38 99.5358 108.052C100.172 108.962 100.715 109.447 101.835 109.635C102.193 109.695 102.45 109.668 102.787 109.541L102.908 109.24C102.767 109.029 102.659 108.825 102.452 108.674Z" fill="#D9D8D8"/>
<path d="M84.5601 94.7041C83.9093 94.9026 81.7387 95.6667 81.4849 96.2354C81.4456 96.3238 81.4493 96.3426 81.4411 96.4269L81.5574 96.5744C81.9721 96.7343 82.3598 96.5816 82.7697 96.4199C83.6596 96.0692 84.18 95.5679 84.5601 94.7041Z" fill="#FDE2A6"/>
<path d="M42.1494 66.1116C41.8202 65.7934 41.4565 65.6055 41.0582 65.3901C39.9463 65.4537 38.3419 65.2856 37.4826 66.1162C37.9016 66.1822 38.3308 66.274 38.7532 66.3067C39.4194 65.8618 41.3405 66.1003 42.1494 66.1116Z" fill="#B6D1E9"/>
<path d="M10.2669 63.0626C10.1172 63.0248 9.94377 62.9865 9.78915 63.0121C9.29906 63.093 8.18088 63.4974 7.90368 63.8923C8.0896 64.2837 8.38752 64.3596 8.75695 64.5566C8.90025 64.8428 8.87592 64.8866 9.19021 64.9994C9.34289 64.8409 9.49509 64.6792 9.63068 64.5056C9.95171 64.0936 10.3375 63.5808 10.2669 63.0626Z" fill="#D9D8D8"/>
<path d="M75.3187 126.814C75.1313 126.934 74.8656 127.112 74.7243 127.29C74.4853 127.591 74.378 127.831 74.4181 128.211C74.4839 128.833 75.0944 129.232 75.5445 129.59C75.6287 129.62 75.8102 129.602 75.9021 129.602C76.1308 128.611 75.6157 127.75 75.3187 126.814Z" fill="#484848"/>
<path d="M53.5995 126.609C53.3831 127.983 53.4743 129.359 53.1942 130.729C53.2038 130.735 53.2127 130.743 53.2233 130.746C53.5552 130.855 53.5978 130.833 53.9005 130.653C54.074 130.215 54.257 129.741 54.3092 129.27C54.429 128.192 54.2892 127.441 53.5995 126.609Z" fill="#413F40"/>
<path d="M78.2012 3.70641C76.4248 3.16923 74.8905 2.77947 73.1618 3.70978L73.0378 3.77723C73.1789 3.85817 73.3292 3.94224 73.4886 3.9803C74.4635 4.21203 77.3785 4.25924 78.2012 3.70641Z" fill="#94C4E0"/>
<path d="M81.413 131.778C81.6283 131.836 81.7932 131.826 82.0124 131.819C82.1487 131.712 82.2952 131.593 82.3877 131.445C82.7073 130.932 82.6673 130.096 82.5487 129.527C82.3838 128.737 81.9792 128.416 81.3309 128C81.5058 129.257 81.573 130.515 81.413 131.778Z" fill="#413F40"/>
<path d="M84.2686 139.026C82.1631 141.201 80.7585 140.666 79.4831 141.669C79.5094 141.67 79.5356 141.672 79.5618 141.673C81.0239 141.722 83.2128 141.39 84.2997 140.39C84.5114 139.823 84.398 139.606 84.2686 139.026Z" fill="#D9D8D8"/>
<path d="M80.1325 134.071C78.7068 133.999 77.6436 134.008 76.2682 134.429L76.1913 134.649C76.7395 134.776 77.2081 134.725 77.7599 134.663C78.92 134.657 80.5853 135.181 81.6344 134.911L81.6768 134.705C81.2775 134.23 80.7091 134.186 80.1325 134.071Z" fill="#FEFEFE"/>
<path d="M80.7711 2.04409C80.2133 2.00603 79.4821 2.04047 78.9935 2.32785L78.9764 2.61041C79.427 3.15313 80.1897 3.30128 80.8399 3.50194C81.3385 3.72018 81.809 3.97673 82.3673 3.92903L82.5171 3.72837C82.238 2.94043 81.4574 2.44637 80.7711 2.04409Z" fill="#29738B"/>
<path d="M4.18856 62.6261C4.04647 62.8027 3.94413 62.9253 3.89451 63.1508C3.84514 63.3743 3.92388 63.5644 4.06814 63.746C4.29019 64.025 4.68467 64.2126 5.03315 64.2543C5.46665 64.3063 5.92543 64.1457 6.25681 63.8674C6.81506 63.3987 6.80206 62.809 6.85938 62.1316C6.41263 62.4684 5.0134 62.8815 4.4513 62.7856C4.25021 62.7514 4.32414 62.7849 4.18856 62.6261Z" fill="#D9D8D8"/>
<path d="M50.7411 130.237C50.3709 130.183 50.047 130.194 49.6754 130.232L49.5302 130.44C50.1631 131.233 51.5202 131.896 52.3672 132.549C52.6239 132.63 52.8267 132.656 53.0976 132.661C53.4093 132.667 53.3861 132.673 53.6108 132.459C53.5851 132.351 53.5764 132.284 53.5304 132.189C53.0798 131.249 51.6493 130.624 50.7411 130.237Z" fill="#FEFEFE"/>
<path d="M47.9998 130.862C47.6301 130.904 47.54 130.888 47.2436 131.131C47.3657 131.832 49.7015 133.033 50.3929 133.555C50.4447 133.556 50.4967 133.563 50.5485 133.56C50.9008 133.54 51.0805 133.5 51.2871 133.226C50.6706 131.96 49.2398 131.358 47.9998 130.862Z" fill="#FEFEFE"/>
<path d="M108.827 73.8748C108.567 74.1164 108.57 74.1089 108.528 74.4611C109.429 75.7802 111.143 76.9817 112.29 78.1512C112.55 77.8757 112.578 77.8366 112.642 77.464C112.02 75.9478 110.182 74.7186 108.827 73.8748Z" fill="#777677"/>
<path d="M75.709 130.117C75.4123 130.187 75.0775 130.188 74.9419 130.513C74.8673 130.692 74.8764 131.138 74.8574 131.342C74.6888 133.139 74.6286 133.908 73.5839 135.433L73.672 135.677L75.2911 134.862C75.3959 132.82 76.3368 132.273 75.709 130.117Z" fill="#413F40"/>
<path d="M83.2158 125.935L83.0216 125.994C82.8413 126.564 83.3236 126.7 83.3665 127.186C83.4156 127.742 82.9467 128.084 83.2244 128.738C83.4696 129.024 83.5322 129.08 83.8838 129.208C84.3823 128.86 85.0528 128.354 85.2416 127.751C85.3336 127.458 85.2977 127.152 85.1393 126.895C84.7262 126.223 83.9243 126.11 83.2158 125.935Z" fill="#484848"/>
<path d="M79.3302 132.28C78.3777 132.29 77.5076 132.379 76.6035 132.698L76.539 133.068L76.3535 132.907L76.5773 132.714L76.4195 133.015C77.2959 133.438 78.3476 133.286 79.2972 133.248C80.2499 133.369 81.3895 133.651 82.2948 133.268L82.3228 133.041C81.398 132.419 80.4048 132.362 79.3302 132.28Z" fill="#FEFEFE"/>
<path d="M106.315 106.153C107.096 105.879 107.651 105.392 108.159 104.749C109.149 103.499 109.862 101.731 109.639 100.118C109.528 99.3223 109.312 98.9458 108.689 98.465C109.201 100.27 108.919 101.862 108.018 103.477C107.532 104.346 106.628 105.248 106.315 106.153Z" fill="#D9D8D8"/>
<path d="M53.5986 126.609C52.8559 126.377 51.8781 126.039 51.1253 126.419C50.7479 126.609 50.5386 126.958 50.425 127.354C50.2487 127.97 50.4394 128.72 50.5584 129.333C51.4391 129.748 52.4275 130.122 53.1931 130.729C53.4734 129.359 53.3821 127.983 53.5986 126.609Z" fill="#484848"/>
<path d="M59.9417 125.903C59.9051 125.917 59.8656 125.925 59.8316 125.944C59.7069 126.016 59.6413 126.136 59.5997 126.267C59.5195 126.521 59.4583 126.715 59.2741 126.917C58.4235 127.849 56.3405 127.634 55.1961 127.644L55.3394 128.823C55.7163 129.179 56.0532 129.14 56.5534 129.211C56.8565 129.214 57.1594 129.206 57.4621 129.189C58.8064 129.103 60.5683 128.582 61.483 127.539C61.6157 127.092 61.6215 127.091 61.4242 126.67C60.9476 126.275 60.5283 126.094 59.9417 125.903Z" fill="#484848"/>
<path d="M77.7204 20.0956L76.6135 19.8097C76.2448 20.2004 75.8604 20.5581 75.8616 21.1372C75.8629 21.5952 76.149 22.0615 76.3575 22.4583C77.5234 23.2409 78.3629 23.6439 79.78 23.41C80.7127 22.8109 80.9201 22.4322 81.1606 21.3615L80.5528 21.182L77.7204 20.0956Z" fill="#E38846"/>
<path d="M77.7204 20.0956L76.6135 19.8097C76.2448 20.2004 75.8604 20.5581 75.8616 21.1372C75.8629 21.5952 76.149 22.0615 76.3575 22.4583C77.5234 23.2409 78.3629 23.6439 79.78 23.41C80.7127 22.8109 80.9201 22.4322 81.1606 21.3615L80.5528 21.182C80.4858 21.6869 80.4454 22.168 80.0449 22.5337C79.6798 22.867 79.1933 22.999 78.7061 22.9482C77.9858 22.8731 77.2479 22.4542 76.8021 21.8837C76.4888 21.4831 76.5044 21.195 76.5646 20.7227C76.9603 20.2968 77.1792 20.258 77.7204 20.0956Z" fill="#58321A"/>
<path d="M6.78331 56.9383C5.93559 56.7569 4.96191 56.8581 4.23316 57.3801C4.00605 57.543 4.00316 57.6172 3.96294 57.8836C4.39837 58.6031 5.46549 58.6132 6.08997 59.1832C6.78765 59.8198 7.25702 60.832 7.82514 61.5925C7.77939 61.7809 7.79721 61.9688 7.80058 62.1617C8.15027 62.4209 8.13774 62.4262 8.56763 62.3682C9.01653 61.7857 8.59556 61.3998 8.65481 60.767C8.70129 60.2725 9.25568 59.8454 9.15092 59.299C8.97535 58.3832 7.49834 57.4331 6.78331 56.9383Z" fill="#FEFEFE"/>
<path d="M81.3296 128C80.0932 127.72 78.943 127.526 77.8086 128.225C77.2174 128.589 76.7832 129.16 76.6543 129.85C76.5756 130.272 76.625 130.756 76.9021 131.099C77.1016 131.346 77.3051 131.513 77.6304 131.553C78.8933 131.709 80.1418 131.44 81.4117 131.778C81.5719 130.514 81.5047 129.257 81.3296 128Z" fill="#484848"/>
<path d="M72.519 3.12842C68.4979 3.29969 64.0182 3.66632 61.1602 6.79521C60.461 7.56075 59.9207 8.31208 59.7907 9.35825C60.0375 9.81762 60.2914 9.8075 60.7708 9.98263C61.3236 9.53386 61.8879 8.47227 62.3574 7.89293C64.9988 4.63324 66.3265 4.90713 70.4256 4.47281C71.1092 4.00164 71.7841 3.51745 72.519 3.12842Z" fill="#94C4E0"/>
<path d="M102.093 78.2311C102.42 77.7156 102.678 77.4424 102.712 76.8265L102.286 76.4415L101.37 78.0025C100.888 78.7695 100.747 79.4582 100.504 80.3046C100.014 82.0123 98.8209 83.4518 97.5084 84.6119C96.9551 84.7182 96.246 84.8078 95.7486 85.0694C94.2453 85.8602 92.8511 87.2774 91.4461 88.2751C89.1576 89.9002 86.5184 91.325 84.3917 93.136L85.1341 93.3781C87.9082 92.9483 93.7857 87.559 96.0537 85.5991L98.119 85.4037C99.313 84.3236 100.3 83.151 101.17 81.7967C101.235 81.0584 101.233 80.3058 101.257 79.5646L102.093 78.2311Z" fill="#F6CE76"/>
<path d="M9.81462 50.8098C9.53285 50.7592 9.09863 50.6547 8.81349 50.6964C8.36314 50.7619 8.24923 50.9876 7.99973 51.3251C7.85258 51.9846 7.92844 52.5921 8.10978 53.2397C8.51847 54.6992 9.25686 58.1656 10.5732 58.9169C11.1614 58.814 11.821 58.8384 12.4204 58.8114C12.2224 58.2614 12.222 57.6313 12.1627 57.0512C11.9091 54.5703 11.6524 52.6562 9.81462 50.8098Z" fill="#FEFEFE"/>
<path d="M85.5429 129.11C84.8845 129.416 84.2456 129.853 83.6165 130.221C83.1537 131.379 82.9282 131.891 83.3808 133.119C83.347 133.901 82.7464 134.383 82.4613 135.062C82.4353 135.124 82.3469 135.472 82.3895 135.542C82.5085 135.74 82.9668 136.051 83.1558 136.225C84.3349 137.304 84.8814 138.275 85.3592 139.775L85.4538 139.865L85.7553 139.77C86.2245 139.259 86.9886 138.578 87.0395 137.841C87.0994 136.973 85.8211 136.323 85.3182 135.718C84.9741 135.305 84.866 134.818 84.9425 134.295C85.082 133.338 85.5976 132.684 86.3529 132.125L86.4251 132.073C86.5393 131.272 85.8324 129.89 85.5429 129.11Z" fill="#484848"/>
<path d="M87.1035 139.634C83.5998 142.619 78.4661 143.224 74.0866 142.138C73.5063 141.994 71.943 141.125 71.529 141.274C71.4254 141.799 71.5394 142.31 71.6179 142.832C72.7683 143.754 74.2212 144.163 75.6491 144.419C78.6569 144.957 82.8249 144.438 85.3481 142.626C86.5107 141.791 86.8708 141.019 87.1035 139.634Z" fill="#FEFEFE"/>
<path d="M51.7484 8.55949C50.5658 8.48602 48.8038 8.35281 47.737 8.91287C47.1131 9.24024 46.2122 9.92629 45.9935 10.6145L46.1253 10.8296C46.7727 10.662 47.3188 10.1055 47.9952 9.88413C53.8616 7.96402 63.9284 13.6868 69.1432 16.3291C70.9558 17.2546 72.7686 17.8404 74.7324 18.3612C73.2949 17.2977 71.6389 16.438 70.0889 15.5493C64.3841 12.2793 58.3876 9.20459 51.7484 8.55949Z" fill="#29738B"/>
<path d="M17.7395 64.7959C17.4336 65.2105 17.3255 65.3526 17.4028 65.8946C17.5487 66.9164 18.0529 67.7759 18.8878 68.3861C19.9551 69.1661 21.3789 69.4392 22.6733 69.2186C23.1148 69.1434 23.5481 69.0526 23.9294 68.8093L24.2346 68.0064L24.4928 67.9342C25.9684 69.4766 27.2511 71.0175 29.5579 71.1006C30.9231 71.1498 32.2258 70.5146 33.2052 69.5915C33.976 68.8652 34.1253 67.8448 34.7525 67.0581C35.6818 67.3507 36.4726 67.5943 37.3886 67.1149C37.8521 66.8723 38.2712 66.5007 38.7529 66.3067C38.3304 66.274 37.9012 66.1822 37.4821 66.1162C36.1597 66.4103 35.0996 66.2588 33.8541 65.7501C32.6632 66.8707 32.45 68.2293 30.6336 68.6602C29.3081 68.9746 27.7646 68.7192 26.6209 67.9739C26.0327 67.5907 25.2222 66.8215 25.0755 66.1193C23.5951 66.835 22.9428 68.004 21.0913 67.8133C20.0268 67.7037 18.8935 67.2549 18.2138 66.3978C17.8101 65.8888 17.6726 65.4277 17.7395 64.7959Z" fill="#94C4E0"/>
<path d="M87.2995 9.03011C86.3814 8.12341 85.4687 7.27549 84.4239 6.51453C86.7342 11.0456 87.4329 15.2448 85.8436 20.1856C85.6315 20.8238 85.393 21.452 85.1281 22.0703L88.2756 23.5306C88.2953 23.4976 88.3153 23.4648 88.3346 23.4316C89.9816 20.5645 89.7167 16.3295 88.7799 13.2801C88.3548 11.8962 87.7106 10.5834 87.3399 9.18573L87.2995 9.03011Z" fill="#29738B"/>
<path d="M62.7942 137.934C61.3512 138.242 59.9006 138.508 58.4424 138.732C56.984 138.957 55.5204 139.139 54.0515 139.279C52.5827 139.419 51.1111 139.516 49.6366 139.571C48.1622 139.626 46.6874 139.638 45.2123 139.608C42.8961 139.579 40.5155 139.165 38.213 139.291L38.0593 139.535C38.0907 140.055 38.2012 140.342 38.4534 140.783L38.5454 140.929C42.2127 142.269 58.8936 141.051 62.5936 139.343C62.8814 138.938 62.7853 138.425 62.7942 137.934Z" fill="#FEFEFE"/>
<path d="M43.5404 132.401C42.8878 132.438 42.2225 132.515 41.6081 132.75C40.3469 133.235 39.1555 134.427 38.6283 135.665C38.3382 136.347 38.0063 137.628 38.2826 138.325C39.2186 138.57 40.2604 138.58 41.2241 138.66C43.1123 138.726 45.0008 138.776 46.8899 138.81C46.8962 137.482 46.7709 136.154 46.2242 134.926C45.667 133.675 44.8011 132.893 43.5404 132.401Z" fill="#FEFEFE"/>
<path d="M87.3004 9.03015L87.3409 9.18576C87.7116 10.5834 88.3558 11.8962 88.7808 13.2801C89.7177 16.3295 89.9826 20.5646 88.3355 23.4316C88.3163 23.4649 88.2963 23.4976 88.2765 23.5306C89.5053 24.2058 90.6995 24.9184 91.8868 25.6637C92.7938 23.6043 93.3126 21.5293 93.2538 19.2712C93.1348 14.7028 90.4199 11.9724 87.3004 9.03015Z" fill="#1D5368"/>
<path d="M84.269 139.026C83.3966 137.416 82.3825 136.372 80.5902 135.822C78.6649 135.231 76.0406 135.304 74.2526 136.293C72.6973 137.154 72.1 138.438 71.6454 140.084L71.6201 140.177C73.934 141.49 76.8215 142.173 79.4827 141.669C80.7583 140.666 82.1631 141.201 84.269 139.026Z" fill="#FEFEFE"/>
<path d="M76.6123 19.8096C68.7204 17.8238 62.5664 16.2392 54.2792 17.638L54.9059 18.1136C61.3211 20.5118 69.5283 21.8483 76.3563 22.4582C76.1477 22.0615 75.8615 21.5951 75.8603 21.1372C75.8591 20.5581 76.2435 20.2004 76.6123 19.8096Z" fill="#E38846"/>
<path d="M50.719 10.3886C49.9562 10.3469 49.1132 10.4071 48.3746 10.6094C47.8238 10.7605 47.0414 11.09 46.7728 11.6308C46.6242 11.93 46.6312 12.1882 46.7461 12.5031C47.3281 14.0973 52.0549 16.1855 53.5888 16.9556C56.9258 16.2939 60.0719 16.1995 63.4568 16.2814C65.1116 16.3939 66.763 16.6579 68.4067 16.8769C62.8334 14.1411 57.0248 10.7759 50.719 10.3886Z" fill="#1D5368"/>
<path d="M54.2795 17.6381C50.1295 18.9957 46.0968 20.9556 42.6625 23.6807C41.4302 24.6587 40.3412 26.0185 39.0029 26.8277C38.1054 27.3704 37.2 26.5781 36.348 27.2632C35.9638 27.572 31.2948 34.3137 30.9662 34.9863C30.6365 35.6617 30.5806 36.5094 30.8333 37.2179C30.9585 37.5693 31.1293 37.8603 31.3675 38.1492C30.1798 40.0529 26.9545 49.7645 27.4189 52.0992C27.8354 52.3138 28.2456 52.2391 28.6977 52.2083C28.6852 52.1505 28.6609 52.0541 28.6565 51.9898C28.5065 49.7797 30.1516 45.1539 30.8723 42.8318C31.6732 40.2504 32.6174 36.0831 34.0058 33.8695C34.8864 32.4654 36.6879 32.2554 37.6196 31.0177C38.0394 30.46 37.41 29.4269 37.8417 28.9901C38.1881 28.6396 39.3984 28.5423 39.9149 28.1774C43.024 25.9798 45.7594 23.1098 49.1754 21.3299C50.5869 20.5942 54.0167 19.2792 54.9062 18.1136L54.2795 17.6381Z" fill="#FDE2A6"/>
<path d="M16.6096 66.3784L16.3118 66.4697C14.9697 67.7406 15.9886 68.2002 15.7212 69.6C15.6343 70.0551 15.2183 70.3535 15.1376 70.8264C15.1496 70.8594 15.1605 70.8926 15.1735 70.9252C16.096 73.2189 18.1466 75.5847 20.4363 76.5244C22.9194 77.5431 25.0772 76.9618 27.4204 75.9653C28.0281 75.2693 29.1072 74.5178 29.917 74.074C29.7973 73.9628 29.6913 73.8488 29.5885 73.7214C29.1756 73.209 28.8955 72.6379 28.9737 71.9658C28.9391 71.96 28.9044 71.9545 28.8699 71.9482C27.2057 71.6428 25.6333 70.9567 24.6619 69.5299C23.5202 69.9886 22.4695 70.2887 21.2259 70.1989C19.8664 70.1006 18.3183 69.5938 17.4215 68.5141C16.9326 67.9252 16.5356 67.157 16.6096 66.3784Z" fill="#CFACE4"/>
<path d="M61.491 128.844C59.4359 129.943 57.4549 130.173 55.177 129.872C54.6548 130.979 54.4999 132.498 53.7236 133.42C53.1438 133.622 52.8324 133.344 52.2531 133.331C51.8352 133.321 51.2612 134.066 50.9671 134.36C49.6271 134.669 48.765 132.854 47.4963 132.641C47.0216 132.561 46.5129 132.558 46.1065 132.833C46.0533 133.463 47.2316 135.143 47.473 135.985C47.6611 136.931 47.6739 137.864 47.6958 138.824C52.8076 138.647 57.6426 138.229 62.6436 137.105C62.4424 134.353 61.9094 131.574 61.491 128.844Z" fill="#484848"/>
<path d="M58.9206 132.202C58.6756 132.216 58.4336 132.24 58.1949 132.301C57.5803 132.457 57.0474 132.818 56.7403 133.386C56.435 133.952 56.4289 134.606 56.6228 135.209C56.9149 136.119 57.4871 136.544 58.3072 136.965C58.6388 136.938 58.9882 136.914 59.304 136.803C59.908 136.59 60.4366 136.12 60.6936 135.53C60.7217 135.465 60.7465 135.4 60.7682 135.333C60.7899 135.266 60.8083 135.198 60.8234 135.129C60.8385 135.06 60.8502 134.991 60.8585 134.921C60.8669 134.851 60.8719 134.781 60.8735 134.711C60.8751 134.64 60.8732 134.57 60.8679 134.5C60.8626 134.43 60.854 134.36 60.8419 134.29C60.8299 134.221 60.8145 134.152 60.7957 134.084C60.7771 134.017 60.7551 133.95 60.7299 133.884C60.394 132.992 59.7589 132.568 58.9206 132.202Z" fill="black"/>
<path d="M59.2466 133.017C58.7277 132.972 58.2501 132.944 57.8106 133.287C57.4657 133.555 57.2873 133.913 57.2745 134.349C57.2509 135.139 57.6523 135.628 58.1692 136.152C58.259 136.161 58.3488 136.17 58.4389 136.174C58.9333 136.2 59.369 136.093 59.7334 135.74C59.9891 135.492 60.0908 135.2 60.1057 134.848C60.1401 134.029 59.77 133.585 59.2466 133.017Z" fill="#FEFEFE"/>
<path d="M6.85946 62.1315C6.27607 61.0169 5.66016 59.6728 4.36306 59.2625C3.83001 59.0939 3.14666 59.0787 2.63866 59.3288C2.09164 59.5981 1.78309 60.1336 1.62435 60.7004C1.11057 62.5355 1.75851 64.8196 2.68466 66.4203C3.45305 67.7475 4.76556 69.1225 6.29317 69.5381C6.92931 69.711 7.65482 69.572 8.13151 70.0798C7.4932 70.6676 6.50105 70.359 6.42517 71.4228C6.71061 71.8487 6.89343 72.0553 7.43081 72.1623C9.22386 72.5193 11.8272 71.5948 13.3009 70.5544C13.7207 70.2581 13.9962 69.969 14.2231 69.5029L14.2436 69.0088C13.8944 68.746 13.6824 68.7858 13.2645 68.8539C12.928 68.9089 12.5925 68.9977 12.2613 69.0784L12.116 68.9238C13.206 66.9936 14.9609 67.1022 15.7122 64.373C15.9179 63.6257 16.0075 62.8616 15.7953 62.1048C15.7692 62.0131 15.7386 61.9229 15.7035 61.8342C15.6684 61.7454 15.629 61.6587 15.5853 61.5741C15.5416 61.4893 15.4938 61.4068 15.442 61.3267C15.3901 61.2467 15.3345 61.1695 15.275 61.095C15.2155 61.0204 15.1524 60.9491 15.0857 60.8808C15.0191 60.8126 14.9493 60.7478 14.8764 60.6864C14.8033 60.6252 14.7274 60.5677 14.6485 60.5139C14.5698 60.4601 14.4887 60.4104 14.405 60.3646C13.2736 59.7325 11.7947 59.7195 10.5785 60.095C10.2461 60.1979 10.0291 60.3097 9.8323 60.6115C9.7345 61.0114 9.69838 61.2421 9.85254 61.6304C10.7351 62.6571 12.4677 62.3587 13.1467 63.1278C12.439 63.5684 11.4623 63.3834 10.9526 64.0923L10.8996 64.1651C10.481 64.7492 9.94551 67.1725 9.59961 67.2925C9.34766 66.7828 9.15183 66.3894 9.24144 65.8007C8.59807 65.4439 8.105 65.0672 7.6194 64.5122C6.66049 64.9419 5.24249 65.534 4.19301 65.0686C3.69609 64.8485 3.3885 64.3807 3.22736 63.8784C3.04936 63.3244 2.99394 62.7378 2.95878 62.1599L3.13824 61.9311C3.48196 62.1775 3.81821 62.4191 4.18819 62.626C4.3238 62.7848 4.24985 62.7513 4.45098 62.7855C5.01317 62.8814 6.41264 62.4683 6.85946 62.1315Z" fill="#FEFEFE"/>
<path d="M108.689 98.465C108.289 98.2475 108.055 98.1068 107.851 97.6901C108.68 97.1539 110.648 98.6026 111.258 97.2473C111.191 96.84 111.12 96.6001 110.853 96.2806C110.206 96.0282 109.468 96.0349 108.852 95.7683C107.858 95.3376 106.193 94.0021 105.803 92.9978C105.569 92.3954 105.892 91.7361 105.506 91.2475C105.013 91.1331 104.727 91.1541 104.24 91.274C103.887 91.6024 103.713 91.8131 103.685 92.3231C103.629 93.304 104.179 94.4704 104.487 95.3971L104.111 95.2983L104.463 95.5377C103.672 95.0297 103.124 94.3239 102.601 93.556C97.7984 94.6096 98.5798 96.1862 95.3063 98.3918C94.4676 98.9569 93.3408 98.9208 92.5915 99.6034C92.3667 100.008 92.2858 100.263 92.2993 100.728C92.4539 101.113 92.5999 101.494 93.0176 101.652C93.4519 101.817 94.0813 101.836 94.4963 101.619C94.9973 101.358 95.7079 98.9275 96.9551 97.7872L97.1336 97.8358C97.0868 99.9995 93.8372 104.895 96.2652 107.404C96.5716 107.721 97.2357 108.094 97.6828 108.088C97.781 108.086 97.8304 108.067 97.9306 108.043C98.5352 107.008 97.2625 105.397 98.3049 104.386L98.5699 104.565C98.7968 105.784 98.9387 106.944 99.5358 108.052C100.254 108.38 101.589 109.069 102.376 108.721C102.403 108.708 102.427 108.689 102.452 108.674C101.951 107.726 101.351 106.315 101.649 105.233L101.905 105.182C102.789 105.913 102.878 107.714 103.834 108.685C104.529 109.392 105.427 109.822 106.427 109.821C107.475 109.82 108.492 109.345 109.225 108.608C109.617 108.215 110.021 107.629 109.983 107.05C109.959 106.692 109.793 106.386 109.522 106.154C109.264 105.933 108.994 105.849 108.659 105.889C108.336 105.927 107.716 107.358 107.414 107.761L107.211 107.705C107.204 107.348 107.191 107.097 107.04 106.771C106.719 106.724 106.462 106.71 106.205 106.5L106.315 106.153C106.628 105.248 107.532 104.346 108.018 103.477C108.919 101.862 109.201 100.27 108.689 98.465Z" fill="#FEFEFE"/>
<path d="M106.02 98.5303C105.586 98.5987 105.334 98.8403 105.063 99.1633C104.404 99.9493 104.127 100.849 104.214 101.863C104.65 101.759 104.817 101.609 105.057 101.246C105.503 100.571 106.197 99.3539 106.02 98.5303Z" fill="black"/>
<path d="M104.199 97.3652C103.398 97.5869 102.763 98.1211 102.314 98.8187C101.902 99.459 101.822 99.8801 101.984 100.623C102.206 100.553 102.385 100.456 102.547 100.289C103.15 99.6686 104.225 98.258 104.199 97.3652Z" fill="black"/>
<path d="M102.624 96.2494C102.485 96.2294 102.446 96.2198 102.317 96.2142C101.635 96.1846 101.001 96.4937 100.51 96.9528C99.9811 97.4473 99.6346 98.0204 99.6218 98.7539C100.915 98.5593 101.841 97.232 102.624 96.2494Z" fill="black"/>
<path d="M36.8031 60.6459C36.7624 60.2125 36.7684 59.7859 36.7412 59.353C36.6456 57.827 35.5284 56.2465 34.4009 55.2794C32.6541 53.7808 30.1013 53.0478 27.82 53.2302C26.1773 53.3617 24.3866 54.086 23.3032 55.3635C22.8764 55.8669 22.6348 56.3369 22.6883 56.9933C21.9787 57.5623 22.134 58.2527 21.2411 58.6504C20.3841 58.7354 19.635 58.804 19.0381 59.5089C18.5537 60.081 18.1242 60.9154 18.2112 61.6872C18.2459 61.9944 18.3983 62.2885 18.6486 62.4665C18.8531 62.612 19.0304 62.6633 19.2729 62.7115L19.2009 63.003L18.4169 63.4303C18.0623 63.6242 17.9089 63.7919 17.7198 64.1472C17.6988 64.3712 17.6613 64.5788 17.7393 64.7959C17.6723 65.4277 17.8099 65.8888 18.2136 66.3978C18.8933 67.2549 20.0266 67.7036 21.0911 67.8132C22.9426 68.004 23.5949 66.835 25.0753 66.1193C25.222 66.8215 26.0325 67.5907 26.6207 67.9739C27.7644 68.7192 29.3079 68.9746 30.6334 68.6602C32.4498 68.2293 32.663 66.8706 33.8539 65.75C35.0994 66.2588 36.1595 66.4103 37.4819 66.1162C38.3413 65.2856 39.946 65.4537 41.0581 65.3901C39.5257 64.5215 38.797 62.8803 37.1695 62.2781C36.9197 62.235 36.7193 62.155 36.49 62.0539C36.3589 61.5085 36.6032 61.1616 36.8031 60.6459Z" fill="#FEFEFE"/>
<path d="M36.8031 60.6458C35.9877 60.9387 34.9437 61.1735 34.3462 61.8109L34.338 62.1308C34.692 62.4001 35.1708 62.5654 35.6216 62.5155C36.1382 62.4584 36.6449 62.331 37.1694 62.278C36.9197 62.2349 36.7193 62.1549 36.4901 62.0537C36.359 61.5084 36.6032 61.1615 36.8031 60.6458Z" fill="#94C4E0"/>
<path d="M22.6884 56.9933C21.979 57.5623 22.1343 58.2527 21.2415 58.6504C21.5758 59.2747 21.5756 59.9589 22.0445 60.5909C22.3017 60.9378 22.4524 60.9959 22.8544 61.0388C23.0776 60.9053 23.3495 60.8012 23.3765 60.4972C23.417 60.042 22.1473 59.0102 22.6506 57.1311L22.6884 56.9933Z" fill="#94C4E0"/>
<path d="M84.4043 21.7179C84.9019 20.5913 85.2651 19.3628 85.5181 18.1586C86.3284 14.301 85.8912 10.1633 83.6658 6.82651C82.3537 4.85943 80.432 4.14062 78.2011 3.7063C77.3783 4.25914 74.4628 4.21192 73.4877 3.98019C73.3283 3.94213 73.178 3.85806 73.0368 3.77712C72.1335 4.20373 70.1519 5.99401 69.3404 5.93354C69.5591 5.30724 69.9411 4.91025 70.4255 4.4728C66.3264 4.90712 64.9987 4.63323 62.3573 7.89292C61.8878 8.47226 61.3235 9.53385 60.7706 9.98262C64.2048 11.3333 74.0615 16.0207 76.0142 18.6905C78.8582 19.6097 81.6321 20.6009 84.4043 21.7179Z" fill="#67A6D3"/>
<path d="M70.8705 6.15418C70.3337 6.12262 69.8475 6.3122 69.4104 6.60994C68.2501 7.39981 66.0835 9.50348 65.939 10.9322C65.8935 11.3824 66.0036 11.5178 66.2767 11.8314C66.7548 12.0342 67.1492 11.9728 67.6473 11.9174C67.9519 11.6476 68.2029 11.4195 68.5983 11.2875C68.6258 11.2783 68.6535 11.2704 68.6809 11.262C69.349 11.9478 69.1195 12.7075 69.5496 13.1151C69.9501 13.4945 70.7152 13.9298 71.2775 13.8474C71.6417 13.7937 71.9391 13.6092 72.1306 13.2854C72.8687 12.0376 72.4916 8.3412 72.1621 6.9479C71.8673 6.51623 71.3349 6.35917 70.8705 6.15418Z" fill="black"/>
<path d="M70.955 6.92664C70.4112 6.95891 70.0524 7.06996 69.6285 7.42503C68.8181 8.10409 66.8154 9.95508 66.7328 10.9849C67.8408 11.1056 67.7144 10.2875 69.3427 10.848C69.366 10.8543 69.3901 10.8586 69.413 10.8671C69.9936 11.0851 69.9987 11.9944 70.2212 12.5441C70.5878 12.965 71.1766 13.0071 71.6968 13.109C71.6903 11.9289 71.8774 8.26621 71.3936 7.40504C71.3059 7.24942 71.0807 7.06394 70.955 6.92664Z" fill="#FEFEFE"/>
<path d="M69.9281 8.276C69.5883 8.39717 69.1739 8.60409 68.9058 8.85317C68.5554 9.17909 68.5058 9.43322 68.4637 9.87911C69.0449 9.93138 69.3708 10.0275 69.9084 9.78299C70.1544 9.30122 70.0054 8.7903 69.9281 8.276Z" fill="black"/>
<path d="M102.286 76.4415C99.9212 75.5647 97.262 75.1845 94.9913 74.1704C93.594 76.0879 92.1069 77.9841 90.5516 79.7761C90.8979 80.2441 91.2263 80.5383 91.2903 81.1234L91.0109 81.5141C91.2694 83.0141 91.1176 84.1167 90.2368 85.3948C89.4527 86.5325 88.2062 87.4014 86.8352 87.6394C85.9319 87.7962 84.8244 87.6796 84.0591 87.1364C83.7506 86.9174 83.4793 86.6163 83.2206 86.3408L82.8523 86.871L82.5556 86.9211C82.1702 86.56 81.9748 86.0975 81.4379 86.0835C78.798 87.5076 72.3474 90.9159 69.5273 90.9509C68.1623 91.8684 66.8508 92.5236 65.1488 92.2093C64.706 92.1276 64.2664 92.0045 63.8334 91.8838C63.7575 91.9385 63.7004 91.9869 63.6158 92.0243C62.7552 92.4032 60.8083 92.1804 59.8243 92.177C55.0401 92.1601 50.8073 91.7407 46.288 90.0107C45.0025 89.5188 43.8386 88.6157 42.5184 88.2522C42.4772 88.2409 42.436 88.2305 42.3948 88.2197L42.5136 88.3303C43.5353 89.2704 45.7439 90.2003 45.8554 91.7241C45.8614 91.8043 45.8614 91.885 45.8614 91.9655C46.3593 93.2212 46.9499 93.9458 48.2068 94.496L48.333 94.5505C49.9445 95.4902 51.8122 96.5257 53.6474 96.9208C54.3452 96.5267 55.0343 96.1078 55.7902 95.8346C57.9202 96.1032 60.0033 96.6341 62.1275 96.9357C64.4825 97.2706 66.7891 97.2874 69.1595 97.3315C70.0676 98.0826 71.1742 99.1642 72.4431 99.1066C72.9063 99.0856 73.2731 98.8486 73.5716 98.5075C75.0353 96.8343 74.6247 94.2537 77.5089 93.9135C78.4492 93.8027 79.4734 93.9215 80.2223 94.543C80.816 95.0354 81.2014 95.7007 81.4406 96.427C81.4488 96.3427 81.4452 96.3239 81.4844 96.2355C81.7383 95.6667 83.9093 94.9026 84.5601 94.7041C84.7427 94.4151 84.8357 94.3505 84.8075 94.0017L83.8977 93.4007L83.9397 93.1996L84.3915 93.136C86.5182 91.325 89.1574 89.9001 91.4459 88.2751C92.8509 87.2773 94.2451 85.8602 95.7484 85.0694C96.2458 84.8078 96.9549 84.7182 97.5082 84.6119C98.8207 83.4518 100.013 82.0123 100.504 80.3046C100.747 79.4581 100.887 78.7694 101.369 78.0024L102.286 76.4415Z" fill="#E38846"/>
<path d="M47.9705 92.1077L47.681 92.2956L47.6774 92.5413C48.0228 92.9281 48.4582 93.0609 48.9295 93.2353C49.1749 93.1252 49.1966 93.1073 49.3418 92.8812C49.0843 92.4601 48.4139 92.2922 47.9705 92.1077Z" fill="#F6CE76"/>
<path d="M58.1271 92.8496C57.6953 92.7954 57.1706 92.6809 56.74 92.7429C56.3715 92.7956 56.3734 92.8166 56.1559 93.123L56.3038 93.5886C56.6853 93.6274 57.1015 93.6946 57.4836 93.6667C57.8952 93.6368 57.9562 93.5819 58.2124 93.2914L58.1271 92.8496Z" fill="#F6CE76"/>
<path d="M48.3332 94.5505C48.3754 94.4052 48.3631 94.2776 48.3609 94.1277C47.9168 93.3521 47.2914 92.0207 46.5198 91.5688C46.31 91.4459 46.2493 91.5001 46.015 91.5531L45.8621 91.9655C46.3599 93.2213 46.9504 93.9459 48.207 94.4961L48.3332 94.5505Z" fill="#F6CE76"/>
<path d="M68.5832 98.6475C65.5104 98.781 62.5511 98.5158 59.5339 97.9468C57.5602 106.924 58.0632 115.443 59.1888 124.466C60.2221 124.612 61.2983 124.812 62.1503 125.452C62.4456 125.673 62.5323 125.94 62.618 126.285C62.8885 127.374 62.8779 128.568 63.0222 129.682C63.3007 131.832 63.6374 133.978 63.9467 136.124C66.3475 136.146 69.1717 135.906 71.5286 136.308C72.2411 135.022 73.1995 133.912 73.7174 132.517C73.5714 131.037 73.0276 129.323 73.1904 127.873C73.3267 126.659 74.0306 126.014 74.9507 125.291C72.7467 117.224 72.4059 108.623 73.4671 100.361C71.1839 100.527 70.2845 100.101 68.5832 98.6475Z" fill="#CFACE4"/>
<path d="M76.3569 22.4582C69.5289 21.8482 61.3216 20.5118 54.9065 18.1135C54.017 19.2792 50.5872 20.5942 49.1757 21.3299C45.7596 23.1098 43.0243 25.9797 39.9151 28.1773C39.3987 28.5423 38.1883 28.6396 37.8419 28.9901C37.4103 29.4268 38.0397 30.46 37.6199 31.0176C36.6882 32.2553 34.8867 32.4654 34.0061 33.8695C32.6177 36.083 31.6735 40.2504 30.8726 42.8317C30.1519 45.1539 28.5067 49.7796 28.6568 51.9898C28.6611 52.0541 28.6854 52.1504 28.698 52.2083C31.6022 52.6566 34.4726 53.3872 36.3066 55.91C37.7634 57.9137 37.5055 59.2065 37.6045 61.453L37.8622 61.6074C38.0421 61.7139 37.934 61.6508 38.1252 61.746C38.937 62.1509 39.4808 62.9559 40.1702 63.5324C41.1395 64.3425 42.2841 64.984 43.2057 65.8377C43.4969 66.1077 43.7187 66.3633 43.8515 66.7441L43.698 67.0163C42.3169 67.3177 40.5941 66.8802 39.1325 66.9906C38.2507 67.7429 37.5474 68.3761 36.3086 68.2848C35.9776 68.2605 35.6515 68.2066 35.3224 68.1658C34.0058 70.4022 33.0281 71.2738 30.479 72.0025C30.2728 74.082 34.9924 80.6771 36.3789 82.3669C37.8354 84.1422 40.3545 87.1644 42.3954 88.2197C42.4366 88.2306 42.4778 88.2409 42.5189 88.2523C43.8392 88.6158 45.0031 89.5188 46.2886 90.0107C50.8078 91.7408 55.0407 92.1602 59.8249 92.177C60.8088 92.1804 62.7558 92.4032 63.6164 92.0243C63.701 91.987 63.7581 91.9386 63.8339 91.8839C64.267 92.0046 64.7066 92.1277 65.1493 92.2093C66.8513 92.5237 68.1629 91.8685 69.5279 90.9509C72.348 90.916 78.7986 87.5077 81.4385 86.0835C81.9754 86.0975 82.1708 86.56 82.5562 86.9211L82.8529 86.871L83.2212 86.3408C83.4799 86.6164 83.7511 86.9175 84.0597 87.1365C84.8249 87.6797 85.9325 87.7962 86.8357 87.6394C88.2068 87.4014 89.4533 86.5326 90.2373 85.3948C91.1182 84.1167 91.27 83.0142 91.0115 81.5141L91.2909 81.1234C91.2268 80.5383 90.8985 80.2442 90.5521 79.7761C92.1075 77.9842 93.5946 76.0879 94.9919 74.1705C93.9783 73.2368 93.6654 72.4137 93.3434 71.1119C93.6033 69.8521 94.0135 68.4821 95.1482 67.7284C96.0356 67.1389 96.941 67.1283 97.9544 67.3155C99.7522 67.7513 102.498 68.1916 104.076 69.2091C104.397 69.3043 104.456 69.3674 104.774 69.2339C106.722 66.4457 107.068 57.4936 106.923 54.0103C107.306 53.503 107.858 52.9121 108.06 52.307C108.355 51.4247 106.67 43.2817 106.165 42.2943C105.736 41.455 104.726 41.1992 103.903 40.935C102.982 39.4636 102.286 37.8085 101.445 36.2817C99.8756 33.4345 98.0076 30.9654 95.8407 28.5558C95.1316 27.7673 93.8704 26.1266 92.7853 26.0691L92.3768 26.5689L92.1325 26.6867C91.3617 26.6022 88.3448 24.5594 87.3673 24.0687C85.3481 23.0551 83.226 22.2727 81.1608 21.3614C80.9202 22.4322 80.7128 22.8108 79.7799 23.4099C78.3626 23.6438 77.5229 23.2408 76.3569 22.4582Z" fill="#F6CE76"/>
<path d="M93.8779 49.3263L93.2156 49.3954C92.8457 49.7254 92.8929 49.9177 92.833 50.3925L93.3757 50.3248C93.7391 50.0102 93.7513 49.7775 93.8779 49.3263Z" fill="#E38846"/>
<path d="M76.3213 78.2838L75.7319 78.4609C75.4214 78.8241 75.4378 78.993 75.3853 79.4533L76.0428 79.2869C76.3333 78.9101 76.3008 78.7441 76.3213 78.2838Z" fill="#E38846"/>
<path d="M66.729 80.7438C66.7054 80.7412 66.6815 80.7381 66.6579 80.7361C66.0245 80.6798 65.1645 80.5875 64.6549 81.0363C64.4495 81.2172 64.4895 81.3333 64.4671 81.5932C65.1299 81.5123 66.2656 81.5431 66.7803 81.1131L66.729 80.7438Z" fill="#E38846"/>
<path d="M66.4974 26.6259C65.9836 26.701 65.7258 26.7516 65.3465 27.0941C65.2233 27.5029 65.3147 27.7409 65.4647 28.1297C65.8931 28.0866 66.1961 28.0644 66.5354 27.7713C66.6767 27.2763 66.6206 27.1093 66.4974 26.6259Z" fill="#E38846"/>
<path d="M36.1226 33.4043C35.8718 33.3814 35.5324 33.3629 35.2901 33.4443C34.8395 33.5958 34.7527 33.7642 34.5688 34.1621L34.7659 34.6683C35.1055 34.6772 35.3527 34.5736 35.6658 34.4507C35.9945 34.0627 36.0253 33.8878 36.1226 33.4043Z" fill="#FDE2A6"/>
<path d="M100.397 46.9639C100.36 46.9742 100.322 46.9834 100.286 46.9949C99.933 47.1055 99.5592 47.3568 99.4011 47.6981C99.1742 48.1881 99.3672 48.6669 99.5405 49.1347C100.031 48.9396 100.307 48.8281 100.586 48.3511C100.691 47.8038 100.579 47.4743 100.397 46.9639Z" fill="#E38846"/>
<path d="M70.382 25.793C70.3148 25.8163 70.2452 25.838 70.18 25.8676C69.7576 26.0599 69.6306 26.2179 69.4662 26.6255C69.5384 27.159 69.8089 27.4156 70.1596 27.789C70.6455 27.5218 70.819 27.3758 71.0332 26.8799C70.968 26.375 70.7167 26.1415 70.382 25.793Z" fill="#E38846"/>
<path d="M99.1513 57.7675C98.6437 57.8123 98.2538 57.8026 97.8598 58.1724C97.5944 58.6416 97.6803 59.0938 97.7332 59.6052C98.2519 59.5481 98.578 59.5165 98.9821 59.1444C99.228 58.6546 99.1946 58.2919 99.1513 57.7675Z" fill="#E38846"/>
<path d="M49.5363 51.495C48.3473 51.5535 47.0425 51.3362 46.0753 52.1468C46.5516 52.4229 47.5692 52.2825 48.1163 52.2767C48.6748 52.2707 49.2314 52.2957 49.6353 51.886L49.5363 51.495Z" fill="#FDE2A6"/>
<path d="M83.19 58.7638C82.6035 60.0533 82.3404 61.4401 82.8372 62.8126C82.9267 63.0598 83.0535 63.2942 83.1815 63.523L83.318 62.6084C82.9849 61.302 83.1445 60.2197 83.6997 59.0047L83.19 58.7638Z" fill="#58321A"/>
<path d="M71.9729 71.176C71.6232 71.1731 71.2726 71.1984 70.9349 71.2974C70.5197 71.4193 70.0968 71.7052 69.9174 72.1111C69.6592 72.6953 69.8435 73.1518 70.0682 73.6969C70.4761 73.7499 70.8147 73.7586 71.2058 73.608C71.623 73.4473 71.9274 73.1628 72.096 72.7461C72.3303 72.1668 72.1822 71.7214 71.9729 71.176Z" fill="#E38846"/>
<path d="M51.9375 28.489C51.0594 28.7725 50.3851 29.6388 49.4996 29.9184C48.8794 30.1143 47.6091 29.9791 47.1659 30.352L47.242 30.8001C47.3811 30.8627 47.5218 30.9215 47.6642 30.9764C47.7604 31.0138 47.8582 31.0462 47.9578 31.0735C48.0573 31.1008 48.158 31.123 48.2598 31.14C48.3616 31.157 48.464 31.1688 48.5671 31.1754C48.6702 31.182 48.7732 31.1833 48.8763 31.1792C48.9794 31.1752 49.082 31.166 49.1843 31.1515C49.2864 31.1371 49.3876 31.1174 49.4878 31.0925C49.588 31.0676 49.6866 31.0378 49.7838 31.0029C49.8809 30.9679 49.976 30.9281 50.0691 30.8834C51.0845 30.3952 51.5695 29.5046 51.9375 28.489Z" fill="#E38846"/>
<path d="M34.5621 44.8472C34.4578 44.8422 34.3543 44.8393 34.2495 44.8398L34.1142 44.8412C33.5612 44.8443 33.1465 45.0375 32.7646 45.4377C32.5192 45.6949 32.3614 46.0625 32.3925 46.4234C32.4373 46.9432 32.7306 47.1564 33.0687 47.4982C33.3505 47.5184 33.619 47.5266 33.89 47.4322C34.2669 47.3009 34.5949 46.9943 34.736 46.618C34.9684 45.9984 34.8434 45.4181 34.5621 44.8472Z" fill="#FDE2A6"/>
<path d="M93.3789 61.6074C92.7327 62.2891 92.5037 63.8272 91.886 64.6744C91.2059 65.6076 90.061 66.1898 89.2889 67.0568C89.2667 67.0813 89.2455 67.1066 89.2241 67.1317C89.5913 67.1514 89.9533 67.13 90.3102 67.0337C91.4185 66.734 92.4035 65.9294 92.969 64.9377C93.5513 63.9163 93.6867 62.7345 93.3789 61.6074Z" fill="#E38846"/>
<path d="M85.2734 78.4009C85.0054 78.4081 84.7361 78.4247 84.471 78.4676C83.3624 78.6468 82.3247 79.3842 81.6959 80.2996C80.8932 81.4681 80.7432 82.5747 81.0086 83.9384L81.3038 83.9172C81.8072 82.9739 81.8156 81.7555 82.5166 80.9184L82.5862 80.8367C83.3612 79.9175 84.4334 79.3738 85.2053 78.4828C85.2284 78.4558 85.2506 78.4281 85.2734 78.4009Z" fill="#E38846"/>
<path d="M50.509 55.3102C50.4714 55.2394 50.4208 55.1378 50.3734 55.0672C49.7429 54.1275 47.9321 54.8032 46.9832 54.7947C46.5666 54.7909 46.1249 54.6762 45.7191 54.5844C46.3221 55.2572 46.7332 55.5894 47.6624 55.6374C48.1662 55.6634 49.3173 55.4943 49.6658 55.8342C49.7571 55.9233 49.7942 55.9895 49.8609 56.091L49.7063 56.1565C49.1163 56.4024 48.1534 56.4044 47.7373 56.8384C47.5761 57.3082 47.5918 57.7875 47.5865 58.2777C48.3396 58.0038 49.3915 57.6668 49.9464 57.0593C50.4437 56.5147 50.5295 56.0249 50.509 55.3102Z" fill="#E38846"/>
<path d="M90.3797 56.8238C90.4604 56.3794 90.3727 56.0672 90.0803 55.7005C89.691 55.2123 88.677 55.0393 88.0818 55.0094C87.9784 55.0045 87.8749 55.002 87.7715 55.0022C87.6681 55.0025 87.5647 55.0053 87.4613 55.0106C87.358 55.0161 87.2549 55.0241 87.152 55.0347C87.0491 55.0453 86.9465 55.0585 86.8442 55.0742C86.7419 55.09 86.6401 55.1083 86.5387 55.1292C86.4374 55.1499 86.3367 55.1732 86.2364 55.1992C86.1362 55.2251 86.0368 55.2535 85.938 55.2845C85.8392 55.3154 85.7414 55.3487 85.6444 55.3845C85.5472 55.4203 85.4511 55.4585 85.3561 55.4992C85.2608 55.54 85.1667 55.583 85.0738 55.6283C84.9808 55.6737 84.889 55.7214 84.7985 55.7714C84.7079 55.8213 84.6186 55.8735 84.5306 55.9279C84.4426 55.9825 84.356 56.0392 84.2709 56.098C84.1858 56.1568 84.1022 56.2177 84.0202 56.2808C83.9381 56.3438 83.8577 56.4088 83.7788 56.476C83.7 56.5429 83.6229 56.6119 83.5476 56.6829C83.1694 57.0343 82.8144 57.3911 82.6954 57.9068C82.8344 58.3243 82.8614 58.3556 83.2174 58.615C83.9561 57.5002 84.8774 56.6084 86.1796 56.1987C87.6776 55.7273 89.0332 56.1431 90.3797 56.8238Z" fill="#FDE2A6"/>
<path d="M45.4662 34.3279C44.5576 34.286 43.8146 34.338 42.9671 34.6987C42.1326 35.054 41.217 35.5791 40.9008 36.487C40.7031 37.055 40.8139 37.4115 41.072 37.9263C41.6939 37.4368 42.2545 36.8262 42.8628 36.3085C43.489 36.3044 44.1335 36.3119 44.751 36.1938C45.2651 36.0958 45.53 35.9084 45.8154 35.4825C45.8092 34.9335 45.7316 34.7861 45.4662 34.3279Z" fill="black"/>
<path d="M50.676 76.468C50.6026 76.4117 50.5749 76.388 50.4904 76.3355C50.2449 76.1826 46.5807 75.4693 46.3587 75.524C46.2055 76.1243 46.1342 76.5258 46.4743 77.0943C46.8076 77.6515 47.3757 77.9916 47.997 78.1323C48.7214 78.2959 49.5848 78.2417 50.2254 77.8404C50.4863 77.677 50.637 77.4884 50.7813 77.2215C50.7988 76.9243 50.8015 76.7412 50.676 76.468Z" fill="#E38846"/>
<path d="M50.6753 76.468C50.6018 76.4117 50.5741 76.388 50.4896 76.3355C50.2442 76.1826 46.58 75.4693 46.3579 75.524C46.6329 76.1387 47.071 76.5203 47.7042 76.7508C48.6208 77.0845 49.6961 76.9363 50.5599 76.5251C50.5985 76.5066 50.6368 76.487 50.6753 76.468Z" fill="black"/>
<path d="M89.4416 37.7518C88.6204 38.395 88.1094 39.9762 87.0259 40.8407C85.9963 41.6622 84.6824 41.4434 83.5716 42.0136L83.5984 42.3027C83.7591 42.3907 83.9247 42.4679 84.0952 42.5344C84.2659 42.6009 84.4402 42.6561 84.618 42.6999C84.7958 42.7439 84.9756 42.7762 85.1575 42.7967C85.3396 42.8173 85.5221 42.826 85.7051 42.823C86.6632 42.8122 87.5381 42.4087 88.1961 41.7152C89.2401 40.6138 89.4994 39.2147 89.4416 37.7518Z" fill="#E38846"/>
<path d="M83.9958 28.972L84.2402 28.6993C84.0292 28.2018 83.6749 27.926 83.157 27.7355C81.8058 27.2385 79.9043 27.7278 78.6747 28.3603C77.5522 28.9377 76.0973 30.0658 75.736 31.3406C75.6038 31.8065 75.6279 32.3945 75.8613 32.8293C75.982 33.0538 76.2052 33.2111 76.4068 33.3585C76.4454 33.182 76.4864 33.0062 76.5299 32.831C76.8917 31.3784 77.7129 30.1123 79.0254 29.3473C80.6281 28.4131 82.2711 28.5172 83.9958 28.972Z" fill="#FDE2A6"/>
<path d="M66.8341 34.5282C66.3902 34.4895 65.8654 34.4437 65.436 34.5807C65.0324 34.7099 64.8405 34.9951 64.6707 35.3603C64.9498 36.8502 67.5508 36.4987 69.0822 38.0582C69.1771 38.203 69.2722 38.3557 69.385 38.4872C69.6593 38.8071 69.7387 38.838 70.1366 38.8661L70.3569 38.6012C70.4217 38.1201 70.3199 37.7378 70.1327 37.2999C69.4984 35.8146 68.2781 35.0871 66.8341 34.5282Z" fill="black"/>
<path d="M90.3796 56.8237C89.0331 56.143 87.6775 55.7272 86.1795 56.1986C84.8774 56.6084 83.956 57.5001 83.2173 58.615L83.1893 58.7638L83.6995 59.0047C84.6004 57.7449 85.4779 56.8567 87.0893 56.6122C88.0542 56.4658 89.1169 56.6725 89.9084 57.2585C90.7566 57.8863 91.3662 58.9262 91.5177 59.9688C91.4732 61.6251 91.1097 62.8888 89.8526 64.0506C89.0237 64.8166 87.9054 65.3567 86.7578 65.3138C85.7573 65.2765 84.7572 64.7171 84.1003 63.9759C83.9507 63.8071 83.8233 63.6187 83.7019 63.4291L83.3175 62.6084L83.1809 63.5231C83.3146 63.9962 83.6395 64.4081 83.9722 64.7641C84.6589 65.4988 85.6734 65.7782 86.6504 65.8071C88.1043 65.8505 89.4867 65.2651 90.5244 64.2553C91.4787 63.327 92.1018 62.0515 92.1103 60.7076C92.1199 59.1678 91.4361 57.8935 90.3796 56.8237Z" fill="#58321A"/>
<path d="M37.3173 73.8227C36.8236 73.7552 36.2969 73.721 35.8335 73.9419C35.7813 73.9667 35.7304 73.994 35.6808 74.0238C35.6314 74.0537 35.5834 74.086 35.537 74.1207C35.4908 74.1554 35.4464 74.1922 35.4039 74.2312C35.3612 74.2704 35.3205 74.3116 35.282 74.3548C35.2436 74.3978 35.2074 74.4428 35.1734 74.4897C35.1393 74.5364 35.1077 74.5848 35.0785 74.6347C35.0494 74.6847 35.0229 74.736 34.9988 74.7886C34.9747 74.8412 34.9533 74.8948 34.9347 74.9496C34.7055 75.6127 34.8485 76.3751 35.1753 76.9812C35.6143 77.7954 36.2126 78.2285 37.0873 78.48C37.1499 78.5024 37.2318 78.5364 37.3009 78.547C37.7592 78.6168 38.3849 78.4439 38.7471 78.1717C39.1468 77.6039 39.2133 77.0937 39.1023 76.4264C38.8863 75.1271 38.3827 74.5675 37.3173 73.8227Z" fill="#58321A"/>
<path d="M38.2378 75.2844C37.6107 74.7672 37.2176 74.3844 36.3608 74.4817C36.0368 74.5183 35.8213 74.6417 35.5713 74.8488C35.4037 75.2025 35.3948 75.5551 35.5619 75.9307C35.6209 76.0627 35.6946 76.1236 35.8006 76.2176C35.8521 75.8632 35.9627 75.7608 36.1744 75.4792C36.7769 75.1724 37.5688 75.3041 38.2378 75.2844Z" fill="#F3A95B"/>
<path d="M38.2381 75.2842C37.569 75.304 36.7772 75.1722 36.1746 75.4791C35.9629 75.7607 35.8524 75.8631 35.8008 76.2174L35.7447 76.6457C35.8948 77.0225 36.0701 77.2969 36.3957 77.5462C36.8306 77.8793 37.3017 77.9632 37.8402 77.8984C38.0938 77.7242 38.2763 77.6461 38.411 77.3614C38.753 76.638 38.4772 75.9891 38.2381 75.2842Z" fill="#F6CE76"/>
<path d="M91.5181 59.9687C91.3666 58.9262 90.7569 57.8863 89.9088 57.2585C89.1173 56.6724 88.0546 56.4658 87.0896 56.6122C85.4782 56.8567 84.6007 57.7449 83.6998 59.0047C83.1442 60.2197 82.9845 61.3021 83.3178 62.6084L83.7023 63.4291C83.8437 62.1283 84.2512 60.9065 85.1015 59.8955C85.7964 59.0688 86.7705 58.4897 87.8597 58.4107C89.3442 58.303 90.4553 59.0221 91.5181 59.9687Z" fill="#E38846"/>
<path d="M79.8622 69.5886C79.7079 69.5906 79.5537 69.5968 79.3998 69.6074C78.4988 69.6725 77.7359 70.1253 77.1641 70.8193C76.7097 71.3712 76.4633 72.0587 76.5565 72.776C76.6673 73.6285 77.1384 74.0612 77.7889 74.5485C78.0882 74.5487 78.3904 74.5463 78.6876 74.5078C79.46 74.4076 80.1555 73.8326 80.6022 73.2239C81.0239 72.6493 81.2431 71.9527 81.114 71.2399C80.9669 70.4276 80.509 70.0287 79.8622 69.5886Z" fill="#E38846"/>
<path d="M81.1605 21.3615C80.9199 22.4322 80.7125 22.8109 79.7796 23.41C84.077 24.5253 88.0003 26.4148 92.1715 27.8416C92.5564 27.9733 93.2405 28.2761 93.6196 28.1487C93.6114 27.7628 93.3833 27.4191 93.1162 27.1488C92.903 26.9332 92.6294 26.7354 92.3765 26.569L92.1322 26.6868C91.3615 26.6022 88.3445 24.5595 87.3671 24.0688C85.3478 23.0551 83.2258 22.2727 81.1605 21.3615Z" fill="#E38846"/>
<path d="M49.81 23.4658C49.5204 23.4848 49.2336 23.5243 48.9498 23.5843C47.774 23.8288 46.6684 24.5031 46.0206 25.5365C45.6668 26.1004 45.5119 26.7515 45.6733 27.4065C45.8657 28.1875 46.3616 28.5534 47.0099 28.9467C47.6096 28.9679 48.2668 29.0045 48.8465 28.8316C49.8707 28.5259 50.9347 27.7442 51.4188 26.7751C51.6936 26.2252 51.7702 25.6415 51.5529 25.053C51.2266 24.1682 50.6038 23.8573 49.81 23.4658Z" fill="#E38846"/>
<path d="M49.8526 25.0956C48.7089 25.2298 48.016 25.5289 47.1264 26.2697C46.7444 26.5879 46.4643 26.9466 46.4224 27.4577C46.6283 27.9267 46.8174 28.02 47.2251 28.3069C47.5741 28.3117 47.9276 28.3211 48.2761 28.3011C49.113 28.2534 50.129 27.5317 50.6451 26.8825C50.9715 26.4718 51.0247 26.1967 50.9457 25.7C50.6413 25.297 50.3135 25.2252 49.8526 25.0956Z" fill="#FDE2A6"/>
<path d="M91.5181 59.9687C90.4553 59.022 89.3442 58.3029 87.8597 58.4106C86.7705 58.4896 85.7964 59.0687 85.1015 59.8954C84.2512 60.9064 83.8437 62.1282 83.7023 63.429C83.8237 63.6186 83.9511 63.807 84.1007 63.9758C84.7575 64.717 85.7576 65.2764 86.7582 65.3137C87.9057 65.3566 89.0241 64.8165 89.8529 64.0505C91.11 62.8887 91.4735 61.625 91.5181 59.9687Z" fill="#F6CE76"/>
<path d="M91.0114 81.5141C90.3738 80.6961 89.7925 80.1815 88.7337 80.0348C87.4732 79.8602 86.1901 80.3579 85.2037 81.1237C84.1325 81.955 83.1883 83.2447 83.0118 84.6197C82.9376 85.198 83.0349 85.793 83.2211 86.3408C83.4798 86.6164 83.751 86.9175 84.0596 87.1364C84.8248 87.6796 85.9323 87.7962 86.8356 87.6394C88.2066 87.4014 89.4532 86.5325 90.2372 85.3948C91.1181 84.1167 91.2698 83.0141 91.0114 81.5141Z" fill="#58321A"/>
<path d="M88.5071 80.5682C87.8505 80.6581 87.2242 80.76 86.6189 81.0426C85.3584 81.6313 84.169 82.7837 83.6938 84.1071C83.4751 84.7158 83.4363 85.3607 83.7535 85.9489C84.1596 86.7022 84.8184 86.9453 85.5904 87.1794C85.794 87.1784 85.9968 87.1646 86.1986 87.138C86.4006 87.1115 86.6001 87.0724 86.7969 87.0209C86.994 86.9692 87.1869 86.9053 87.3757 86.8294C87.5647 86.7534 87.7482 86.6659 87.9261 86.5668C89.112 85.8991 90.2062 84.7573 90.5726 83.4199C90.7342 82.8304 90.7 82.2296 90.3693 81.6982C89.93 80.9927 89.2623 80.7749 88.5071 80.5682Z" fill="#E38846"/>
<path d="M69.5272 90.9509C70.2437 89.9579 70.6484 88.9828 70.5212 87.7369C70.3945 86.4976 69.7023 85.3799 68.7371 84.6102C67.7271 83.8049 66.4146 83.3701 65.1228 83.5243C63.7636 83.6864 62.7733 84.45 61.9585 85.5066C61.279 86.6192 60.9866 87.6061 61.3105 88.9028C61.5753 89.9608 62.3256 90.9894 63.2895 91.5177C63.3637 91.5584 63.4324 91.5827 63.5121 91.615L63.8332 91.8838C64.2663 92.0045 64.7059 92.1276 65.1486 92.2093C66.8506 92.5236 68.1621 91.8684 69.5272 90.9509Z" fill="#58321A"/>
<path d="M69.9979 89.0828C70.0437 88.841 70.057 88.6027 70.0464 88.357C69.9958 87.1834 69.54 86.0751 68.6544 85.2857C68.5472 85.19 68.4357 85.0998 68.3198 85.0152C68.204 84.9305 68.0843 84.8517 67.9606 84.7786C67.837 84.7057 67.7101 84.6391 67.5798 84.5787C67.4496 84.5182 67.3167 84.4642 67.1812 84.4168C67.0457 84.3694 66.9082 84.3287 66.7688 84.2947C66.6293 84.2608 66.4884 84.2338 66.3463 84.2137C66.2042 84.1937 66.0615 84.1806 65.9181 84.1745C65.7745 84.1684 65.6311 84.1693 65.4879 84.1774C64.0756 84.266 63.1909 84.9388 62.2806 85.9648C61.8384 87.056 61.5226 88.0694 62.0143 89.2052C62.2269 89.6961 62.5964 90.1511 62.983 90.518C62.9087 90.2412 62.8535 89.9604 62.8175 89.6759C62.6916 88.72 62.8739 87.7721 63.4845 87.0076C64.0381 86.3145 64.8575 85.9293 65.7314 85.8479C66.8016 85.7487 67.945 86.0804 68.7685 86.7775C69.5261 87.4188 69.9235 88.0947 69.9979 89.0828Z" fill="#E38846"/>
<path d="M69.998 89.0828C69.9236 88.0947 69.5262 87.4188 68.7686 86.7775C67.9451 86.0804 66.8017 85.7487 65.7315 85.8479C64.8576 85.9294 64.0382 86.3145 63.4846 87.0076C62.874 87.7721 62.6917 88.72 62.8177 89.6759C62.8536 89.9604 62.9088 90.2412 62.9831 90.518L63.9748 91.2802C65.0351 91.6712 66.1099 91.8798 67.2225 91.5615C68.5707 91.1759 69.3467 90.2709 69.998 89.0828Z" fill="#F6CE76"/>
<path d="M49.5361 51.495C49.5417 51.469 49.547 51.4432 49.5528 51.4174C49.929 49.7933 50.8841 48.2418 50.391 46.499L50.1583 46.2559C49.8767 46.4294 49.8204 46.5327 49.7416 46.8649C49.4485 48.0999 49.765 49.4245 48.9426 50.5153C48.4994 50.7675 48.4573 50.7559 47.9476 50.6899C47.2715 49.6175 49.1481 42.4126 44.4737 41.3883C43.6006 41.197 42.5904 41.297 41.829 41.7882C40.6571 42.5441 40.1744 44.0063 39.9218 45.3061C39.487 47.541 39.7105 49.7803 40.0884 52.0044C40.1286 52.2403 40.193 52.2824 39.9752 52.4337C39.5614 52.7211 39.236 52.5739 38.9149 53.0422L39.012 53.331C39.5209 53.4428 39.8873 53.2496 40.3818 53.2185C41.4951 53.1484 43.2065 53.5719 43.9681 54.4331C43.8867 54.7178 43.7526 54.9086 43.5801 55.1471L43.7095 55.4732C44.2977 55.564 44.255 55.1755 44.7026 55.0702C44.9206 55.0189 46.4142 56.338 46.5932 56.5856C46.9853 57.1281 46.4607 58.4622 46.9068 58.9483C47.2315 58.8102 47.3815 58.5547 47.5858 58.2776C47.5911 57.7874 47.5754 57.3081 47.7366 56.8383C48.1528 56.4043 49.1158 56.4023 49.706 56.1564L49.8606 56.0909C49.7939 55.9895 49.7568 55.9232 49.6655 55.8341C49.3169 55.4942 48.1656 55.6633 47.6617 55.6373C46.7324 55.5893 46.3212 55.2572 45.7181 54.5844C45.6191 54.2018 45.548 53.7967 45.536 53.4009C45.5198 52.8767 45.7275 52.5219 46.0746 52.1468C47.0419 51.3362 48.347 51.5535 49.5361 51.495Z" fill="black"/>
<path d="M44.3096 42.1243C43.9761 42.0913 43.662 42.1112 43.3282 42.1358L43.2637 42.3083C43.7947 42.9585 44.3592 43.6079 44.8272 44.3052C45.1501 44.7865 45.4866 45.4126 45.3255 46.0098C45.0878 46.8895 43.4691 47.5767 42.7059 48.0132L45.1684 49.2842C45.0707 50.4334 44.7812 51.469 44.3925 52.5458L43.9503 53.1217L44.0763 53.431L44.4994 53.5946C44.9411 53.0919 44.8238 52.6359 45.0531 52.0712C45.3479 51.3447 46.3521 51.0202 47.0146 50.7572C47.0821 48.7915 47.288 46.5494 46.6223 44.661C46.1698 43.3769 45.5107 42.7152 44.3096 42.1243Z" fill="#FEFEFE"/>
<path d="M64.6644 41.817C63.8804 41.7773 63.1264 41.8777 62.4115 42.2181C61.2491 42.7717 60.5045 43.8034 60.0948 44.9994C59.0292 48.1095 59.6135 51.9365 61.007 54.831C60.5905 55.2012 60.0445 55.6579 59.9821 56.238L60.2032 56.4283C61.0978 56.2199 62.2041 54.9753 63.1517 54.5291L63.2247 54.4952C64.4871 54.0698 65.7697 53.754 67.1102 53.7381C68.1505 53.7255 69.5823 54.0722 70.5532 53.7708L70.4328 53.549C69.7502 53.0973 69.2111 53.012 68.403 52.947C68.8642 50.2599 69.2149 46.8424 67.9073 44.3377C67.1702 42.9258 66.1376 42.2995 64.6644 41.817Z" fill="black"/>
<path d="M64.505 42.6339C64.0905 42.6498 63.7066 42.5792 63.3714 42.8341C64.7499 44.2825 65.2985 45.2531 65.62 47.2197C64.7545 47.7877 63.6922 48.2023 62.7548 48.6498C63.4518 49.1001 64.7607 49.5206 65.2111 50.2224C65.5733 50.7865 65.2872 51.4858 65.141 52.088C64.9861 52.4257 64.8643 52.6409 64.9397 53.0147C65.5256 53.2869 66.9097 52.9121 67.5842 52.8707C68.0059 50.35 68.4009 47.033 67.1396 44.6969C66.5282 43.5647 65.7132 43.0037 64.505 42.6339Z" fill="#FEFEFE"/>
<path d="M83.9959 28.972C82.2713 28.5173 80.6283 28.4132 79.0255 29.3473C77.713 30.1124 76.8919 31.3785 76.5301 32.8311C76.4866 33.0063 76.4456 33.1821 76.407 33.3586C76.5636 35.4408 77.0085 37.1776 78.6401 38.6018C78.8519 38.7868 79.0667 38.9436 79.3151 39.0763C79.8257 39.4625 80.465 39.746 81.0749 39.9319C82.6225 40.4034 84.3245 40.3374 85.7632 39.5588C85.838 39.5187 85.9118 39.4767 85.9846 39.4328C86.0572 39.389 86.1287 39.3433 86.1992 39.2958C86.2695 39.2484 86.3387 39.1992 86.4066 39.1481C86.4745 39.0972 86.5411 39.0446 86.6063 38.9903C86.6716 38.936 86.7354 38.8801 86.7978 38.8224C86.8602 38.7649 86.9212 38.7058 86.9806 38.6451C87.04 38.5846 87.0979 38.5225 87.1543 38.4589C87.2106 38.3953 87.2653 38.3304 87.3183 38.264C87.3713 38.1977 87.4226 38.1301 87.4722 38.0612C87.5218 37.9923 87.5697 37.9222 87.6158 37.8509C87.6618 37.7796 87.7061 37.7072 87.7485 37.6336C87.7909 37.5601 87.8314 37.4855 87.8701 37.4099C87.9087 37.3342 87.9453 37.2577 87.9802 37.1803C88.0149 37.1027 88.0476 37.0244 88.0785 36.9454C88.1093 36.8662 88.1381 36.7864 88.1649 36.7057C88.1918 36.6253 88.2165 36.5441 88.2391 36.4622C88.7457 34.6235 88.1611 33.0081 87.2381 31.4315C86.2938 30.2801 85.3101 29.6183 83.9959 28.972Z" fill="#58321A"/>
<path d="M87.1187 32.365C86.1007 30.8419 84.7661 29.7251 82.9362 29.3423C81.5887 29.0607 80.151 29.2881 78.9965 30.0525C77.9846 30.7224 77.3306 31.7401 77.1068 32.9296C77.0676 33.1466 77.0411 33.3651 77.0273 33.5851C77.0137 33.8051 77.0128 34.0251 77.0247 34.2451C77.0367 34.4653 77.0615 34.6839 77.0989 34.9011C77.1365 35.1183 77.1865 35.3326 77.2489 35.544C77.6269 34.6243 78.007 33.8089 78.692 33.0708C79.7106 31.9728 81.0205 31.3337 82.5271 31.3012C84.7135 31.2538 86.2091 32.3929 87.7129 33.8142C87.5484 33.3237 87.32 32.8422 87.1187 32.365Z" fill="#E38846"/>
<path d="M87.7132 33.8142C86.2094 32.3929 84.7139 31.2538 82.5275 31.3012C81.0208 31.3338 79.7109 31.9728 78.6923 33.0708C78.0073 33.8089 77.6272 34.6243 77.2492 35.544C77.8688 36.9113 78.6078 37.9615 79.8767 38.8102C81.1174 39.3693 82.3085 39.733 83.6844 39.5825C84.9403 39.4449 86.1372 38.8653 86.9142 37.8512C87.858 36.6198 87.9249 35.293 87.7132 33.8142Z" fill="#F6CE76"/>
<path d="M44.3752 59.2413C44.2384 59.2608 44.1013 59.282 43.9676 59.3184C43.5169 59.4413 43.0827 59.8561 42.881 60.2719C42.6628 60.7221 42.7567 61.2222 42.9384 61.6661C43.3038 62.56 43.851 62.8065 44.6958 63.1748C45.198 65.8005 45.1166 68.298 44.9879 70.9482C44.6286 71.2052 44.2046 71.4288 43.9146 71.7665C43.4649 72.2904 43.0528 73.0565 43.0942 73.7579C43.2688 74.1619 43.4302 74.2987 43.8154 74.5054C44.1721 74.2549 43.9965 73.0478 44.353 72.5354C45.4786 70.9174 50.1775 73.4086 52.2512 73.0177C53.9515 72.6971 55.1079 71.3245 56.0216 69.9613L56.6037 71.2484C56.9415 71.813 57.447 72.3565 58.0047 72.7089L58.1251 72.6802C58.3797 71.7831 56.8771 70.0796 56.6678 69.031C56.1899 66.6366 57.1758 64.6384 58.4375 62.6961L58.3351 62.45L57.9895 62.4516C57.1002 63.0883 56.5206 64.3708 56.0941 65.3531C55.6345 64.5086 55.1889 63.6546 54.4913 62.9775C51.3872 59.9635 48.3857 62.204 44.8632 62.1934C44.3248 62.1917 44.0302 62.1142 43.6521 61.7343C43.4269 60.7625 43.8992 60.0483 44.3752 59.2413Z" fill="black"/>
<path d="M49.1473 62.3601C48.3995 62.5138 47.1099 62.595 46.5548 63.1466C46.4868 63.6705 46.6797 63.8741 46.9203 64.3354L49.5435 64.6979C49.3744 63.9295 49.274 63.137 49.1473 62.3601Z" fill="#FEFEFE"/>
<path d="M51.0877 62.1858C50.6024 62.1913 50.39 62.1354 49.9902 62.4356C49.7588 63.067 50.1044 64.0341 50.2477 64.6819C50.982 64.652 51.7218 64.5253 52.4506 64.4299C52.9679 64.3237 53.3833 64.2256 53.8452 63.9566L53.7937 63.7342C53.3168 63.4709 52.9284 63.1862 52.5228 62.8234C52.0684 62.4168 51.6657 62.3207 51.0877 62.1858Z" fill="#FEFEFE"/>
<path d="M55.354 68.152C55.1383 68.1369 54.9226 68.1241 54.7068 68.1137C52.788 68.0228 52.0528 68.9551 50.7107 70.1728L50.5166 70.0381C50.5267 69.5043 50.9561 69.0815 51.263 68.6477L51.2182 68.4637C51.1611 68.4687 51.1038 68.4723 51.0467 68.4791C49.8029 68.628 48.9461 69.5734 48.2396 70.5004C48.1086 70.7174 48.039 70.9648 47.9568 71.2033C48.1676 71.5203 48.262 71.646 48.6158 71.8149C49.7754 72.3687 51.5516 72.2396 52.728 71.8033C53.6833 71.449 54.871 70.7384 55.2776 69.7454C55.5183 69.1584 55.5905 68.7248 55.354 68.152Z" fill="#F14B44"/>
<path d="M104.076 69.2092C104.521 66.794 104.992 64.3743 105.291 61.936C105.576 59.6168 105.703 57.2486 106.116 54.9496C106.35 53.6524 107.271 52.4051 107.242 51.1221C107.231 50.6146 105.62 45.085 105.346 44.3787C104.968 44.8097 105.231 46.4068 105.043 47.0861C104.746 47.4346 104.734 47.4517 104.286 47.5355C103.82 47.4158 103.474 47.1795 103.159 46.823C100.994 44.3715 103.843 43.9897 103.995 42.1197C102.169 40.433 101.522 38.6856 100.32 36.5841C98.9447 34.1774 97.3843 31.781 95.4294 29.8033C99.3544 36.0814 100.649 42.653 101.894 49.8223C101.529 50.0906 101.157 50.332 100.888 50.703C100.523 51.1636 100.297 51.6273 100.39 52.2319C100.445 52.5882 100.621 52.9632 100.927 53.1687C101.029 53.2369 101.14 53.2889 101.251 53.3393L101.412 53.6115C101.889 57.0017 98.7787 63.7918 97.954 67.3155C99.7519 67.7513 102.498 68.1917 104.076 69.2092Z" fill="#E38846"/>
<path d="M101.412 53.6114C101.581 53.636 101.751 53.6553 101.923 53.6524C102.476 53.6432 102.982 53.4252 103.362 53.0261C103.416 52.9707 103.467 52.9125 103.515 52.8517C103.563 52.791 103.607 52.7279 103.648 52.6623C103.689 52.5968 103.727 52.5294 103.761 52.46C103.795 52.3906 103.825 52.3195 103.852 52.2468C103.878 52.1742 103.901 52.1004 103.92 52.0254C103.938 51.9504 103.953 51.8746 103.964 51.798C103.975 51.7216 103.982 51.6447 103.984 51.5672C103.987 51.49 103.986 51.4128 103.98 51.3358C103.947 50.8643 103.745 50.4544 103.378 50.1542C102.91 49.7717 102.457 49.7787 101.895 49.8223C101.529 50.0906 101.157 50.332 100.889 50.7029C100.523 51.1635 100.298 51.6272 100.391 52.2319C100.446 52.5881 100.622 52.9632 100.928 53.1687C101.029 53.2368 101.14 53.2889 101.252 53.3392L101.412 53.6114Z" fill="#58321A"/>
<path d="M102.872 52.7361C102.627 52.5878 102.369 52.4167 102.104 52.3086C101.639 52.1192 101.443 52.2062 101.009 52.3869L101.642 53.1319C102.071 53.0758 102.471 52.8918 102.872 52.7361Z" fill="#F3A95B"/>
<path d="M102.872 52.736C103.209 52.3631 103.468 51.9119 103.413 51.3894C103.365 50.9385 103.18 50.7887 102.872 50.4974C102.397 50.3408 102.139 50.4073 101.685 50.5697C101.218 51.1637 100.983 51.5985 101.01 52.3867C101.444 52.206 101.639 52.1191 102.104 52.3084C102.369 52.4166 102.627 52.5876 102.872 52.736Z" fill="#E38846"/>
</g>
<defs>
<clipPath id="clip0_2221_603">
<rect width="119" height="152" fill="white" transform="matrix(-1 0 0 1 119 0)"/>
</clipPath>
</defs>
</svg>
