<svg width="148" height="146" viewBox="0 0 148 146" fill="none" xmlns="http://www.w3.org/2000/svg">
<path d="M25.836 44.6284C22.2099 47.0131 18.7066 46.8455 16.0568 45.2369C15.5829 44.9621 15.2451 44.6396 15.0144 44.2887C14.1874 43.0313 14.7409 41.4524 15.8522 40.7216C16.6417 40.2024 17.6713 40.1118 18.6953 40.9045C20.3764 42.1867 22.0669 41.9546 23.4998 41.0123C25.2836 39.8392 25.7402 38.2403 24.9132 36.9829C22.4709 33.269 13.0283 40.568 8.56656 33.7837C6.31648 30.3622 7.4691 26.1273 11.5046 23.4734C14.5167 21.4925 18.0232 21.1553 20.8175 22.9202C21.243 23.185 21.5323 23.4974 21.763 23.8483C22.5708 25.0765 22.105 26.5977 21.0522 27.29C20.2919 27.79 19.2139 27.8706 18.0344 27.0964C16.768 26.2536 15.2445 26.1664 13.9286 27.0318C12.5249 27.9549 11.9622 29.456 12.8084 30.7427C15.5585 34.9244 24.6757 26.8759 29.2143 33.7772C31.6952 37.5496 29.9885 41.8975 25.836 44.6284Z" fill="#DCFD00"/>
<path d="M39.0147 37.9057C37.6769 38.4249 36.0697 37.9598 35.1843 36.8393L26.6455 25.9617C26.4789 25.726 26.325 25.5229 26.2364 25.2945C25.7299 23.9894 26.5499 22.6199 27.8551 22.1134C28.7361 21.7715 29.8469 21.8284 30.7177 23.1049C34.2968 28.361 36.2615 30.7147 37.2316 32.4406C36.8089 30.5773 36.6072 28.7033 35.9145 21.501C35.785 20.1998 36.4565 18.7378 37.9248 18.1679C39.3605 17.6108 40.8045 18.1391 41.7278 19.3576C45.8251 24.7881 46.7992 26.1371 47.8273 27.9156C47.4605 26.2934 47.1868 23.8467 46.4396 16.8908C46.2847 15.5243 47.041 14.6676 47.8893 14.3384C49.0313 13.8952 50.5099 14.2224 51.0291 15.5602C51.1177 15.7886 51.1864 16.0623 51.1898 16.3614L52.2167 30.2293C52.319 31.6538 51.4789 33.0685 50.1412 33.5877C48.7707 34.1195 47.2216 33.7071 46.2276 32.4034C41.7645 26.5141 40.9697 25.4335 39.9996 23.7076C40.4184 25.9478 40.5909 28.1335 41.1102 34.502C41.2324 35.8812 40.483 37.3359 39.0147 37.9057Z" fill="#DCFD00"/>
<path d="M53.2418 12.5996C51.7316 12.9011 50.2493 11.9123 49.9477 10.4021C49.6461 8.89195 50.6349 7.40959 52.1451 7.10799C53.6553 6.8064 55.1376 7.79524 55.4392 9.30542C55.7408 10.8156 54.752 12.298 53.2418 12.5996ZM54.3075 30.6249L51.6 17.0676C51.2847 15.4888 52.349 14.384 53.5502 14.1441C54.7858 13.8973 56.1585 14.5154 56.4738 16.0943L59.1813 29.6516C59.4966 31.2304 58.4667 32.3283 57.2311 32.5751C56.0641 32.8082 54.6297 32.238 54.3075 30.6249Z" fill="#DCFD00"/>
<path d="M74.3931 12.0299C79.9529 11.7891 83.4291 16.0177 83.6531 21.1929C83.8878 26.6128 80.6017 30.8189 74.9719 31.0626C72.769 31.158 70.2804 30.3199 68.7559 28.2839L69.1283 36.8859C69.198 38.4943 68.012 39.4215 66.7532 39.476C65.5293 39.529 64.2326 38.7093 64.163 37.1008L63.2107 15.1064C63.1411 13.4979 64.3621 12.5693 65.5859 12.5163C66.8447 12.4618 68.1064 13.283 68.1761 14.8915L68.217 15.8356C68.9653 13.7012 71.281 12.1646 74.3931 12.0299ZM73.7641 26.6307C76.7013 26.5036 78.7435 24.3132 78.6163 21.3759C78.4892 18.4387 76.3003 16.4315 73.3281 16.5602C70.3908 16.6873 68.3851 18.9112 68.5108 21.8135C68.6365 24.7157 70.8268 26.7579 73.7641 26.6307Z" fill="#DCFD00"/>
<path d="M101.924 23.4659C101.931 23.6442 101.905 23.8171 101.878 23.99C101.652 25.4427 100.606 26.0242 99.1187 25.7936L87.8781 24.0505C87.7316 26.3653 89.5201 28.3074 92.045 28.6989C93.7397 28.9617 95.0921 28.463 96.1976 27.5011C96.773 26.9882 97.3585 26.8665 97.9119 26.9523C99.0187 27.1239 99.8769 28.2133 99.6999 29.3547C99.6302 29.8043 99.3768 30.2963 98.8521 30.7108C96.7878 32.3741 94.2881 33.1907 91.3829 32.7402C85.8144 31.8767 82.347 27.5138 83.2159 21.9107C84.058 16.4806 88.5592 13.0347 93.9893 13.8768C99.3848 14.7135 102.06 18.7055 101.924 23.4659ZM93.3778 17.8196C90.9568 17.4442 88.8585 18.6418 88.3822 20.7993L97.271 22.1777C97.4014 19.9666 95.7989 18.1951 93.3778 17.8196Z" fill="#DCFD00"/>
<path d="M111.3 38.8726C104.305 36.1964 101.485 28.9719 104.011 22.3686C106.5 15.8634 113.369 12.308 120.43 15.0093C123.862 16.3224 125.934 18.3516 127.096 20.4075C127.683 21.4191 127.73 22.3739 127.442 23.1258C127.005 24.2699 125.772 24.8476 124.595 24.3974C124.039 24.1848 123.493 23.751 123.04 22.9779C122.213 21.6124 120.944 20.2275 118.852 19.4272C114.537 17.7764 110.389 19.8997 108.714 24.28C107.088 28.5297 108.563 32.8039 112.911 34.4672C116.245 35.7428 119.382 34.6943 121.259 32.0399L114.133 29.3137C112.793 28.8009 112.474 27.4797 112.874 26.4337C113.274 25.3876 114.373 24.5715 115.746 25.0967L125.422 28.7984C126.991 29.3987 127.458 30.6267 126.796 32.3592C126.708 32.588 126.575 32.837 126.43 33.1187C124.194 37.3971 118.427 41.5989 111.3 38.8726Z" fill="#FFF4CA"/>
<path d="M127.317 47.9621C122.506 44.8313 121.221 39.2344 124.238 34.5994C127.235 29.9938 132.892 28.873 137.703 32.0038C142.514 35.1347 143.809 40.78 140.812 45.3856C137.796 50.0206 132.128 51.093 127.317 47.9621ZM129.761 44.2072C132.225 45.8109 135.179 45.1859 136.764 42.7511C138.348 40.3163 137.723 37.3624 135.259 35.7587C132.824 34.1742 129.87 34.7991 128.286 37.2339C126.701 39.6687 127.326 42.6227 129.761 44.2072Z" fill="#FFF4CA"/>
<g clip-path="url(#clip0_2261_1693)">
<path d="M66.4883 47.5757C66.7286 47.5552 66.9816 47.5636 67.2217 47.5817C68.3606 47.6674 69.4438 48.3905 70.165 49.244C70.9342 50.1542 71.5512 51.2792 72.0885 52.3381C72.9003 53.938 80.1463 70.0121 80.0757 70.9518C80.1825 70.9562 80.2891 70.9627 80.3956 70.9714C82.4155 71.1442 84.4722 71.6023 86.4853 71.8862C89.7295 72.3435 95.444 72.8485 98.3159 73.849C99.2264 74.1663 100.018 74.661 100.637 75.4107C101.24 76.1419 101.6 77.0603 101.499 78.0163C101.402 78.9439 100.964 79.9556 100.229 80.5471C100.685 80.3221 101.043 79.9539 101.515 79.7388C102.222 79.4161 102.798 79.4589 103.516 79.7288C104.252 78.0344 103.665 75.8179 104.216 74.0351C104.333 73.6528 104.508 73.22 104.884 73.0298C105.29 72.8249 105.813 72.7346 106.261 72.6899C107.592 72.5575 113.407 72.4557 114.385 72.8224C114.903 73.0165 115.603 73.5081 115.815 74.0384C116.2 75.003 115.794 79.9733 115.4 80.9569C115.694 81.0003 115.981 81.0591 116.267 81.1427C117.054 81.374 117.788 81.8645 118.174 82.6083C118.211 82.6774 118.243 82.7482 118.272 82.8206C118.302 82.893 118.327 82.9667 118.349 83.0416C118.371 83.1165 118.389 83.1924 118.404 83.2692C118.418 83.3459 118.429 83.4231 118.436 83.501C118.443 83.5788 118.445 83.6567 118.444 83.7348C118.443 83.8129 118.439 83.8908 118.43 83.9685C118.421 84.0461 118.408 84.1231 118.393 84.1995C118.376 84.2758 118.356 84.3511 118.332 84.4255C118.076 85.2079 117.395 85.7742 116.679 86.1278C116.915 86.2564 117.126 86.471 117.288 86.6861C117.665 87.1871 117.835 87.7762 117.732 88.3982C117.58 89.321 117.121 89.8361 116.379 90.3624C116.596 90.7147 116.735 91.0445 116.821 91.451C116.913 91.8863 116.904 92.2952 116.642 92.6759C116.421 92.9935 116.106 93.2438 115.778 93.4429C115.084 93.8661 114.247 93.9742 113.53 94.349C112.507 94.8841 111.669 95.7583 110.614 96.2394C110.013 96.5136 109.406 96.64 108.761 96.756C108.761 96.7855 108.762 96.8149 108.761 96.8444C108.748 97.2293 108.44 97.7053 108.17 97.9643C107.408 98.6941 106.356 98.7813 105.363 98.7701C105.333 98.8745 105.3 98.9778 105.258 99.0781C104.321 101.337 101.814 103.534 99.6008 104.478C99.4464 104.543 99.2906 104.604 99.1333 104.661C98.976 104.718 98.8174 104.772 98.6575 104.822C98.4978 104.872 98.3369 104.918 98.1749 104.96C98.0128 105.003 97.8499 105.041 97.6861 105.076C97.5223 105.11 97.3578 105.141 97.1925 105.168C97.0272 105.195 96.8615 105.218 96.6952 105.237C96.5289 105.256 96.3622 105.271 96.1952 105.282C96.028 105.293 95.8608 105.301 95.6934 105.304C95.5261 105.307 95.3587 105.307 95.1912 105.302C95.0239 105.297 94.8568 105.289 94.6898 105.276C94.5229 105.264 94.3563 105.247 94.1901 105.227C94.0239 105.207 93.8583 105.183 93.6933 105.154C93.5282 105.126 93.3639 105.094 93.2005 105.058C93.0369 105.022 92.8743 104.983 92.7126 104.939C92.5509 104.896 92.3903 104.848 92.2309 104.797C92.0715 104.746 91.9134 104.691 91.7565 104.633C90.8228 104.28 89.9628 103.777 89.038 103.408C89.0961 103.505 89.1493 103.603 89.194 103.706C89.7881 105.082 91.3699 115.004 91.4041 116.847C91.4222 117.825 91.3238 118.843 90.9432 119.752C90.5878 120.6 89.9882 121.283 89.1205 121.62C85.4516 123.047 81.8688 118.818 78.8047 117.504L78.7174 117.467C78.7499 117.538 78.7522 117.54 78.7824 117.623C79.037 118.329 79.131 128.538 79.0451 129.87C79.0326 130.064 78.9872 130.22 78.9025 130.395C79.9533 130.448 81.1192 130.587 81.9041 131.37C82.9531 132.417 82.1971 133.06 82.1991 133.932C82.554 133.912 82.8833 133.765 83.2277 133.684C84.4695 133.392 85.819 133.426 86.992 133.963C88.4096 134.613 89.4508 136.003 89.9816 137.438C90.3112 138.328 90.6365 139.785 90.225 140.689C92.1506 140.735 98.481 141.226 99.9187 142.189C100.13 142.33 100.154 142.382 100.203 142.625C100.161 142.719 100.11 142.808 100.036 142.881C98.6211 144.268 87.0953 144.822 84.634 144.911C78.3021 145.226 71.9664 145.347 65.627 145.273C58.6192 145.227 51.5862 145.076 44.6043 144.433C42.167 144.209 39.2667 144.103 36.9796 143.206C36.6376 143.072 36.4055 142.946 36.2599 142.604L36.3833 142.365C38.0473 141.117 44.1083 140.821 46.401 140.604C46.4 140.216 46.4249 139.83 46.4757 139.446C46.5264 139.062 46.6026 138.682 46.7042 138.308C47.1505 136.696 48.1614 135.251 49.636 134.429C51.1287 133.596 52.6569 133.609 54.2543 134.076C54.0951 133.744 53.9412 133.402 53.8914 133.034C53.8196 132.503 53.9469 131.96 54.2816 131.538C54.9825 130.654 56.168 130.51 57.2093 130.391C57.1637 126.146 57.2682 121.886 57.2829 117.64C54.0656 119.653 48.2556 123.945 44.3843 123.647C43.6784 123.592 43.0689 123.333 42.6133 122.779C42.0368 122.079 41.8057 121.134 41.7292 120.248C41.5541 118.222 41.9413 116.04 42.1908 114.028C42.5313 111.413 42.8481 108.796 43.1413 106.175C41.541 107 39.7201 107.494 37.9136 107.228C36.3547 106.998 34.9347 106.235 33.9978 104.95C32.8026 103.312 32.5565 101.206 32.8639 99.2479C33.5206 95.0661 36.4372 91.5848 39.7571 89.1534C37.9341 87.172 36.0247 85.2601 34.1537 83.3234C32.6968 81.8153 31.0576 80.2642 29.9573 78.4681C29.5192 77.753 29.1946 76.9428 29.1466 76.0981C29.1429 76.0409 29.1405 75.9837 29.1396 75.9264C29.1387 75.8691 29.1392 75.8118 29.1412 75.7544C29.1432 75.6972 29.1466 75.6401 29.1515 75.583C29.1563 75.5259 29.1626 75.4689 29.1704 75.4121C29.1781 75.3554 29.1872 75.2988 29.1977 75.2424C29.2083 75.186 29.2203 75.13 29.2336 75.0744C29.2471 75.0186 29.2619 74.9633 29.278 74.9082C29.2942 74.8532 29.3117 74.7987 29.3307 74.7446C29.3495 74.6905 29.3697 74.6369 29.3914 74.5838C29.413 74.5307 29.4359 74.4783 29.4601 74.4264C29.4844 74.3744 29.51 74.323 29.5368 74.2724C29.5636 74.2218 29.5917 74.1719 29.621 74.1227C29.6504 74.0735 29.681 74.025 29.7127 73.9773C29.7445 73.9296 29.7774 73.8828 29.8116 73.8368C29.8456 73.7907 29.8809 73.7456 29.9173 73.7013C29.9538 73.6571 29.9913 73.6138 30.0298 73.5714C30.8014 72.7205 31.8847 72.3123 32.9688 72.0198C36.189 71.1508 39.7554 71.0964 43.0703 70.8405C46.4804 70.5773 49.8997 70.2524 53.316 70.107C55.0401 66.0773 57.0004 62.1235 58.8689 58.159C60.0817 55.5858 61.1754 52.7388 62.732 50.368C63.6639 48.9489 64.7884 47.9256 66.4883 47.5757ZM62.8736 113.953L62.7543 130.489C63.7692 130.673 64.7854 130.914 65.4096 131.826C65.7247 132.287 65.8248 132.813 65.7083 133.358C65.5797 133.959 65.2154 134.41 64.7956 134.839C65.2787 136.425 65.6186 138.088 65.6736 139.749L68.3036 139.748L70.5735 139.745C70.7287 138.017 70.9148 136.312 71.4302 134.646C70.9101 134.205 70.4887 133.647 70.4387 132.941C70.404 132.45 70.6189 131.969 70.9374 131.604C71.6189 130.825 72.5202 130.634 73.4921 130.48L73.2873 113.851C71.6478 112.79 69.7922 111.375 68.0774 110.51L62.8736 113.953ZM42.5065 94.17C40.8215 95.4915 38.4869 97.8321 38.1833 100.07C38.1052 100.645 38.3201 101.021 38.6245 101.484C38.0619 101.483 37.5697 100.709 37.0206 100.827C36.9817 101.131 37.0145 101.252 37.2096 101.508C37.2507 101.562 37.2959 101.613 37.3407 101.663C37.996 102.014 38.5648 102.092 39.2835 101.864C40.5948 101.448 41.6278 100.289 42.4663 99.2468C41.9324 98.4262 41.389 97.5364 41.6181 96.5114C41.8085 95.6603 42.543 95.2302 42.7059 94.7627C42.7583 94.613 42.6594 94.3427 42.5653 94.2261C42.5483 94.205 42.5261 94.1888 42.5065 94.17ZM100.209 91.8416C100.252 90.9566 99.8492 90.0302 99.859 89.1062C99.8717 87.9268 100.485 86.8242 100.554 85.6582C100.667 83.7523 99.7467 82.7146 100.368 80.661L100.33 80.5988C99.2758 82.1141 88.3241 93.1634 87.4044 93.5958C88.2312 94.4276 88.7239 95.6599 89.4789 96.5787C89.9218 97.1173 90.9611 97.7421 91.2161 98.3301C93.0605 99.3298 94.5753 100.399 96.8125 99.751C98.1881 99.3529 99.6839 98.0451 100.35 96.7663C100.411 96.6499 100.452 96.5406 100.448 96.4079C100.439 96.3696 100.432 96.3312 100.423 96.293C100.163 95.2108 98.7784 94.2452 99.6311 92.7574C99.7908 92.4785 99.9826 92.2189 100.164 91.9545C100.207 91.8927 100.193 91.9183 100.209 91.8416Z" fill="#141414"/>
<path d="M54.3668 70.0399C56.1414 66.0042 58.079 62.0303 59.9593 58.0428C61.0946 55.6351 62.1369 52.8783 63.6459 50.6935C64.5072 49.4464 65.462 48.7446 66.9544 48.469C68.5067 48.7958 69.423 49.6977 70.2681 51.0026C71.4999 52.9047 72.4265 55.14 73.3451 57.2081C74.7866 60.4609 76.1805 63.734 77.5266 67.0275C78.1419 68.5116 78.6941 70.0761 79.4398 71.4975C79.5696 71.7451 79.6616 71.8186 79.9117 71.9106C82.748 72.1577 85.6137 72.7015 88.4369 73.0991C91.4311 73.5208 94.9388 73.7434 97.7982 74.6609C98.5394 74.8988 99.3306 75.3392 99.8423 75.9356C100.051 76.1784 100.27 76.4649 100.26 76.7994C100.55 77.1485 100.605 77.4833 100.557 77.9255C100.484 78.6012 100.111 79.2947 99.7161 79.8342C98.9688 80.8546 98.0342 81.7767 97.1675 82.6964C95.2369 84.7319 93.2618 86.7232 91.2421 88.6702C89.7341 90.1485 88.2241 91.8221 86.597 93.1574C86.4871 93.2476 86.3658 93.3309 86.2433 93.4025C86.6591 94.1033 90.1059 113.186 90.3303 115.208C90.4644 116.415 90.5782 117.691 90.2738 118.881C90.164 119.311 89.927 119.944 89.5245 120.186C89.4397 120.236 89.3549 120.278 89.2644 120.317L89.2005 120.501C88.9205 120.725 88.6381 120.844 88.2852 120.903C87.3052 121.067 86.5186 120.846 85.6265 120.461C84.2144 119.852 82.9575 118.963 81.6678 118.136C80.1758 117.195 78.6908 116.242 77.213 115.279C74.4804 113.499 71.6033 111.803 68.9691 109.885C69.6283 109.432 70.2632 108.981 70.8602 108.447C70.7 108.188 70.6876 108.089 70.3821 108.004C69.48 108.152 66.9481 110.116 66.0137 110.732C62.6324 113.006 59.2333 115.254 55.8165 117.475C53.277 119.11 50.5928 120.91 47.7807 122.025C46.7842 122.378 45.6094 122.786 44.543 122.681C44.0586 122.633 43.5456 122.452 43.2377 122.054C42.8007 121.491 42.689 120.605 42.6514 119.917C42.5281 117.657 42.9545 115.252 43.2402 113.011C43.5606 110.499 43.8572 107.982 44.2087 105.474C45.6458 104.317 46.7157 103.152 47.7412 101.619C47.8126 101.625 47.8841 101.63 47.9557 101.634C48.765 101.673 49.6445 101.527 50.2545 100.953C50.8877 100.356 51.0263 99.6427 51.0414 98.8075C51.138 98.7496 51.2338 98.6908 51.329 98.631C52.8974 97.6427 53.4457 96.3789 53.8439 94.6404C54.5816 94.51 55.0852 94.2579 55.5758 93.674C56.2386 92.8848 56.5001 91.7851 56.4026 90.7708C56.2869 89.5681 55.7152 88.8244 54.8175 88.0886L54.7975 87.9553L54.5847 87.9599L54.7889 87.8494C54.6981 87.6081 54.6066 87.3619 54.4807 87.1364C54.0782 86.4149 53.4199 86.1483 52.6589 85.9423C52.3687 85.4792 52.0603 85.0933 51.5772 84.821C50.6953 84.3241 49.7456 84.5487 48.8343 84.8102C48.8737 84.6024 48.907 84.3937 48.9343 84.1839C49.187 82.2478 49.5105 79.506 48.2118 77.8695C47.7275 77.2592 47.0027 76.8011 46.2156 76.7332C45.7759 76.6953 45.3558 76.8047 45.0211 77.1001C43.7571 78.2162 44.313 80.6456 44.353 82.1475C44.3771 83.0554 44.3273 83.9538 44.2637 84.8593C43.7929 84.4807 43.3408 84.1079 42.7588 83.9127C41.8582 83.6107 41.1245 83.8099 40.3008 84.2241C40.2476 84.2679 40.1953 84.3129 40.1438 84.359C39.7594 84.7038 39.4561 85.1348 39.4395 85.6672C39.4053 86.7705 40.5255 87.4345 41.2004 88.1549L41.1579 88.309C40.9392 88.4337 40.7999 88.5206 40.5439 88.5103C39.1782 87.4345 37.9615 85.9149 36.7561 84.6545C34.8794 82.692 32.6705 80.7226 31.1138 78.5024C30.6005 77.7701 30.2219 77.039 30.0601 76.1506C30.0776 75.6359 30.1257 75.1984 30.3753 74.7389C30.9671 73.649 32.0943 73.2573 33.2139 72.9338C35.9523 72.2517 38.8366 72.1063 41.642 71.8859L52.0057 71.1243C53.2431 71.036 56.0904 71.0355 57.0993 70.6932C57.3208 70.4128 57.3116 70.264 57.3505 69.9184C56.395 69.8215 55.327 69.9797 54.3668 70.0399Z" fill="#F9D84B"/>
<path d="M54.3668 70.0399C56.1414 66.0042 58.079 62.0303 59.9593 58.0428C61.0946 55.6351 62.1369 52.8783 63.6459 50.6935C64.5072 49.4464 65.462 48.7446 66.9544 48.469C65.9995 50.3535 64.4277 52.6862 63.9951 54.7276C64.3533 54.2739 65.2441 52.7998 65.7552 52.7204C65.8844 52.9088 65.9306 52.9825 65.8757 53.2162C65.5985 54.3908 63.2272 58.3679 62.5306 59.8826C60.9181 63.3884 59.6444 67.0562 57.949 70.523C57.7099 71.012 57.2435 72.1085 56.7497 72.335C56.0154 72.6719 54.7739 72.591 53.9496 72.6548C50.6014 72.9136 47.2445 73.0066 43.8893 73.1266C41.5801 73.2091 39.0926 73.1752 36.8283 73.6671C35.7368 73.9042 34.026 74.3462 33.5474 75.4688C33.3858 75.848 33.3911 76.3094 33.3694 76.715C33.0901 76.3351 32.8583 75.9353 32.6246 75.5263C31.9534 75.3983 31.2356 75.2523 30.6264 75.6571C30.4159 75.7965 30.2271 75.961 30.0601 76.1506C30.0776 75.6359 30.1257 75.1984 30.3753 74.7389C30.9671 73.649 32.0943 73.2573 33.2139 72.9338C35.9523 72.2517 38.8366 72.1063 41.642 71.8859L52.0057 71.1243C53.2431 71.036 56.0904 71.0355 57.0993 70.6932C57.3208 70.4128 57.3116 70.264 57.3505 69.9184C56.395 69.8215 55.327 69.9797 54.3668 70.0399Z" fill="#FEFEFA"/>
<path d="M54.3667 70.0399C56.1413 66.0042 58.0788 62.0303 59.9592 58.0428C61.0945 55.6351 62.1368 52.8783 63.6457 50.6935C64.507 49.4464 65.4619 48.7446 66.9543 48.469C65.9994 50.3535 64.4275 52.6862 63.995 54.7276C63.2035 56.0982 62.642 57.6154 62.0347 59.0746C61.0671 61.3993 60.1221 63.7361 59.1287 66.0495C58.6952 67.0592 57.5927 69.0041 57.3503 69.9184C56.3948 69.8215 55.3269 69.9797 54.3667 70.0399Z" fill="#F0A248"/>
<path d="M30.0601 76.1505C30.0776 75.6358 30.1257 75.1983 30.3753 74.7388C30.9671 73.6489 32.0943 73.2573 33.2139 72.9337C32.7686 73.4184 32.4762 73.8337 32.4892 74.518C32.4954 74.8496 32.5588 75.2008 32.6246 75.5263C31.9534 75.3983 31.2356 75.2523 30.6264 75.6571C30.4159 75.7965 30.2271 75.961 30.0601 76.1505Z" fill="#F9D84B"/>
<path d="M47.7411 101.619C47.5541 103.238 47.2412 104.842 46.9899 106.451L46.02 113.024C45.741 114.86 45.3249 116.778 45.3427 118.636C45.3502 119.419 45.4243 120.319 45.9252 120.957C46.3838 121.541 47.0738 121.854 47.7806 122.025C46.784 122.378 45.6092 122.786 44.5428 122.681C44.0584 122.633 43.5455 122.452 43.2376 122.054C42.8005 121.491 42.6889 120.605 42.6512 119.917C42.528 117.657 42.9544 115.252 43.2401 113.011C43.5605 110.499 43.8571 107.982 44.2085 105.474C45.6456 104.317 46.7156 103.152 47.7411 101.619Z" fill="#F0A248"/>
<path d="M70.8604 108.447C72.5988 109.308 74.207 110.473 75.7968 111.578L83.1052 116.683C84.5662 117.704 86.0326 118.828 87.5849 119.705C88.1284 120.012 88.7526 120.057 89.2646 120.317L89.2007 120.501C88.9206 120.725 88.6382 120.844 88.2854 120.903C87.3053 121.067 86.5187 120.846 85.6266 120.461C84.2146 119.851 82.9576 118.962 81.668 118.136C80.176 117.195 78.691 116.242 77.2131 115.279C74.4805 113.499 71.6034 111.803 68.9692 109.885C69.6284 109.432 70.2634 108.981 70.8604 108.447Z" fill="#F0A248"/>
<path d="M30.0601 76.1505C30.2271 75.961 30.4159 75.7965 30.6264 75.6571C31.2356 75.2523 31.9534 75.3983 32.6246 75.5263C32.8583 75.9353 33.0901 76.3351 33.3694 76.7149C35.4714 79.4144 38.0823 81.6371 40.3008 84.2241C40.2476 84.2679 40.1953 84.3129 40.1438 84.3589C39.7594 84.7037 39.4561 85.1348 39.4395 85.6672C39.4053 86.7705 40.5255 87.4345 41.2004 88.1548L41.1579 88.309C40.9392 88.4337 40.7999 88.5206 40.5439 88.5103C39.1782 87.4345 37.9615 85.9149 36.7561 84.6545C34.8794 82.692 32.6705 80.7226 31.1138 78.5024C30.6005 77.7701 30.2219 77.039 30.0601 76.1505Z" fill="#F0A248"/>
<path d="M79.9115 71.9105C82.7479 72.1576 85.6135 72.7014 88.4367 73.099C91.431 73.5207 94.9387 73.7433 97.7981 74.6608C98.5393 74.8987 99.3304 75.3391 99.8422 75.9356C100.051 76.1783 100.27 76.4648 100.26 76.7993C100.15 76.8215 99.5341 76.3935 99.391 76.3132C98.7904 75.9762 98.0641 75.6148 97.3876 75.4887C94.9816 75.04 92.4589 74.9169 90.0239 74.6365C87.8653 74.3879 85.2594 73.884 83.1315 73.9085C83.0614 73.585 82.7628 73.2753 82.5181 73.0634C81.75 72.3988 80.658 72.3471 79.6988 72.408C79.6316 72.2353 79.6299 72.1676 79.6636 71.993L79.9115 71.9105Z" fill="#FEFEFA"/>
<path d="M79.6988 72.408C80.658 72.3471 81.75 72.3988 82.5181 73.0634C82.7628 73.2753 83.0614 73.585 83.1315 73.9085C83.25 74.1594 83.2955 74.1772 83.2165 74.4545C82.3349 74.5808 81.5098 73.2123 80.4653 73.3016C79.0974 73.4185 78.4064 74.687 77.4228 74.8707L77.2734 74.6508C77.2767 74.5412 77.2853 74.4274 77.3241 74.3238C77.6355 73.4888 78.9256 72.7688 79.6988 72.408Z" fill="#141414"/>
<path d="M65.7811 76.787C66.0896 76.7558 66.456 76.7357 66.7483 76.8515C67.3818 77.1024 67.8011 77.7534 68.0296 78.3665C68.683 80.1196 68.5854 82.92 67.7897 84.6163C67.5661 85.093 67.1694 85.6901 66.6445 85.8691C65.9671 86.1001 65.1581 85.2089 64.5369 84.8902C63.9707 84.7309 63.4769 84.7889 62.9971 84.3714L63.0633 84.2221C63.4972 84.0499 63.8802 84.0616 64.3415 84.0752C64.2126 83.4817 64.116 82.8786 64.0069 82.281L66.1238 81.2759C65.471 80.8833 64.7139 80.5888 64.0218 80.2656C64.0906 79.8547 64.1583 79.4417 64.2468 79.0344C64.4685 78.0139 64.9127 77.3503 65.7811 76.787Z" fill="#141414"/>
<path d="M80.563 76.8368C81.1061 76.8502 81.485 76.9679 81.8658 77.3701C82.8493 78.4089 82.9872 80.3043 82.9358 81.6747C82.888 82.9481 82.6344 84.7543 81.6454 85.6366C80.6921 86.4869 79.6392 85.1163 78.5334 85.0808L78.4161 85.0775C78.1424 85.0339 78.0078 85.0405 77.7866 84.8508C77.9884 84.2374 78.5344 84.6205 78.9169 84.3181C78.8154 83.7454 78.7613 82.8014 78.4409 82.3262C79.0469 82.0938 80.0833 81.7576 80.5228 81.279C80.0492 80.8024 79.0097 80.5062 78.373 80.2791C78.8325 79.7329 78.8365 78.5642 79.1945 77.8857C79.498 77.3104 79.9539 77.0164 80.563 76.8368Z" fill="#141414"/>
<path d="M62.6118 85.105C62.972 85.1972 63.2038 85.4188 63.3883 85.7327C63.9472 86.6827 63.6835 87.922 63.432 88.9243C66.8803 90.4834 70.8668 91.4203 74.6739 91.1618C75.6631 91.0945 76.9741 90.6074 77.9251 90.7834C78.1088 90.9615 78.1452 90.974 78.1926 91.2366C78.1519 91.3015 78.1445 91.3223 78.0949 91.3732C77.506 91.9789 75.2888 92.0333 74.4507 92.0522C70.5555 92.0989 66.504 91.503 63.0267 89.6755C62.8619 89.8984 62.6785 90.1046 62.4765 90.2943C61.9726 90.7716 61.1046 91.3993 60.3887 91.3756C60.1638 91.2513 60.1322 91.2648 60.041 91.0119C60.5809 90.1896 61.8414 89.9457 62.3887 89.0722C63.3484 87.5403 62.1371 86.0895 62.6118 85.105Z" fill="#141414"/>
<path d="M64.535 72.0738C64.7979 72.0509 65.0641 72.0281 65.3282 72.0372C66.192 72.0667 67.0944 72.4106 67.6681 73.0792C67.8567 73.2992 67.9023 73.4272 67.8812 73.7091C67.8579 73.728 67.6888 73.874 67.6785 73.8737C67.0255 73.8542 66.4462 72.8564 64.5978 73.0349C63.7105 73.3179 62.7447 74.6487 61.9632 74.6152C61.9082 74.3643 62.026 74.1662 62.1367 73.9455C62.6469 72.9287 63.4908 72.4261 64.535 72.0738Z" fill="#141414"/>
<path d="M67.9932 93.4442C69.2015 93.3732 70.6655 93.3812 71.8603 93.5675C72.1694 93.6156 72.3089 93.6802 72.4915 93.9238C72.4356 94.2353 72.3303 94.3124 72.1211 94.5381C71.738 94.7155 71.3699 94.8537 70.9488 94.9104C70.1561 95.0172 69.1628 94.9077 68.5178 94.397C68.1786 94.1281 68.0372 93.8741 67.9932 93.4442Z" fill="#F0A248"/>
<path d="M107.997 74.1511C109.379 74.1308 114.211 73.7424 115.164 74.4684C115.295 74.6896 115.341 74.8872 115.348 75.1394C115.38 76.0561 114.98 79.9757 114.792 80.9169C114.742 80.9402 114.767 80.9335 114.703 80.9391C114.28 80.976 113.889 81.0297 113.488 81.1779C112.799 81.4324 112.072 81.7851 111.764 82.4941C111.331 83.4935 111.734 84.0982 112.081 84.9973C111.859 85.1515 111.636 85.3086 111.438 85.4921C109.092 87.6564 111.427 88.3254 111.25 89.4723C111.147 90.1326 110.361 90.5186 110.35 91.3638C110.338 92.3502 111.031 92.8843 111.644 93.5376C111.938 93.6239 112.267 93.691 112.437 93.9475C112.336 94.0309 112.294 94.0889 112.164 94.118C111.192 94.336 105.451 94.5391 104.797 94.1149C103.933 92.8979 105.115 87.5478 104.929 85.7297C104.925 85.6934 104.92 85.6573 104.916 85.6211C105.44 85.4052 105.89 85.1398 106.207 84.6554C106.254 84.5851 106.296 84.5126 106.335 84.4379C106.374 84.3633 106.409 84.2868 106.441 84.2086C106.472 84.1303 106.499 84.0507 106.522 83.9697C106.546 83.8887 106.565 83.8067 106.579 83.7237C106.594 83.6408 106.605 83.5573 106.611 83.4733C106.618 83.3894 106.62 83.3052 106.618 83.2209C106.615 83.1367 106.609 83.0528 106.598 82.9693C106.588 82.8857 106.573 82.8029 106.554 82.7208C106.387 82.0032 105.872 81.3447 105.251 80.963C106.187 79.3295 105.023 75.9447 106.307 74.5993C106.765 74.1183 107.384 74.1757 107.997 74.1511Z" fill="#2FDF84"/>
<path d="M107.012 74.6881C107.194 74.6648 107.408 74.629 107.587 74.6826C107.824 74.7536 108.041 74.9591 108.129 75.19C108.2 75.3766 108.181 75.5884 108.097 75.7674C107.957 76.0665 107.737 76.1595 107.449 76.2711C107.431 76.2821 107.414 76.2969 107.394 76.3039C107.198 76.3718 107.053 76.3074 106.878 76.2331C106.687 75.992 106.635 75.7671 106.621 75.4665C106.604 75.1201 106.797 74.9294 107.012 74.6881Z" fill="#141414"/>
<path d="M45.9932 77.6417C46.0376 77.6444 46.0819 77.647 46.126 77.6519C46.7094 77.7161 47.1916 77.9521 47.5509 78.4232C48.8105 80.0745 48.1763 83.4872 47.8887 85.415C47.6857 85.5974 47.4859 85.7834 47.2894 85.973C47.0557 86.201 46.8053 86.4648 46.8016 86.8087C46.8617 86.8579 46.9068 86.9364 46.982 86.9564C46.9828 86.9566 47.2 86.8206 47.2114 86.8134C48.2166 86.1876 49.1113 85.4589 50.3492 85.4322C50.8377 85.4215 51.193 85.5596 51.5446 85.9065C51.1977 86.3759 49.4667 86.5044 48.8211 87.767L49.1016 87.9944C49.522 87.918 49.898 87.5688 50.2789 87.374C51.0226 86.9936 52.1299 86.6394 52.9444 86.9477C53.3256 87.0919 53.6816 87.4714 53.8488 87.8365C53.7582 88.1609 51.8549 88.2945 51.1943 88.9459C50.9879 89.1495 50.9682 89.269 50.9586 89.5408L51.0624 89.4777L50.9926 89.611C51.1958 89.8276 53.5573 88.6118 54.463 88.9699C54.8461 89.1212 55.0928 89.4666 55.2551 89.8304C55.7029 90.8342 55.5662 91.6699 55.1773 92.6584C55.1009 92.7959 55.0111 92.9219 54.9155 93.0468C54.6688 93.3691 54.407 93.6098 54.002 93.6646L53.7786 93.4618C53.5242 92.8355 54.0487 92.1681 54.268 91.592L54.1706 91.5649L54.1192 91.6893L54.211 91.5549C53.7733 91.8448 53.3285 92.0122 52.8383 92.1867C52.9704 93.3014 53.0632 94.4243 52.7202 95.5146C52.4111 96.4974 51.7168 97.4383 50.7757 97.898C49.6546 98.4454 48.2249 98.1097 47.0997 97.7291C45.7711 97.2797 44.5235 96.4352 43.9065 95.1398C43.8928 95.1107 43.8792 95.0815 43.8659 95.0521C42.7387 92.5476 44.0629 89.8508 44.6791 87.394C44.9835 86.1801 45.1864 84.9 45.2636 83.6507C45.3514 82.2299 44.7687 79.5081 45.2238 78.3457C45.3834 77.9381 45.6224 77.8204 45.9932 77.6417Z" fill="#FEFEFA"/>
<path d="M46.804 92.0554C47.0233 92.1131 47.1183 92.1622 47.2742 92.3285C47.4477 93.0601 46.8146 94.1344 46.5274 94.7929C46.2784 94.7697 46.2417 94.7532 46.0422 94.6015C45.8159 93.8826 46.5185 92.7033 46.804 92.0554Z" fill="#141414"/>
<path d="M48.2881 92.7096C48.4634 92.7743 48.5688 92.855 48.7083 92.978C48.9243 93.7287 48.2539 94.8906 47.9093 95.5519C47.742 95.4797 47.6381 95.384 47.5083 95.2613C47.2981 94.5352 47.9904 93.3811 48.2881 92.7096Z" fill="#141414"/>
<path d="M45.391 91.4305C45.5385 91.5153 45.752 91.5925 45.8143 91.7525C46.0388 92.3286 45.3473 93.5386 45.0875 94.0867C44.8439 94.014 44.8062 93.9934 44.6369 93.8043C44.5188 93.0206 45.071 92.1206 45.391 91.4305Z" fill="#141414"/>
<path d="M80.52 135.029C80.4591 135.573 79.8282 136.076 79.6573 136.63C79.5742 136.9 79.595 136.964 79.7135 137.199L79.9836 137.287L80.1912 137.169C80.7891 136.084 81.5925 135.189 82.7595 134.716C83.9208 134.245 85.3237 134.219 86.4757 134.73C87.7608 135.299 88.7305 136.484 89.222 137.783C89.4616 138.416 89.7277 139.703 89.4337 140.353C87.3454 142.035 76.2915 140.56 75.6496 140.92L75.6243 141.118C75.6941 141.215 75.7621 141.298 75.8627 141.365C76.7943 141.983 84.5685 141.976 86.0105 141.848C87.1622 141.746 88.265 141.504 89.3887 141.245L89.5302 141.36C89.561 141.552 89.5093 141.673 89.4099 141.84C89.0819 142.39 88.5624 142.504 87.973 142.64C85.6259 143.183 79.3429 143.198 77.0048 142.473C76.5737 142.339 76.1721 142.06 75.794 141.818C75.6051 142.047 75.4619 142.219 75.1837 142.347C74.3755 142.406 72.3758 141.928 71.6752 141.467C71.4729 141.334 71.3305 141.186 71.2747 140.947C71.2546 140.86 71.3505 140.755 71.3964 140.679C72.2404 140.435 73.4098 141.399 74.3364 141.209C74.5375 141.168 74.554 141.118 74.6687 140.952L74.5953 140.794C73.8355 140.241 72.3392 140.083 71.4066 139.872C71.4889 138.204 71.8191 136.595 72.2113 134.978C72.8228 135.149 73.6098 135.433 74.2447 135.371C74.6482 135.332 74.7571 135.21 75.0015 134.914L77.744 134.909C77.8154 135.008 77.9619 135.263 78.0625 135.31C78.7051 135.608 79.8836 135.271 80.52 135.029Z" fill="#2FDF84"/>
<path d="M84.4141 135.189C84.7269 135.112 84.9653 135.074 85.2516 135.222L85.3634 135.64C85.4631 135.627 85.4205 135.642 85.5142 135.584C85.6965 135.47 85.8369 135.384 86.0484 135.336C86.2382 135.293 86.5078 135.442 86.6631 135.546C87.0023 135.773 87.3266 136.038 87.4019 136.46C87.4216 136.571 87.2838 136.711 87.2207 136.805L87.1545 136.912C86.5771 136.978 85.8561 136.111 85.3638 135.793C85.2985 135.834 85.2333 135.877 85.1652 135.913C84.9386 136.034 84.9248 136.054 84.6734 135.973C84.4356 135.683 84.4494 135.551 84.4141 135.189Z" fill="#FEFEFA"/>
<path d="M47.2432 140.618C47.3392 138.787 47.8175 137.102 49.2313 135.832C50.1641 134.995 51.3716 134.507 52.6329 134.584C53.8076 134.657 55.1011 135.275 55.8701 136.174C56.2021 136.563 56.4289 137.204 56.8499 137.481C57.1025 137.405 57.1022 137.374 57.2485 137.168C57.2804 136.565 56.6651 135.865 56.2827 135.441C56.1901 135.337 56.0944 135.237 55.9958 135.139C56.7474 135.318 57.7607 135.701 58.5086 135.37C58.6067 135.248 58.7112 135.129 58.801 135.001C59.4986 134.825 60.5378 134.94 61.2795 134.918C61.5136 135.231 61.6174 135.352 62.025 135.411C62.6194 135.497 63.3982 135.268 63.9794 135.126C64.4452 136.659 64.8011 138.3 64.8311 139.907C64.0858 140.127 63.0591 140.26 62.4051 140.651C62.3348 140.876 62.3606 140.883 62.4485 141.09C63.2086 141.442 64.197 140.531 64.9651 140.921C64.8657 141.273 64.5048 141.484 64.2011 141.652C63.6789 141.941 61.934 142.611 61.3212 142.445C61.0647 142.375 60.8866 142.124 60.7195 141.93C60.3468 142.148 59.9593 142.385 59.5427 142.507C57.152 143.211 51.1765 143.378 48.8613 142.779C48.4014 142.66 47.7752 142.594 47.5143 142.16C47.3908 141.955 47.343 141.804 47.3748 141.566C47.9237 141.266 49.8956 141.94 50.6034 141.998C52.2321 142.133 60.2125 142.08 61.0913 141.162L61.1005 140.933L60.931 140.772C59.7054 140.814 58.4875 141 57.2663 141.106C54.0425 141.387 50.3586 141.578 47.2432 140.618Z" fill="#2FDF84"/>
<path d="M51.3486 135.461C51.4792 135.453 51.6025 135.449 51.731 135.478C51.9675 135.532 51.9636 135.548 52.0818 135.747C51.8557 136.32 50.718 136.763 50.2221 137.167C49.9219 137.412 49.6635 137.752 49.4161 138.05C49.2599 138.129 49.1905 138.116 49.0212 138.106L48.8509 137.888C48.7982 137.627 48.8299 137.421 48.9448 137.182C49.3805 136.277 50.4514 135.774 51.3486 135.461Z" fill="#FEFEFA"/>
<path d="M52.4748 135.306C52.7297 135.316 52.9134 135.357 53.1485 135.456C53.2922 135.762 53.2505 135.907 53.2149 136.234C52.9512 136.241 52.7828 136.241 52.5553 136.098C52.3983 135.838 52.4497 135.596 52.4748 135.306Z" fill="#FEFEFA"/>
<path d="M101.798 80.4913C102.087 80.4533 102.404 80.4005 102.695 80.4458C103.633 80.5918 104.683 81.3173 105.226 82.0812C105.616 82.6292 105.764 83.2301 105.641 83.8933C105.574 84.2506 105.453 84.468 105.15 84.6792C103.563 85.1644 102.804 83.4125 101.624 83.0652C101.593 83.0563 101.563 83.0485 101.532 83.0402C101.896 83.5351 102.837 84.69 103.003 85.2369C103.242 85.878 102.597 91.0306 102.593 92.2072C102.59 92.9506 102.733 93.8065 103.287 94.349C104.426 95.4655 109.29 94.983 110.954 94.9409C110.911 94.9892 110.896 95.0084 110.845 95.0566C109.958 95.9045 108.225 95.8471 107.078 95.8076C106.556 95.716 105.904 95.5195 105.379 95.5955C105.227 95.7482 105.229 95.809 105.181 96.0136C105.606 96.5914 106.65 96.4862 107.295 96.693C107.522 96.766 107.59 96.8028 107.697 97.0095C107.61 97.2818 107.403 97.4703 107.153 97.6007C106.273 98.0605 105.089 97.8423 104.194 97.5516C102.761 97.0864 101.313 96.1665 100.63 94.7857C100.374 94.2665 100.214 93.7701 100.418 93.2021C100.483 93.0178 100.501 93.0298 100.677 92.9426C101.24 93.1657 101.537 93.8864 102.048 94.2338L102.17 94.1749C102.39 92.9781 101.043 91.7662 100.845 90.5331C100.55 88.6903 101.387 87.1517 101.444 85.3643C101.481 84.1955 100.921 83.0631 100.983 81.9082C101.02 81.2365 101.317 80.9185 101.798 80.4913Z" fill="#FEFEFA"/>
<path d="M58.8009 135.001C57.8846 134.555 56.7122 134.641 55.7456 134.16C55.3367 133.957 54.9388 133.663 54.8107 133.201C54.7115 132.843 54.7873 132.414 54.9975 132.11C55.3278 131.632 56.0322 131.433 56.5771 131.353C56.8621 131.311 57.0005 131.326 57.2306 131.492L57.2537 131.915C57.0896 132.131 56.7508 132.011 56.4744 132.175L56.4707 132.413C56.9702 132.946 58.5482 133.005 59.2655 133.039C60.1257 133.08 62.6236 133.16 63.2844 132.561C63.24 132.204 62.8918 131.866 62.7113 131.539L62.8339 131.447C63.0351 131.46 63.2332 131.492 63.4282 131.543C63.6232 131.595 63.8114 131.664 63.9929 131.752C64.3573 131.933 64.6775 132.197 64.7958 132.602C64.8872 132.915 64.887 133.314 64.7255 133.603C64.136 134.657 62.3943 134.573 61.3751 134.888L61.2794 134.918C60.5377 134.94 59.4985 134.825 58.8009 135.001Z" fill="#FEFEFA"/>
<path d="M75.0016 134.914C74.9805 134.903 74.9598 134.891 74.9384 134.88C73.9669 134.39 71.7704 134.587 71.3601 133.298C71.2673 133.006 71.3085 132.559 71.4864 132.297C71.774 131.874 72.5122 131.476 73.01 131.4C73.269 131.36 73.3307 131.379 73.5344 131.534C73.5105 131.808 73.5349 131.891 73.3515 132.104L72.9569 132.146L72.8488 132.343C73.1309 132.749 73.7089 132.817 74.1742 132.899C75.3993 133.116 78.5091 133.406 79.5405 132.654C79.7163 132.526 79.7753 132.463 79.8162 132.255C79.4773 132.064 79.2523 132.054 79.0705 131.696L79.1113 131.387C79.3961 131.229 79.783 131.344 80.0788 131.43C80.6842 131.608 81.2736 131.827 81.5938 132.416C81.7074 132.624 81.775 132.84 81.7011 133.075C81.5365 133.596 80.9045 133.951 80.4406 134.161C79.5649 134.558 78.5963 134.547 77.7441 134.909L75.0016 134.914Z" fill="#FEFEFA"/>
<path d="M111.279 87.7274C111.448 86.9835 111.634 86.4042 112.302 85.972C112.864 85.6086 113.521 85.6182 114.152 85.7707C115.111 86.0028 116.128 86.5664 116.651 87.4313C116.839 87.7409 116.953 88.1301 116.839 88.488C116.736 88.8126 116.589 88.8978 116.322 89.0738L116.308 89.2079C116.165 89.4922 115.898 89.5907 115.63 89.7254C114.789 89.1535 114.047 89.0937 113.08 88.9592C112.136 88.828 111.823 88.4439 111.279 87.7274Z" fill="#FEFEFA"/>
<path d="M111.279 87.7275C111.949 87.7816 112.637 88.1767 113.291 88.3646C114.296 88.6521 115.303 88.852 116.322 89.0739L116.308 89.208C116.165 89.4923 115.898 89.5908 115.63 89.7255C114.789 89.1536 114.047 89.0938 113.08 88.9593C112.136 88.828 111.823 88.444 111.279 87.7275Z" fill="#DAD3F2"/>
<path d="M48.1376 100.779C47.5282 100.777 46.917 100.665 46.3345 100.491C45.1149 100.127 43.4271 99.2841 42.8287 98.1172C42.5676 97.6081 42.3303 96.7472 42.5499 96.188C42.6593 95.9095 42.7989 95.8624 43.0499 95.7443C43.3417 95.8604 43.4817 96.1961 43.6652 96.4515C44.8258 98.0667 46.9283 98.7674 48.8041 99.0795C49.1951 99.0555 49.6991 98.9575 50.0315 99.1986C50.1246 99.3784 50.1966 99.4529 50.1362 99.6604C50.0284 100.031 49.4733 100.438 49.137 100.591C48.8241 100.732 48.4758 100.753 48.1376 100.779Z" fill="#FEFEFA"/>
<path d="M48.8042 99.0795C49.1952 99.0554 49.6992 98.9574 50.0316 99.1986C50.1247 99.3783 50.1967 99.4529 50.1363 99.6603C50.0285 100.031 49.4734 100.438 49.1371 100.591C48.8242 100.732 48.4759 100.753 48.1377 100.779C48.4781 100.213 48.7549 99.7469 48.8042 99.0795Z" fill="#DAD3F2"/>
<path d="M112.536 84.0994C112.494 83.786 112.454 83.4434 112.554 83.1375C112.711 82.6625 113.08 82.2782 113.525 82.0625C114.303 81.6863 115.345 81.7637 116.139 82.0494C116.638 82.2299 117.241 82.5689 117.448 83.0919C117.588 83.4486 117.493 83.6485 117.343 83.9662C117.388 84.2457 117.39 84.3828 117.212 84.6297C116.91 85.0519 116.293 85.3715 115.823 85.5628C114.841 84.6339 113.443 85.2244 112.536 84.0994Z" fill="#FEFEFA"/>
<path d="M112.537 84.0995C113.658 84.1795 114.703 84.6009 115.852 84.3941C116.356 84.3031 116.843 84.0917 117.343 83.9663C117.389 84.2458 117.39 84.3828 117.212 84.6298C116.911 85.052 116.294 85.3716 115.823 85.5629C114.841 84.634 113.443 85.2245 112.537 84.0995Z" fill="#DAD3F2"/>
<path d="M111.249 90.9593C111.681 90.3515 111.999 89.9698 112.757 89.8329C113.544 89.6903 114.416 89.9546 115.061 90.4107C115.453 90.6872 115.837 91.1225 115.922 91.61C115.972 91.8954 115.898 92.1549 115.719 92.3801C115.519 92.6325 115.256 92.7518 114.948 92.817L114.858 92.9515C114.605 93.0563 114.342 93.1727 114.066 93.1968C113.251 93.2681 112.455 92.9318 111.849 92.3995C111.369 91.9775 111.285 91.5717 111.249 90.9593Z" fill="#FEFEFA"/>
<path d="M114.948 92.817L114.858 92.9515C114.605 93.0563 114.342 93.1727 114.066 93.1968C113.251 93.2681 112.455 92.9319 111.849 92.3995C111.369 91.9775 111.285 91.5717 111.249 90.9594C111.386 91.3943 111.98 91.955 112.384 92.1765C113.246 92.6489 114.282 92.5066 114.948 92.817Z" fill="url(#paint0_linear_2261_1693)"/>
<path d="M41.611 84.6483C42.7813 84.7552 43.3023 85.1888 44.0921 86.0039C43.87 87.1985 43.5268 88.4017 43.1566 89.5586L43.0132 89.5988C42.8433 89.1468 42.6457 88.6554 42.3673 88.2596C41.8189 87.48 40.7269 86.7735 40.4613 85.8407C40.4062 85.6466 40.4243 85.4464 40.5246 85.274C40.7567 84.875 41.1986 84.7707 41.611 84.6483Z" fill="#FEFEFA"/>
<path d="M105.655 73.3988C107.389 73.1321 111.994 73.1976 113.804 73.3981C113.169 73.8383 107.533 73.2825 105.877 73.9363C104.556 75.5324 105.599 78.6969 104.677 80.218L104.547 80.1422C104.195 78.9754 104.54 75.9901 104.787 74.7397C104.918 74.0743 105.09 73.7747 105.655 73.3988Z" fill="#2FDF84"/>
<path d="M103.632 85.6491C103.918 85.6208 104.056 85.5854 104.324 85.7076C104.444 86.3203 103.906 92.7667 103.687 93.496L103.7 93.5906L103.633 93.6104C102.586 92.0174 104.218 87.3948 103.632 85.6491Z" fill="#2FDF84"/>
<path d="M26.62 106.317C27.1465 106.982 26.9126 108.206 27.3382 108.88C27.8512 109.692 29.4015 109.972 30.265 110.194C29.5463 110.362 28.7251 110.503 28.1 110.908C27.0705 111.575 26.9349 112.826 26.7145 113.932C26.3212 113.702 26.2554 112.174 25.9436 111.665C25.3229 110.651 24.0789 110.449 23.0156 110.203C23.7651 109.991 24.6247 109.826 25.2838 109.396C26.2545 108.763 26.3855 107.361 26.62 106.317Z" fill="#F9D84B"/>
<path d="M109.45 61.0402C109.577 61.0154 109.706 60.991 109.835 60.9862C110.132 60.9754 110.456 61.0565 110.658 61.2872C110.902 61.566 110.889 61.9352 110.884 62.2828C110.87 63.21 110.513 68.3741 109.984 68.8862L109.972 69.0681L109.793 69.1055C109.466 68.5886 109.434 67.6669 109.374 67.0603C109.247 65.7613 108.796 62.8568 109.075 61.6723C109.133 61.4255 109.293 61.232 109.45 61.0402Z" fill="#80CF91"/>
<path d="M45.7408 49.5789C45.822 49.669 45.8167 49.6391 45.8426 49.7351C46.0426 50.4762 46.1703 51.1771 46.5549 51.8549C47.2389 52.263 48.0257 52.4534 48.7901 52.6467C47.9912 52.8404 47.2644 53.0592 46.5443 53.4624C46.128 54.1486 45.9788 54.9443 45.824 55.7202C45.6467 55.5531 45.2723 53.9115 44.8493 53.3361C44.1702 52.9973 43.4688 52.823 42.7378 52.6351C43.3228 52.4912 44.0654 52.3649 44.5774 52.0388C45.4215 51.501 45.5294 50.4749 45.7408 49.5789Z" fill="#F9D84B"/>
<path d="M109.511 107.68C109.792 107.879 109.86 108.462 110.141 108.584C110.386 108.691 110.603 108.625 110.813 108.838L110.776 108.959C110.61 109.005 110.445 109.052 110.283 109.111C109.927 109.242 109.783 109.724 109.632 110.045L109.543 110.057L109.433 109.52C109.229 109.212 108.842 109.062 108.523 108.895C108.763 108.725 109.072 108.604 109.289 108.414C109.48 108.247 109.491 108.002 109.506 107.765C109.508 107.737 109.509 107.708 109.511 107.68Z" fill="#F9D84B"/>
<path d="M68.0775 110.51C69.7922 111.375 71.6479 112.79 73.2874 113.851L73.4922 130.48C72.5203 130.634 71.619 130.825 70.9375 131.604C70.619 131.969 70.4041 132.45 70.4388 132.941C70.4887 133.647 70.9102 134.205 71.4303 134.646C70.9149 136.312 70.7288 138.017 70.5736 139.745L68.3036 139.748L65.6737 139.749C65.6187 138.088 65.2788 136.425 64.7956 134.839C65.2155 134.41 65.5798 133.959 65.7083 133.358C65.8249 132.813 65.7247 132.287 65.4097 131.826C64.7855 130.914 63.7692 130.673 62.7544 130.489L62.8737 113.953L68.0775 110.51Z" fill="#CFACE4"/>
<path d="M100.33 80.5989L100.368 80.6611C99.7466 82.7147 100.667 83.7524 100.554 85.6583C100.485 86.8243 99.8716 87.9268 99.8589 89.1063C99.8491 90.0303 100.252 90.9567 100.209 91.8417C100.193 91.9184 100.207 91.8928 100.164 91.9545C99.9825 92.219 99.7907 92.4786 99.631 92.7574C98.7783 94.2453 100.163 95.2109 100.423 96.2931C100.432 96.3312 100.439 96.3697 100.447 96.408C100.451 96.5407 100.41 96.6499 100.35 96.7664C99.6838 98.0452 98.188 99.353 96.8124 99.7511C94.5752 100.399 93.0604 99.3299 91.2159 98.3302C90.961 97.7422 89.9216 97.1174 89.4788 96.5788C88.7237 95.6599 88.2311 94.4277 87.4043 93.5958C88.324 93.1635 99.2757 82.1142 100.33 80.5989Z" fill="#CFACE4"/>
<path d="M42.5065 94.1702C42.5262 94.1889 42.5484 94.2052 42.5654 94.2263C42.6595 94.3429 42.7583 94.6131 42.706 94.7629C42.5431 95.2303 41.8086 95.6605 41.6182 96.5115C41.3891 97.5366 41.9325 98.4264 42.4664 99.2469C41.6279 100.289 40.5949 101.448 39.2836 101.864C38.5649 102.092 37.996 102.014 37.3408 101.664C37.2959 101.613 37.2508 101.562 37.2097 101.508C37.0146 101.252 36.9818 101.131 37.0207 100.827C37.5698 100.709 38.062 101.483 38.6246 101.484C38.3202 101.021 38.1052 100.645 38.1833 100.07C38.487 97.8323 40.8216 95.4917 42.5065 94.1702Z" fill="#CFACE4"/>
<path d="M123.26 73.1839C123.368 73.1703 123.477 73.1594 123.586 73.1514C123.935 73.127 124.125 73.163 124.391 73.3984C124.672 73.6486 124.849 73.8888 124.875 74.2668C124.841 74.3546 124.803 74.4192 124.73 74.4814C123.838 75.2485 121.037 74.8807 119.858 74.8499C119.491 74.8326 119.029 74.8737 118.732 74.6313L118.727 74.4632C119.685 73.7396 122.032 73.5526 123.26 73.1839Z" fill="#80CF91"/>
<path d="M102.48 65.0164C102.716 64.9785 103.055 64.9364 103.274 65.0388C103.851 65.3093 105.429 69.1023 105.663 69.9025L105.564 70.0674L105.153 70.0684C104.936 69.023 102.241 67.3305 102.092 65.9277C102.051 65.5365 102.253 65.3018 102.48 65.0164Z" fill="#80CF91"/>
<path d="M115.355 65.8763C115.769 65.7864 116.036 65.7919 116.422 65.9788C116.601 66.2273 116.664 66.3102 116.632 66.6335C116.548 67.5185 115.227 69.0837 114.575 69.6387C114.572 69.6895 114.574 69.7166 114.549 69.7672C114.441 69.9818 114.311 70.0689 114.096 70.14L114.032 70.0112C114.1 68.8027 114.721 66.911 115.355 65.8763Z" fill="#80CF91"/>
</g>
<defs>
<linearGradient id="paint0_linear_2261_1693" x1="111.894" y1="91.5432" x2="113.643" y2="93.2479" gradientUnits="userSpaceOnUse">
<stop stop-color="#E0D6F0"/>
<stop offset="1" stop-color="#D3C3F8"/>
</linearGradient>
<clipPath id="clip0_2261_1693">
<rect width="102" height="98" fill="white" transform="translate(23 47.4258)"/>
</clipPath>
</defs>
</svg>
