<svg width="40" height="40" viewBox="0 0 40 40" fill="none" xmlns="http://www.w3.org/2000/svg">
<path d="M9.30772 35.3701C16.9933 35.3701 22.2711 39.3512 25.9744 39.3512C29.6777 39.3512 37.4555 37.2223 37.4555 20.1856C37.4555 3.14894 26.9922 0.647827 22.9188 0.647827C3.84439 0.647827 -4.30339 35.3701 9.30772 35.3701Z" fill="#FED259"/>
<path d="M13.0557 22.5V14.1667C13.0557 13.5773 13.2898 13.0121 13.7065 12.5953C14.1233 12.1786 14.6885 11.9445 15.2779 11.9445H30.2779C30.8673 11.9445 31.4325 12.1786 31.8492 12.5953C32.266 13.0121 32.5001 13.5773 32.5001 14.1667V22.5C32.5001 23.0894 32.266 23.6546 31.8492 24.0714C31.4325 24.4881 30.8673 24.7222 30.2779 24.7222H15.2779C14.6885 24.7222 14.1233 24.4881 13.7065 24.0714C13.2898 23.6546 13.0557 23.0894 13.0557 22.5Z" fill="#2FDF84"/>
<path d="M22.7775 20.2779C23.8513 20.2779 24.7219 19.4074 24.7219 18.3335C24.7219 17.2596 23.8513 16.389 22.7775 16.389C21.7036 16.389 20.833 17.2596 20.833 18.3335C20.833 19.4074 21.7036 20.2779 22.7775 20.2779Z" fill="#F3F3F1"/>
<path d="M23.8599 28.0556C23.6094 28.0556 23.3625 27.9961 23.1395 27.8819C22.9164 27.7678 22.7238 27.6023 22.5773 27.399C22.4308 27.1958 22.3347 26.9606 22.2969 26.713C22.2591 26.4653 22.2807 26.2122 22.3599 25.9745L22.7777 24.7223H26.1111L25.3599 26.9745C25.2552 27.2894 25.0539 27.5633 24.7846 27.7574C24.5154 27.9515 24.1918 28.0558 23.8599 28.0556Z" fill="#F3F3F1"/>
<path d="M20.5265 28.0556C20.2759 28.0556 20.029 27.9961 19.806 27.8819C19.5829 27.7678 19.3903 27.6023 19.2438 27.399C19.0973 27.1958 19.0012 26.9606 18.9634 26.713C18.9256 26.4653 18.9472 26.2122 19.0265 25.9745L19.4442 24.7223H22.7776L22.0265 26.9745C21.9217 27.2894 21.7204 27.5633 21.4511 27.7574C21.1819 27.9515 20.8583 28.0558 20.5265 28.0556Z" fill="#F3F3F1"/>
<path d="M19.4443 24.7223L18.6932 26.9746C18.5801 27.3167 18.3536 27.61 18.0511 27.8059C17.7486 28.0017 17.3882 28.0883 17.0297 28.0514C16.6713 28.0144 16.3362 27.8561 16.08 27.6027C15.8238 27.3493 15.6618 27.0159 15.6209 26.6579L19.4443 24.7223ZM18.4276 20.2779C17.6321 20.2779 16.8432 20.4301 16.1043 20.7257L13.0554 21.9446V13.0557C10.9732 13.0557 7.91761 14.9301 6.76206 16.6623L6.6665 28.0557L13.0087 27.229C14.3232 27.0411 15.5869 26.5923 16.7254 25.909L19.5221 24.2312C19.9207 23.9915 20.2299 23.6278 20.4023 23.1958C20.5747 22.7637 20.6008 22.2871 20.4767 21.8388C20.3526 21.3905 20.0851 20.9951 19.715 20.7133C19.345 20.4314 18.8928 20.2785 18.4276 20.2779Z" fill="#F6F4E9"/>
<path d="M23.3332 18.3334C23.3332 17.7379 23.6065 17.2123 24.0276 16.8557C23.6798 16.5563 23.2365 16.3908 22.7776 16.389C22.2619 16.389 21.7673 16.5939 21.4027 16.9585C21.038 17.3232 20.8332 17.8177 20.8332 18.3334C20.8332 18.8491 21.038 19.3437 21.4027 19.7084C21.7673 20.073 22.2619 20.2779 22.7776 20.2779C23.2565 20.2779 23.6887 20.0979 24.0276 19.8112C23.811 19.6306 23.6365 19.4046 23.5165 19.1493C23.3965 18.894 23.334 18.6155 23.3332 18.3334ZM9.26206 16.6623C9.99984 15.5557 11.5143 14.3957 13.0554 13.699V13.0557C10.9732 13.0557 7.91761 14.9301 6.76206 16.6623L6.6665 28.0557L9.16873 27.729L9.26206 16.6623Z" fill="#D5DBE1"/>
<path d="M13.0557 21.9445L15.5557 20.9445V14.1667C15.5557 13.5773 15.7898 13.0121 16.2065 12.5953C16.6233 12.1786 17.1885 11.9445 17.7779 11.9445H15.2779C14.6885 11.9445 14.1233 12.1786 13.7065 12.5953C13.2898 13.0121 13.0557 13.5773 13.0557 14.1667V21.9445Z" fill="#00B871"/>
<path d="M22.7779 21.1112C21.2468 21.1112 20.0001 19.8657 20.0001 18.3334C20.0001 16.8012 21.2468 15.5557 22.7779 15.5557C24.309 15.5557 25.5557 16.8012 25.5557 18.3334C25.5557 19.8657 24.309 21.1112 22.7779 21.1112ZM22.7779 17.2223C22.4918 17.2351 22.2217 17.3578 22.0237 17.5648C21.8258 17.7717 21.7154 18.0471 21.7154 18.3334C21.7154 18.6198 21.8258 18.8952 22.0237 19.1021C22.2217 19.3091 22.4918 19.4318 22.7779 19.4446C23.064 19.4318 23.3341 19.3091 23.532 19.1021C23.7299 18.8952 23.8404 18.6198 23.8404 18.3334C23.8404 18.0471 23.7299 17.7717 23.532 17.5648C23.3341 17.3578 23.064 17.2351 22.7779 17.2223ZM15.5557 17.5001H17.7779V19.1668H15.5557V17.5001ZM27.7779 17.5001H30.0001V19.1668H27.7779V17.5001Z" fill="#141414"/>
<path d="M30.2777 25.5557H18.9444C18.7234 25.5557 18.5114 25.4679 18.3551 25.3116C18.1989 25.1553 18.1111 24.9433 18.1111 24.7223C18.1111 24.5013 18.1989 24.2893 18.3551 24.1331C18.5114 23.9768 18.7234 23.889 18.9444 23.889H30.2777C31.0433 23.889 31.6666 23.2657 31.6666 22.5001V14.1668C31.6666 13.4012 31.0433 12.7779 30.2777 12.7779H15.2777C14.5122 12.7779 13.8888 13.4012 13.8888 14.1668V21.759C13.8888 21.98 13.801 22.192 13.6448 22.3482C13.4885 22.5045 13.2765 22.5923 13.0555 22.5923C12.8345 22.5923 12.6225 22.5045 12.4662 22.3482C12.31 22.192 12.2222 21.98 12.2222 21.759V14.1668C12.2228 13.3566 12.5449 12.5797 13.1178 12.0068C13.6907 11.4339 14.4675 11.1118 15.2777 11.1112H30.2777C31.0879 11.1118 31.8648 11.4339 32.4377 12.0068C33.0106 12.5797 33.3327 13.3566 33.3333 14.1668V22.5001C33.3327 23.3103 33.0106 24.0871 32.4377 24.66C31.8648 25.2329 31.0879 25.5551 30.2777 25.5557Z" fill="#141414"/>
<path d="M6.80002 29.0034L6.55225 27.3556L12.8845 26.4056C14.0911 26.2349 15.2511 25.8234 16.2956 25.1956L19.0934 23.5156C19.3353 23.3694 19.5229 23.148 19.6273 22.8853C19.7318 22.6226 19.7474 22.333 19.6719 22.0605C19.5963 21.7881 19.4338 21.5478 19.2089 21.3764C18.9841 21.205 18.7094 21.1118 18.4267 21.1111C17.7334 21.1111 17.0567 21.2411 16.4122 21.4989L11.2022 23.5834L10.5834 22.0356L15.7934 19.9511C16.6307 19.6156 17.5246 19.4436 18.4267 19.4445C19.2119 19.445 19.9649 19.7572 20.5203 20.3123C21.0756 20.8675 21.388 21.6203 21.3889 22.4056C21.3889 23.4411 20.8378 24.4145 19.95 24.9456L17.1534 26.6234C15.9205 27.3659 14.5507 27.8523 13.1256 28.0533L6.80002 29.0034ZM23.86 28.8889C23.4773 28.891 23.0996 28.8011 22.7589 28.6266C22.4182 28.4522 22.1244 28.1984 21.9022 27.8867C21.6765 27.5772 21.5285 27.2181 21.4707 26.8394C21.4129 26.4608 21.4469 26.0738 21.57 25.7111L21.9867 24.4589C22.0419 24.293 22.148 24.1487 22.2897 24.0464C22.4315 23.9442 22.6019 23.889 22.7767 23.8889H26.11C26.2422 23.8887 26.3725 23.92 26.4902 23.9802C26.6079 24.0404 26.7096 24.1277 26.7868 24.235C26.864 24.3423 26.9146 24.4665 26.9342 24.5972C26.9539 24.7279 26.9422 24.8614 26.9 24.9867L26.1489 27.2389C25.9898 27.7199 25.6828 28.1384 25.2718 28.4347C24.8608 28.731 24.3667 28.89 23.86 28.8889ZM23.3789 25.5556L23.1511 26.2378C23.1129 26.3501 23.1023 26.4699 23.1203 26.5871C23.1383 26.7044 23.1843 26.8155 23.2545 26.9111C23.5856 27.3711 24.3911 27.2467 24.57 26.7111L24.9545 25.5556H23.3789Z" fill="#141414"/>
<path d="M20.5266 28.8889C20.1438 28.891 19.7661 28.8011 19.4254 28.6266C19.0847 28.4522 18.7909 28.1984 18.5688 27.8867C18.3431 27.5773 18.1951 27.2181 18.1372 26.8395C18.0794 26.4608 18.1135 26.0738 18.2366 25.7111L18.6532 24.4589C18.7085 24.293 18.8145 24.1488 18.9563 24.0465C19.0981 23.9442 19.2684 23.889 19.4432 23.8889H22.7766C22.9088 23.8887 23.0391 23.92 23.1568 23.9802C23.2745 24.0404 23.3761 24.1277 23.4534 24.235C23.5306 24.3423 23.5811 24.4665 23.6008 24.5972C23.6205 24.7279 23.6088 24.8614 23.5666 24.9867L22.8155 27.2389C22.6563 27.72 22.3494 28.1385 21.9383 28.4348C21.5273 28.731 21.0333 28.89 20.5266 28.8889ZM20.0455 25.5556L19.8177 26.2378C19.7794 26.3501 19.7689 26.4699 19.7869 26.5871C19.8048 26.7044 19.8509 26.8155 19.921 26.9111C20.251 27.3711 21.0577 27.2467 21.2366 26.7111L21.621 25.5556H20.0455Z" fill="#141414"/>
<path d="M17.1931 28.889C16.6012 28.8892 16.0298 28.6721 15.5873 28.2788C15.1449 27.8855 14.8623 27.3435 14.7931 26.7556C14.7803 26.6468 14.789 26.5366 14.8188 26.4312C14.8486 26.3257 14.8989 26.2272 14.9668 26.1413C15.0347 26.0553 15.1189 25.9836 15.2145 25.9302C15.3102 25.8768 15.4154 25.8428 15.5242 25.8301C15.7432 25.8071 15.9626 25.8705 16.1355 26.0069C16.3084 26.1432 16.4212 26.3417 16.4498 26.5601C16.4706 26.7283 16.5478 26.8844 16.6688 27.0031C16.7898 27.1218 16.9474 27.1961 17.116 27.2137C17.2845 27.2314 17.4541 27.1914 17.597 27.1004C17.74 27.0093 17.8479 26.8725 17.9031 26.7123L18.6542 24.459C18.7262 24.252 18.8768 24.0818 19.0734 23.985C19.27 23.8883 19.4968 23.8729 19.7047 23.9421C19.9125 24.0114 20.0848 24.1597 20.1841 24.355C20.2834 24.5503 20.3018 24.7769 20.2353 24.9856L19.4842 27.2379C19.3244 27.719 19.017 28.1375 18.6057 28.4339C18.1944 28.7304 17.7001 28.8896 17.1931 28.889ZM7.73091 17.5445L6.34424 16.6201L7.17979 15.3667C7.8237 14.3985 8.69718 13.6047 9.72237 13.0561C10.7476 12.5074 11.8926 12.221 13.0553 12.2223H13.8887V13.889H13.0553C12.167 13.8881 11.2923 14.107 10.5091 14.5261C9.72591 14.9453 9.05854 15.5516 8.56646 16.2912L7.73091 17.5445Z" fill="#141414"/>
</svg>
