<svg width="24" height="24" viewBox="0 0 24 24" fill="none" xmlns="http://www.w3.org/2000/svg">
<path d="M12.0002 22.7664C17.9463 22.7664 22.7666 17.9461 22.7666 12C22.7666 6.0539 17.9463 1.23364 12.0002 1.23364C6.05415 1.23364 1.23389 6.0539 1.23389 12C1.23389 17.9461 6.05415 22.7664 12.0002 22.7664Z" fill="#2FDF84"/>
<path d="M8.04443 9.74467L9.73674 8.05396L15.9382 14.2538L14.2474 15.9445L8.04443 9.74467Z" fill="#141414"/>
<path d="M8.04443 14.2554L14.2459 8.05396L15.9366 9.74467L9.73674 15.9477L8.04443 14.2554Z" fill="#141414"/>
<path d="M12.0002 23.9626C5.40323 23.9626 0.0375977 18.597 0.0375977 12C0.0375977 5.40299 5.40323 0.0373535 12.0002 0.0373535C18.5972 0.0373535 23.9628 5.40299 23.9628 12C23.9628 18.597 18.5972 23.9626 12.0002 23.9626ZM12.0002 2.42988C6.72231 2.42988 2.43012 6.72206 2.43012 12C2.43012 17.2779 6.72231 21.5701 12.0002 21.5701C17.2781 21.5701 21.5703 17.2779 21.5703 12C21.5703 6.72206 17.2781 2.42988 12.0002 2.42988Z" fill="#141414"/>
</svg>
