<svg width="40" height="40" viewBox="0 0 40 40" fill="none" xmlns="http://www.w3.org/2000/svg">
<g clip-path="url(#clip0_2246_394)">
<path d="M8.53125 6.18221C6.5257 13.6011 1.30458 17.6567 0.337918 21.2322C-0.628748 24.8078 -0.603194 32.8711 15.8435 37.3178C32.2901 41.7644 37.4346 32.3167 38.4968 28.3833C43.4757 9.96999 12.0835 -6.95779 8.53125 6.18221Z" fill="#FED259"/>
<path d="M28.6778 31.7623L26.4244 30.5645C26.1184 30.4017 25.7779 30.3145 25.4313 30.3102C25.0847 30.306 24.7421 30.3848 24.4322 30.54L20.9733 32.27C20.6714 32.4207 20.3385 32.4991 20.0011 32.4991C19.6637 32.4991 19.3308 32.4207 19.0289 32.27L15.57 30.54C15.26 30.385 14.9175 30.3064 14.5709 30.3107C14.2244 30.3149 13.8839 30.4019 13.5778 30.5645L11.3244 31.7623C11.148 31.8562 10.9491 31.8996 10.7496 31.8879C10.5501 31.8761 10.3577 31.8095 10.1936 31.6954C10.0295 31.5814 9.90001 31.4243 9.81939 31.2414C9.73877 31.0586 9.71014 30.857 9.73666 30.6589L11.8444 14.6545C12.1052 12.676 13.0763 10.8597 14.5768 9.54402C16.0773 8.22833 18.0049 7.50293 20.0005 7.50293C21.9962 7.50293 23.9238 8.22833 25.4243 9.54402C26.9248 10.8597 27.8959 12.676 28.1567 14.6545L30.2644 30.6589C30.2912 30.857 30.2628 31.0586 30.1824 31.2415C30.1019 31.4244 29.9725 31.5816 29.8084 31.6957C29.6444 31.8098 29.452 31.8764 29.2525 31.8881C29.053 31.8999 28.8541 31.8563 28.6778 31.7623Z" fill="#F6F4E9"/>
<path d="M30.9224 16.1422L28.5202 17.3377L29.2813 23.1733L32.3569 17.6411C32.8791 16.7066 31.8791 15.6633 30.9224 16.1422ZM9.07799 16.1422C8.12133 15.6644 7.12133 16.7077 7.64355 17.6422L10.7191 23.1744L11.4802 17.3388L9.07799 16.1422ZM26.4224 22.4555L25.278 21.2999L22.8335 23.9555L23.878 24.9999C24.578 25.6999 25.7224 25.6999 26.4224 24.9999C27.1224 24.2999 27.1224 23.1555 26.4224 22.4555Z" fill="#2FDF84"/>
<path d="M26.3779 25L25.3335 23.9556L26.5591 22.6234C26.5146 22.5667 26.4746 22.5078 26.4224 22.4556L25.2779 21.3L22.8335 23.9556L23.8779 25C24.2123 25.3326 24.6638 25.5208 25.1354 25.5241C25.607 25.5275 26.0611 25.3457 26.4002 25.0178L26.3779 25Z" fill="#00B871"/>
<path d="M18.0692 30.5389C17.7592 30.3839 17.4167 30.3052 17.0702 30.3095C16.7236 30.3137 16.3831 30.4008 16.077 30.5633L15.8548 30.6811L19.0281 32.2678C19.3301 32.4184 19.6629 32.4968 20.0003 32.4968C20.3378 32.4968 20.6706 32.4184 20.9726 32.2678L21.2503 32.1289L18.0692 30.5389ZM12.2359 30.6589L14.3448 14.6544C14.578 12.8901 15.3773 11.2492 16.6227 9.97791C17.8681 8.70667 19.4923 7.87381 21.2514 7.60442C20.8376 7.53886 20.4194 7.50468 20.0003 7.5022C18.0045 7.50208 16.0767 8.22752 14.5761 9.54336C13.0754 10.8592 12.1043 12.6757 11.8437 14.6544L9.73589 30.6589C9.70979 30.8568 9.7387 31.0582 9.81943 31.2408C9.90017 31.4235 10.0296 31.5804 10.1936 31.6943C10.3576 31.8083 10.5498 31.8749 10.7491 31.8869C10.9484 31.8988 11.1472 31.8557 11.3237 31.7622L12.317 31.2344C12.2372 31.0538 12.2091 30.8545 12.2359 30.6589ZM28.9237 30.5633C28.6177 30.4005 28.2771 30.3133 27.9305 30.3091C27.5839 30.3048 27.2414 30.3836 26.9314 30.5389L26.6459 30.6822L28.6781 31.7622C28.8106 31.8325 28.9561 31.8747 29.1056 31.886C29.2552 31.8973 29.4054 31.8776 29.5469 31.828C29.6884 31.7784 29.8182 31.7001 29.9279 31.5979C30.0377 31.4958 30.1252 31.372 30.1848 31.2344L28.9237 30.5633Z" fill="#D5DBE1"/>
<path d="M31.0202 17.3378L32.3924 16.6545C32.1502 16.1489 31.5291 15.8378 30.9224 16.1423L28.5202 17.3378L29.2813 23.1734L31.3069 19.5311L31.0202 17.3378ZM10.1435 17.6423C10.0572 17.4933 10.0088 17.3254 10.0026 17.1534C9.99637 16.9813 10.0326 16.8104 10.108 16.6556L9.07799 16.1423C8.12133 15.6645 7.12133 16.7078 7.64355 17.6423L10.7191 23.1745L11.1935 19.5323L10.1435 17.6423Z" fill="#00B871"/>
<path d="M18.8891 17.2222H17.2224C17.2224 16.9276 17.1053 16.6449 16.8969 16.4366C16.6886 16.2282 16.406 16.1111 16.1113 16.1111C15.8166 16.1111 15.534 16.2282 15.3256 16.4366C15.1172 16.6449 15.0002 16.9276 15.0002 17.2222H13.3335C13.3335 15.69 14.5791 14.4445 16.1113 14.4445C17.6435 14.4445 18.8891 15.69 18.8891 17.2222ZM26.6668 17.2222H25.0002C25.0002 16.9276 24.8831 16.6449 24.6747 16.4366C24.4664 16.2282 24.1837 16.1111 23.8891 16.1111C23.5944 16.1111 23.3118 16.2282 23.1034 16.4366C22.895 16.6449 22.7779 16.9276 22.7779 17.2222H21.1113C21.1113 15.69 22.3568 14.4445 23.8891 14.4445C25.4213 14.4445 26.6668 15.69 26.6668 17.2222Z" fill="#141414"/>
<path d="M20.0004 33.33C19.5381 33.33 19.077 33.2245 18.6559 33.0145L15.197 31.2845C15.006 31.1889 14.7949 31.1404 14.5813 31.1431C14.3677 31.1458 14.1578 31.1996 13.9693 31.3L11.7148 32.4978C11.4037 32.6649 11.0523 32.7424 10.6998 32.7216C10.3473 32.7008 10.0075 32.5825 9.71815 32.38C9.42769 32.1791 9.19849 31.9016 9.05593 31.5784C8.91336 31.2553 8.86299 30.899 8.91037 30.5489L11.0181 14.5478C11.6093 10.0567 15.4715 6.67004 20.0004 6.67004C24.5293 6.67004 28.3915 10.0567 28.9826 14.5478L31.0904 30.5512C31.1381 30.9009 31.0879 31.257 30.9452 31.5799C30.8026 31.9028 30.5732 32.1798 30.2826 32.38C29.993 32.5823 29.653 32.7004 29.3003 32.7211C28.9477 32.7419 28.5962 32.6646 28.2848 32.4978L26.0337 31.3C25.8449 31.2 25.6349 31.1463 25.4211 31.1436C25.2074 31.1409 24.9961 31.1892 24.8048 31.2845L21.3459 33.0145C20.9237 33.2245 20.4626 33.33 20.0004 33.33ZM14.597 29.4767C15.057 29.4767 15.5181 29.5823 15.9415 29.7934L19.4004 31.5234C19.7759 31.7123 20.2248 31.7123 20.6004 31.5234L24.0593 29.7934C24.4881 29.5791 24.9619 29.4705 25.4412 29.4765C25.9205 29.4824 26.3915 29.6029 26.8148 29.8278L29.067 31.0256C29.1078 31.0485 29.1554 31.0592 29.2021 31.0564C29.2488 31.0536 29.2937 31.0376 29.3315 31.01C29.3702 30.9838 29.4008 30.9471 29.4197 30.9043C29.4385 30.8614 29.4449 30.8141 29.4381 30.7678L27.3304 14.7623C26.8481 11.0989 23.6959 8.3356 20.0004 8.3356C16.3048 8.3356 13.1526 11.0989 12.6693 14.7634L10.5615 30.7667C10.5544 30.8134 10.5606 30.8611 10.5795 30.9043C10.5984 30.9476 10.6291 30.9846 10.6681 31.0112C10.7061 31.0383 10.751 31.0541 10.7976 31.0569C10.8442 31.0596 10.8906 31.0492 10.9315 31.0267L13.1859 29.8289C13.6202 29.5973 14.1049 29.4764 14.597 29.4767Z" fill="#141414"/>
<path d="M30.0092 23.5788L28.5526 22.7688L31.6292 17.2366C31.6904 17.1266 31.6781 17.0277 31.5926 16.9377C31.5566 16.896 31.5073 16.868 31.453 16.8585C31.3987 16.849 31.3428 16.8585 31.2948 16.8855L28.8915 18.0822L28.1492 16.5888L30.5515 15.3933C30.9184 15.2093 31.3349 15.1482 31.7392 15.219C32.1436 15.2898 32.5144 15.4888 32.797 15.7866C33.3904 16.4088 33.5037 17.2944 33.0848 18.0466L30.0092 23.5788ZM9.99146 23.5788L6.91479 18.0466C6.70997 17.6902 6.62723 17.2766 6.67918 16.8688C6.73113 16.461 6.91493 16.0814 7.20257 15.7877C7.48526 15.4897 7.8564 15.2907 8.26103 15.22C8.66567 15.1494 9.0823 15.2109 9.44924 15.3955L11.8504 16.59L11.1081 18.0833L8.70591 16.8877C8.56368 16.8177 8.46591 16.8755 8.40702 16.9388C8.32146 17.0277 8.30924 17.1277 8.37035 17.2366L11.447 22.7688L9.99146 23.5788ZM20.0004 25.5222C18.579 25.5265 17.194 25.0732 16.0502 24.2294C14.9064 23.3855 14.0646 22.196 13.6492 20.8366L15.2403 20.3422C15.8937 22.4444 17.8059 23.8555 20.0004 23.8555C22.1948 23.8555 24.107 22.4433 24.7604 20.3422L26.3515 20.8366C25.9358 22.1958 25.0939 23.3851 23.9502 24.2289C22.8065 25.0727 21.4216 25.5261 20.0004 25.5222Z" fill="#141414"/>
<path d="M25.1502 26.36C24.8045 26.3606 24.4622 26.2928 24.1428 26.1607C23.8234 26.0285 23.5333 25.8346 23.2891 25.59L22.2446 24.5456L23.4235 23.3667L24.468 24.4111C24.8457 24.7867 25.4569 24.7845 25.8335 24.4111C25.9232 24.3217 25.9942 24.2153 26.0424 24.0982C26.0907 23.9811 26.1152 23.8556 26.1146 23.7289C26.1153 23.6021 26.0908 23.4764 26.0425 23.3591C25.9943 23.2418 25.9232 23.1352 25.8335 23.0456L24.6857 21.8867L25.8702 20.7145L27.0146 21.87C27.5065 22.3643 27.7824 23.0334 27.7817 23.7307C27.7811 24.428 27.5041 25.0967 27.0113 25.59C26.767 25.8346 26.4769 26.0285 26.1575 26.1606C25.8381 26.2927 25.4958 26.3605 25.1502 26.36Z" fill="#141414"/>
</g>
<defs>
<clipPath id="clip0_2246_394">
<rect width="40" height="40" fill="white"/>
</clipPath>
</defs>
</svg>
