<svg width="24" height="24" viewBox="0 0 24 24" fill="none" xmlns="http://www.w3.org/2000/svg">
<g clip-path="url(#clip0_2342_1659)">
<path d="M22.8289 4.06348V8.12698H1.01074V4.06348C1.01074 2.94602 1.88347 2.03174 2.95014 2.03174H20.8895C21.9562 2.03174 22.8289 2.94602 22.8289 4.06348Z" fill="#2FDF84"/>
<path d="M22.8289 8.12695V20.8254C22.8289 21.9428 21.9562 22.8571 20.8895 22.8571H2.95014C1.88347 22.8571 1.01074 21.9428 1.01074 20.8254V8.12695H22.8289Z" fill="#F3F3F1"/>
<path d="M3.19256 20.8254V8.12695H1.01074V20.8254C1.01074 21.9428 1.88347 22.8571 2.95014 22.8571H5.13195C4.06529 22.8571 3.19256 21.9428 3.19256 20.8254Z" fill="#D5DBE1"/>
<path d="M10.7881 17.2698H13.2123V19.8095H10.7881V17.2698Z" fill="#2FDF84"/>
<path d="M13.2121 20.5715H10.7878C10.5949 20.5715 10.4099 20.4913 10.2736 20.3484C10.1372 20.2055 10.0605 20.0117 10.0605 19.8096V17.27C10.0605 17.0679 10.1372 16.8741 10.2736 16.7312C10.4099 16.5883 10.5949 16.5081 10.7878 16.5081H13.2121C13.4049 16.5081 13.5899 16.5883 13.7263 16.7312C13.8627 16.8741 13.9393 17.0679 13.9393 17.27V19.8096C13.9393 20.0117 13.8627 20.2055 13.7263 20.3484C13.5899 20.4913 13.4049 20.5715 13.2121 20.5715ZM11.5151 19.0477H12.4848V18.0319H11.5151V19.0477Z" fill="#141414"/>
<path d="M20.9698 23.619H3.03044C2.32343 23.6182 1.6456 23.3236 1.14567 22.7998C0.645739 22.2761 0.36454 21.566 0.36377 20.8253V4.06343C0.36454 3.32275 0.645739 2.61264 1.14567 2.08891C1.6456 1.56517 2.32343 1.27058 3.03044 1.26978H20.9698C21.6769 1.27031 22.3549 1.56482 22.8549 2.08861C23.3549 2.61241 23.636 3.32267 23.6365 4.06343V20.8253C23.636 21.5661 23.3549 22.2763 22.8549 22.8001C22.3549 23.3239 21.6769 23.6184 20.9698 23.619ZM3.03044 2.79358C2.36232 2.79358 1.81832 3.36349 1.81832 4.06343V20.8253C1.81832 21.5253 2.36232 22.0952 3.03044 22.0952H20.9698C21.638 22.0952 22.182 21.5253 22.182 20.8253V4.06343C22.182 3.36349 21.638 2.79358 20.9698 2.79358H3.03044Z" fill="#141414"/>
<path d="M1.09082 7.36508H22.909V8.88889H1.09082V7.36508ZM5.21203 0H6.66658V4.57143H5.21203V0ZM17.3332 0H18.7878V4.57143H17.3332V0ZM6.42415 14.4762H3.99991C3.80703 14.4762 3.62204 14.3959 3.48565 14.253C3.34926 14.1101 3.27264 13.9164 3.27264 13.7143V11.1746C3.27264 10.9725 3.34926 10.7787 3.48565 10.6359C3.62204 10.493 3.80703 10.4127 3.99991 10.4127H6.42415C6.61704 10.4127 6.80202 10.493 6.93841 10.6359C7.0748 10.7787 7.15143 10.9725 7.15143 11.1746V13.7143C7.15143 13.9164 7.0748 14.1101 6.93841 14.253C6.80202 14.3959 6.61704 14.4762 6.42415 14.4762ZM4.72718 12.9524H5.69688V11.9365H4.72718V12.9524ZM6.42415 20.5714H3.99991C3.80703 20.5714 3.62204 20.4912 3.48565 20.3483C3.34926 20.2054 3.27264 20.0116 3.27264 19.8095V17.2698C3.27264 17.0678 3.34926 16.874 3.48565 16.7311C3.62204 16.5882 3.80703 16.5079 3.99991 16.5079H6.42415C6.61704 16.5079 6.80202 16.5882 6.93841 16.7311C7.0748 16.874 7.15143 17.0678 7.15143 17.2698V19.8095C7.15143 20.0116 7.0748 20.2054 6.93841 20.3483C6.80202 20.4912 6.61704 20.5714 6.42415 20.5714ZM4.72718 19.0476H5.69688V18.0317H4.72718V19.0476ZM13.212 14.4762H10.7878C10.5949 14.4762 10.4099 14.3959 10.2735 14.253C10.1371 14.1101 10.0605 13.9164 10.0605 13.7143V11.1746C10.0605 10.9725 10.1371 10.7787 10.2735 10.6359C10.4099 10.493 10.5949 10.4127 10.7878 10.4127H13.212C13.4049 10.4127 13.5899 10.493 13.7263 10.6359C13.8627 10.7787 13.9393 10.9725 13.9393 11.1746V13.7143C13.9393 13.9164 13.8627 14.1101 13.7263 14.253C13.5899 14.3959 13.4049 14.4762 13.212 14.4762ZM11.5151 12.9524H12.4848V11.9365H11.5151V12.9524ZM19.9999 14.4762H17.5757C17.3828 14.4762 17.1978 14.3959 17.0614 14.253C16.925 14.1101 16.8484 13.9164 16.8484 13.7143V11.1746C16.8484 10.9725 16.925 10.7787 17.0614 10.6359C17.1978 10.493 17.3828 10.4127 17.5757 10.4127H19.9999C20.1928 10.4127 20.3778 10.493 20.5142 10.6359C20.6506 10.7787 20.7272 10.9725 20.7272 11.1746V13.7143C20.7272 13.9164 20.6506 14.1101 20.5142 14.253C20.3778 14.3959 20.1928 14.4762 19.9999 14.4762ZM18.3029 12.9524H19.2726V11.9365H18.3029V12.9524Z" fill="#141414"/>
</g>
<defs>
<clipPath id="clip0_2342_1659">
<rect width="24" height="24" fill="white"/>
</clipPath>
</defs>
</svg>
