<svg width="40" height="40" viewBox="0 0 40 40" fill="none" xmlns="http://www.w3.org/2000/svg">
<path d="M14.9009 38.8878C21.8987 35.7112 28.3509 37.1556 31.7231 35.6256C35.0953 34.0945 41.2976 28.9412 34.2565 13.4278C27.2153 -2.0855 16.6553 -0.0388355 12.9453 1.6445C-4.42354 9.52783 2.50646 44.5134 14.9009 38.8878Z" fill="#FED259"/>
<path d="M8.38096 23.1901L16.8098 31.619C16.9129 31.7222 17.0354 31.8042 17.1702 31.8601C17.305 31.916 17.4495 31.9448 17.5954 31.9448C17.7413 31.9448 17.8858 31.916 18.0206 31.8601C18.1554 31.8042 18.2779 31.7222 18.381 31.619L19.0321 30.9679C19.1353 30.8648 19.2173 30.7423 19.2732 30.6075C19.3291 30.4727 19.3578 30.3282 19.3578 30.1823C19.3578 30.0364 19.3291 29.8919 19.2732 29.7571C19.2173 29.6223 19.1353 29.4999 19.0321 29.3968L10.6032 20.9679C10.5001 20.8646 10.3776 20.7827 10.2428 20.7268C10.108 20.6709 9.96355 20.6421 9.81762 20.6421C9.6717 20.6421 9.5272 20.6709 9.39241 20.7268C9.25761 20.7827 9.13516 20.8646 9.03207 20.9679L8.38096 21.619C8.27768 21.7221 8.19575 21.8445 8.13985 21.9793C8.08395 22.1141 8.05518 22.2586 8.05518 22.4045C8.05518 22.5505 8.08395 22.695 8.13985 22.8297C8.19575 22.9645 8.27768 23.087 8.38096 23.1901ZM31.6187 16.8101L23.1898 8.3812C23.0867 8.27793 22.9643 8.196 22.8295 8.14009C22.6947 8.08419 22.5502 8.05542 22.4043 8.05542C22.2584 8.05542 22.1139 8.08419 21.9791 8.14009C21.8443 8.196 21.7218 8.27793 21.6187 8.3812L20.9676 9.03231C20.8643 9.13541 20.7824 9.25786 20.7265 9.39265C20.6706 9.52745 20.6418 9.67194 20.6418 9.81787C20.6418 9.96379 20.6706 10.1083 20.7265 10.2431C20.7824 10.3779 20.8643 10.5003 20.9676 10.6034L29.3965 19.0323C29.4996 19.1356 29.6221 19.2175 29.7569 19.2734C29.8916 19.3293 30.0361 19.3581 30.1821 19.3581C30.328 19.3581 30.4725 19.3293 30.6073 19.2734C30.7421 19.2175 30.8645 19.1356 30.9676 19.0323L31.6187 18.3812C31.722 18.2781 31.8039 18.1557 31.8598 18.0209C31.9157 17.8861 31.9445 17.7416 31.9445 17.5956C31.9445 17.4497 31.9157 17.3052 31.8598 17.1704C31.8039 17.0356 31.722 16.9132 31.6187 16.8101Z" fill="#F6F4E9"/>
<path d="M7.82529 25.5079C7.72202 25.611 7.64009 25.7334 7.58419 25.8682C7.52829 26.003 7.49951 26.1475 7.49951 26.2934C7.49951 26.4394 7.52829 26.5839 7.58419 26.7187C7.64009 26.8534 7.72202 26.9759 7.82529 27.079L12.9208 32.1745C13.0239 32.2778 13.1464 32.3598 13.2812 32.4157C13.416 32.4716 13.5605 32.5003 13.7064 32.5003C13.8523 32.5003 13.9968 32.4716 14.1316 32.4157C14.2664 32.3598 14.3889 32.2778 14.492 32.1745L15.9286 30.7379L9.26196 24.0712L7.82529 25.5079ZM32.1742 12.9212L27.0786 7.82566C26.9755 7.72238 26.8531 7.64045 26.7183 7.58455C26.5835 7.52865 26.439 7.49988 26.2931 7.49988C26.1471 7.49988 26.0027 7.52865 25.8679 7.58455C25.7331 7.64045 25.6106 7.72238 25.5075 7.82566L24.0708 9.26232L30.7375 15.929L32.1742 14.4923C32.2775 14.3892 32.3594 14.2668 32.4153 14.132C32.4712 13.9972 32.5 13.8527 32.5 13.7068C32.5 13.5608 32.4712 13.4163 32.4153 13.2816C32.3594 13.1468 32.2775 13.0243 32.1742 12.9212Z" fill="#2FDF84"/>
<path d="M18.711 31.3L18.3777 31.6222C18.2749 31.7252 18.1528 31.807 18.0184 31.8627C17.884 31.9185 17.7399 31.9472 17.5943 31.9472C17.4488 31.9472 17.3047 31.9185 17.1703 31.8627C17.0359 31.807 16.9138 31.7252 16.811 31.6222L8.37767 23.1889C8.27467 23.0861 8.19295 22.964 8.13719 22.8296C8.08143 22.6952 8.05273 22.5511 8.05273 22.4056C8.05273 22.2601 8.08143 22.116 8.13719 21.9815C8.19295 21.8471 8.27467 21.725 8.37767 21.6222L9.03323 20.9667C9.13602 20.8637 9.25812 20.782 9.39253 20.7262C9.52695 20.6704 9.67104 20.6417 9.81656 20.6417C9.96208 20.6417 10.1062 20.6704 10.2406 20.7262C10.375 20.782 10.4971 20.8637 10.5999 20.9667L10.9332 21.3L10.5999 21.6222C10.4969 21.725 10.4152 21.8471 10.3594 21.9815C10.3037 22.116 10.275 22.2601 10.275 22.4056C10.275 22.5511 10.3037 22.6952 10.3594 22.8296C10.4152 22.964 10.4969 23.0861 10.5999 23.1889L18.711 31.3ZM31.2999 18.7111L30.9666 19.0333C30.8638 19.1364 30.7417 19.2181 30.6073 19.2738C30.4728 19.3296 30.3287 19.3583 30.1832 19.3583C30.0377 19.3583 29.8936 19.3296 29.7592 19.2738C29.6248 19.2181 29.5027 19.1364 29.3999 19.0333L20.9666 10.6C20.8636 10.4972 20.7818 10.3751 20.7261 10.2407C20.6703 10.1063 20.6416 9.9622 20.6416 9.81668C20.6416 9.67116 20.6703 9.52707 20.7261 9.39266C20.7818 9.25824 20.8636 9.13614 20.9666 9.03335L21.6221 8.37779C21.7249 8.27479 21.847 8.19307 21.9814 8.13731C22.1158 8.08156 22.2599 8.05286 22.4055 8.05286C22.551 8.05286 22.6951 8.08156 22.8295 8.13731C22.9639 8.19307 23.086 8.27479 23.1888 8.37779L23.5221 8.71113L23.1888 9.03335C23.0858 9.13614 23.0041 9.25824 22.9483 9.39266C22.8925 9.52707 22.8638 9.67116 22.8638 9.81668C22.8638 9.9622 22.8925 10.1063 22.9483 10.2407C23.0041 10.3751 23.0858 10.4972 23.1888 10.6L31.2999 18.7111Z" fill="#D5DBE1"/>
<path d="M14.822 31.8556L14.4887 32.1778C14.3859 32.2808 14.2638 32.3625 14.1294 32.4183C13.995 32.474 13.8509 32.5027 13.7053 32.5027C13.5598 32.5027 13.4157 32.474 13.2813 32.4183C13.1469 32.3625 13.0248 32.2808 12.922 32.1778L7.82201 27.0778C7.719 26.975 7.63728 26.8529 7.58153 26.7185C7.52577 26.5841 7.49707 26.44 7.49707 26.2945C7.49707 26.149 7.52577 26.0049 7.58153 25.8704C7.63728 25.736 7.719 25.6139 7.82201 25.5111L9.26645 24.0667L10.3776 25.1778L10.0442 25.5111C9.94123 25.6139 9.85951 25.736 9.80375 25.8704C9.74799 26.0049 9.71929 26.149 9.71929 26.2945C9.71929 26.44 9.74799 26.5841 9.80375 26.7185C9.85951 26.8529 9.94123 26.975 10.0442 27.0778L14.822 31.8556ZM31.8442 14.8223L30.7331 15.9334L24.0665 9.2667L25.5109 7.82225C25.6137 7.71925 25.7358 7.63753 25.8702 7.58177C26.0046 7.52601 26.1487 7.49731 26.2942 7.49731C26.4398 7.49731 26.5838 7.52601 26.7183 7.58177C26.8527 7.63753 26.9748 7.71925 27.0776 7.82225L27.4109 8.15559L26.2887 9.2667L31.8442 14.8223Z" fill="#00B871"/>
<path d="M28.5388 10.2801L31.3833 7.43567L32.5611 8.61345L29.7166 11.4579L28.5388 10.2801ZM14.4066 24.4112L24.4066 14.4112L25.5844 15.589L15.5844 25.589L14.4066 24.4112ZM7.42773 31.3868L10.2722 28.5423L11.45 29.7201L8.60551 32.5646L7.42773 31.3868Z" fill="#141414"/>
<path d="M17.5955 32.7778C17.0755 32.7778 16.5877 32.5756 16.2199 32.2078L7.79217 23.78C7.42439 23.4133 7.22217 22.9244 7.22217 22.4056C7.22217 21.8867 7.42439 21.3978 7.79217 21.0311L8.44328 20.38C8.80818 20.0162 9.30244 19.8119 9.81772 19.8119C10.333 19.8119 10.8273 20.0162 11.1922 20.38L19.6211 28.8089C19.9849 29.174 20.1893 29.6684 20.1893 30.1839C20.1893 30.6994 19.9849 31.1938 19.6211 31.5589L18.9699 32.21C18.6033 32.5756 18.1144 32.7778 17.5955 32.7778ZM9.81772 21.4767C9.78121 21.4765 9.74504 21.4836 9.71128 21.4976C9.67753 21.5115 9.64686 21.532 9.62106 21.5578L8.96995 22.2089C8.91811 22.2608 8.88899 22.3311 8.88899 22.4044C8.88899 22.4778 8.91811 22.5481 8.96995 22.6L17.3988 31.0289C17.5411 31.1711 17.6499 31.17 17.7922 31.0289L18.4433 30.3778C18.495 30.3254 18.524 30.2547 18.524 30.1811C18.524 30.1075 18.495 30.0368 18.4433 29.9844L10.0155 21.5567C9.96245 21.5053 9.89153 21.4767 9.81772 21.4767Z" fill="#141414"/>
<path d="M13.7065 33.3334C13.1865 33.3334 12.6987 33.1312 12.331 32.7634L7.23651 27.669C7.0552 27.4888 6.91145 27.2744 6.8136 27.0383C6.71576 26.8022 6.66576 26.549 6.66651 26.2934C6.66651 25.7745 6.86873 25.2856 7.23651 24.919L8.67318 23.4823L9.85207 24.6612L8.4154 26.0978C8.34318 26.1678 8.33318 26.2501 8.33318 26.2934C8.33318 26.3367 8.34318 26.419 8.41429 26.489L13.5098 31.5845C13.6521 31.7267 13.761 31.7267 13.9032 31.5845L15.3398 30.1478L16.5187 31.3267L15.0821 32.7634C14.9018 32.9446 14.6875 33.0883 14.4514 33.1861C14.2153 33.284 13.9621 33.334 13.7065 33.3334ZM30.1821 20.1901C29.6843 20.1901 29.1865 20.0012 28.8076 19.6223L20.3787 11.1934C20.0149 10.8283 19.8105 10.3339 19.8105 9.8184C19.8105 9.30294 20.0149 8.80849 20.3787 8.4434L21.0298 7.79229C21.7654 7.05784 23.0465 7.05784 23.7798 7.79229L32.2076 16.2201C32.5754 16.5867 32.7776 17.0756 32.7776 17.5945C32.7776 18.1134 32.5754 18.6023 32.2076 18.969L31.5565 19.6201C31.3764 19.8011 31.1622 19.9448 30.9263 20.0426C30.6904 20.1404 30.4375 20.1905 30.1821 20.1901ZM22.4043 8.88895C22.3306 8.88907 22.26 8.91821 22.2076 8.97007L21.5565 9.62118C21.5048 9.67358 21.4758 9.74423 21.4758 9.81784C21.4758 9.89146 21.5048 9.96211 21.5565 10.0145L29.9843 18.4423C30.0101 18.4682 30.0407 18.4887 30.0745 18.5027C30.1082 18.5167 30.1444 18.5239 30.181 18.5239C30.2175 18.5239 30.2537 18.5167 30.2874 18.5027C30.3212 18.4887 30.3518 18.4682 30.3776 18.4423L31.0287 17.7912C31.0549 17.7658 31.0757 17.7354 31.0899 17.7019C31.1042 17.6683 31.1115 17.6323 31.1117 17.5959C31.1118 17.5594 31.1046 17.5233 31.0905 17.4897C31.0765 17.4561 31.0558 17.4256 31.0298 17.4001L22.601 8.97118C22.5754 8.94495 22.5448 8.92414 22.511 8.91002C22.4772 8.89589 22.4409 8.88872 22.4043 8.88895Z" fill="#141414"/>
<path d="M31.3266 16.5179L30.1478 15.339L31.5844 13.9023C31.6555 13.8312 31.6655 13.749 31.6655 13.7056C31.6655 13.6623 31.6555 13.5801 31.5844 13.5101L26.4889 8.41454C26.3466 8.27231 26.2378 8.27231 26.0955 8.41454L24.6589 9.8512L23.48 8.67231L24.9166 7.23565C25.6522 6.5012 26.9333 6.5012 27.6666 7.23565L32.7611 12.3301C33.1289 12.6968 33.3311 13.1856 33.3311 13.7045C33.3311 14.2234 33.1289 14.7123 32.7611 15.079L31.3266 16.5179Z" fill="#141414"/>
</svg>
