<svg width="24" height="24" viewBox="0 0 24 24" fill="none" xmlns="http://www.w3.org/2000/svg">
<g clip-path="url(#clip0_2261_812)">
<path d="M12.6171 22.7664C18.9038 22.7664 24.0002 17.9461 24.0002 12C24.0002 6.0539 18.9038 1.23364 12.6171 1.23364C6.33031 1.23364 1.23389 6.0539 1.23389 12C1.23389 17.9461 6.33031 22.7664 12.6171 22.7664Z" fill="#F93332"/>
<path d="M5.01493 12C5.01493 6.66627 9.10517 2.25126 14.4675 1.39474C13.8432 1.29088 13.2108 1.23699 12.577 1.23364C11.0874 1.23364 9.6124 1.51212 8.23619 2.05318C6.85997 2.59424 5.60952 3.38729 4.55621 4.38704C3.50291 5.38678 2.66738 6.57366 2.09733 7.87989C1.52729 9.18613 1.23389 10.5861 1.23389 12C1.23389 13.4139 1.52729 14.8139 2.09733 16.1201C2.66738 17.4263 3.50291 18.6132 4.55621 19.613C5.60952 20.6127 6.85997 21.4058 8.23619 21.9468C9.6124 22.4879 11.0874 22.7664 12.577 22.7664C13.2223 22.7664 13.8508 22.7026 14.4675 22.6053C9.10517 21.7487 5.01493 17.3337 5.01493 12Z" fill="#F93332"/>
<path d="M7.61377 10.8037H16.3864V13.1962H7.61377V10.8037Z" fill="black"/>
<path d="M12.0002 23.9626C5.40323 23.9626 0.0375977 18.597 0.0375977 12C0.0375977 5.40299 5.40323 0.0373535 12.0002 0.0373535C18.5972 0.0373535 23.9628 5.40299 23.9628 12C23.9628 18.597 18.5972 23.9626 12.0002 23.9626ZM12.0002 2.42988C6.72231 2.42988 2.43012 6.72206 2.43012 12C2.43012 17.2779 6.72231 21.5701 12.0002 21.5701C17.2781 21.5701 21.5703 17.2779 21.5703 12C21.5703 6.72206 17.2781 2.42988 12.0002 2.42988Z" fill="#141414"/>
</g>
<defs>
<clipPath id="clip0_2261_812">
<rect width="24" height="24" fill="white"/>
</clipPath>
</defs>
</svg>
