<svg width="24" height="24" viewBox="0 0 24 24" fill="none" xmlns="http://www.w3.org/2000/svg">
<path d="M11.518 0.0325502C14.4831 -0.144993 17.5237 0.974704 19.7662 2.88449C19.8418 2.9483 19.9166 3.01303 19.9906 3.07869C20.0645 3.14434 20.1377 3.2109 20.21 3.27837C20.2823 3.34584 20.3538 3.4142 20.4244 3.48344C20.495 3.55269 20.5647 3.6228 20.6335 3.69377C20.7024 3.76473 20.7703 3.83656 20.8374 3.90924C20.9044 3.98189 20.9706 4.05537 21.0358 4.12968C21.101 4.20398 21.1653 4.27909 21.2286 4.35498C21.2919 4.43088 21.3543 4.50756 21.4157 4.58501C21.4771 4.66243 21.5376 4.74062 21.597 4.81957C21.6565 4.89852 21.715 4.9782 21.7724 5.05862C21.8299 5.139 21.8864 5.2201 21.9418 5.30191C21.9972 5.38372 22.0516 5.4662 22.105 5.54935C22.1584 5.6325 22.2107 5.7163 22.262 5.80076C22.3132 5.88521 22.3634 5.97028 22.4126 6.05598C22.4617 6.14167 22.5098 6.22797 22.5568 6.31487C22.6038 6.40174 22.6497 6.4892 22.6945 6.57725C22.7393 6.66526 22.783 6.75384 22.8256 6.84297C22.8682 6.93206 22.9096 7.02169 22.95 7.11183C22.9903 7.20198 23.0295 7.2926 23.0676 7.38371C23.1057 7.47484 23.1426 7.56642 23.1784 7.65844C23.2142 7.75047 23.2488 7.84293 23.2823 7.93585C23.3157 8.02873 23.348 8.12203 23.3792 8.21574C23.4103 8.30942 23.4403 8.40348 23.469 8.49792C23.4978 8.59236 23.5254 8.68715 23.5519 8.78229C23.5783 8.8774 23.6035 8.97283 23.6275 9.06857C23.6515 9.16432 23.6743 9.26035 23.696 9.35667C23.7176 9.45299 23.738 9.54956 23.7572 9.64639C23.7764 9.74321 23.7944 9.84026 23.8112 9.93753C23.8279 10.0348 23.8435 10.1323 23.8578 10.2299C23.8722 10.3276 23.8853 10.4254 23.8971 10.5234C23.9091 10.6214 23.9197 10.7195 23.9291 10.8177C23.9386 10.916 23.9468 11.0143 23.9538 11.1128C23.9609 11.2101 23.9668 11.3074 23.9715 11.4049C23.9762 11.5023 23.9797 11.5998 23.982 11.6973C23.9844 11.7948 23.9855 11.8924 23.9855 11.9899C23.9854 12.0875 23.9842 12.185 23.9817 12.2826C23.9793 12.3801 23.9757 12.4776 23.9709 12.575C23.9661 12.6724 23.9601 12.7698 23.9529 12.8671C23.9457 12.9644 23.9374 13.0616 23.9278 13.1586C23.9183 13.2557 23.9075 13.3527 23.8956 13.4495C23.8837 13.5463 23.8705 13.643 23.8562 13.7395C23.842 13.836 23.8265 13.9324 23.8099 14.0285C23.7932 14.1246 23.7754 14.2205 23.7565 14.3162C23.7375 14.4119 23.7173 14.5074 23.696 14.6026C23.6747 14.6979 23.6522 14.7928 23.6286 14.8875C23.605 14.9821 23.5802 15.0765 23.5543 15.1706C23.5283 15.2646 23.5012 15.3584 23.473 15.4518C23.4448 15.5452 23.4154 15.6383 23.385 15.731C23.3545 15.8237 23.3228 15.916 23.2901 16.0079C23.2573 16.0999 23.2235 16.1914 23.1885 16.2825C23.1535 16.3736 23.1174 16.4643 23.0802 16.5546C23.043 16.6448 23.0047 16.7346 22.9653 16.8239C22.9259 16.9132 22.8855 17.002 22.8439 17.0903C22.8023 17.1787 22.7597 17.2665 22.716 17.3538C22.6723 17.4411 22.6275 17.5279 22.5817 17.6141C22.5359 17.7003 22.4891 17.7859 22.4411 17.871C22.3932 17.9561 22.3443 18.0406 22.2943 18.1245C22.2443 18.2084 22.1933 18.2917 22.1413 18.3744C22.0893 18.457 22.0363 18.539 21.9823 18.6204C21.9283 18.7018 21.8733 18.7825 21.8173 18.8625C21.7614 18.9426 21.7044 19.022 21.6465 19.1006C21.5886 19.1793 21.5297 19.2572 21.4698 19.3345C21.41 19.4117 21.3493 19.4882 21.2876 19.564C21.2259 19.6397 21.1633 19.7147 21.0998 19.789C18.9056 22.3329 15.9501 23.7363 12.6048 23.9933C9.46079 24.0881 6.48311 23.1355 4.10299 21.0512C4.02922 20.9866 3.95625 20.9211 3.88407 20.8547C3.81189 20.7883 3.74055 20.7211 3.67003 20.6529C3.59952 20.5848 3.52987 20.5158 3.46107 20.446C3.39225 20.3762 3.32431 20.3055 3.25724 20.234C3.19018 20.1625 3.12401 20.0902 3.05873 20.0171C2.99342 19.9439 2.92904 19.87 2.86558 19.7953C2.80212 19.7206 2.73959 19.6452 2.67799 19.569C2.61638 19.4927 2.55572 19.4158 2.496 19.338C2.43631 19.2603 2.37758 19.1819 2.31981 19.1028C2.26203 19.0236 2.20525 18.9438 2.14946 18.8633C2.09363 18.7828 2.03883 18.7015 1.98505 18.6197C1.93124 18.5378 1.87845 18.4553 1.82668 18.3721C1.77491 18.2889 1.72418 18.2051 1.67449 18.1207C1.6248 18.0363 1.57614 17.9513 1.52852 17.8657C1.48094 17.7801 1.43441 17.694 1.38893 17.6072C1.34345 17.5205 1.29905 17.4332 1.25571 17.3454C1.21237 17.2576 1.17014 17.1692 1.129 17.0804C1.08784 16.9915 1.04779 16.9022 1.00886 16.8123C0.969897 16.7225 0.932069 16.6322 0.895374 16.5414C0.858648 16.4507 0.823038 16.3595 0.788547 16.2679C0.754088 16.1762 0.720764 16.0842 0.688573 15.9917C0.656349 15.8993 0.625291 15.8065 0.595399 15.7133C0.565474 15.62 0.536716 15.5265 0.509123 15.4326C0.481499 15.3387 0.455055 15.2444 0.429794 15.1499C0.4045 15.0553 0.380388 14.9605 0.357458 14.8653C0.334496 14.7702 0.312716 14.6748 0.292117 14.5791C0.271551 14.4834 0.252148 14.3875 0.233913 14.2913C0.215677 14.1952 0.19864 14.0988 0.182799 14.0022C0.166959 13.9056 0.1523 13.8089 0.138823 13.712C0.125346 13.6151 0.113083 13.518 0.102033 13.4207C0.0909509 13.3235 0.0810836 13.2262 0.0724289 13.1287C0.0637422 13.0312 0.0562683 12.9337 0.0500089 12.836C0.0432384 12.7375 0.0376982 12.639 0.0333868 12.5404C0.0290754 12.4418 0.0259776 12.3431 0.0240934 12.2444C0.0222411 12.1457 0.021602 12.047 0.0221768 11.9483C0.0227517 11.8496 0.0245564 11.7509 0.0275903 11.6522C0.0306242 11.5536 0.0348713 11.455 0.0403324 11.3564C0.0457935 11.2579 0.0524844 11.1594 0.0604046 11.061C0.0683247 10.9626 0.0774743 10.8643 0.0878536 10.7661C0.0982009 10.668 0.109762 10.5699 0.122536 10.472C0.135343 10.3741 0.149346 10.2764 0.164547 10.1789C0.179749 10.0814 0.196165 9.98403 0.213794 9.88691C0.231422 9.78977 0.250264 9.69286 0.27032 9.59619C0.290344 9.49952 0.311566 9.40311 0.333985 9.30695C0.356405 9.21079 0.380021 9.11493 0.404836 9.01938C0.42965 8.92383 0.455629 8.82857 0.482775 8.73362C0.509953 8.6387 0.538296 8.54414 0.567805 8.44992C0.597314 8.35567 0.627989 8.26181 0.65983 8.16836C0.69167 8.07487 0.724659 7.9818 0.758799 7.88914C0.79297 7.79648 0.828276 7.70425 0.864715 7.61245C0.901154 7.52065 0.938728 7.42932 0.977435 7.33847C1.01614 7.2476 1.05597 7.15721 1.09691 7.06732C1.13785 6.97742 1.17991 6.88806 1.22309 6.79921C1.26623 6.71034 1.31048 6.62202 1.35583 6.53426C1.40121 6.4465 1.44766 6.35931 1.49518 6.27269C1.5427 6.18608 1.59128 6.10006 1.64091 6.01466C1.69057 5.92922 1.74128 5.84441 1.79305 5.76025C1.84479 5.67605 1.89758 5.59252 1.95142 5.50965C2.00524 5.42679 2.06009 5.3446 2.11597 5.26307C2.17183 5.18154 2.22871 5.10072 2.28661 5.02059C2.34448 4.94046 2.40333 4.86105 2.46318 4.78235C2.52303 4.70369 2.58384 4.62577 2.6456 4.5486C2.70737 4.4714 2.77009 4.395 2.83377 4.31939C2.89745 4.24375 2.96206 4.1689 3.02759 4.09485C5.22337 1.62781 8.22347 0.228892 11.518 0.0325502Z" fill="#35342F"/>
<path d="M11.2898 0.754006C11.3063 0.750952 11.3096 0.750046 11.3288 0.748328C14.157 0.496543 17.137 1.59797 19.2864 3.39825C19.3568 3.45754 19.4265 3.5177 19.4955 3.57871C19.5645 3.63972 19.6327 3.70157 19.7001 3.76426C19.7676 3.82696 19.8342 3.89047 19.9001 3.95479C19.966 4.0191 20.031 4.08422 20.0953 4.15013C20.1596 4.21603 20.223 4.28272 20.2856 4.35019C20.3482 4.41769 20.41 4.48592 20.4709 4.55488C20.5318 4.62387 20.5919 4.6936 20.6511 4.76406C20.7103 4.83455 20.7686 4.90574 20.8261 4.97762C20.8835 5.04951 20.9401 5.1221 20.9957 5.19539C21.0513 5.26865 21.1061 5.34259 21.1599 5.41721C21.2137 5.49184 21.2666 5.56711 21.3186 5.64304C21.3705 5.71897 21.4215 5.79552 21.4716 5.87269C21.5216 5.94986 21.5707 6.02763 21.6189 6.10601C21.667 6.18438 21.7141 6.26335 21.7603 6.3429C21.8065 6.42243 21.8517 6.50251 21.8959 6.58314C21.9401 6.66381 21.9833 6.74499 22.0255 6.82667C22.0677 6.90839 22.1089 6.9906 22.1491 7.07331C22.1892 7.15601 22.2284 7.23921 22.2665 7.3229C22.3046 7.40655 22.3416 7.49069 22.3777 7.5753C22.4137 7.65988 22.4487 7.74489 22.4826 7.83033C22.5165 7.91577 22.5494 8.00161 22.5812 8.08784C22.613 8.17411 22.6437 8.26074 22.6734 8.34774C22.7031 8.43474 22.7316 8.52209 22.7591 8.60978C22.7866 8.69751 22.813 8.78555 22.8384 8.87388C22.8637 8.96224 22.8879 9.0509 22.911 9.13984C22.9342 9.22877 22.9562 9.31798 22.9771 9.40746C22.9981 9.49697 23.0179 9.58671 23.0366 9.67666C23.0553 9.76665 23.0729 9.85685 23.0893 9.94725C23.1058 10.0376 23.1212 10.1282 23.1354 10.219C23.1496 10.3098 23.1627 10.4008 23.1747 10.4919C23.1867 10.583 23.1976 10.6742 23.2073 10.7655C23.217 10.8569 23.2256 10.9484 23.2331 11.04C23.2409 11.133 23.2475 11.226 23.253 11.3192C23.2586 11.4124 23.2629 11.5056 23.2661 11.5989C23.2692 11.6921 23.2713 11.7854 23.2721 11.8787C23.273 11.972 23.2727 12.0653 23.2713 12.1586C23.2698 12.252 23.2672 12.3452 23.2635 12.4385C23.2597 12.5317 23.2548 12.6249 23.2487 12.718C23.2426 12.8111 23.2354 12.9042 23.227 12.9971C23.2186 13.0901 23.2091 13.1829 23.1984 13.2756C23.1877 13.3683 23.1759 13.4609 23.1629 13.5533C23.1499 13.6457 23.1358 13.7379 23.1205 13.83C23.1052 13.9221 23.0888 14.014 23.0712 14.1056C23.0537 14.1973 23.035 14.2887 23.0152 14.3799C22.9953 14.4711 22.9744 14.5621 22.9523 14.6528C22.9302 14.7435 22.907 14.8339 22.8827 14.924C22.8584 15.0141 22.8329 15.1039 22.8064 15.1934C22.7798 15.2829 22.7522 15.372 22.7234 15.4609C22.6946 15.5496 22.6648 15.6381 22.6338 15.7261C22.6028 15.8142 22.5708 15.9019 22.5377 15.9892C22.5045 16.0765 22.4703 16.1633 22.435 16.2498C22.3997 16.3362 22.3634 16.4222 22.3259 16.5078C22.2885 16.5933 22.25 16.6784 22.2105 16.763C22.1709 16.8476 22.1304 16.9317 22.0887 17.0153C22.0471 17.0989 22.0044 17.182 21.9608 17.2645C21.9171 17.3471 21.8724 17.4291 21.8266 17.5105C21.7809 17.592 21.7342 17.6728 21.6865 17.7531C21.6387 17.8334 21.59 17.9131 21.5403 17.9922C21.4906 18.0713 21.4399 18.1498 21.3883 18.2277C21.3366 18.3055 21.284 18.3827 21.2304 18.4593C21.1769 18.5358 21.1223 18.6117 21.0669 18.6869C21.0114 18.7621 20.955 18.8366 20.8977 18.9105C20.8404 18.9843 20.7822 19.0574 20.7231 19.1298C20.664 19.2022 20.604 19.2738 20.5431 19.3447C18.5641 21.6692 15.7579 23.0207 12.7267 23.2674C9.83147 23.5061 6.86045 22.4538 4.66088 20.5942C4.59088 20.534 4.52161 20.4729 4.45307 20.411C4.38457 20.3491 4.31682 20.2863 4.24982 20.2228C4.18285 20.1592 4.11667 20.0948 4.0513 20.0296C3.9859 19.9645 3.92132 19.8985 3.85758 19.8317C3.7938 19.7649 3.73085 19.6974 3.66874 19.6291C3.60662 19.5608 3.54537 19.4918 3.48498 19.422C3.42455 19.3522 3.36501 19.2817 3.30634 19.2104C3.24768 19.1392 3.18989 19.0672 3.13298 18.9946C3.07607 18.9219 3.02005 18.8486 2.96493 18.7746C2.90984 18.7006 2.85566 18.6259 2.80239 18.5505C2.74912 18.4752 2.69678 18.3992 2.64536 18.3226C2.59398 18.246 2.54353 18.1687 2.49403 18.0909C2.44453 18.013 2.39599 17.9346 2.3484 17.8556C2.30085 17.7765 2.25426 17.6969 2.20862 17.6167C2.16301 17.5366 2.1184 17.4558 2.07477 17.3746C2.03115 17.2933 1.98852 17.2115 1.94687 17.1293C1.90526 17.047 1.86467 16.9642 1.8251 16.8809C1.7855 16.7976 1.74693 16.7138 1.70941 16.6296C1.67188 16.5454 1.6354 16.4607 1.59995 16.3756C1.56453 16.2905 1.53015 16.2049 1.49681 16.1189C1.46347 16.033 1.43118 15.9466 1.39995 15.8599C1.36875 15.7731 1.3386 15.686 1.3095 15.5985C1.28044 15.511 1.25245 15.4232 1.22553 15.3351C1.19864 15.2469 1.17282 15.1584 1.14807 15.0696C1.12332 14.9808 1.09967 14.8917 1.07712 14.8024C1.05457 14.713 1.03313 14.6233 1.01279 14.5334C0.992442 14.4435 0.973201 14.3534 0.955062 14.263C0.936954 14.1727 0.919948 14.0821 0.904044 13.9914C0.888139 13.9006 0.873353 13.8096 0.859685 13.7184C0.846016 13.6273 0.833465 13.536 0.822031 13.4446C0.81063 13.3531 0.800348 13.2616 0.791182 13.1699C0.781984 13.0782 0.773935 12.9864 0.767037 12.8945C0.759755 12.8024 0.753592 12.7103 0.748547 12.6181C0.743533 12.5259 0.739652 12.4337 0.736905 12.3414C0.734159 12.2491 0.732547 12.1568 0.732068 12.0644C0.731621 11.9721 0.732291 11.8798 0.734079 11.7875C0.7359 11.6951 0.738854 11.6028 0.742942 11.5106C0.747029 11.4184 0.752251 11.3262 0.758606 11.2341C0.764961 11.142 0.772466 11.0499 0.781121 10.958C0.789744 10.8661 0.799516 10.7743 0.810438 10.6826C0.821329 10.5909 0.833354 10.4993 0.846511 10.4079C0.859669 10.3165 0.873943 10.2253 0.889337 10.1342C0.904762 10.0432 0.921305 9.95235 0.938966 9.8617C0.956595 9.77107 0.975357 9.68066 0.995253 9.59044C1.01515 9.50027 1.03615 9.41034 1.05825 9.32067C1.08035 9.231 1.10355 9.14162 1.12785 9.05252C1.15216 8.96342 1.17756 8.87463 1.20407 8.78613C1.23057 8.69767 1.25817 8.60953 1.28685 8.5217C1.31552 8.43391 1.34527 8.34647 1.37609 8.25937C1.40694 8.17231 1.43885 8.08563 1.4718 7.99933C1.50476 7.91304 1.53879 7.82717 1.57389 7.74173C1.60899 7.65626 1.64514 7.57123 1.68234 7.48665C1.71952 7.40207 1.75774 7.31797 1.79703 7.23434C1.83627 7.15068 1.87656 7.06753 1.91789 6.98489C1.95921 6.90222 2.00154 6.82007 2.04488 6.73845C2.08822 6.65686 2.13256 6.5758 2.17791 6.49525C2.22326 6.41471 2.2696 6.33475 2.31693 6.25535C2.36426 6.17595 2.41255 6.09715 2.46179 6.01893C2.51107 5.94071 2.56129 5.86311 2.61245 5.78613C2.66364 5.70916 2.71576 5.63281 2.76881 5.55711C2.82189 5.4814 2.87589 5.40635 2.93082 5.33195C2.98572 5.25758 3.04155 5.18388 3.0983 5.11084C3.15501 5.03784 3.21263 4.96554 3.27113 4.89393C3.32967 4.8223 3.38907 4.75141 3.44934 4.68127C3.5104 4.61028 3.57234 4.54003 3.63516 4.47052C3.69794 4.40105 3.76161 4.33236 3.82615 4.26445C3.89066 4.19657 3.956 4.12948 4.02217 4.06319C4.08838 3.99687 4.15538 3.93139 4.22318 3.86675C4.29101 3.80212 4.35963 3.73834 4.42903 3.67542C4.49842 3.61247 4.5686 3.55038 4.63956 3.48915C4.71049 3.42795 4.78219 3.36762 4.85466 3.30817C4.92709 3.24875 5.00027 3.19022 5.0742 3.13258C5.1481 3.07494 5.2227 3.01823 5.29801 2.96244C5.37334 2.90664 5.44935 2.85179 5.52603 2.79787C5.60271 2.74395 5.68004 2.69099 5.75803 2.63898C5.83605 2.58698 5.91469 2.53594 5.99396 2.48587C6.07322 2.4358 6.1531 2.38672 6.23358 2.33863C6.31409 2.29053 6.39517 2.24344 6.47683 2.19735C6.55849 2.15125 6.64071 2.10618 6.72349 2.06213C6.80627 2.01807 6.88959 1.97503 6.97346 1.93301C7.05732 1.89102 7.1417 1.85007 7.22658 1.81015C7.31144 1.77023 7.39678 1.73136 7.48263 1.69354C7.56847 1.65575 7.65478 1.61901 7.74155 1.58332C7.82829 1.54763 7.91548 1.51302 8.00311 1.47949C8.09071 1.44597 8.17873 1.41352 8.26716 1.38216C8.35559 1.35079 8.44439 1.32054 8.53355 1.29141C8.62275 1.26224 8.71228 1.23416 8.80215 1.20719C8.89202 1.18025 8.98222 1.15442 9.07276 1.1297C9.16327 1.10496 9.25408 1.08135 9.34519 1.0589C9.43631 1.03641 9.52768 1.01505 9.6193 0.994817C9.71096 0.974587 9.80284 0.955485 9.89494 0.937513C9.98705 0.919573 10.0794 0.902761 10.1719 0.887079C10.2644 0.871397 10.3572 0.856861 10.4501 0.843469C10.5429 0.830077 10.636 0.817831 10.7292 0.80673C10.8224 0.795629 10.9157 0.785688 11.0091 0.776909C11.1026 0.76813 11.1961 0.760495 11.2898 0.754006Z" fill="#FCF4E7"/>
<path d="M6.61076 5.77133C6.65228 5.76993 6.69376 5.77032 6.73522 5.77248C6.7767 5.77464 6.81801 5.77858 6.85915 5.78431C6.90028 5.79004 6.94109 5.79751 6.98159 5.80674C7.02205 5.81596 7.06205 5.8269 7.10159 5.83956C7.14113 5.85222 7.18004 5.86657 7.21833 5.8826C7.25662 5.8986 7.29416 5.91622 7.33096 5.93547C7.36771 5.95471 7.40358 5.9755 7.43855 5.99783C7.47352 6.02013 7.50745 6.04391 7.54034 6.06916C7.89584 6.34638 8.07548 6.78234 8.12842 7.21925C8.21613 7.94312 7.96837 8.71451 7.51826 9.28354C7.13076 9.77337 6.64286 10.0704 6.01589 10.1454C5.67419 10.1468 5.32789 10.0414 5.06154 9.82423C4.70418 9.53299 4.52176 9.0788 4.47649 8.63015C4.40319 7.90452 4.65325 7.13614 5.12032 6.57789C5.51222 6.10943 5.99414 5.82716 6.61076 5.77133Z" fill="#35342F"/>
<path d="M6.45017 6.29078C6.68318 6.27226 6.88457 6.283 7.0965 6.39174C7.34756 6.52052 7.5011 6.74821 7.57975 7.01354C7.73971 7.55295 7.62042 8.14569 7.35173 8.63027C7.07518 9.12898 6.69779 9.4635 6.14431 9.62248C5.93286 9.64181 5.74349 9.6273 5.55087 9.53144C5.28946 9.40128 5.13027 9.17736 5.0438 8.90334C4.87762 8.37672 4.97995 7.78173 5.23647 7.30078C5.50627 6.79497 5.90157 6.45944 6.45017 6.29078Z" fill="#C5BCAF"/>
<path d="M18.8868 8.49851C19.3285 8.44751 19.7147 8.50963 20.0815 8.77473C20.5862 9.13945 20.8857 9.75062 20.9744 10.3554C21.0699 11.0067 20.9501 11.7321 20.5442 12.264C20.2905 12.5965 19.9284 12.8364 19.5103 12.8955C19.2251 12.9542 18.8928 12.8832 18.6358 12.7556C18.1403 12.5098 17.7943 12.0195 17.6196 11.5062C17.396 10.8491 17.4162 10.0763 17.7347 9.45217C17.9868 8.95814 18.3688 8.66938 18.8868 8.49851Z" fill="#35342F"/>
<path d="M18.8926 9.02348C19.2002 8.97996 19.4422 8.98941 19.7158 9.15102C20.1015 9.37885 20.3358 9.81304 20.4424 10.2349C20.5744 10.7575 20.5183 11.3682 20.2299 11.8304C20.061 12.1011 19.8213 12.298 19.5085 12.3738C19.3593 12.4197 19.1777 12.4017 19.0299 12.3591C18.6618 12.2531 18.3899 11.9589 18.2165 11.6294C17.9525 11.1276 17.8846 10.4981 18.0642 9.95786C18.2127 9.51135 18.4809 9.23237 18.8926 9.02348Z" fill="#C5BCAF"/>
<path d="M9.92481 17.8397C10.2919 17.803 10.662 17.8591 10.9832 18.047C11.2657 18.2123 11.4955 18.477 11.576 18.7978C11.6431 19.0658 11.5901 19.3624 11.4422 19.5949C11.2334 19.9233 10.8841 20.0758 10.517 20.1582C10.1238 20.2169 9.71111 20.1582 9.36927 19.9487C9.09138 19.7783 8.86737 19.5118 8.79422 19.1904C8.79049 19.1739 8.78718 19.1574 8.78431 19.1409C8.78144 19.1243 8.77896 19.1077 8.77688 19.091C8.77484 19.0743 8.77323 19.0576 8.77204 19.0408C8.77083 19.024 8.77007 19.0072 8.76975 18.9904C8.76939 18.9736 8.76947 18.9568 8.76999 18.94C8.77046 18.9232 8.77139 18.9064 8.77276 18.8896C8.7741 18.8729 8.77589 18.8561 8.77813 18.8395C8.7803 18.8228 8.78292 18.8062 8.78598 18.7897C8.78902 18.7731 8.79248 18.7567 8.79638 18.7403C8.80024 18.7239 8.80454 18.7077 8.80927 18.6915C8.81396 18.6753 8.81907 18.6593 8.8246 18.6435C8.83012 18.6276 8.83603 18.6118 8.84232 18.5962C8.84864 18.5806 8.85535 18.5652 8.86244 18.5499C8.86956 18.5347 8.87705 18.5196 8.88491 18.5047C8.89276 18.4898 8.901 18.4752 8.90963 18.4607C8.91822 18.4462 8.92718 18.432 8.9365 18.418C9.1639 18.0711 9.53559 17.9235 9.92481 17.8397Z" fill="#35342F"/>
<path d="M9.89807 18.3296C10.1422 18.3006 10.3608 18.3011 10.592 18.3953C10.8047 18.482 11.0088 18.6359 11.0964 18.8544C11.1484 18.9841 11.1505 19.1256 11.0915 19.2533C10.9837 19.4865 10.747 19.5927 10.5193 19.6758C10.256 19.7183 10.0011 19.7129 9.75402 19.6037C9.55215 19.5145 9.36671 19.3594 9.28666 19.1495C9.23383 19.0108 9.2344 18.8596 9.30252 18.7262C9.41749 18.501 9.67181 18.402 9.89807 18.3296Z" fill="#C5BCAF"/>
<path d="M13.3011 2.2272C13.5859 2.20273 13.9076 2.27291 14.1537 2.41768C14.3699 2.54483 14.5515 2.73893 14.6117 2.987C14.6173 3.0099 14.6217 3.03304 14.625 3.05642C14.6283 3.07977 14.6304 3.10323 14.6313 3.1268C14.6322 3.15037 14.6319 3.17394 14.6305 3.19751C14.629 3.22105 14.6264 3.24446 14.6225 3.26774C14.6187 3.291 14.6137 3.31401 14.6075 3.33679C14.6013 3.35956 14.594 3.38197 14.5856 3.40401C14.5772 3.42606 14.5676 3.44762 14.557 3.46871C14.5464 3.4898 14.5347 3.5103 14.522 3.53022C14.3325 3.83182 14.0106 3.92071 13.684 3.99099C13.3151 4.0053 12.9642 3.95525 12.6552 3.73954C12.4606 3.60365 12.3043 3.40244 12.2688 3.16373C12.2654 3.14067 12.2631 3.11749 12.262 3.09421C12.2609 3.07093 12.261 3.04766 12.2622 3.0244C12.2634 3.00112 12.2658 2.97796 12.2694 2.95493C12.273 2.93187 12.2777 2.90906 12.2836 2.88651C12.2894 2.86393 12.2964 2.84171 12.3045 2.81986C12.3126 2.79797 12.3218 2.77656 12.332 2.75563C12.3423 2.73467 12.3536 2.71428 12.3659 2.69446C12.3782 2.67465 12.3914 2.65548 12.4057 2.63697C12.6206 2.35703 12.9685 2.26962 13.3011 2.2272Z" fill="#35342F"/>
<path d="M13.1135 2.71654C13.3454 2.69483 13.5419 2.68372 13.767 2.76306C13.9162 2.81569 14.1053 2.9062 14.1736 3.05789C14.1985 3.11309 14.201 3.17455 14.176 3.23118C14.1087 3.38329 13.9394 3.44952 13.798 3.51303C13.5867 3.54838 13.3861 3.54757 13.1821 3.47944C13.018 3.42466 12.8129 3.32747 12.735 3.16333C12.7084 3.10727 12.7034 3.04243 12.7303 2.98441C12.7971 2.84074 12.9778 2.7737 13.1135 2.71654Z" fill="#C5BCAF"/>
<path d="M4.55598 14.459C4.75545 14.4375 4.9406 14.4451 5.12652 14.5272C5.14351 14.5349 5.16029 14.543 5.17687 14.5514C5.19344 14.5599 5.20979 14.5688 5.22592 14.5781C5.24208 14.5873 5.25798 14.597 5.27363 14.607C5.28931 14.6171 5.30472 14.6275 5.31986 14.6383C5.33503 14.6491 5.34991 14.6602 5.36451 14.6718C5.3791 14.6833 5.39341 14.6952 5.40743 14.7074C5.42145 14.7196 5.43517 14.7322 5.44858 14.7451C5.46199 14.758 5.47507 14.7712 5.48781 14.7847C5.50056 14.7983 5.51296 14.8121 5.52503 14.8262C5.53711 14.8404 5.54883 14.8548 5.5602 14.8695C5.57153 14.8842 5.58252 14.8992 5.59315 14.9144C5.60376 14.9297 5.61399 14.9452 5.62386 14.961C5.63373 14.9767 5.6432 14.9927 5.65227 15.0089C5.66134 15.0251 5.66999 15.0415 5.67823 15.0581C5.6865 15.0748 5.69436 15.0916 5.7018 15.1086C5.70924 15.1256 5.71625 15.1428 5.72283 15.1602C5.82132 15.4156 5.83009 15.7126 5.71296 15.9638C5.58908 16.2294 5.38784 16.3631 5.11866 16.4583C5.07574 16.4663 5.03247 16.4712 4.98884 16.4732C4.94519 16.4752 4.90162 16.4741 4.85816 16.4701C4.81466 16.4661 4.77166 16.4591 4.72915 16.4491C4.68665 16.4391 4.64504 16.4263 4.60432 16.4106C4.32973 16.3061 4.11234 16.0869 3.99574 15.8196C3.88077 15.5561 3.85955 15.2581 3.97021 14.9894C4.08547 14.7096 4.2859 14.5737 4.55598 14.459Z" fill="#35342F"/>
<path d="M4.58767 14.9154C4.64702 14.9078 4.70868 14.8993 4.7686 14.9022C4.92913 14.91 5.07447 15.0056 5.17924 15.1218C5.29541 15.2507 5.36338 15.4281 5.34748 15.602C5.3299 15.7942 5.24252 15.8949 5.09689 16.0117C5.03931 16.0203 4.98355 16.0268 4.9253 16.0234C4.76688 16.0142 4.61502 15.9229 4.5126 15.8055C4.49814 15.7889 4.48455 15.7716 4.47184 15.7536C4.45913 15.7356 4.44736 15.7171 4.43653 15.6979C4.42567 15.6788 4.41582 15.6591 4.40697 15.639C4.39813 15.6189 4.3903 15.5983 4.3835 15.5774C4.37673 15.5565 4.37102 15.5352 4.36635 15.5137C4.36172 15.4923 4.35816 15.4706 4.35567 15.4488C4.35321 15.4269 4.35185 15.405 4.3516 15.383C4.35137 15.361 4.35224 15.339 4.35418 15.3172C4.37066 15.1381 4.45387 15.0282 4.58767 14.9154Z" fill="#C5BCAF"/>
<path d="M3.50817 10.5194C3.64704 10.5124 3.77591 10.5209 3.90257 10.582C4.10621 10.6801 4.24963 10.8571 4.32269 11.0684C4.3284 11.0851 4.3337 11.102 4.33859 11.119C4.34348 11.136 4.34795 11.1531 4.352 11.1703C4.35606 11.1876 4.3597 11.2049 4.36293 11.2222C4.36615 11.2396 4.36893 11.2571 4.37126 11.2746C4.37363 11.2922 4.37556 11.3097 4.37706 11.3274C4.37856 11.345 4.37963 11.3626 4.38027 11.3803C4.38091 11.398 4.38111 11.4156 4.38089 11.4333C4.38067 11.451 4.38001 11.4687 4.37893 11.4863C4.37784 11.504 4.37632 11.5216 4.37438 11.5392C4.37243 11.5568 4.37005 11.5743 4.36724 11.5917C4.36446 11.6092 4.36123 11.6266 4.35756 11.6439C4.35392 11.6612 4.34985 11.6784 4.34534 11.6955C4.34087 11.7126 4.33597 11.7296 4.33064 11.7465C4.3253 11.7634 4.31957 11.7801 4.31344 11.7967C4.30731 11.8133 4.30076 11.8297 4.2938 11.846C4.28687 11.8623 4.27954 11.8783 4.27181 11.8943C4.14989 12.1397 3.97682 12.2707 3.7201 12.3566C3.58831 12.3592 3.45825 12.3516 3.33739 12.2949C3.12963 12.1975 2.97988 12.022 2.90276 11.8081C2.89691 11.7918 2.89147 11.7755 2.88642 11.759C2.88141 11.7425 2.87678 11.7259 2.87253 11.7092C2.86832 11.6925 2.8645 11.6757 2.86108 11.6588C2.8577 11.6418 2.85471 11.6249 2.85212 11.6078C2.84957 11.5908 2.84743 11.5737 2.8457 11.5565C2.84395 11.5394 2.84262 11.5222 2.84173 11.505C2.84083 11.4878 2.84037 11.4706 2.84034 11.4533C2.84028 11.4361 2.84064 11.4188 2.84144 11.4016C2.84224 11.3844 2.84345 11.3672 2.84508 11.35C2.84671 11.3329 2.84877 11.3158 2.85126 11.2987C2.85372 11.2816 2.85661 11.2646 2.85993 11.2477C2.86322 11.2308 2.86694 11.214 2.87109 11.1972C2.87521 11.1805 2.87975 11.1639 2.8847 11.1473C2.88965 11.1308 2.895 11.1144 2.90075 11.0982C2.90649 11.0819 2.91262 11.0658 2.91914 11.0498C2.92569 11.0339 2.93262 11.0181 2.93993 11.0025C3.06333 10.7447 3.24412 10.6135 3.50817 10.5194Z" fill="#35342F"/>
<path d="M3.51268 10.9644C3.62305 10.9589 3.7054 10.9691 3.79301 11.044C3.89107 11.1277 3.93357 11.2514 3.9373 11.3768C3.94415 11.6083 3.87474 11.7417 3.71771 11.9049C3.60849 11.9112 3.53294 11.9091 3.44518 11.8334C3.34382 11.7461 3.3019 11.6248 3.29826 11.4946C3.29194 11.2685 3.35895 11.1244 3.51268 10.9644Z" fill="#C5BCAF"/>
<path d="M21.1865 14.0429C21.3624 14.0068 21.5213 13.9968 21.6827 14.0887C21.851 14.1845 21.9643 14.3453 22.0143 14.5304C22.0761 14.759 22.0478 15.0196 21.9232 15.2232C21.8174 15.3962 21.6815 15.4965 21.4856 15.5452C21.3918 15.5867 21.2698 15.5809 21.1702 15.5602C21.0406 15.5333 20.9287 15.4272 20.8599 15.3188C20.8436 15.2927 20.8286 15.2659 20.8149 15.2383C20.8012 15.2107 20.7889 15.1825 20.7781 15.1538C20.7672 15.125 20.7578 15.0957 20.7498 15.066C20.7418 15.0363 20.7353 15.0063 20.7303 14.9759C20.7252 14.9456 20.7217 14.9151 20.7198 14.8844C20.7177 14.8537 20.7173 14.823 20.7183 14.7922C20.7193 14.7615 20.7219 14.7309 20.726 14.7004C20.73 14.6699 20.7356 14.6397 20.7427 14.6097C20.8096 14.3352 20.9498 14.1871 21.1865 14.0429Z" fill="#35342F"/>
<path d="M21.2731 14.502C21.3244 14.4902 21.3777 14.4884 21.43 14.4841C21.4843 14.516 21.5198 14.5297 21.5538 14.5841C21.6104 14.6745 21.612 14.7569 21.5892 14.8576C21.5608 14.983 21.5061 15.0271 21.4009 15.093C21.362 15.1102 21.3115 15.1164 21.2709 15.1004C21.2158 15.0786 21.1988 15.0481 21.1819 14.9928C21.1269 14.8121 21.1892 14.6592 21.2731 14.502Z" fill="#C5BCAF"/>
<path d="M17.9857 19.1277C18.0326 19.1176 18.0852 19.1041 18.1334 19.104C18.2244 19.1038 18.2814 19.1306 18.346 19.192C18.3697 19.2802 18.3754 19.325 18.3354 19.4129C18.2627 19.5724 18.1151 19.6469 17.9603 19.7097L17.9057 19.7434C17.8234 19.7381 17.7793 19.7392 17.7194 19.6735C17.6638 19.6128 17.6566 19.5349 17.6567 19.4569C17.7044 19.3207 17.8696 19.2406 17.9713 19.1419L17.9857 19.1277Z" fill="#35342F"/>
</svg>
