<svg width="24" height="24" viewBox="0 0 24 24" fill="none" xmlns="http://www.w3.org/2000/svg">
<g clip-path="url(#clip0_2342_1627)">
<path d="M10.133 23.5803C10.0725 23.3356 10.058 23.081 10.0902 22.8305L10.4658 19.9185C10.5834 19.0076 10.9838 18.1623 11.6053 17.5124L15.0122 13.9491C10.2537 12.7924 5.25565 13.4762 0.941609 15.874C0.361664 16.1963 0 16.8264 0 17.5124V21.6218C0 22.7029 0.838888 23.5803 1.87252 23.5803H10.133Z" fill="#F3F3F1"/>
<path fill-rule="evenodd" clip-rule="evenodd" d="M10.5995 0.0786133C9.10962 0.0786133 7.68077 0.697628 6.62728 1.79948C5.57378 2.90133 4.98193 4.39577 4.98193 5.95402C4.98193 7.51228 5.57378 9.00671 6.62728 10.1086C7.68077 11.2104 9.10962 11.8294 10.5995 11.8294C12.0894 11.8294 13.5182 11.2104 14.5717 10.1086C15.6252 9.00671 16.217 7.51228 16.217 5.95402C16.217 4.39577 15.6252 2.90133 14.5717 1.79948C13.5182 0.697628 12.0894 0.0786133 10.5995 0.0786133Z" fill="#F3F3F1"/>
<path fill-rule="evenodd" clip-rule="evenodd" d="M12.3616 18.3048C11.9058 18.7804 11.6126 19.4015 11.527 20.0685L11.1503 22.9794C11.1337 23.1075 11.1456 23.2379 11.1852 23.3604C11.2247 23.4829 11.2907 23.5943 11.3781 23.6857C11.4655 23.7771 11.572 23.8462 11.6891 23.8875C11.8062 23.9288 11.9309 23.9413 12.0534 23.9239L14.8365 23.53C15.4748 23.4399 16.0673 23.1332 16.5229 22.6571L23.1056 15.7722C23.3789 15.4864 23.5957 15.1471 23.7436 14.7737C23.8916 14.4003 23.9677 14.0001 23.9678 13.5959C23.9678 13.1917 23.8918 12.7914 23.7439 12.418C23.5961 12.0445 23.3793 11.7052 23.1061 11.4194C22.8329 11.1335 22.5085 10.9068 22.1515 10.752C21.7944 10.5973 21.4118 10.5176 21.0253 10.5176C20.6389 10.5175 20.2562 10.5971 19.8991 10.7517C19.5421 10.9064 19.2176 11.133 18.9443 11.4188L12.3616 18.3048Z" fill="#2FDF84"/>
<path fill-rule="evenodd" clip-rule="evenodd" d="M4.97555 5.95412C4.97536 5.07069 5.16565 4.19858 5.53226 3.4027C5.89887 2.60682 6.43235 1.90764 7.09303 1.35721C7.7537 0.80678 8.52454 0.419258 9.3482 0.223481C10.1719 0.0277044 11.0271 0.0287139 11.8504 0.226435C10.6116 0.524849 9.50617 1.25371 8.71458 2.29401C7.92299 3.33431 7.492 4.62458 7.492 5.95412C7.492 7.28366 7.92299 8.57393 8.71458 9.61423C9.50617 10.6545 10.6116 11.3834 11.8504 11.6818C11.0271 11.8795 10.1719 11.8805 9.3482 11.6848C8.52454 11.489 7.7537 11.1015 7.09303 10.551C6.43235 10.0006 5.89887 9.30143 5.53226 8.50554C5.16565 7.70966 4.97536 6.83755 4.97555 5.95412ZM11.7701 13.4467C8.01486 13.1864 4.26469 14.0274 0.941609 15.8752C0.361664 16.1964 0 16.8264 0 17.5124V21.6219C0 22.703 0.838888 23.5803 1.87252 23.5803H4.54754C4.05092 23.5803 3.57464 23.374 3.22347 23.0067C2.87231 22.6394 2.67503 22.1413 2.67503 21.6219V17.5124C2.67503 16.8264 3.03669 16.1964 3.61664 15.8741C6.13986 14.4712 8.91879 13.6439 11.7701 13.4467Z" fill="#D6DBE1"/>
<path fill-rule="evenodd" clip-rule="evenodd" d="M10.5995 1.7573C9.53533 1.7573 8.51473 2.19946 7.76223 2.98649C7.00973 3.77353 6.58699 4.84098 6.58699 5.95402C6.58699 7.06706 7.00973 8.13452 7.76223 8.92155C8.51473 9.70859 9.53533 10.1507 10.5995 10.1507C11.6637 10.1507 12.6843 9.70859 13.4368 8.92155C14.1893 8.13452 14.6121 7.06706 14.6121 5.95402C14.6121 4.84098 14.1893 3.77353 13.4368 2.98649C12.6843 2.19946 11.6637 1.7573 10.5995 1.7573ZM4.98197 5.95402C4.98197 5.18245 5.12727 4.41844 5.40958 3.7056C5.69189 2.99276 6.10567 2.34506 6.62731 1.79948C7.14895 1.2539 7.76823 0.821119 8.44978 0.525852C9.13133 0.230585 9.86182 0.0786133 10.5995 0.0786133C11.3372 0.0786133 12.0677 0.230585 12.7493 0.525852C13.4308 0.821119 14.0501 1.2539 14.5717 1.79948C15.0934 2.34506 15.5072 2.99276 15.7895 3.7056C16.0718 4.41844 16.2171 5.18245 16.2171 5.95402C16.2171 7.51228 15.6252 9.00671 14.5717 10.1086C13.5182 11.2104 12.0894 11.8294 10.5995 11.8294C9.10966 11.8294 7.68081 11.2104 6.62731 10.1086C5.57382 9.00671 4.98197 7.51228 4.98197 5.95402ZM11.9713 15.1454C8.41395 14.8368 4.84681 15.6045 1.6949 17.3568C1.66769 17.3719 1.64495 17.3944 1.62911 17.4221C1.61327 17.4497 1.60494 17.4813 1.60502 17.5135V21.6207C1.60502 21.7762 1.72486 21.9004 1.87252 21.9004H8.56008V23.5791H1.87252C1.37608 23.5791 0.899961 23.3729 0.548826 23.0059C0.197692 22.6389 0.000283679 22.141 0 21.6218V17.5146C0 16.8274 0.361664 16.1974 0.941609 15.8751C4.36528 13.9717 8.23998 13.1381 12.104 13.4734L12.9033 13.5428L12.7706 15.2159L11.9713 15.1465V15.1454ZM11.5272 20.0684C11.6134 19.4008 11.9066 18.7812 12.3618 18.3047L18.9445 11.4198C19.4964 10.8425 20.2448 10.5182 21.0253 10.5181C21.8058 10.5179 22.5544 10.8421 23.1063 11.4193C23.6583 11.9964 23.9684 12.7793 23.9685 13.5956C23.9686 14.4119 23.6587 15.1948 23.1069 15.7721L16.5231 22.657C16.0683 23.1326 15.4745 23.4404 14.8368 23.5299L12.0537 23.9238C11.9312 23.9412 11.8065 23.9287 11.6893 23.8874C11.5722 23.8461 11.4658 23.777 11.3783 23.6856C11.2909 23.5942 11.2249 23.4829 11.1854 23.3603C11.1459 23.2378 11.134 23.1074 11.1506 22.9793L11.5272 20.0684ZM13.4971 19.491C13.2899 19.7077 13.1564 19.9896 13.1173 20.2934L12.8819 22.1131L14.6217 21.8669C14.9121 21.8259 15.1817 21.6863 15.3889 21.4696L21.9705 14.5847C22.2092 14.32 22.3398 13.9683 22.3347 13.6045C22.3296 13.2407 22.1891 12.8932 21.9431 12.6359C21.6971 12.3786 21.3649 12.2317 21.017 12.2264C20.6691 12.221 20.333 12.3576 20.0798 12.6072L13.4971 19.491Z" fill="#141414"/>
</g>
<defs>
<clipPath id="clip0_2342_1627">
<rect width="24" height="24" fill="white"/>
</clipPath>
</defs>
</svg>
