<svg width="24" height="24" viewBox="0 0 24 24" fill="none" xmlns="http://www.w3.org/2000/svg">
<path d="M16.6915 14.5265C11.4514 13.0263 5.83774 13.6258 1.02702 16.1995C0.422439 16.5218 0.0454102 17.1539 0.0454102 17.8422V21.9651C0.0454102 23.0498 0.918822 23.93 1.99748 23.93H10.1872C10.0628 23.667 9.99802 23.3793 9.99762 23.0879V19.0054C9.99762 17.9197 10.8721 17.0405 11.9497 17.0405H15.2961C15.7735 17.0405 16.2331 17.2157 16.59 17.5334L17.8907 18.6899C18.2387 18.3957 18.5633 18.0802 18.8611 17.7456L17.3474 16.3915C17.1411 16.2071 16.976 15.9808 16.8629 15.7274C16.7499 15.4741 16.6915 15.1995 16.6915 14.9218V14.5265Z" fill="#F3F3F1"/>
<path fill-rule="evenodd" clip-rule="evenodd" d="M11.0203 0.0703125C9.46711 0.0703125 7.97756 0.691363 6.87931 1.79684C5.78105 2.90232 5.16406 4.40167 5.16406 5.96505C5.16406 7.52843 5.78105 9.02778 6.87931 10.1333C7.97756 11.2387 9.46711 11.8598 11.0203 11.8598C12.5734 11.8598 14.063 11.2387 15.1612 10.1333C16.2595 9.02778 16.8765 7.52843 16.8765 5.96505C16.8765 4.40167 16.2595 2.90232 15.1612 1.79684C14.063 0.691363 12.5734 0.0703125 11.0203 0.0703125Z" fill="#F3F3F1"/>
<path fill-rule="evenodd" clip-rule="evenodd" d="M23.1055 11.0176C23.3274 11.0176 23.5402 11.1063 23.6971 11.2642C23.854 11.4221 23.9421 11.6363 23.9421 11.8597C23.9407 14.003 23.3399 16.1026 22.2087 17.9184C21.1929 19.5471 19.819 20.9193 18.193 21.929C16.3244 23.092 14.2019 23.778 12.01 23.9276C11.8954 23.9358 11.7804 23.9201 11.6722 23.8816C11.5639 23.8431 11.4647 23.7826 11.3806 23.7038C11.2966 23.625 11.2296 23.5297 11.1838 23.4237C11.1379 23.3177 11.1143 23.2033 11.1143 23.0878V19.0052C11.1143 18.7819 11.2024 18.5677 11.3593 18.4098C11.5162 18.2518 11.729 18.1631 11.9509 18.1631H15.2973C15.5015 18.163 15.6986 18.2381 15.8517 18.3742L17.8405 20.1449C18.8265 19.4505 19.6905 18.5955 20.3972 17.6152L18.0882 15.5515C17.9999 15.4726 17.9292 15.3757 17.8808 15.2674C17.8323 15.159 17.8072 15.0415 17.8071 14.9227V11.8597C17.8071 11.6363 17.8952 11.4221 18.0521 11.2642C18.209 11.1063 18.4218 11.0176 18.6437 11.0176H23.1055Z" fill="#2EDF84"/>
<path fill-rule="evenodd" clip-rule="evenodd" d="M22.2087 17.9184C22.2991 17.7724 22.3872 17.6242 22.4708 17.4748L20.318 15.5515C20.2299 15.4725 20.1594 15.3756 20.1112 15.2672C20.0629 15.1589 20.038 15.0415 20.038 14.9227V11.8597C20.038 11.6363 20.1261 11.4221 20.283 11.2642C20.4399 11.1063 20.6527 11.0176 20.8746 11.0176H18.6437C18.4218 11.0176 18.209 11.1063 18.0521 11.2642C17.8952 11.4221 17.8071 11.6363 17.8071 11.8597V14.9216C17.807 15.0406 17.8321 15.1583 17.8805 15.2669C17.929 15.3754 17.9997 15.4724 18.0882 15.5515L20.3972 17.6152C19.9864 18.187 19.5205 18.7165 19.0062 19.1961L20.0715 20.1449C20.581 19.7849 21.0593 19.3823 21.5015 18.9412C21.7547 18.6122 21.9912 18.2698 22.2087 17.9184ZM13.6252 23.7165C13.5371 23.6375 13.4666 23.5406 13.4184 23.4323C13.3701 23.3239 13.3452 23.2065 13.3452 23.0878V19.0052C13.3452 18.7819 13.4333 18.5677 13.5902 18.4098C13.7471 18.2518 13.9599 18.1631 14.1818 18.1631H11.9509C11.729 18.1631 11.5162 18.2518 11.3593 18.4098C11.2024 18.5677 11.1143 18.7819 11.1143 19.0052V23.0878C11.1143 23.2033 11.1379 23.3177 11.1838 23.4237C11.2296 23.5297 11.2966 23.625 11.3806 23.7038C11.4647 23.7826 11.5639 23.8431 11.6722 23.8816C11.7804 23.9201 11.8954 23.9358 12.01 23.9276C12.5577 23.8883 13.0976 23.8176 13.6252 23.7165Z" fill="#2FDF84"/>
<path fill-rule="evenodd" clip-rule="evenodd" d="M5.16429 5.96493C5.16413 5.0713 5.36581 4.18934 5.75409 3.38571C6.14237 2.58209 6.70709 1.87784 7.40554 1.32621C8.104 0.77459 8.91791 0.390032 9.78573 0.201613C10.6536 0.0131932 11.5526 0.0258458 12.4148 0.238614C11.1424 0.553636 10.0117 1.28895 9.20329 2.32701C8.39493 3.36508 7.95564 4.64597 7.95564 5.96493C7.95564 7.28389 8.39493 8.56478 9.20329 9.60285C10.0117 10.6409 11.1424 11.3762 12.4148 11.6912C11.5526 11.904 10.6536 11.9167 9.78573 11.7282C8.91791 11.5398 8.104 11.1553 7.40554 10.6036C6.70709 10.052 6.14237 9.34777 5.75409 8.54415C5.36581 7.74052 5.16413 6.85856 5.16429 5.96493ZM2.83408 17.842C2.83408 17.1537 3.21111 16.5216 3.81569 16.1982C6.44612 14.7908 9.34311 13.9607 12.3156 13.7628C8.40078 13.5017 4.49128 14.3455 1.02702 16.1993C0.422439 16.5216 0.0454102 17.1537 0.0454102 17.842V21.9649C0.0454102 23.0496 0.918822 23.9298 1.99748 23.9298H4.78615C4.26843 23.9298 3.77191 23.7228 3.40583 23.3543C3.03974 22.9858 2.83408 22.4861 2.83408 21.9649V17.842Z" fill="#D6DBE1"/>
<path fill-rule="evenodd" clip-rule="evenodd" d="M11.0204 1.75452C10.4711 1.75452 9.92718 1.86343 9.41967 2.07503C8.91217 2.28663 8.45104 2.59677 8.06261 2.98776C7.67418 3.37874 7.36606 3.84291 7.15585 4.35375C6.94563 4.86459 6.83743 5.41212 6.83743 5.96505C6.83743 6.51798 6.94563 7.0655 7.15585 7.57635C7.36606 8.08719 7.67418 8.55136 8.06261 8.94234C8.45104 9.33332 8.91217 9.64347 9.41967 9.85507C9.92718 10.0667 10.4711 10.1756 11.0204 10.1756C12.1298 10.1756 13.1938 9.73197 13.9783 8.94234C14.7627 8.15271 15.2034 7.08175 15.2034 5.96505C15.2034 4.84835 14.7627 3.77738 13.9783 2.98776C13.1938 2.19813 12.1298 1.75452 11.0204 1.75452ZM5.16423 5.96505C5.16423 4.40167 5.78122 2.90232 6.87948 1.79684C7.97773 0.691363 9.46728 0.0703125 11.0204 0.0703125C12.5736 0.0703125 14.0632 0.691363 15.1614 1.79684C16.2597 2.90232 16.8767 4.40167 16.8767 5.96505C16.8767 7.52843 16.2597 9.02778 15.1614 10.1333C14.0632 11.2387 12.5736 11.8598 11.0204 11.8598C9.46728 11.8598 7.97773 11.2387 6.87948 10.1333C5.78122 9.02778 5.16423 7.52843 5.16423 5.96505ZM13.6072 15.5875C9.5581 15.0205 5.43451 15.7549 1.82452 17.686C1.79616 17.7012 1.77245 17.7238 1.75594 17.7515C1.73942 17.7792 1.73074 17.8109 1.73082 17.8432V21.9639C1.73082 22.12 1.85575 22.2446 2.00969 22.2446H8.42363V23.9288H2.00969C1.49197 23.9288 0.995449 23.7218 0.629365 23.3533C0.263281 22.9848 0.0576172 22.4851 0.0576172 21.9639V17.8432C0.0576172 17.1538 0.435761 16.5217 1.03923 16.1983C4.96025 14.1009 9.43906 13.3032 13.837 13.919L14.6658 14.0347L14.436 15.7032L13.6072 15.5875Z" fill="#141414"/>
<path fill-rule="evenodd" clip-rule="evenodd" d="M23.9421 11.8597C23.9421 11.6363 23.854 11.4221 23.6971 11.2642C23.5402 11.1063 23.3274 11.0176 23.1055 11.0176H18.6437C18.4218 11.0176 18.209 11.1063 18.0521 11.2642C17.8952 11.4221 17.8071 11.6363 17.8071 11.8597V14.9216C17.807 15.0406 17.8321 15.1583 17.8805 15.2669C17.929 15.3754 17.9997 15.4724 18.0882 15.5515L20.3972 17.6152C19.6905 18.5955 18.8265 19.4505 17.8405 20.1449L15.8517 18.3742C15.6986 18.2381 15.5015 18.163 15.2973 18.1631H11.9509C11.729 18.1631 11.5162 18.2518 11.3593 18.4098C11.2024 18.5677 11.1143 18.7819 11.1143 19.0052V23.0878C11.1143 23.2032 11.1379 23.3175 11.1837 23.4234C11.2294 23.5293 11.2963 23.6246 11.3802 23.7034C11.4642 23.7821 11.5633 23.8427 11.6714 23.8813C11.7795 23.9198 11.8944 23.9356 12.0089 23.9276C16.3558 23.62 20.1217 21.2946 22.2087 17.9184C23.3399 16.1026 23.9407 14.003 23.9421 11.8597ZM16.3291 21.0476C15.2135 21.6005 14.0183 21.973 12.7875 22.1513V19.8473H14.9805L16.3291 21.0476ZM21.2751 16.1477L19.4792 14.5432V12.7018H22.2321C22.1282 13.9002 21.8037 15.0687 21.2751 16.1477Z" fill="#141414"/>
</svg>
