<svg width="24" height="24" viewBox="0 0 24 24" fill="none" xmlns="http://www.w3.org/2000/svg">
<path d="M12.0002 22.7664C17.9463 22.7664 22.7666 17.9461 22.7666 12C22.7666 6.0539 17.9463 1.23364 12.0002 1.23364C6.05415 1.23364 1.23389 6.0539 1.23389 12C1.23389 17.9461 6.05415 22.7664 12.0002 22.7664Z" fill="#F93332"/>
<path d="M4.82267 12C4.82267 6.66627 8.70494 2.25126 13.7946 1.39474C13.2021 1.29088 12.6018 1.23699 12.0002 1.23364C10.5864 1.23364 9.18637 1.51212 7.88014 2.05318C6.5739 2.59424 5.38703 3.38729 4.38728 4.38704C3.38753 5.38678 2.59449 6.57366 2.05343 7.87989C1.51237 9.18613 1.23389 10.5861 1.23389 12C1.23389 13.4139 1.51237 14.8139 2.05343 16.1201C2.59449 17.4263 3.38753 18.6132 4.38728 19.613C5.38703 20.6127 6.5739 21.4058 7.88014 21.9468C9.18637 22.4879 10.5864 22.7664 12.0002 22.7664C12.6127 22.7664 13.2093 22.7026 13.7946 22.6053C8.70494 21.7487 4.82267 17.3337 4.82267 12Z" fill="#F93332"/>
<path d="M10.8037 7.61365H13.1962V16.3862H10.8037V7.61365Z" fill="#141414"/>
<path d="M7.61377 10.8037H16.3864V13.1962H7.61377V10.8037Z" fill="#141414"/>
<path d="M12.0002 23.9626C5.40323 23.9626 0.0375977 18.597 0.0375977 12C0.0375977 5.40299 5.40323 0.0373535 12.0002 0.0373535C18.5972 0.0373535 23.9628 5.40299 23.9628 12C23.9628 18.597 18.5972 23.9626 12.0002 23.9626ZM12.0002 2.42988C6.72231 2.42988 2.43012 6.72206 2.43012 12C2.43012 17.2779 6.72231 21.5701 12.0002 21.5701C17.2781 21.5701 21.5703 17.2779 21.5703 12C21.5703 6.72206 17.2781 2.42988 12.0002 2.42988Z" fill="#141414"/>
</svg>
