<svg width="40" height="40" viewBox="0 0 40 40" fill="none" xmlns="http://www.w3.org/2000/svg">
<path d="M35.3702 9.30772C35.3702 16.9933 39.3513 22.2711 39.3513 25.9744C39.3513 29.6777 37.2224 37.4555 20.1857 37.4555C3.14906 37.4555 0.647949 26.9922 0.647949 22.9188C0.647949 3.84439 35.3702 -4.30339 35.3702 9.30772Z" fill="#FED259"/>
<path d="M23.0557 10.8333H28.0557C28.589 10.8333 29.0446 11.211 29.1446 11.7221L32.4779 27.8333C32.489 27.911 32.5001 27.9777 32.5001 28.0555C32.5001 28.6666 32.0001 29.1666 31.389 29.1666H26.389L23.0557 10.8333Z" fill="#2FDF84"/>
<path d="M28.0556 28.0555C28.0556 28.6666 27.5556 29.1666 26.9444 29.1666H8.61111C8 29.1666 7.5 28.6666 7.5 28.0555C7.5 27.9777 7.51111 27.911 7.52222 27.8333L10.8556 11.7221C10.9556 11.211 11.4111 10.8333 11.9444 10.8333H23.6111C24.1444 10.8333 24.6 11.211 24.7 11.7221L28.0333 27.8333C28.0444 27.911 28.0556 27.9777 28.0556 28.0555Z" fill="#F6F4E9"/>
<path d="M10 28.0555C10 27.9777 10.0111 27.911 10.0222 27.8333L13.3556 11.7221C13.4556 11.211 13.9111 10.8333 14.4444 10.8333H11.9444C11.4111 10.8333 10.9556 11.211 10.8556 11.7221L7.52222 27.8333C7.51111 27.911 7.5 27.9777 7.5 28.0555C7.5 28.6666 8 29.1666 8.61111 29.1666H11.1111C10.5 29.1666 10 28.6666 10 28.0555Z" fill="#F6F4E9"/>
<path d="M24.7222 10.8333L28.0555 29.1666H30.2777L26.9444 10.8333H24.7222Z" fill="#00B871"/>
<path d="M26.9448 30H8.61149C8.32885 29.9995 8.0497 29.9375 7.79344 29.8183C7.53717 29.6991 7.30995 29.5255 7.12756 29.3096C6.94516 29.0937 6.81197 28.8406 6.73724 28.568C6.66251 28.2954 6.64804 28.0099 6.69482 27.7311L10.0393 11.5533C10.1288 11.1143 10.3675 10.7197 10.7148 10.4365C11.0621 10.1534 11.4967 9.99918 11.9448 10H23.6115C24.5393 10 25.3415 10.6567 25.5182 11.5622L28.8493 27.6644C28.877 27.8433 28.8893 27.9422 28.8893 28.0556C28.8893 29.1278 28.017 30 26.9448 30ZM11.9448 11.6667C11.882 11.6663 11.8209 11.6874 11.7717 11.7263C11.7224 11.7653 11.6878 11.8199 11.6737 11.8811L8.33816 28.0022C8.33371 28.2067 8.46038 28.3333 8.61149 28.3333H26.9448C27.0959 28.3333 27.2226 28.2067 27.2226 28.0556C27.2226 28.0267 27.2159 28.0022 27.2126 27.9733L23.8848 11.89C23.8724 11.8267 23.8384 11.7696 23.7885 11.7287C23.7386 11.6877 23.676 11.6654 23.6115 11.6656H11.9448V11.6667Z" fill="#141414"/>
<path d="M31.3891 30H26.3891V28.3333H31.3891C31.5402 28.3333 31.6668 28.2067 31.6668 28.0556L28.3291 11.8911C28.3167 11.8278 28.2826 11.7707 28.2327 11.7298C28.1828 11.6888 28.1203 11.6665 28.0557 11.6667H23.0557V10H28.0557C28.9835 10 29.7857 10.6567 29.9624 11.5622L33.2935 27.6644C33.3213 27.8433 33.3335 27.9422 33.3335 28.0556C33.3335 29.1278 32.4613 30 31.3891 30ZM17.7779 20C15.3268 20 13.3335 18.0067 13.3335 15.5556V13.0556H15.0002V15.5556C15.0002 17.0867 16.2468 18.3333 17.7779 18.3333C19.3091 18.3333 20.5557 17.0867 20.5557 15.5556V13.0556H22.2224V15.5556C22.2224 18.0067 20.2291 20 17.7779 20Z" fill="#141414"/>
</svg>
