<svg width="80" height="80" viewBox="0 0 80 80" fill="none" xmlns="http://www.w3.org/2000/svg">
<g clip-path="url(#clip0_2381_1402)">
<path d="M39.9998 77.1426C60.5132 77.1426 77.1426 60.5132 77.1426 39.9998C77.1426 19.4864 60.5132 2.85693 39.9998 2.85693C19.4864 2.85693 2.85693 19.4864 2.85693 39.9998C2.85693 60.5132 19.4864 77.1426 39.9998 77.1426Z" fill="#2FDF84"/>
<path d="M39.9999 79.619C18.1533 79.619 0.380859 61.8465 0.380859 39.9999C0.380859 18.1533 18.1533 0.380859 39.9999 0.380859C61.8465 0.380859 79.619 18.1533 79.619 39.9999C79.619 61.8465 61.8465 79.619 39.9999 79.619ZM39.9999 5.33324C20.8837 5.33324 5.33324 20.8837 5.33324 39.9999C5.33324 59.1161 20.8837 74.6666 39.9999 74.6666C59.1161 74.6666 74.6666 59.1161 74.6666 39.9999C74.6666 20.8837 59.1161 5.33324 39.9999 5.33324Z" fill="black"/>
<path d="M36.2857 53.2063C35.9604 53.2071 35.6383 53.1433 35.3379 53.0186C35.0375 52.8939 34.7649 52.7108 34.5358 52.4799L23.8057 41.7497L27.3086 38.2468L36.289 47.2271L55.9994 27.5166L59.5024 31.0196L38.0421 52.4799C37.8114 52.7104 37.5375 52.8932 37.2361 53.0178C36.9348 53.1424 36.6118 53.2065 36.2857 53.2063Z" fill="black"/>
</g>
<defs>
<clipPath id="clip0_2381_1402">
<rect width="80" height="80" fill="white"/>
</clipPath>
</defs>
</svg>
