<svg width="24" height="24" viewBox="0 0 24 24" fill="none" xmlns="http://www.w3.org/2000/svg">
<path d="M11.499 5.93735C11.5046 5.93679 11.5102 5.93614 11.5159 5.93562C11.5645 5.93164 11.6132 5.92825 11.662 5.92546C11.7108 5.92266 11.7595 5.92046 11.8083 5.91884C11.8572 5.91723 11.906 5.9162 11.9548 5.91577C12.0037 5.91534 12.0525 5.91548 12.1013 5.9162C12.1501 5.91695 12.199 5.91828 12.2477 5.92018C12.2965 5.92208 12.3453 5.92458 12.394 5.92766C12.4428 5.93075 12.4915 5.93442 12.5401 5.93869C12.5888 5.94296 12.6374 5.94781 12.6859 5.95326C12.7344 5.95868 12.7829 5.96469 12.8313 5.97129C12.8796 5.9779 12.9279 5.98508 12.9761 5.99283C13.0244 6.00061 13.0725 6.00896 13.1205 6.01787C13.1685 6.0268 13.2164 6.03632 13.2641 6.04641C13.3119 6.05647 13.3595 6.06712 13.407 6.07837C13.4546 6.08958 13.502 6.10137 13.5492 6.11374C13.5964 6.12611 13.6434 6.13905 13.6903 6.15257C13.7373 6.16606 13.784 6.18013 13.8306 6.19478C13.8772 6.20939 13.9235 6.22457 13.9697 6.24031C14.0159 6.25608 14.0619 6.2724 14.1077 6.28926C14.1535 6.3061 14.1991 6.3235 14.2445 6.34146C14.2899 6.35942 14.335 6.37793 14.38 6.39698C14.4249 6.41601 14.4696 6.43558 14.514 6.45571C14.5585 6.47583 14.6027 6.49648 14.6466 6.51767C14.6905 6.53886 14.7342 6.56058 14.7776 6.58284C14.8211 6.60507 14.8642 6.62783 14.907 6.65112C14.9499 6.67442 14.9925 6.69821 15.0348 6.72252C15.077 6.74682 15.119 6.77163 15.1607 6.79694C15.2024 6.82225 15.2437 6.84807 15.2848 6.87439C15.3258 6.90071 15.3665 6.92752 15.407 6.95482C15.4474 6.98212 15.4874 7.0099 15.5271 7.03815C15.5668 7.06643 15.6062 7.09517 15.6452 7.12438C15.6842 7.15358 15.7229 7.18326 15.7612 7.21341C15.7995 7.24357 15.8374 7.27417 15.875 7.30522C15.9132 7.3367 15.9511 7.36864 15.9886 7.40105C16.0261 7.43345 16.0632 7.46631 16.0998 7.49964C16.1365 7.53294 16.1728 7.5667 16.2086 7.60092C16.2444 7.63511 16.2798 7.66975 16.3148 7.70483C16.3498 7.73989 16.3843 7.77537 16.4184 7.81129C16.4525 7.84719 16.4862 7.88351 16.5194 7.92027C16.5526 7.957 16.5853 7.99413 16.6176 8.03166C16.6499 8.0692 16.6817 8.10712 16.7131 8.14544C16.7444 8.18378 16.7753 8.22248 16.8056 8.26154C16.8361 8.30061 16.866 8.34004 16.8954 8.37986C16.9248 8.41967 16.9537 8.45983 16.9821 8.50033C17.0105 8.54084 17.0384 8.58169 17.0659 8.62288C17.0933 8.66408 17.1202 8.70561 17.1466 8.74747C17.1729 8.78933 17.1988 8.83149 17.2241 8.87395C17.2495 8.91645 17.2743 8.95924 17.2986 9.00234C17.3229 9.04544 17.3466 9.08883 17.3698 9.13251C17.393 9.17618 17.4157 9.22013 17.4378 9.26435C17.4599 9.30858 17.4815 9.35308 17.5025 9.39785C17.5235 9.44259 17.544 9.48759 17.5639 9.53285C17.5838 9.57811 17.6031 9.62361 17.6219 9.66933C17.6407 9.71508 17.6589 9.76103 17.6766 9.80719C17.6942 9.85337 17.7112 9.89976 17.7277 9.94634C17.7443 9.99296 17.7602 10.0397 17.7755 10.0867C17.7909 10.1337 17.8056 10.1809 17.8198 10.2282C17.834 10.2756 17.8475 10.3231 17.8605 10.3708C17.8735 10.4184 17.8859 10.4663 17.8977 10.5143C17.9096 10.5622 17.9208 10.6103 17.9314 10.6586C17.942 10.7069 17.9521 10.7552 17.9615 10.8037C17.9709 10.8522 17.9797 10.9009 17.988 10.9496C17.9962 10.9983 18.0038 11.0471 18.0108 11.096C18.0178 11.1449 18.0242 11.1939 18.03 11.2429C18.0359 11.292 18.0411 11.3411 18.0456 11.3903C18.0507 11.4405 18.0552 11.4908 18.059 11.5412C18.0629 11.5915 18.0661 11.6419 18.0687 11.6923C18.0713 11.7427 18.0732 11.7931 18.0746 11.8436C18.0759 11.894 18.0766 11.9445 18.0767 11.995C18.0769 12.0455 18.0763 12.0959 18.0752 12.1464C18.074 12.1969 18.0722 12.2473 18.0698 12.2977C18.0674 12.3482 18.0644 12.3985 18.0607 12.4489C18.0571 12.4992 18.0528 12.5495 18.048 12.5997C18.0431 12.65 18.0375 12.7002 18.0314 12.7503C18.0252 12.8004 18.0185 12.8504 18.0111 12.9003C18.0037 12.9503 17.9957 13.0001 17.9871 13.0499C17.9785 13.0996 17.9693 13.1493 17.9595 13.1988C17.9496 13.2483 17.9392 13.2977 17.9281 13.3469C17.9171 13.3962 17.9054 13.4453 17.8931 13.4943C17.8808 13.5433 17.868 13.5921 17.8545 13.6408C17.841 13.6894 17.8269 13.7379 17.8122 13.7863C17.7975 13.8346 17.7823 13.8827 17.7664 13.9306C17.7505 13.9786 17.734 14.0263 17.717 14.0739C17.6999 14.1214 17.6823 14.1687 17.664 14.2158C17.6458 14.2629 17.627 14.3098 17.6076 14.3565C17.5882 14.4031 17.5683 14.4495 17.5477 14.4957C17.5272 14.5418 17.5061 14.5878 17.4844 14.6334C17.4627 14.679 17.4405 14.7244 17.4177 14.7695C17.3949 14.8146 17.3715 14.8594 17.3477 14.9039C17.3237 14.9484 17.2993 14.9927 17.2743 15.0366C17.2493 15.0805 17.2237 15.1241 17.1976 15.1674C17.1716 15.2107 17.1449 15.2537 17.1178 15.2964C17.0906 15.339 17.063 15.3813 17.0348 15.4233C17.0066 15.4652 16.9779 15.5069 16.9487 15.5482C16.9194 15.5894 16.8897 15.6303 16.8595 15.6708C16.8292 15.7114 16.7985 15.7516 16.7673 15.7914C16.736 15.8311 16.7043 15.8705 16.6721 15.9095C15.5875 17.2201 14.0855 17.9346 12.4016 18.0947C12.3946 18.0955 12.3876 18.0964 12.3806 18.0971C10.9141 18.2521 9.27878 17.6524 8.15095 16.7392C8.11205 16.7076 8.07355 16.6754 8.03543 16.6429C7.99734 16.6103 7.95966 16.5772 7.92239 16.5437C7.88509 16.5102 7.84822 16.4762 7.81178 16.4418C7.77535 16.4074 7.73935 16.3725 7.70378 16.3372C7.66819 16.3019 7.63306 16.2661 7.59839 16.23C7.56369 16.1938 7.52946 16.1572 7.49569 16.1202C7.4619 16.0832 7.42858 16.0457 7.39574 16.0079C7.3629 15.9701 7.33052 15.9319 7.2986 15.8932C7.26669 15.8546 7.23527 15.8156 7.20435 15.7762C7.17342 15.7368 7.14298 15.697 7.11304 15.6569C7.0831 15.6168 7.05365 15.5763 7.02469 15.5354C6.99576 15.4946 6.96733 15.4533 6.93939 15.4118C6.91148 15.3702 6.88408 15.3283 6.85721 15.2861C6.83035 15.2438 6.804 15.2013 6.77817 15.1584C6.75235 15.1155 6.72706 15.0723 6.7023 15.0288C6.67755 14.9853 6.65333 14.9415 6.62965 14.8974C6.606 14.8533 6.5829 14.8089 6.56034 14.7642C6.53777 14.7196 6.51575 14.6747 6.4943 14.6295C6.47285 14.5843 6.45197 14.5388 6.43165 14.4931C6.41133 14.4473 6.39159 14.4014 6.37243 14.3552C6.35324 14.309 6.33463 14.2626 6.31661 14.2159C6.29858 14.1692 6.28113 14.1224 6.26426 14.0753C6.24742 14.0282 6.23114 13.9809 6.21543 13.9334C6.19975 13.8859 6.18466 13.8382 6.17017 13.7904C6.15565 13.7425 6.14174 13.6945 6.12843 13.6463C6.1151 13.5981 6.10237 13.5497 6.09026 13.5012C6.07814 13.4527 6.06663 13.4041 6.05574 13.3553C6.04484 13.3064 6.03453 13.2575 6.02482 13.2085C6.01514 13.1594 6.00607 13.1103 5.99761 13.061C5.98911 13.0118 5.98124 12.9624 5.974 12.9129C5.96675 12.8634 5.96013 12.8139 5.95413 12.7642C5.9481 12.7146 5.94269 12.6649 5.93791 12.6152C5.93266 12.5653 5.92804 12.5153 5.92404 12.4652C5.92004 12.4151 5.91666 12.365 5.91391 12.3149C5.91116 12.2648 5.90903 12.2146 5.90752 12.1644C5.90601 12.1143 5.90513 12.0641 5.90487 12.0138C5.90461 11.9636 5.90497 11.9134 5.90595 11.8632C5.90694 11.813 5.90855 11.7629 5.91078 11.7127C5.91301 11.6625 5.91587 11.6124 5.91935 11.5623C5.92282 11.5122 5.92691 11.4622 5.93161 11.4122C5.93633 11.3622 5.94168 11.3123 5.94765 11.2624C5.95359 11.2126 5.96017 11.1628 5.96739 11.1131C5.97458 11.0634 5.98239 11.0138 5.99082 10.9643C5.99926 10.9148 6.0083 10.8654 6.01795 10.8161C6.02761 10.7668 6.03787 10.7177 6.04874 10.6686C6.05964 10.6196 6.07113 10.5707 6.08321 10.522C6.0953 10.4732 6.108 10.4247 6.1213 10.3762C6.1346 10.3278 6.14851 10.2795 6.163 10.2314C6.17749 10.1833 6.19258 10.1354 6.20826 10.0877C6.22397 10.04 6.24026 9.99244 6.25713 9.94513C6.274 9.8978 6.29145 9.85069 6.30947 9.80381C6.3275 9.75691 6.34613 9.71024 6.36535 9.66379C6.38453 9.61735 6.4043 9.57117 6.42465 9.52524C6.445 9.47929 6.46591 9.43359 6.48739 9.38816C6.50887 9.3427 6.53091 9.29752 6.55352 9.25264C6.57613 9.20775 6.59929 9.16314 6.623 9.1188C6.64671 9.07449 6.67097 9.03047 6.69578 8.98673C6.72059 8.943 6.74594 8.89958 6.77182 8.85648C6.79771 8.81339 6.82413 8.7706 6.85108 8.72814C6.87801 8.68567 6.90548 8.64355 6.93348 8.60178C6.96148 8.56001 6.98998 8.51858 7.019 8.4775C7.04801 8.43642 7.07755 8.3957 7.1076 8.35534C7.13763 8.31498 7.16816 8.27501 7.19917 8.23542C7.23021 8.19581 7.26174 8.15659 7.29374 8.11776C8.34413 6.84481 9.86195 6.10029 11.499 5.93735Z" fill="#FFEA94"/>
<path d="M11.8313 5.09984C11.8459 5.09832 11.8606 5.09651 11.8753 5.09581C13.6328 5.00963 15.4644 5.79393 16.7324 6.9756C16.7729 7.01371 16.813 7.05231 16.8525 7.0914C16.8921 7.13049 16.9313 7.17006 16.9699 7.21011C17.0085 7.25015 17.0466 7.29064 17.0842 7.33158C17.1219 7.37254 17.159 7.41395 17.1956 7.45581C17.2322 7.49767 17.2683 7.53996 17.3039 7.58269C17.3395 7.62541 17.3746 7.66857 17.4091 7.71216C17.4436 7.75575 17.4776 7.79974 17.5111 7.84414C17.5445 7.88853 17.5774 7.93333 17.6098 7.97854C17.6421 8.02374 17.6739 8.06932 17.7052 8.11527C17.7364 8.16126 17.7671 8.2076 17.7972 8.2543C17.8273 8.301 17.8568 8.34807 17.8858 8.39549C17.9147 8.44291 17.9431 8.49068 17.9709 8.5388C17.9987 8.58691 18.0259 8.63536 18.0525 8.68414C18.0791 8.73292 18.1051 8.782 18.1305 8.83138C18.1559 8.88079 18.1807 8.93049 18.2049 8.98048C18.2291 9.03047 18.2526 9.08075 18.2756 9.13132C18.2985 9.18191 18.3209 9.23275 18.3426 9.28384C18.3643 9.33495 18.3854 9.38632 18.4058 9.43795C18.4263 9.48959 18.4461 9.54145 18.4653 9.59354C18.4845 9.64564 18.503 9.69796 18.5209 9.75052C18.5389 9.80307 18.5561 9.85583 18.5727 9.90879C18.5893 9.96175 18.6053 10.0149 18.6206 10.0683C18.6359 10.1216 18.6506 10.1751 18.6646 10.2288C18.6786 10.2825 18.6919 10.3364 18.7046 10.3905C18.7173 10.4445 18.7294 10.4987 18.7407 10.553C18.7521 10.6073 18.7628 10.6618 18.7728 10.7164C18.7828 10.7709 18.7922 10.8256 18.8009 10.8804C18.8096 10.9352 18.8176 10.9901 18.825 11.0451C18.8323 11.1001 18.839 11.1552 18.845 11.2104C18.851 11.2656 18.8563 11.3208 18.861 11.3761C18.8656 11.4314 18.8696 11.4867 18.8729 11.5421C18.8762 11.5975 18.8788 11.6529 18.8808 11.7084C18.8831 11.7659 18.8848 11.8234 18.8858 11.8809C18.8867 11.9385 18.8869 11.9961 18.8865 12.0537C18.886 12.1112 18.8848 12.1687 18.8829 12.2263C18.881 12.2838 18.8784 12.3413 18.875 12.3988C18.8717 12.4562 18.8677 12.5136 18.8629 12.571C18.8581 12.6284 18.8527 12.6857 18.8465 12.7429C18.8403 12.8002 18.8334 12.8573 18.8259 12.9144C18.8183 12.9714 18.81 13.0284 18.8009 13.0853C18.7919 13.1421 18.7822 13.1989 18.7718 13.2555C18.7614 13.3121 18.7503 13.3686 18.7385 13.4249C18.7267 13.4813 18.7142 13.5375 18.7009 13.5935C18.6877 13.6496 18.6738 13.7055 18.6592 13.7612C18.6446 13.8169 18.6294 13.8724 18.6134 13.9277C18.5974 13.983 18.5808 14.0382 18.5634 14.0931C18.5461 14.148 18.5281 14.2027 18.5094 14.2572C18.4907 14.3116 18.4713 14.3659 18.4513 14.4199C18.4313 14.4739 18.4106 14.5276 18.3892 14.5811C18.3678 14.6346 18.3458 14.6879 18.3231 14.7408C18.3004 14.7937 18.2771 14.8464 18.2531 14.8988C18.2291 14.9512 18.2044 15.0033 18.1792 15.055C18.1539 15.1068 18.1279 15.1583 18.1014 15.2094C18.0748 15.2606 18.0476 15.3114 18.0198 15.3618C17.9919 15.4123 17.9635 15.4624 17.9345 15.5122C17.9054 15.562 17.8757 15.6114 17.8454 15.6604C17.8151 15.7095 17.7842 15.7581 17.7527 15.8064C17.7212 15.8547 17.6891 15.9026 17.6564 15.9501C17.6238 15.9976 17.5905 16.0447 17.5566 16.0914C17.5228 16.1381 17.4883 16.1844 17.4533 16.2302C17.4183 16.2761 17.3828 16.3215 17.3466 16.3664C17.3105 16.4114 17.2738 16.4559 17.2366 16.5C17.1994 16.544 17.1616 16.5876 17.1233 16.6308C17.085 16.6739 17.0461 16.7166 17.0068 16.7588C16.9684 16.7997 16.9295 16.8401 16.8901 16.88C16.8508 16.92 16.8109 16.9594 16.7705 16.9983C16.7302 17.0373 16.6893 17.0757 16.648 17.1137C16.6067 17.1517 16.5649 17.1891 16.5227 17.226C16.4804 17.2629 16.4377 17.2994 16.3946 17.3353C16.3514 17.3711 16.3079 17.4065 16.2639 17.4413C16.2198 17.4761 16.1754 17.5104 16.1305 17.5441C16.0856 17.5778 16.0403 17.611 15.9946 17.6436C15.949 17.6762 15.9029 17.7083 15.8564 17.7397C15.8099 17.7712 15.763 17.8021 15.7158 17.8325C15.6685 17.8628 15.6209 17.8925 15.5729 17.9217C15.5249 17.9508 15.4765 17.9794 15.4279 18.0074C15.3791 18.0354 15.3301 18.0628 15.2807 18.0895C15.2313 18.1163 15.1816 18.1425 15.1316 18.168C15.0816 18.1936 15.0312 18.2185 14.9806 18.2428C14.93 18.2671 14.879 18.2908 14.8278 18.3139C14.7765 18.337 14.725 18.3594 14.6732 18.3812C14.6214 18.403 14.5694 18.4242 14.5171 18.4447C14.4648 18.4652 14.4122 18.4851 14.3594 18.5044C14.3066 18.5236 14.2535 18.5422 14.2002 18.5601C14.147 18.578 14.0935 18.5953 14.0398 18.612C13.9861 18.6286 13.9322 18.6446 13.8781 18.6598C13.824 18.6751 13.7698 18.6898 13.7153 18.7038C13.6608 18.7177 13.6062 18.731 13.5514 18.7437C13.4966 18.7563 13.4417 18.7683 13.3866 18.7795C13.3315 18.7908 13.2763 18.8014 13.221 18.8114C13.1656 18.8213 13.1102 18.8305 13.0546 18.8391C12.999 18.8477 12.9434 18.8556 12.8876 18.8627C12.8318 18.8699 12.776 18.8765 12.72 18.8823C12.6641 18.8881 12.6081 18.8933 12.552 18.8978C12.496 18.9022 12.4399 18.906 12.3837 18.909C12.3275 18.9121 12.2714 18.9145 12.2152 18.9162C10.5075 18.9333 8.88246 18.4302 7.56716 17.327C7.5235 17.2905 7.48032 17.2534 7.43759 17.2158C7.39487 17.1782 7.35262 17.1401 7.31085 17.1015C7.26905 17.0628 7.22775 17.0237 7.18694 16.9841C7.14613 16.9444 7.10581 16.9043 7.06598 16.8636C7.02619 16.823 6.98688 16.7819 6.94807 16.7403C6.90929 16.6987 6.87101 16.6566 6.83324 16.6141C6.79548 16.5716 6.75826 16.5286 6.72159 16.4852C6.6849 16.4417 6.64874 16.3978 6.61311 16.3535C6.57752 16.3092 6.54248 16.2644 6.50798 16.2192C6.47349 16.174 6.43956 16.1284 6.4062 16.0824C6.37284 16.0364 6.34006 15.9899 6.30785 15.9431C6.27562 15.8963 6.244 15.8491 6.21298 15.8015C6.18194 15.7539 6.15149 15.7059 6.12163 15.6575C6.09178 15.6092 6.06252 15.5605 6.03385 15.5114C6.00522 15.4623 5.97719 15.4129 5.94976 15.3632C5.92234 15.3134 5.89555 15.2633 5.86937 15.2129C5.8432 15.1625 5.81765 15.1118 5.79272 15.0607C5.76779 15.0097 5.74352 14.9583 5.7199 14.9067C5.69624 14.8551 5.67323 14.8032 5.65085 14.751C5.6285 14.6988 5.60679 14.6463 5.58572 14.5936C5.56465 14.5409 5.54424 14.4879 5.5245 14.4346C5.50476 14.3814 5.48568 14.3279 5.46724 14.2742C5.44884 14.2205 5.43108 14.1666 5.41398 14.1125C5.39691 14.0584 5.38051 14.004 5.36477 13.9495C5.34903 13.8949 5.33395 13.8402 5.31955 13.7853C5.30517 13.7304 5.29147 13.6753 5.27846 13.6201C5.26545 13.5649 5.25311 13.5095 5.24146 13.4539C5.22981 13.3984 5.21885 13.3427 5.20859 13.2869C5.19833 13.231 5.18877 13.1751 5.1799 13.1191C5.17103 13.063 5.16284 13.0069 5.15533 12.9506C5.14785 12.8944 5.14107 12.838 5.13498 12.7816C5.1289 12.7252 5.1235 12.6687 5.11881 12.6122C5.11365 12.5551 5.10922 12.498 5.10551 12.4409C5.10177 12.3838 5.09874 12.3266 5.09642 12.2693C5.09413 12.2121 5.09253 12.1549 5.09163 12.0976C5.09076 12.0404 5.09059 11.9831 5.09111 11.9258C5.09167 11.8686 5.09291 11.8113 5.09485 11.7541C5.09682 11.6968 5.09949 11.6396 5.10285 11.5825C5.10624 11.5253 5.11035 11.4682 5.11516 11.4111C5.11994 11.354 5.12545 11.2971 5.13168 11.2401C5.13788 11.1832 5.14479 11.1263 5.15242 11.0696C5.16004 11.0128 5.16837 10.9561 5.17742 10.8996C5.18646 10.843 5.1962 10.7866 5.20664 10.7303C5.21707 10.6739 5.22821 10.6178 5.24007 10.5617C5.2519 10.5057 5.26442 10.4498 5.27764 10.3941C5.29085 10.3383 5.30477 10.2827 5.31938 10.2274C5.33398 10.172 5.34927 10.1167 5.36524 10.0617C5.38124 10.0067 5.39791 9.95189 5.41524 9.89728C5.43258 9.84268 5.45059 9.7883 5.46929 9.73413C5.48795 9.67996 5.50732 9.62603 5.52738 9.57235C5.5474 9.51865 5.56809 9.46521 5.58942 9.41205C5.61078 9.35886 5.63281 9.30595 5.6555 9.2533C5.67817 9.20066 5.70149 9.14831 5.72546 9.09625C5.74943 9.04418 5.77404 8.99242 5.79929 8.94096C5.82456 8.8895 5.85046 8.83836 5.87698 8.78753C5.90351 8.73671 5.93066 8.68621 5.95846 8.63605C5.98626 8.58589 6.01466 8.53607 6.04368 8.4866C6.07269 8.43716 6.10233 8.38807 6.13259 8.33932C6.16282 8.2906 6.19366 8.24225 6.22511 8.19428C6.25656 8.14631 6.28859 8.09873 6.3212 8.05153C6.35384 8.00434 6.38706 7.95757 6.42085 7.91121C6.45465 7.86485 6.48901 7.8189 6.52394 7.77335C6.55887 7.72783 6.59436 7.68274 6.63042 7.63808C6.66645 7.59346 6.70304 7.54926 6.7402 7.5055C8.0589 5.96898 9.84051 5.25439 11.8313 5.09984ZM12.4015 18.0946C14.0854 17.9345 15.5874 17.22 16.672 15.9094C16.7042 15.8704 16.7359 15.831 16.7672 15.7913C16.7984 15.7515 16.8291 15.7113 16.8594 15.6707C16.8896 15.6302 16.9193 15.5893 16.9486 15.5481C16.9778 15.5068 17.0065 15.4651 17.0347 15.4232C17.0629 15.3812 17.0905 15.3389 17.1177 15.2962C17.1448 15.2536 17.1715 15.2106 17.1975 15.1673C17.2236 15.124 17.2492 15.0804 17.2742 15.0365C17.2992 14.9925 17.3236 14.9483 17.3476 14.9038C17.3714 14.8593 17.3948 14.8145 17.4176 14.7694C17.4404 14.7243 17.4626 14.6789 17.4843 14.6333C17.506 14.5876 17.5271 14.5417 17.5476 14.4956C17.5682 14.4494 17.5881 14.403 17.6075 14.3564C17.6269 14.3097 17.6457 14.2628 17.6639 14.2157C17.6822 14.1686 17.6998 14.1213 17.7169 14.0738C17.7339 14.0262 17.7504 13.9785 17.7663 13.9305C17.7822 13.8826 17.7974 13.8345 17.8121 13.7861C17.8268 13.7378 17.8409 13.6893 17.8544 13.6407C17.8679 13.592 17.8807 13.5432 17.893 13.4942C17.9053 13.4452 17.917 13.3961 17.928 13.3468C17.9391 13.2976 17.9495 13.2482 17.9594 13.1987C17.9692 13.1492 17.9784 13.0995 17.987 13.0498C17.9956 13 18.0036 12.9502 18.011 12.9002C18.0184 12.8503 18.0251 12.8003 18.0313 12.7502C18.0374 12.7001 18.043 12.6499 18.0479 12.5996C18.0527 12.5494 18.057 12.4991 18.0606 12.4488C18.0643 12.3984 18.0673 12.3481 18.0697 12.2976C18.0721 12.2472 18.0739 12.1968 18.0751 12.1463C18.0762 12.0958 18.0768 12.0454 18.0766 11.9949C18.0765 11.9444 18.0758 11.8939 18.0745 11.8435C18.0731 11.793 18.0712 11.7426 18.0686 11.6922C18.066 11.6418 18.0628 11.5914 18.0589 11.541C18.0551 11.4907 18.0506 11.4404 18.0455 11.3902C18.041 11.341 18.0358 11.2919 18.0299 11.2428C18.0241 11.1938 18.0177 11.1448 18.0107 11.0959C18.0037 11.047 17.9961 10.9982 17.9879 10.9495C17.9796 10.9008 17.9708 10.8521 17.9614 10.8036C17.952 10.7551 17.9419 10.7068 17.9313 10.6585C17.9207 10.6102 17.9095 10.5621 17.8976 10.5141C17.8858 10.4661 17.8734 10.4183 17.8604 10.3707C17.8474 10.323 17.8339 10.2755 17.8197 10.2281C17.8055 10.1808 17.7908 10.1336 17.7754 10.0866C17.7601 10.0396 17.7442 9.99285 17.7276 9.94624C17.7111 9.89965 17.6941 9.85326 17.6765 9.80708C17.6588 9.76092 17.6406 9.71497 17.6218 9.66922C17.603 9.6235 17.5837 9.578 17.5638 9.53274C17.5439 9.48748 17.5234 9.44248 17.5024 9.39774C17.4814 9.35297 17.4598 9.30847 17.4377 9.26425C17.4156 9.22002 17.3929 9.17607 17.3697 9.1324C17.3465 9.08872 17.3228 9.04533 17.2985 9.00223C17.2742 8.95914 17.2494 8.91634 17.224 8.87385C17.1987 8.83138 17.1728 8.78922 17.1465 8.74736C17.1201 8.7055 17.0932 8.66397 17.0658 8.62278C17.0383 8.58158 17.0104 8.54073 16.982 8.50022C16.9536 8.45972 16.9247 8.41956 16.8953 8.37975C16.8659 8.33994 16.836 8.3005 16.8056 8.26144C16.7752 8.22237 16.7443 8.18367 16.713 8.14533C16.6816 8.10701 16.6498 8.06909 16.6175 8.03155C16.5852 7.99402 16.5525 7.95689 16.5193 7.92016C16.4861 7.8834 16.4524 7.84708 16.4183 7.81119C16.3842 7.77527 16.3497 7.73978 16.3147 7.70472C16.2797 7.66964 16.2443 7.635 16.2085 7.60081C16.1726 7.56659 16.1364 7.53283 16.0997 7.49953C16.0631 7.46621 16.026 7.43334 15.9885 7.40094C15.951 7.36853 15.9131 7.33659 15.8749 7.30511C15.8373 7.27406 15.7994 7.24346 15.7611 7.21331C15.7228 7.18315 15.6841 7.15347 15.6451 7.12427C15.6061 7.09506 15.5667 7.06632 15.527 7.03804C15.4873 7.00979 15.4473 6.98201 15.4069 6.95471C15.3664 6.92741 15.3257 6.9006 15.2847 6.87428C15.2436 6.84796 15.2023 6.82214 15.1606 6.79683C15.1189 6.77152 15.0769 6.74671 15.0347 6.72241C14.9924 6.69811 14.9498 6.67431 14.9069 6.65101C14.8641 6.62772 14.821 6.60496 14.7775 6.58273C14.7341 6.56048 14.6904 6.53875 14.6465 6.51757C14.6026 6.49638 14.5584 6.47572 14.5139 6.4556C14.4695 6.43547 14.4248 6.4159 14.3799 6.39687C14.3349 6.37782 14.2898 6.35931 14.2444 6.34135C14.199 6.32339 14.1534 6.30599 14.1076 6.28915C14.0618 6.27229 14.0158 6.25597 13.9696 6.2402C13.9234 6.22446 13.8771 6.20928 13.8305 6.19467C13.7839 6.18002 13.7372 6.16595 13.6903 6.15246C13.6434 6.13894 13.5963 6.126 13.5491 6.11363C13.5019 6.10126 13.4545 6.08947 13.4069 6.07826C13.3594 6.06701 13.3118 6.05636 13.264 6.0463C13.2163 6.03621 13.1684 6.0267 13.1204 6.01776C13.0724 6.00885 13.0243 6.00051 12.976 5.99272C12.9278 5.98497 12.8795 5.97779 12.8312 5.97119C12.7828 5.96458 12.7343 5.95857 12.6858 5.95315C12.6373 5.94771 12.5887 5.94285 12.54 5.93858C12.4914 5.93431 12.4427 5.93064 12.3939 5.92755C12.3452 5.92447 12.2964 5.92198 12.2476 5.92007C12.1989 5.91817 12.15 5.91684 12.1012 5.91609C12.0524 5.91537 12.0036 5.91523 11.9547 5.91566C11.9059 5.91609 11.8571 5.91712 11.8082 5.91873C11.7594 5.92035 11.7106 5.92255 11.6619 5.92535C11.6131 5.92815 11.5644 5.93153 11.5158 5.93551C11.5101 5.93603 11.5045 5.93668 11.4989 5.93724C9.86185 6.10018 8.34403 6.8447 7.29363 8.11765C7.26163 8.15648 7.23011 8.19571 7.19907 8.23532C7.16806 8.2749 7.13753 8.31487 7.1075 8.35523C7.07745 8.39559 7.04791 8.43631 7.0189 8.47739C6.98988 8.51847 6.96138 8.5599 6.93338 8.60167C6.90538 8.64345 6.87791 8.68557 6.85098 8.72803C6.82403 8.7705 6.79761 8.81328 6.77172 8.85638C6.74584 8.89947 6.72049 8.94289 6.69568 8.98662C6.67087 9.03036 6.64661 9.07438 6.6229 9.11869C6.59918 9.16303 6.57603 9.20764 6.55342 9.25253C6.53081 9.29741 6.50877 9.34259 6.48729 9.38805C6.46581 9.43349 6.4449 9.47918 6.42455 9.52513C6.4042 9.57106 6.38443 9.61724 6.36524 9.66368C6.34603 9.71013 6.3274 9.7568 6.30937 9.80371C6.29134 9.85058 6.2739 9.89769 6.25703 9.94502C6.24016 9.99233 6.22387 10.0399 6.20816 10.0876C6.19247 10.1353 6.17739 10.1832 6.1629 10.2313C6.1484 10.2794 6.1345 10.3277 6.1212 10.3761C6.1079 10.4245 6.0952 10.4731 6.08311 10.5219C6.07103 10.5706 6.05954 10.6195 6.04864 10.6685C6.03777 10.7176 6.02751 10.7667 6.01785 10.816C6.0082 10.8653 5.99916 10.9147 5.99072 10.9642C5.98229 11.0137 5.97448 11.0633 5.96729 11.113C5.96007 11.1627 5.95349 11.2125 5.94755 11.2623C5.94158 11.3122 5.93623 11.3621 5.9315 11.4121C5.92681 11.4621 5.92272 11.5121 5.91924 11.5622C5.91577 11.6123 5.91291 11.6624 5.91068 11.7126C5.90845 11.7628 5.90684 11.8129 5.90585 11.8631C5.90487 11.9133 5.90451 11.9635 5.90477 12.0137C5.90503 12.064 5.90591 12.1142 5.90742 12.1644C5.90892 12.2145 5.91106 12.2647 5.91381 12.3148C5.91656 12.3649 5.91994 12.415 5.92394 12.4651C5.92794 12.5152 5.93256 12.5651 5.93781 12.6151C5.94259 12.6648 5.948 12.7145 5.95403 12.7641C5.96003 12.8138 5.96665 12.8633 5.97389 12.9128C5.98114 12.9623 5.98901 13.0116 5.9975 13.0609C6.00597 13.1102 6.01506 13.1593 6.02477 13.2084C6.03445 13.2574 6.04474 13.3063 6.05563 13.3551C6.06656 13.4039 6.07807 13.4526 6.09016 13.5011C6.10227 13.5496 6.115 13.598 6.12833 13.6462C6.14163 13.6944 6.15555 13.7424 6.17007 13.7903C6.18456 13.8381 6.19965 13.8858 6.21533 13.9333C6.23104 13.9808 6.24732 14.0281 6.26416 14.0751C6.28103 14.1222 6.29847 14.1691 6.3165 14.2158C6.33453 14.2624 6.35314 14.3089 6.37233 14.3551C6.39149 14.4013 6.41123 14.4472 6.43155 14.493C6.45187 14.5387 6.47275 14.5841 6.4942 14.6293C6.51565 14.6746 6.53766 14.7195 6.56024 14.7641C6.58279 14.8088 6.6059 14.8532 6.62955 14.8973C6.65323 14.9414 6.67745 14.9852 6.7022 15.0287C6.72695 15.0722 6.75224 15.1154 6.77807 15.1583C6.8039 15.2012 6.83024 15.2437 6.85711 15.286C6.88398 15.3282 6.91138 15.3701 6.93929 15.4117C6.96723 15.4532 6.99566 15.4944 7.02459 15.5353C7.05355 15.5762 7.083 15.6167 7.11294 15.6568C7.14288 15.6969 7.17332 15.7367 7.20424 15.7761C7.23517 15.8155 7.26659 15.8545 7.2985 15.8931C7.33042 15.9318 7.36279 15.97 7.39563 16.0078C7.42848 16.0456 7.46179 16.0831 7.49559 16.1201C7.52936 16.1571 7.56359 16.1937 7.59829 16.2299C7.63295 16.266 7.66808 16.3018 7.70368 16.3371C7.73924 16.3724 7.77524 16.4073 7.81168 16.4417C7.84811 16.4761 7.88498 16.5101 7.92229 16.5436C7.95956 16.5771 7.99724 16.6101 8.03533 16.6428C8.07345 16.6753 8.11195 16.7074 8.15085 16.7391C9.27868 17.6523 10.914 18.252 12.3805 18.097C12.3875 18.0962 12.3945 18.0954 12.4015 18.0946Z" fill="#141414"/>
<path d="M20.0625 3.43695C20.1839 3.43016 20.3285 3.45269 20.4328 3.51799C20.5006 3.5605 20.5456 3.62039 20.5616 3.69913C20.5931 3.85347 20.5103 4.01749 20.4233 4.13952C20.1803 4.48019 18.8085 5.85243 18.449 6.09183C18.3919 6.12984 18.3253 6.1432 18.2586 6.15431C18.2244 6.15704 18.19 6.15769 18.1559 6.15237C18.0595 6.13723 17.9135 6.08599 17.8543 6.00491C17.8107 5.94519 17.8094 5.8443 17.8251 5.7755C17.8579 5.63142 17.9355 5.50173 18.0253 5.38597C18.3445 4.97477 19.6411 3.71094 20.0625 3.43695Z" fill="#141414"/>
<path d="M20.7148 11.5838C21.1597 11.5398 23.5093 11.4796 23.8141 11.6663C23.8994 11.7185 23.9519 11.8281 23.9686 11.9235C23.9863 12.024 23.97 12.13 23.9058 12.212C23.8159 12.3269 23.6876 12.3601 23.5505 12.382C23.3196 12.4432 20.8662 12.4215 20.6771 12.3553C20.5735 12.319 20.4632 12.2233 20.4185 12.1232C20.3778 12.0317 20.3828 11.9286 20.4215 11.8376C20.4785 11.7039 20.586 11.6379 20.7148 11.5838Z" fill="#141414"/>
<path d="M5.67451 17.8347C5.68553 17.8366 5.69654 17.8386 5.70756 17.8406C5.86543 17.8701 6.0219 17.9274 6.11047 18.071C6.16242 18.1552 6.16929 18.2657 6.13977 18.359C6.05069 18.6405 4.22029 20.4236 3.89764 20.5894C3.83795 20.588 3.77808 20.5854 3.71969 20.5719C3.60599 20.5455 3.48638 20.4792 3.42825 20.3753C3.38369 20.2956 3.3839 20.1851 3.41221 20.0992C3.51729 19.7802 5.32564 18.0341 5.67451 17.8347Z" fill="#141414"/>
<path d="M18.1018 17.8571C18.2154 17.8444 18.3252 17.8425 18.4268 17.9017C18.7205 18.0727 20.5207 19.879 20.5804 20.1404C20.6003 20.2277 20.5785 20.3261 20.5277 20.3993C20.4516 20.509 20.3583 20.5501 20.231 20.5758C20.1917 20.5835 20.1468 20.5863 20.1072 20.5807C19.8644 20.5467 18.1251 18.7758 17.9089 18.475C17.8441 18.3849 17.791 18.3051 17.8149 18.1896C17.8471 18.0341 17.9794 17.9423 18.1018 17.8571Z" fill="#141414"/>
<path d="M0.36926 11.5768C0.896173 11.5693 2.9693 11.5115 3.29991 11.6215C3.41061 11.6584 3.5223 11.7243 3.56995 11.8356C3.61248 11.9349 3.59304 12.0664 3.54587 12.162C3.48943 12.2764 3.37061 12.3536 3.25217 12.3914C2.78426 12.401 0.58552 12.4638 0.298868 12.3571C0.183955 12.3143 0.0795638 12.2309 0.0337377 12.1151C-0.00308843 12.0219 0.00460716 11.912 0.0483463 11.8222C0.118477 11.6782 0.225912 11.6246 0.36926 11.5768Z" fill="#141414"/>
<path d="M1.28652 7.17627C1.33234 7.17943 1.3776 7.18475 1.4226 7.19387C1.85143 7.28075 4.03434 8.18868 4.21404 8.48269C4.2606 8.55884 4.27726 8.64896 4.24991 8.73497C4.19756 8.89964 4.04069 8.99037 3.89826 9.0682C3.74482 9.04693 3.59561 8.98881 3.45204 8.93281C2.99113 8.75305 1.10826 8.0628 0.944474 7.63149C0.919083 7.56468 0.920257 7.48334 0.958084 7.42111C1.02217 7.3156 1.16939 7.21333 1.28652 7.17627Z" fill="#141414"/>
<path d="M11.9569 20.4253C12.1002 20.4617 12.2485 20.4974 12.3308 20.6326C12.4652 20.8532 12.4578 23.4328 12.3655 23.742C12.3256 23.8756 12.1813 23.9369 12.0665 23.9946C12.0011 23.9874 11.9335 23.9746 11.8701 23.9572C11.7797 23.9325 11.6899 23.8737 11.6463 23.7895C11.5241 23.5539 11.5301 20.9344 11.6485 20.6443C11.6958 20.5283 11.8511 20.4739 11.9569 20.4253Z" fill="#141414"/>
<path d="M3.69891 3.42363C3.75495 3.42234 3.81226 3.42515 3.86734 3.43579C4.16391 3.49321 5.87512 5.25637 6.10056 5.59207C6.10717 5.60181 6.11324 5.61186 6.11878 5.62221C6.12431 5.63259 6.12927 5.64322 6.13365 5.65412C6.13802 5.66505 6.14182 5.67616 6.14504 5.68746C6.14823 5.69876 6.15081 5.71019 6.15278 5.72175C6.15475 5.73334 6.15609 5.745 6.15682 5.75674C6.15752 5.76844 6.1576 5.78016 6.15708 5.79189C6.15653 5.80363 6.15536 5.8153 6.15356 5.82692C6.15176 5.83851 6.14936 5.84998 6.14634 5.86134C6.10673 6.01101 5.97608 6.08772 5.85247 6.16305C5.80095 6.16396 5.74812 6.16469 5.69699 6.15726C5.40425 6.1147 3.7463 4.38839 3.49612 4.06778C3.42069 3.97114 3.37573 3.89179 3.39852 3.76448C3.4273 3.60366 3.56991 3.50402 3.69891 3.42363Z" fill="#141414"/>
<path d="M8.46762 19.7761C8.53997 19.7721 8.6124 19.7687 8.68436 19.7793C8.79457 19.7955 8.90214 19.8426 8.96536 19.9381C9.02588 20.0295 9.02483 20.1147 9.00614 20.2179C8.92357 20.674 8.1484 22.4764 7.88357 22.8729C7.8371 22.9425 7.77649 22.9913 7.70831 23.0387C7.68455 23.0403 7.66076 23.0413 7.63697 23.0416C7.50792 23.0429 7.35801 23.0134 7.26749 22.9146C7.20431 22.8457 7.1664 22.7367 7.1744 22.6442C7.21323 22.1944 8.02231 20.3957 8.28336 19.9725C8.3321 19.8934 8.39623 19.8345 8.46762 19.7761Z" fill="#141414"/>
<path d="M11.9177 0.0324707C11.9592 0.0389284 12.0005 0.0461643 12.0418 0.0541788C12.1598 0.0775734 12.259 0.116406 12.3254 0.224038C12.4634 0.44726 12.4624 2.97465 12.373 3.31783C12.3389 3.4486 12.2108 3.51048 12.1029 3.57379C12.0327 3.57445 11.9633 3.56723 11.8947 3.55213C11.8047 3.53254 11.7013 3.48912 11.6543 3.40601C11.5328 3.19087 11.5372 0.583001 11.6196 0.297509C11.6586 0.162244 11.8046 0.0968599 11.9177 0.0324707Z" fill="#141414"/>
<path d="M15.161 19.7893C15.2724 19.7687 15.4107 19.7482 15.5181 19.791C15.5818 19.8165 15.629 19.8567 15.6676 19.9123C15.8688 20.2021 15.987 20.5742 16.1266 20.8973C16.3094 21.3199 16.5034 21.7397 16.675 22.1668C16.7479 22.3483 16.884 22.6248 16.79 22.8134C16.7376 22.9185 16.6328 22.9756 16.5263 23.0127C16.4982 23.0296 16.5057 23.0286 16.4764 23.0345C16.3714 23.0559 16.2682 23.0359 16.1828 22.9696C15.9616 22.7976 14.9869 20.4749 14.9617 20.1454C14.9502 19.9956 15.0689 19.8926 15.161 19.7893Z" fill="#141414"/>
<path d="M16.2154 0.998832C16.349 0.968865 16.4632 0.963632 16.591 1.0179C16.6845 1.05764 16.7584 1.11991 16.7942 1.21751C16.8246 1.30019 16.817 1.36761 16.7974 1.45068C16.6817 1.94128 15.9959 3.50331 15.7457 3.9837C15.6738 4.12156 15.6262 4.15745 15.4792 4.20419C15.4545 4.2179 15.4377 4.2211 15.4093 4.22417C15.292 4.23689 15.189 4.21721 15.0988 4.13544C15.0892 4.1267 15.08 4.11751 15.0713 4.10785C15.0626 4.09819 15.0545 4.08813 15.0468 4.07766C15.0391 4.0672 15.032 4.05636 15.0255 4.04515C15.0189 4.03396 15.013 4.02247 15.0076 4.01068C15.0022 3.99889 14.9974 3.98685 14.9933 3.97457C14.9891 3.96229 14.9856 3.94984 14.9827 3.93721C14.9798 3.92455 14.9776 3.9118 14.976 3.89894C14.9744 3.88608 14.9734 3.87318 14.9732 3.86024C14.9663 3.53185 15.8498 1.55451 16.0582 1.1936C16.1004 1.12056 16.1561 1.05838 16.2154 0.998832Z" fill="#141414"/>
<path d="M19.9943 14.9731C20.1121 14.9566 20.2122 14.9739 20.3254 15.009C20.7016 15.1254 21.0697 15.315 21.4324 15.4701C21.8799 15.6614 22.3939 15.8336 22.8064 16.0875C22.9038 16.1475 22.9868 16.2241 23.0106 16.341C23.0306 16.4396 23.0213 16.574 22.9603 16.6574C22.886 16.7589 22.7712 16.7913 22.6533 16.8109C22.6319 16.8213 22.6159 16.8246 22.5918 16.8239C22.2772 16.8141 20.0324 15.81 19.8367 15.5932C19.7684 15.5176 19.7168 15.4187 19.7295 15.3143C19.7486 15.1574 19.8748 15.0587 19.9943 14.9731Z" fill="#141414"/>
<path d="M7.50113 0.953369C7.66148 0.981996 7.81013 1.0101 7.90753 1.15432C8.03818 1.34775 8.83992 3.23112 8.93357 3.50559C8.97666 3.63181 9.05344 3.83709 9.02022 3.96673C8.9864 4.09901 8.82235 4.18437 8.714 4.24677C8.64213 4.24003 8.568 4.23112 8.49774 4.2146C8.38644 4.1884 8.32196 4.11666 8.26587 4.02347C8.06148 3.6837 7.92566 3.27739 7.76983 2.91199C7.57753 2.461 7.33892 1.99151 7.20592 1.52024C7.18035 1.42974 7.16066 1.34468 7.188 1.25205C7.23452 1.09447 7.36766 1.02848 7.50113 0.953369Z" fill="#141414"/>
<path d="M3.79161 14.959C3.85317 14.9614 3.91652 14.9726 3.97387 14.9954C4.08282 15.0386 4.21234 15.0907 4.25665 15.208C4.28621 15.2863 4.27056 15.3724 4.23926 15.4475C4.17917 15.5918 4.05548 15.7026 3.92452 15.7834C3.67974 15.9344 3.39843 16.0024 3.13548 16.1137C2.56626 16.3547 2.00348 16.6101 1.43056 16.8425C1.35687 16.8438 1.28539 16.8344 1.21582 16.8097C1.11165 16.7727 1.03634 16.6898 0.991301 16.5917C0.950953 16.5037 0.94165 16.4035 0.979606 16.3128C1.02935 16.194 1.14156 16.1069 1.24861 16.0416C1.51247 15.8807 1.82004 15.7917 2.10343 15.6693C2.66369 15.4275 3.21621 15.1643 3.79161 14.959Z" fill="#141414"/>
<path d="M22.508 7.18317C22.6311 7.17833 22.7653 7.18062 22.8686 7.25733C22.9454 7.31446 23.0154 7.41374 23.0285 7.50871C23.0434 7.61751 22.9953 7.71831 22.9259 7.79913C22.6919 8.07199 20.5454 8.98853 20.1454 9.02667C20.106 9.03575 20.0555 9.02992 20.0165 9.02045C19.9388 9.00146 19.8992 8.96367 19.8588 8.89945L19.8649 8.94053C19.8179 8.90732 19.7658 8.85431 19.7374 8.80367C19.6986 8.73448 19.7033 8.66109 19.7288 8.58819C19.7798 8.44267 19.9178 8.32812 20.0442 8.24851C20.3659 8.04592 20.7715 7.91852 21.1238 7.77452C21.5893 7.58425 22.0475 7.38473 22.508 7.18317Z" fill="#141414"/>
</svg>
