<svg width="33" height="32" viewBox="0 0 33 32" fill="none" xmlns="http://www.w3.org/2000/svg">
<g clip-path="url(#clip0_2261_1684)">
<path d="M22.6721 10.5312L11.7658 17.0937C11.5783 17.2031 11.5002 17.4218 11.5627 17.625L12.9846 22.7187C13.0314 22.8593 13.2346 22.8437 13.2502 22.6875L13.5627 19.1718C13.5783 18.9062 13.7033 18.6562 13.9064 18.4843L22.8127 10.7187C22.9064 10.625 22.7814 10.4531 22.6721 10.5312Z" fill="#141414"/>
<path d="M26.8594 0.1875H6.15625C3.14062 0.1875 0.6875 2.64062 0.6875 5.65625V26.3594C0.6875 29.375 3.14062 31.8281 6.15625 31.8281H26.8594C29.875 31.8281 32.3281 29.375 32.3281 26.3594V5.65625C32.3281 2.64062 29.8594 0.1875 26.8594 0.1875ZM27.7656 7.09375L23.7656 25.2656C23.625 25.875 22.9062 26.125 22.4219 25.7344L17.7344 22.0156C17.3906 21.7344 16.875 21.7813 16.5781 22.125L14.1719 24.9062C13.75 25.4062 12.9375 25.2344 12.75 24.625L10.625 18.0781C10.5312 17.8125 10.3125 17.5937 10.0469 17.5312L5.84375 16.4219C5.07812 16.2188 5 15.1562 5.73438 14.8438L26.625 6.14062C27.25 5.89062 27.9062 6.4375 27.7656 7.09375Z" fill="#141414"/>
</g>
<defs>
<clipPath id="clip0_2261_1684">
<rect width="32" height="32" fill="white" transform="translate(0.5)"/>
</clipPath>
</defs>
</svg>
