<svg width="24" height="24" viewBox="0 0 24 24" fill="none" xmlns="http://www.w3.org/2000/svg">
<path d="M20.8 8.8623H3.19997C2.91707 8.8623 2.64576 8.98218 2.44572 9.19555C2.24568 9.40893 2.1333 9.69833 2.1333 10.0001V23.0845H21.8666V10.0001C21.8666 9.69833 21.7543 9.40893 21.5542 9.19555C21.3542 8.98218 21.0829 8.8623 20.8 8.8623Z" fill="#F3F3F1"/>
<path d="M5.59997 8.8623H3.19997C2.91707 8.8623 2.64576 8.98218 2.44572 9.19555C2.24568 9.40893 2.1333 9.69833 2.1333 10.0001V23.0845H4.5333V10.0001C4.5333 9.69833 4.64568 9.40893 4.84572 9.19555C5.04576 8.98218 5.31707 8.8623 5.59997 8.8623Z" fill="#D5DBE1"/>
<path d="M12 13.9822C15.3874 13.9822 18.1334 11.0531 18.1334 7.43993C18.1334 3.82676 15.3874 0.897705 12 0.897705C8.61269 0.897705 5.8667 3.82676 5.8667 7.43993C5.8667 11.0531 8.61269 13.9822 12 13.9822Z" fill="#2FDF84"/>
<path d="M12.0002 14.8355C8.17729 14.8355 5.06689 11.5178 5.06689 7.43999C5.06689 3.36219 8.17729 0.0444336 12.0002 0.0444336C15.8232 0.0444336 18.9336 3.36219 18.9336 7.43999C18.9336 11.5178 15.8232 14.8355 12.0002 14.8355ZM12.0002 1.7511C9.05943 1.7511 6.66689 4.30314 6.66689 7.43999C6.66689 10.5768 9.05943 13.1289 12.0002 13.1289C14.941 13.1289 17.3336 10.5768 17.3336 7.43999C17.3336 4.30314 14.941 1.7511 12.0002 1.7511Z" fill="#141414"/>
<path d="M13.3013 10.0353L11.4347 8.04417C11.3603 7.96504 11.3013 7.87105 11.261 7.76758C11.2208 7.6641 11.2 7.55318 11.2 7.44114V4.31226H12.8V7.08729L14.432 8.8281L13.3013 10.0353ZM0 22.2311H24V23.9378H0V22.2311Z" fill="#141414"/>
<path d="M22.6668 23.0843H21.0668V9.9999C21.0668 9.92446 21.0387 9.85211 20.9887 9.79877C20.9387 9.74542 20.8709 9.71546 20.8002 9.71546V8.00879C21.8295 8.00879 22.6668 8.90194 22.6668 9.9999V23.0843ZM2.9335 23.0843H1.3335V9.9999C1.3335 8.90194 2.17083 8.00879 3.20016 8.00879V9.71546C3.12944 9.71546 3.06161 9.74542 3.0116 9.79877C2.96159 9.85211 2.9335 9.92446 2.9335 9.9999V23.0843Z" fill="#141414"/>
</svg>
